<svg width="16" height="16" viewBox="0 0 16 16" fill="none" xmlns="http://www.w3.org/2000/svg">
<g clip-path="url(#clip0_5_196)">
<path d="M16 8C16 12.4183 12.4183 16 8 16C3.58175 16 0 12.4183 0 8C0 8.00187 8 0.00090625 8 0C12.4183 0 16 3.58175 16 8Z" fill="#0052B4"/>
<path d="M7.97852 8.00027H7.99996C7.99996 7.99301 7.99996 7.98606 7.99996 7.97883C7.99283 7.986 7.98569 7.99313 7.97852 8.00027Z" fill="#F0F0F0"/>
<path d="M7.99981 4.17445C7.99981 2.76679 7.99981 1.84439 7.99981 0.000541687H7.99847C3.58081 0.00126044 -0.000183105 3.58267 -0.000183105 8.00051H4.17372V5.65013L6.52409 8.00051H7.97844C7.98559 7.99338 7.99272 7.98626 7.99984 7.9791C7.99984 7.44013 7.99984 6.95923 7.99984 6.52485L5.64944 4.17445H7.99981Z" fill="#F0F0F0"/>
<path d="M4.04739 1.04381C2.79617 1.75628 1.75599 2.79646 1.04352 4.04768V8.00034H3.13049V3.13081V3.13078H8.00005C8.00005 2.47256 8.00005 1.8455 8.00005 1.04381H4.04739Z" fill="#D80027"/>
<path d="M8.00025 7.0166L5.15797 4.17435H4.17419C4.17419 4.17431 4.17419 4.17435 4.17419 4.17435L8.00022 8.00038H8.00025C8.00025 8.00038 8.00025 7.3221 8.00025 7.0166Z" fill="#D80027"/>
<path d="M4.82504 9.39096L5.26411 10.309L6.25557 10.0799L5.81157 10.9956L6.60889 11.6278L5.61617 11.8516L5.61895 12.8692L4.82504 12.2326L4.03117 12.8692L4.03395 11.8516L3.0412 11.6278L3.83854 10.9956L3.39448 10.0799L4.38601 10.309L4.82504 9.39096Z" fill="#F0F0F0"/>
<path d="M11.9781 11.1302L12.1976 11.5893L12.6934 11.4747L12.4713 11.9325L12.87 12.2487L12.3736 12.3606L12.375 12.8694L11.9781 12.551L11.5811 12.8694L11.5825 12.3606L11.0862 12.2487L11.4848 11.9325L11.2628 11.4747L11.7586 11.5893L11.9781 11.1302Z" fill="#F0F0F0"/>
<path d="M9.93564 6.26094L10.1551 6.72L10.6509 6.60538L10.4289 7.06322L10.8275 7.37938L10.3312 7.49125L10.3325 8.00007L9.93564 7.68172L9.5387 8.00007L9.54004 7.49125L9.0437 7.37938L9.44236 7.06322L9.22036 6.60538L9.71611 6.72L9.93564 6.26094Z" fill="#F0F0F0"/>
<path d="M11.9781 3.47841L12.1976 3.93747L12.6934 3.82288L12.4714 4.28072L12.87 4.59685L12.3736 4.70875L12.375 5.21757L11.9781 4.89922L11.5811 5.21757L11.5825 4.70875L11.0862 4.59685L11.4848 4.28072L11.2628 3.82288L11.7586 3.93747L11.9781 3.47841Z" fill="#F0F0F0"/>
<path d="M13.7614 5.56518L13.9809 6.02424L14.4767 5.90961L14.2547 6.36746L14.6533 6.68361L14.157 6.79552L14.1583 7.3043L13.7614 6.98599L13.3645 7.3043L13.3659 6.79552L12.8695 6.68361L13.2682 6.36746L13.0462 5.90961L13.5419 6.02424L13.7614 5.56518Z" fill="#F0F0F0"/>
<path d="M12.4862 8.00022L12.6588 8.53166H13.2176L12.7655 8.86013L12.9383 9.39153L12.4862 9.0631L12.0341 9.39153L12.2068 8.86013L11.7547 8.53166H12.3135L12.4862 8.00022Z" fill="#F0F0F0"/>
</g>
<defs>
<clipPath id="clip0_5_196">
<rect width="16" height="16" fill="white"/>
</clipPath>
</defs>
</svg>
