<svg width="16" height="16" viewBox="0 0 16 16" fill="none" xmlns="http://www.w3.org/2000/svg">
<g clip-path="url(#clip0_5_244)">
<path d="M8 16C12.4183 16 16 12.4183 16 8C16 3.58172 12.4183 0 8 0C3.58172 0 0 3.58172 0 8C0 12.4183 3.58172 16 8 16Z" fill="#F0F0F0"/>
<path d="M1.65379 3.12866C1.02538 3.94626 0.551541 4.8886 0.275635 5.91232H4.43745L1.65379 3.12866Z" fill="#0052B4"/>
<path d="M15.7247 5.91242C15.4488 4.88873 14.9749 3.94639 14.3465 3.12879L11.5629 5.91242H15.7247Z" fill="#0052B4"/>
<path d="M0.275635 10.0868C0.551572 11.1105 1.02542 12.0528 1.65379 12.8704L4.43736 10.0868H0.275635Z" fill="#0052B4"/>
<path d="M12.8704 1.65318C12.0528 1.02478 11.1105 0.550932 10.0867 0.274994V4.43678L12.8704 1.65318Z" fill="#0052B4"/>
<path d="M3.12927 14.3451C3.94687 14.9735 4.88921 15.4474 5.9129 15.7233V11.5616L3.12927 14.3451Z" fill="#0052B4"/>
<path d="M5.91287 0.274994C4.88918 0.550931 3.94684 1.02477 3.12927 1.65315L5.91287 4.43674V0.274994Z" fill="#0052B4"/>
<path d="M10.0867 15.7233C11.1104 15.4474 12.0528 14.9735 12.8703 14.3452L10.0867 11.5616V15.7233Z" fill="#0052B4"/>
<path d="M11.5629 10.0868L14.3465 12.8704C14.9749 12.0529 15.4488 11.1105 15.7247 10.0868H11.5629Z" fill="#0052B4"/>
<path d="M15.9323 6.95653H9.04353H9.0435V0.0677188C8.70191 0.02325 8.35366 0 8 0C7.64628 0 7.29809 0.02325 6.95653 0.0677188V6.95647V6.9565H0.0677188C0.02325 7.29809 0 7.64634 0 8C0 8.35372 0.02325 8.70191 0.0677188 9.04347H6.95647H6.9565V15.9323C7.29809 15.9768 7.64628 16 8 16C8.35366 16 8.70191 15.9768 9.04347 15.9323V9.04353V9.0435H15.9323C15.9768 8.70191 16 8.35372 16 8C16 7.64634 15.9768 7.29809 15.9323 6.95653Z" fill="#D80027"/>
<path d="M10.087 10.0875L13.6568 13.6574C13.821 13.4933 13.9777 13.3217 14.1271 13.1438L11.0708 10.0875H10.087V10.0875Z" fill="#D80027"/>
<path d="M5.91305 10.0875H5.91298L2.34314 13.6573C2.50726 13.8215 2.67886 13.9781 2.85673 14.1276L5.91305 11.0712V10.0875Z" fill="#D80027"/>
<path d="M5.91293 5.91275V5.91269L2.34305 2.34278C2.17887 2.50691 2.02224 2.6785 1.8728 2.85637L4.92915 5.91272H5.91293V5.91275Z" fill="#D80027"/>
<path d="M10.087 5.91346L13.6569 2.34352C13.4928 2.17933 13.3212 2.02271 13.1433 1.8733L10.087 4.92965V5.91346Z" fill="#D80027"/>
</g>
<defs>
<clipPath id="clip0_5_244">
<rect width="16" height="16" fill="white"/>
</clipPath>
</defs>
</svg>
