<svg width="41" height="40" viewBox="0 0 41 40" fill="none" xmlns="http://www.w3.org/2000/svg">
<g clip-path="url(#clip0_479_4938)">
<path d="M0.0117188 11.919V39.985L7.21172 39.998C9.83972 34.884 11.4817 32.351 11.8907 31.711C13.0945 29.7144 14.4253 27.7971 15.8747 25.971C16.1018 25.6652 16.3889 25.4091 16.7186 25.2184C17.0483 25.0277 17.4135 24.9064 17.7917 24.862C18.2441 24.8563 18.6942 24.9277 19.1227 25.073C20.1188 26.279 21.4444 27.1689 22.9377 27.634C23.3288 27.7433 23.7281 27.8209 24.1317 27.866C24.4067 28.089 24.7867 28.409 25.2227 28.809C26.2975 29.8198 27.2775 30.9268 28.1507 32.116C29.2475 33.5915 30.2515 35.1338 31.1567 36.734L31.1617 36.747C31.3911 37.2006 31.6518 37.6376 31.9417 38.055C32.1492 38.2865 32.403 38.4717 32.6868 38.5985C32.9706 38.7253 33.2779 38.7909 33.5887 38.791C33.6092 38.9371 33.6683 39.0751 33.7599 39.1907C33.8515 39.3064 33.9722 39.3955 34.1097 39.449L35.0097 39.806C35.3071 39.9244 35.634 39.9468 35.9447 39.87L36.3747 39.764L36.9747 39.617C37.1518 39.5739 37.3173 39.4927 37.4598 39.379C37.6023 39.2654 37.7183 39.1221 37.7997 38.959L39.0497 36.432C39.2577 36.018 39.7057 35.232 39.7057 35.232C39.8581 35.0254 39.958 34.7848 39.9969 34.531C40.0357 34.2772 40.0123 34.0178 39.9287 33.775C39.8667 33.41 39.4687 31.661 39.2987 30.939C38.1399 25.9844 36.6363 21.1169 34.7987 16.372C34.7207 16.089 34.5767 15.451 34.4097 14.889C34.2867 14.477 34.0927 13.833 33.7867 13.058C33.4606 12.1549 33.0505 11.2845 32.5617 10.458C32.1671 9.79838 31.7017 9.18374 31.1737 8.62502L31.1317 8.58302C31.3917 8.16402 31.5797 7.82403 31.7997 7.41203C32.9698 5.38079 33.522 3.05238 33.3887 0.712029C32.1137 1.49903 30.7997 3.78303 29.9947 5.19903C30.5807 3.53146 30.8249 1.76298 30.7127 -0.000976562C29.3063 0.855153 28.0829 1.98071 27.1127 3.31103C26.5844 4.05378 26.1372 4.851 25.7787 5.68903L25.7297 5.67802C23.625 5.21385 21.4618 5.07323 19.3147 5.26102C13.5567 5.60602 7.04272 8.42202 5.84272 8.94202C3.83763 9.80915 1.88999 10.8035 0.0117188 11.919Z" fill="#93594C"/>
<path d="M32.3409 15.39C31.2798 15.1572 30.195 15.0498 29.1089 15.07C29.4209 19.058 32.6149 18.576 33.7719 17.641C33.2279 16.7 32.7219 15.937 32.3409 15.39Z" fill="#4C2E22"/>
<path d="M29.8589 15.0869C29.8829 17.9869 32.4969 17.8419 33.3649 16.9579C32.9779 16.3259 32.6249 15.7969 32.3409 15.3899C31.5278 15.1948 30.6951 15.0931 29.8589 15.0869Z" fill="#241711"/>
<path d="M31.3471 16.5271C31.5288 16.5271 31.6761 16.3798 31.6761 16.1981C31.6761 16.0164 31.5288 15.8691 31.3471 15.8691C31.1654 15.8691 31.0181 16.0164 31.0181 16.1981C31.0181 16.3798 31.1654 16.5271 31.3471 16.5271Z" fill="#FCFBFA"/>
<path d="M31.7227 33.5461C32.5583 35.2093 33.1854 36.9692 33.5897 38.7861C33.6102 38.9322 33.6693 39.0702 33.7609 39.1858C33.8524 39.3015 33.9732 39.3906 34.1107 39.4441L35.0107 39.8011C35.308 39.9194 35.6349 39.9418 35.9457 39.8651L36.9747 39.6121C37.1517 39.569 37.3173 39.4878 37.4597 39.3741C37.6022 39.2605 37.7182 39.1171 37.7997 38.9541L39.0567 36.4201C39.2647 36.0061 39.7127 35.2201 39.7127 35.2201C39.849 34.9875 39.9428 34.7326 39.9897 34.4671C40.0037 34.2324 39.9855 33.9969 39.9357 33.7671C39.8667 33.4031 39.7797 33.0421 39.6797 32.5951C39.5907 32.1761 39.4797 31.6551 39.3037 30.9331C37.6797 32.3421 37.2377 34.9191 36.8657 38.1481C36.2496 36.7184 35.5483 35.3269 34.7657 33.9811C33.9713 33.3807 33.0704 32.9362 32.1107 32.6711C32.0567 32.7831 31.8937 33.1281 31.7227 33.5461Z" fill="#84463C"/>
<path d="M35.9408 39.87C35.4596 38.0318 34.7327 36.2669 33.7798 34.623C33.7607 34.5955 33.7505 34.5629 33.7505 34.5295C33.7505 34.4961 33.7607 34.4634 33.7798 34.436C33.8053 34.4005 33.8437 34.3766 33.8867 34.3693C33.9298 34.362 33.974 34.3719 34.0098 34.397C34.0753 34.4423 34.1384 34.491 34.1988 34.543C34.2314 34.5716 34.2592 34.6053 34.2808 34.643C35.1759 36.2617 35.8764 37.9807 36.3678 39.764L35.9408 39.87Z" fill="#663831"/>
<path d="M25.08 26.5171C23.7154 26.4391 22.4037 25.9628 21.307 25.1471C20.341 24.4258 19.5549 23.4908 19.0102 22.4152C18.4654 21.3397 18.1769 20.1527 18.167 18.9471C18.0771 18.2093 18.0688 17.4638 18.142 16.7241C18.011 17.0241 16.358 21.0001 18.603 24.4001C19.6488 25.9279 21.1715 27.0659 22.933 27.6361C23.3241 27.7454 23.7234 27.823 24.127 27.8681C25.4644 28.0468 26.8252 27.8574 28.063 27.3201C29.2385 26.7939 30.2514 25.962 30.996 24.9111C29.2674 26.111 27.178 26.6782 25.08 26.5171Z" fill="#93594C"/>
<path d="M39.3071 30.9381C38.411 27.3961 37.1248 23.9645 35.4721 20.7061C34.9191 19.6211 34.3491 18.6001 33.7721 17.6411L33.3521 19.6351C35.6699 23.6903 36.9989 28.235 37.2311 32.9001C37.2702 33.8333 37.2619 34.7678 37.2061 35.7001C37.5641 33.6241 38.1191 31.9681 39.3071 30.9381Z" fill="#A56D62"/>
<path d="M32.3389 15.3889C32.7199 15.9359 33.2259 16.6999 33.7699 17.6409C34.3489 18.5999 34.9189 19.6209 35.4699 20.7059C37.1219 23.9644 38.4074 27.3961 39.3029 30.9379C38.1441 25.9833 36.6404 21.1158 34.8029 16.3709C34.4489 16.2579 33.9869 16.0979 33.4579 15.8819C33.1799 15.7699 32.7999 15.6109 32.3389 15.3889Z" fill="#BC8A86"/>
<path d="M37.2308 32.9C36.9981 28.2347 35.6684 23.69 33.3498 19.635C33.2498 20.085 33.1118 20.557 32.9498 21.047C32.4769 22.4344 31.8092 23.7475 30.9668 24.947L30.9958 24.908C30.9828 25.2489 30.9918 25.5903 31.0228 25.93C31.0955 26.5797 31.2339 27.2203 31.4358 27.842C32.321 30.0029 33.4382 32.0613 34.7678 33.981C35.5583 35.3232 36.2598 36.7159 36.8678 38.15C36.9678 37.283 37.0728 36.463 37.2048 35.7C37.261 34.7677 37.2696 33.8332 37.2308 32.9Z" fill="#93594C"/>
<path d="M18.1601 18.946C18.17 20.1516 18.4585 21.3385 19.0033 22.4141C19.548 23.4896 20.3341 24.4246 21.3001 25.146C22.3967 25.9618 23.7085 26.4381 25.0731 26.516C27.171 26.679 29.2611 26.114 30.9911 24.916C31.821 23.7257 32.4794 22.4246 32.9471 21.051C33.1141 20.561 33.2471 20.089 33.3471 19.639L33.7671 17.645C33.2231 16.704 32.7171 15.945 32.3361 15.394C31.275 15.1612 30.1902 15.0538 29.1041 15.074C28.9191 14.692 27.5151 12.026 26.3951 10.292C26.2841 10.355 26.1721 10.415 26.0521 10.472C25.5916 10.6961 25.1116 10.8775 24.6181 11.014C24.4871 11.035 24.2701 11.087 23.9391 11.135H23.9231C23.7951 11.153 23.6491 11.172 23.4841 11.191L23.2981 11.211C21.8511 11.722 19.6531 12.969 18.1301 16.722C18.0585 17.4622 18.0686 18.208 18.1601 18.946Z" fill="#AF7972"/>
<path d="M28.2119 27.246C29.2658 28.3301 30.2088 29.5166 31.0269 30.788C31.4439 31.437 31.8029 32.071 32.1119 32.671C33.0706 32.9365 33.9706 33.3802 34.7649 33.979C33.4311 32.0619 32.3137 30.003 31.4329 27.84C31.231 27.2183 31.0926 26.5777 31.0199 25.928C30.9889 25.5883 30.9799 25.2469 30.9929 24.906C30.7731 25.2189 30.5272 25.5126 30.2579 25.784C29.668 26.3888 28.9752 26.8839 28.2119 27.246Z" fill="#663831"/>
<path d="M31.1549 36.746C31.3843 37.1996 31.6449 37.6366 31.9348 38.054C32.1423 38.2855 32.3962 38.4707 32.68 38.5975C32.9637 38.7243 33.271 38.7899 33.5819 38.79C33.1771 36.9733 32.5501 35.2134 31.7149 33.55C31.4813 34.0761 31.2878 34.6189 31.1359 35.174C31.1239 35.232 31.1098 35.291 31.0998 35.348C31.0379 35.6928 31.0248 36.0446 31.0608 36.393C31.0819 36.5132 31.1134 36.6313 31.1549 36.746Z" fill="#663831"/>
<path d="M24.125 27.868C24.401 28.091 24.781 28.411 25.217 28.811C26.2918 29.8217 27.2718 30.9287 28.145 32.118C29.2418 33.5935 30.2457 35.1358 31.151 36.736C31.1118 36.6247 31.082 36.5103 31.062 36.394C31.0261 36.0456 31.0389 35.6939 31.1 35.349C31.3463 34.4263 31.685 33.5307 32.111 32.676C31.802 32.076 31.443 31.442 31.026 30.793C30.2079 29.5216 29.2649 28.335 28.211 27.251L28.06 27.32C26.8225 27.8567 25.4621 28.0461 24.125 27.868Z" fill="#4C2E22"/>
<path d="M39.6801 32.6091C39.7801 33.0561 39.8671 33.4171 39.9361 33.7811C39.9859 34.0109 40.0041 34.2464 39.9901 34.4811C39.9432 34.7466 39.8494 35.0016 39.7131 35.2341C39.7131 35.2341 39.2651 36.0171 39.0571 36.4341C38.6476 35.8393 38.4838 35.1092 38.5999 34.3964C38.716 33.6837 39.103 33.0433 39.6801 32.6091Z" fill="#663831"/>
<path d="M39.9369 33.7861V33.7721C39.8679 33.4081 39.7809 33.0471 39.6809 32.6001C39.2697 32.9154 38.953 33.3376 38.7652 33.8206C38.5774 34.3036 38.5258 34.8288 38.6159 35.3391C38.683 34.9881 38.84 34.6605 39.0715 34.3883C39.3031 34.1161 39.6012 33.9086 39.9369 33.7861Z" fill="#4C2E22"/>
<path d="M27.1938 9.74599C28.0803 11.7805 29.4987 13.5385 31.2999 14.835C31.9914 15.2397 32.7128 15.5911 33.4578 15.886C33.9868 16.102 34.4488 16.262 34.8028 16.375C32.2338 11.538 29.8778 9.475 28.2338 8.646C27.9315 9.0522 27.5825 9.4214 27.1938 9.74599Z" fill="#A56D62"/>
<path d="M32.3409 15.39C31.2798 15.1572 30.195 15.0498 29.1089 15.07C29.4209 19.058 32.6149 18.576 33.7719 17.641C33.2279 16.7 32.7219 15.937 32.3409 15.39Z" fill="#663831"/>
<path d="M29.8589 15.0869C29.8829 17.9869 32.4969 17.8419 33.3649 16.9579C32.9779 16.3259 32.6249 15.7969 32.3409 15.3899C31.5278 15.1948 30.6951 15.0931 29.8589 15.0869Z" fill="black"/>
<path d="M31.3471 16.5271C31.5288 16.5271 31.6761 16.3798 31.6761 16.1981C31.6761 16.0164 31.5288 15.8691 31.3471 15.8691C31.1654 15.8691 31.0181 16.0164 31.0181 16.1981C31.0181 16.3798 31.1654 16.5271 31.3471 16.5271Z" fill="#FCFBFA"/>
<path d="M26.4009 10.2871C27.5189 12.0221 28.9249 14.6871 29.1099 15.0691C30.196 15.0489 31.2808 15.1563 32.3419 15.3891C32.0239 15.2311 31.6729 15.0511 31.2999 14.8311C29.5009 13.5329 28.0827 11.7763 27.1929 9.74414C26.9453 9.94801 26.6803 10.1297 26.4009 10.2871Z" fill="#84463C"/>
<path d="M6.25098 40.002H7.20798C9.83598 34.888 11.478 32.355 11.887 31.715C13.0908 29.7184 14.4215 27.8011 15.871 25.975C16.098 25.6692 16.3852 25.4131 16.7149 25.2223C17.0445 25.0316 17.4097 24.9103 17.788 24.866C18.2384 24.8591 18.6866 24.9298 19.113 25.075C18.819 24.719 18.64 24.461 18.6 24.4C17.8671 23.2792 17.4625 21.9757 17.432 20.637C15.962 23.331 14.126 25.261 13 27.177C10.3951 31.2554 8.13745 35.5455 6.25098 40.002Z" fill="#663831"/>
<path d="M5.97998 40.003H6.24798C6.57298 39.189 6.94798 38.354 7.35698 37.51C8.99678 33.9401 10.8833 30.4887 13.003 27.1811C14.13 25.2631 15.969 23.335 17.439 20.635C17.4019 19.2978 17.6402 17.9673 18.139 16.7261C19.662 12.9731 21.86 11.726 23.307 11.215C23.2665 11.219 23.226 11.2072 23.194 11.1821C23.1768 11.169 23.1624 11.1527 23.1516 11.134C23.1407 11.1154 23.1337 11.0948 23.1308 11.0735C23.1279 11.0521 23.1293 11.0304 23.1348 11.0096C23.1403 10.9887 23.1499 10.9692 23.163 10.952C23.34 10.722 23.495 10.509 23.64 10.3C15.574 11.487 7.76098 26.683 5.97998 40.003Z" fill="#A56D62"/>
<path d="M28.316 8.51604C28.286 8.55804 28.261 8.60004 28.23 8.64204C29.874 9.47104 32.23 11.534 34.799 16.371C33.05 11.871 30.154 8.45004 28.917 7.57104C28.827 7.73904 28.724 7.90804 28.617 8.07704C28.6 8.10504 28.581 8.13204 28.564 8.15904C28.486 8.27904 28.4033 8.39804 28.316 8.51604Z" fill="#BC8A86"/>
<path d="M33.3889 0.713135C33.2183 1.41749 33.0039 2.1105 32.7469 2.78813C32.7029 2.90513 32.6469 3.03813 32.5829 3.17713C32.3341 3.79755 32.05 4.40321 31.7319 4.99113C31.5519 5.31913 30.3319 7.32913 30.0649 7.66213C30.4465 7.93709 30.8031 8.24493 31.1309 8.58213C31.3789 8.20013 31.5659 7.84313 31.7999 7.41213C32.9698 5.38119 33.522 3.05315 33.3889 0.713135Z" fill="black"/>
<path d="M34.7679 16.2871L34.7989 16.3511C34.7699 16.2271 34.5809 15.4511 34.4139 14.8891C34.2909 14.4771 34.0969 13.8331 33.7909 13.0581C33.4648 12.155 33.0547 11.2845 32.5659 10.4581C32.1713 9.79846 31.7058 9.18382 31.1779 8.62511C30.5879 8.01482 29.9093 7.497 29.1649 7.08911C29.0739 7.27111 28.9209 7.57111 28.9209 7.57111C30.1539 8.45311 33.0189 11.8381 34.7679 16.2871Z" fill="black"/>
<path d="M29.5797 6.21413C29.3657 6.69813 29.1517 7.11414 29.1657 7.08614C29.4761 7.25992 29.7766 7.45088 30.0657 7.65813C30.245 7.41786 30.4119 7.16853 30.5657 6.91113C30.9837 6.24313 31.5527 5.32613 31.7367 4.98613C32.1248 4.2768 32.4639 3.54175 32.7517 2.78613C33.0068 2.10891 33.2198 1.41659 33.3897 0.713135C32.1147 1.50013 30.8007 3.78413 29.9957 5.20013C29.9527 5.32313 29.7637 5.80013 29.5797 6.21413Z" fill="#4C2E22"/>
<path d="M0.00878906 39.9891L5.97879 40.0001C7.76079 26.6791 15.5788 11.4791 23.6428 10.3001C24.21 9.48159 24.6719 8.59496 25.0178 7.66111C13.1828 5.90011 1.79079 19.5431 0.00878906 22.6361V39.9891Z" fill="#93594C"/>
<path d="M0.00878906 22.6359C1.79079 19.5429 13.1828 5.89993 25.0178 7.65393C25.2048 7.16893 25.3728 6.69493 25.5668 6.19493C24.9455 6.04971 24.315 5.94714 23.6798 5.88792C22.932 5.82094 22.1801 5.81091 21.4308 5.85792C16.5805 6.25196 11.8515 7.57606 7.50179 9.75792C5.55879 10.6579 0.226789 13.7269 0.00878906 13.8579V22.6359Z" fill="#A56D62"/>
<path d="M0.00683594 13.8621C0.224836 13.7271 5.55683 10.6531 7.49983 9.76207C11.8509 7.58297 16.5805 6.26097 21.4308 5.86807C22.1802 5.82106 22.932 5.83109 23.6798 5.89807C24.3151 5.95729 24.9456 6.05986 25.5668 6.20507C25.6335 6.03707 25.7038 5.86673 25.7778 5.69407C22.7363 5.02415 19.5891 4.9901 16.5338 5.59407C10.7047 6.73987 5.11526 8.8772 0.00883484 11.9131L0.00683594 13.8621Z" fill="black"/>
<path d="M18.48 24.9149C18.6916 24.9547 18.9003 25.0081 19.105 25.0749C19.7565 25.8428 20.5343 26.4939 21.405 26.9999C22.2398 27.471 23.1619 27.7667 24.115 27.8689C24.315 28.0309 24.698 28.3559 24.828 28.4689C31.374 28.3629 35.744 23.1939 36.828 22.0939C36.768 21.8799 35.659 18.4859 34.796 16.3709C34.2999 13.9538 33.3468 11.6536 31.988 9.5939C31.7185 9.24207 31.4311 8.90429 31.127 8.5819C31.375 8.1999 31.562 7.8429 31.796 7.4119C32.9661 5.38067 33.5183 3.05226 33.385 0.711906C32.11 1.49891 30.796 3.7829 29.985 5.2039C29.901 5.4339 29.956 5.3039 29.985 5.2039C30.5729 3.53679 30.8182 1.7681 30.706 0.00390625C30.612 0.0909062 30.518 0.182907 30.425 0.279907C30.518 0.179907 30.612 0.0889063 30.706 0.00390625C29.2962 0.858479 28.0681 1.98298 27.094 3.3129C26.5652 4.05748 26.1173 4.85634 25.758 5.69591C24.5564 5.40572 23.3284 5.2382 22.093 5.19591C21.8411 8.5832 21.396 11.9533 20.76 15.2899C20.129 18.9139 18.48 24.9149 18.48 24.9149ZM28.29 16.7879C28.291 16.0033 28.6037 15.2512 29.1591 14.6971C29.7146 14.143 30.4674 13.8321 31.252 13.8329C31.912 13.8307 32.5534 14.0509 33.073 14.4579C33.496 14.8543 33.7921 15.3672 33.9236 15.9318C34.0552 16.4964 34.0163 17.0874 33.812 17.6299C33.6411 18.1971 33.3061 18.701 32.8493 19.0781C32.3925 19.4552 31.8343 19.6886 31.245 19.7489C30.4612 19.747 29.7101 19.4342 29.1568 18.879C28.6035 18.3238 28.2932 17.5717 28.294 16.7879H28.29Z" fill="#C23616"/>
<path d="M18.4849 24.9139C19.1379 22.4079 19.9019 19.6139 20.5759 16.2509C21.2771 12.5904 21.7858 8.89566 22.0999 5.18188C22.2999 5.18988 22.5179 5.20288 22.7549 5.21888C22.1429 11.9338 20.9229 18.5794 19.1099 25.0739C18.9048 25.0086 18.6961 24.9552 18.4849 24.9139Z" fill="black"/>
<path d="M24.1299 27.869C26.9179 27.981 31.5799 26.869 36.3799 21.615L36.6029 21.385L36.8389 22.093C32.4659 26.909 28.4519 28.403 24.8389 28.471C24.5799 28.246 24.1249 27.869 24.1299 27.869Z" fill="black"/>
<path d="M27.98 16.7878C27.9796 17.219 28.0641 17.6459 28.2287 18.0444C28.3934 18.4429 28.6348 18.805 28.9394 19.1101C29.244 19.4153 29.6057 19.6574 30.0039 19.8228C30.402 19.9881 30.8289 20.0734 31.26 20.0738C31.914 20.0071 32.5336 19.7481 33.0405 19.3295C33.5474 18.9109 33.9189 18.3515 34.108 17.7218C34.3349 17.1198 34.3782 16.464 34.2322 15.8374C34.0862 15.2108 33.7576 14.6416 33.288 14.2018C32.7115 13.7499 31.9995 13.5055 31.267 13.5078C30.3963 13.5073 29.561 13.8525 28.9446 14.4675C28.3283 15.0825 27.9813 15.9171 27.98 16.7878ZM28.293 16.7878C28.294 16.0032 28.6067 15.2512 29.1621 14.697C29.7176 14.1429 30.4704 13.832 31.255 13.8328C31.915 13.8306 32.5564 14.0508 33.076 14.4578C33.4991 14.8542 33.7951 15.3671 33.9266 15.9317C34.0582 16.4964 34.0193 17.0873 33.815 17.6298C33.6441 18.197 33.3091 18.7009 32.8523 19.078C32.3955 19.4551 31.8373 19.6885 31.248 19.7488C30.4636 19.7478 29.7118 19.4352 29.1579 18.88C28.6039 18.3247 28.2922 17.5722 28.293 16.7878Z" fill="black"/>
<path d="M27.852 9.39079C27.5812 9.83125 27.2228 10.2114 26.799 10.5078C26.1816 10.9555 25.4765 11.2676 24.73 11.4238C24.3484 11.5181 23.9592 11.5794 23.567 11.6068L23.54 11.1668C23.8451 11.1397 24.1479 11.0909 24.446 11.0208C24.7638 10.9448 25.0758 10.8469 25.38 10.7278C25.6428 10.6266 25.8996 10.5104 26.149 10.3798C26.4571 10.2267 26.7486 10.0424 27.019 9.82979C27.174 9.70579 27.347 9.54979 27.431 9.47279C27.56 9.35579 27.648 9.27979 27.742 9.17979C27.9128 9.00616 28.0662 8.81626 28.2 8.61279C28.1162 8.88533 27.9993 9.1466 27.852 9.39079Z" fill="#AF250E"/>
<path d="M25.7679 5.688C26.9648 5.98698 28.113 6.45502 29.1779 7.078C29.9594 7.51335 30.668 8.06842 31.2779 8.723C33.1859 10.714 34.3309 14.258 34.8059 16.408C34.1815 15.1908 33.48 14.0148 32.7059 12.887C31.5309 11.1829 30.0174 9.73924 28.2599 8.646C26.4871 7.77678 24.5185 7.38423 22.5479 7.507C22.5799 7.307 22.7479 5.41899 22.7539 5.21899C23.7697 5.29255 24.7777 5.44941 25.7679 5.688Z" fill="#E0452B"/>
<path d="M19.106 25.074C19.127 25.1 19.163 25.142 19.2 25.183C19.6211 25.6578 20.0903 26.0878 20.6 26.466C21.0709 26.8236 21.5845 27.1212 22.129 27.352C22.7681 27.6167 23.4414 27.7901 24.129 27.867C26.643 27.967 30.683 27.067 34.967 23.041C33.313 24.315 24.629 30.158 19.574 23.351C19.422 23.9 19.257 24.527 19.106 25.074Z" fill="#AF250E"/>
<path d="M23.1251 11.0529C23.1264 11.0749 23.132 11.0965 23.1417 11.1163C23.1513 11.1362 23.1648 11.1539 23.1814 11.1685C23.1979 11.1831 23.2172 11.1943 23.2381 11.2014C23.259 11.2085 23.2811 11.2114 23.3031 11.2099C23.7466 11.1687 24.1873 11.1019 24.6231 11.0099C25.1172 10.8747 25.5974 10.6929 26.0571 10.4669C27.2968 9.82901 28.3016 8.81339 28.9261 7.56688C28.9341 7.55188 29.3841 6.66088 29.4341 6.55188C29.5251 6.35188 29.6081 6.16088 29.6851 5.98388C29.7991 5.72188 29.9014 5.46221 29.9921 5.20488C30.5801 3.53776 30.8253 1.76908 30.7131 0.00488281C30.6191 0.0918828 30.5251 0.183884 30.4321 0.280884C30.5251 0.180884 30.6191 0.0898828 30.7131 0.00488281C29.3052 0.859143 28.0788 1.98296 27.1061 3.31188C25.5211 5.56688 25.4061 7.01188 24.5061 8.82888C24.2932 9.25927 24.0527 9.67547 23.7861 10.0749C23.6021 10.3479 23.3971 10.6359 23.1571 10.9479C23.135 10.9783 23.1237 11.0153 23.1251 11.0529Z" fill="#C23616"/>
<path d="M31.1312 8.58191C31.3792 8.19991 31.5662 7.84291 31.8002 7.41191C32.9703 5.38068 33.5225 3.05226 33.3892 0.711914C32.1142 1.49891 30.8002 3.78291 29.9952 5.20391C29.9532 5.32191 29.7642 5.80391 29.5792 6.21591C29.3652 6.69991 29.1512 7.11591 29.1652 7.08791C29.8738 7.51164 30.5332 8.01271 31.1312 8.58191Z" fill="#AF250E"/>
<path d="M29.6221 33.1711C29.6221 32.6327 29.8359 32.1164 30.2166 31.7357C30.5973 31.355 31.1137 31.1411 31.6521 31.1411C32.1905 31.1411 32.7068 31.355 33.0875 31.7357C33.4682 32.1164 33.6821 32.6327 33.6821 33.1711C33.6821 33.7095 33.4682 34.2259 33.0875 34.6066C32.7068 34.9873 32.1905 35.2011 31.6521 35.2011C31.1137 35.2011 30.5973 34.9873 30.2166 34.6066C29.8359 34.2259 29.6221 33.7095 29.6221 33.1711ZM31.6521 31.3481C31.1684 31.3484 30.7045 31.5404 30.3622 31.8822C30.0199 32.2239 29.8271 32.6874 29.8261 33.1711C29.8259 33.4107 29.873 33.648 29.9646 33.8694C30.0562 34.0909 30.1906 34.2921 30.36 34.4615C30.5293 34.631 30.7305 34.7655 30.9518 34.8572C31.1732 34.9489 31.4105 34.9961 31.6501 34.9961C31.8897 34.9963 32.1271 34.9492 32.3485 34.8576C32.57 34.766 32.7713 34.6317 32.9408 34.4623C33.1104 34.2929 33.2449 34.0918 33.3368 33.8704C33.4286 33.6491 33.4759 33.4118 33.4761 33.1721C33.4761 32.6882 33.284 32.224 32.942 31.8817C32.5999 31.5393 32.136 31.3466 31.6521 31.3461V31.3481Z" fill="#E5E8EA"/>
<path d="M33.4739 33.9151L33.5289 33.9431C33.6296 33.6982 33.6812 33.4359 33.6809 33.1711C33.6807 32.9046 33.6281 32.6408 33.526 32.3947C33.424 32.1486 33.2744 31.925 33.0859 31.7366C32.8974 31.5483 32.6736 31.399 32.4274 31.2971C32.1812 31.1953 31.9173 31.1429 31.6509 31.1431C31.4823 31.1431 31.3144 31.1639 31.1509 31.2051C31.2898 31.1868 31.4298 31.1774 31.5699 31.1771C32.1079 31.1781 32.6237 31.3923 33.0041 31.7728C33.3846 32.1533 33.5988 32.669 33.5999 33.2071C33.6008 33.4487 33.5581 33.6886 33.4739 33.9151Z" fill="white"/>
<path d="M31.5719 35.034C31.8253 35.0369 32.0763 34.984 32.3069 34.879C32.0973 34.9571 31.8756 34.998 31.6519 35C31.3395 35.0014 31.032 34.9223 30.759 34.7705C30.486 34.6187 30.2566 34.3991 30.0929 34.133C29.9674 33.9289 29.8833 33.702 29.8456 33.4653C29.8078 33.2286 29.817 32.9868 29.8727 32.7537C29.9285 32.5206 30.0296 32.3008 30.1703 32.1068C30.311 31.9127 30.4886 31.7484 30.6929 31.623C30.6669 31.635 30.6409 31.649 30.6159 31.663C30.343 31.8152 30.1177 32.0401 29.965 32.3127C29.8123 32.5853 29.7382 32.8949 29.7509 33.207C29.7509 33.6906 29.9426 34.1544 30.2839 34.4968C30.6252 34.8393 31.0884 35.0325 31.5719 35.034Z" fill="white"/>
<path d="M22.127 27.3321C22.286 27.3941 22.427 27.4491 22.6 27.5141C23.458 23.5364 23.851 19.4725 23.771 15.4041C25.1096 19.8364 26.811 24.151 28.858 28.3041C29.48 29.6041 30.066 30.7701 30.566 31.7131C30.8058 31.5449 31.0784 31.4291 31.366 31.3731C31.216 31.1731 29.698 28.2161 28.005 24.3241C27.285 22.6681 26.537 20.8401 25.842 18.9901C25.675 18.5281 25.414 17.8221 25.114 16.9631C24.776 15.9761 24.414 14.8631 24.165 13.9851C26.6583 13.0006 29.0035 11.676 31.134 10.0491C31.449 9.81806 31.863 9.50206 31.907 9.46606C31.652 9.13906 31.538 9.00407 31.259 8.69807C31.097 8.82907 30.687 9.13506 30.52 9.26306C28.5001 10.8148 26.2749 12.0792 23.908 13.0201C23.5142 12.0985 23.4617 11.0668 23.76 10.1101C24.3567 9.20343 24.8365 8.22501 25.188 7.19807C25.288 6.93107 25.373 6.69806 25.431 6.53906C25.404 6.53906 21.417 9.23207 22.884 13.3811C22.971 13.6811 23.048 13.9301 23.148 14.3481C23.717 18.0001 22.68 24.9581 22.127 27.3321Z" fill="black"/>
<path d="M0 34.9V35.739C4.39207 38.0417 9.272 39.2583 14.231 39.287C15.214 39.287 16.166 39.232 17.093 39.141C19.3352 38.9232 21.5463 38.4577 23.686 37.753C25.05 37.295 26.3856 36.7568 27.686 36.141C28.761 35.61 29.729 35.084 30.536 34.61C30.3345 34.4419 30.165 34.2386 30.036 34.01C29.1764 34.5297 28.2913 35.006 27.384 35.437C26.1656 36.0038 24.9151 36.499 23.639 36.92C21.4079 37.6003 19.1184 38.0717 16.8 38.328C10.9883 38.801 5.16183 37.6121 0 34.9Z" fill="black"/>
<path d="M27.5228 36.2081C27.1368 36.3961 26.8168 36.5341 26.5688 36.6451C26.2418 36.7871 25.9688 36.8951 25.6418 37.0271C25.2418 37.1941 24.2528 37.5591 23.8718 37.6851L23.4248 37.4141C23.4248 37.4141 23.5638 37.0891 23.6248 36.9251C24.3088 36.6991 24.9738 36.4511 25.1888 36.3681C25.6058 36.2061 26.0098 36.0411 26.2758 35.9271C26.6758 35.7611 27.1068 35.5641 27.2068 35.5171C27.3168 35.7531 27.4128 35.9721 27.5228 36.2081Z" fill="#32373A"/>
<path d="M26.2801 36.7672C26.3801 36.7252 26.5391 36.6581 26.7031 36.5851L26.3911 35.8792L25.9771 36.0522L26.2801 36.7672Z" fill="black"/>
<path d="M25.7922 18.8531L25.5212 19.3331C25.5212 19.3331 25.1422 19.2141 24.9692 19.1581L24.8502 18.8211L24.7302 18.4831C24.5982 18.1161 24.4882 17.7581 24.3672 17.3961L25.1722 17.1311C25.3722 17.6881 25.7922 18.8531 25.7922 18.8531Z" fill="#32373A"/>
<path d="M28.769 28.146C28.469 27.546 27.929 26.365 27.55 25.523C27.424 25.239 27.325 24.987 27.25 24.823C27.25 24.823 27.413 24.458 27.499 24.281L28.062 24.469L29.562 27.782C29.3 27.907 28.78 28.146 28.769 28.146Z" fill="#32373A"/>
<path d="M25.2561 17.3512L24.4421 17.6132L24.3711 17.3962L25.1711 17.1282L25.2561 17.3512Z" fill="black"/>
<path d="M25.6712 18.5092L24.8432 18.7932C24.7892 18.6392 24.7322 18.4812 24.6782 18.3262C24.9502 18.2262 25.2282 18.1342 25.5002 18.0342C25.5552 18.1922 25.6112 18.3512 25.6712 18.5092Z" fill="black"/>
<path d="M27.5562 25.521C27.6362 25.7 27.7191 25.879 27.7981 26.059L28.6052 25.659C28.5252 25.485 28.4492 25.311 28.3682 25.134L27.5562 25.521Z" fill="black"/>
<path d="M28.1279 26.7872C28.2079 26.9672 28.2849 27.1352 28.3779 27.3282L29.1779 26.9281C29.0969 26.7541 29.0199 26.5741 28.9389 26.4001L28.1279 26.7872Z" fill="black"/>
<path d="M28.6538 27.894L28.9068 28.408C28.9068 28.408 29.4068 28.184 29.6978 28.051C29.5978 27.836 29.4518 27.531 29.4518 27.531L28.6538 27.894Z" fill="black"/>
<path d="M24.7948 17.6101C24.9075 17.6101 24.9988 17.5188 24.9988 17.4061C24.9988 17.2935 24.9075 17.2021 24.7948 17.2021C24.6822 17.2021 24.5908 17.2935 24.5908 17.4061C24.5908 17.5188 24.6822 17.6101 24.7948 17.6101Z" fill="black"/>
<path d="M29.1319 28.079C29.2606 28.079 29.3649 27.9747 29.3649 27.846C29.3649 27.7174 29.2606 27.613 29.1319 27.613C29.0032 27.613 28.8989 27.7174 28.8989 27.846C28.8989 27.9747 29.0032 28.079 29.1319 28.079Z" fill="black"/>
<path d="M27.3341 36.2952L27.5221 36.2042L27.2071 35.5132C27.1441 35.5422 27.0781 35.5702 27.0151 35.6002L27.3341 36.2952Z" fill="black"/>
<path d="M27.2308 36.103C27.3424 36.103 27.4328 36.0125 27.4328 35.901C27.4328 35.7894 27.3424 35.699 27.2308 35.699C27.1192 35.699 27.0288 35.7894 27.0288 35.901C27.0288 36.0125 27.1192 36.103 27.2308 36.103Z" fill="black"/>
<path d="M26.2631 35.9321L26.1001 36.0001L26.4141 36.7111L26.5761 36.6411L26.2631 35.9321Z" fill="#666666"/>
<path d="M28.58 27.7462L28.418 27.8192C28.466 27.9192 28.537 28.0682 28.596 28.1882L28.696 28.3801L28.775 28.3441C29.082 28.2011 29.722 27.9072 29.722 27.9072L29.802 27.8712L29.535 27.2852L29.374 27.3582L29.568 27.7841L28.779 28.1472L28.76 28.1102C28.7 27.9892 28.628 27.8462 28.58 27.7462Z" fill="#666666"/>
<path d="M24.146 17.2791L24.346 17.8931L24.514 17.8391L24.369 17.3911L24.645 17.3001L24.685 17.4241C24.6922 17.4463 24.7062 17.4656 24.7251 17.4792C24.744 17.4929 24.7667 17.5002 24.79 17.5001C24.8012 17.5021 24.8127 17.5021 24.824 17.5001C24.8517 17.491 24.8748 17.4712 24.888 17.4452C24.9013 17.4192 24.9038 17.389 24.895 17.3611L24.854 17.2361L25.173 17.1301L25.327 17.5571L25.493 17.4971L25.28 16.9081L25.198 16.9361L24.798 17.0691L24.763 16.9581C24.753 16.931 24.7331 16.9087 24.7073 16.8957C24.6815 16.8827 24.6517 16.88 24.624 16.8881C24.6103 16.8924 24.5977 16.8994 24.5868 16.9087C24.5758 16.9179 24.5668 16.9292 24.5603 16.942C24.5538 16.9547 24.5499 16.9687 24.5488 16.9829C24.5477 16.9972 24.5495 17.0115 24.554 17.0251L24.59 17.1371L24.229 17.2551L24.146 17.2791Z" fill="#666666"/>
<path d="M25.5554 18.1919L24.731 18.4851L24.7899 18.6509L25.6143 18.3577L25.5554 18.1919Z" fill="#666666"/>
<path d="M27.2988 35.2751L26.7598 35.5231L26.8348 35.6861L27.2138 35.5152L27.3138 35.7451L27.2138 35.7901C27.1943 35.7987 27.1777 35.8126 27.166 35.8304C27.1542 35.8481 27.1479 35.8689 27.1478 35.8902C27.1478 35.9046 27.1507 35.9189 27.1563 35.9322C27.1619 35.9455 27.1701 35.9575 27.1805 35.9676C27.1908 35.9777 27.2031 35.9856 27.2165 35.9908C27.23 35.996 27.2443 35.9986 27.2588 35.9982C27.2741 35.9988 27.2892 35.9953 27.3028 35.9881L27.4028 35.9422C27.4438 36.0342 27.4858 36.1252 27.5218 36.2032L27.4988 36.2141C27.3908 36.2671 27.2638 36.3311 27.1638 36.3741L27.2358 36.5352C27.3358 36.4922 27.4668 36.4262 27.5758 36.3732L27.7548 36.2861L27.7178 36.2081C27.6758 36.1171 27.6178 35.9941 27.5638 35.8701L27.6498 35.8322C27.6718 35.8196 27.6888 35.7998 27.698 35.7761C27.7071 35.7524 27.7077 35.7263 27.6998 35.7021C27.6904 35.6746 27.6706 35.6518 27.6446 35.6387C27.6186 35.6256 27.5885 35.6233 27.5608 35.6321L27.4718 35.6721L27.3278 35.3551L27.2988 35.2751Z" fill="#666666"/>
<path d="M29.0228 26.575L28.2178 26.966L28.2918 27.127L29.0918 26.737L29.0228 26.575Z" fill="#666666"/>
<path d="M28.454 25.321L27.645 25.721L27.716 25.879L28.528 25.488L28.454 25.321Z" fill="#666666"/>
<path d="M22.766 26.7331C22.713 26.9981 22.656 27.2761 22.599 27.5331C22.524 27.5051 22.218 27.3951 22.124 27.3501C22.187 27.0711 22.251 26.7651 22.309 26.4711C22.351 26.2531 22.393 26.0401 22.43 25.8291C22.53 25.8801 22.808 25.9881 22.9 26.0291C22.863 26.2561 22.818 26.4911 22.766 26.7331Z" fill="black"/>
<path d="M29.2021 28.268L29.0281 27.883C29.0166 27.8565 29.016 27.8265 29.0265 27.7995C29.037 27.7726 29.0577 27.7509 29.0841 27.739C29.1108 27.7274 29.141 27.7267 29.1682 27.7369C29.1955 27.7472 29.2177 27.7677 29.2301 27.794L29.4041 28.18C29.4159 28.2066 29.4168 28.2367 29.4065 28.2639C29.3962 28.291 29.3755 28.313 29.3491 28.325C29.3341 28.3323 29.3176 28.3357 29.3011 28.335C29.2798 28.335 29.259 28.3286 29.2413 28.3166C29.2237 28.3047 29.21 28.2878 29.2021 28.268Z" fill="#666666"/>
<path d="M33.7129 33.682C34.0839 33.961 34.3449 34.571 34.1519 34.829C33.9589 35.087 33.3419 35.008 32.9719 34.729C32.8097 34.6297 32.6922 34.4714 32.6443 34.2874C32.5964 34.1033 32.6217 33.9078 32.7149 33.742C32.8396 33.6022 33.0145 33.5174 33.2015 33.5062C33.3885 33.4949 33.5723 33.5581 33.7129 33.682Z" fill="#E5E8EA"/>
<path d="M34.0211 34.3462C33.9712 34.238 33.8985 34.1418 33.8081 34.0642C33.7294 33.9989 33.6372 33.9521 33.5381 33.9272C33.5028 33.9135 33.4651 33.9075 33.4273 33.9096C33.3895 33.9116 33.3527 33.9217 33.3191 33.9392C33.2984 33.9542 33.2813 33.9737 33.2691 33.9962C33.2604 34.0347 33.2435 34.071 33.2198 34.1025C33.196 34.1341 33.1657 34.1602 33.1311 34.1792C33.0955 34.198 33.0561 34.2084 33.0159 34.2097C32.9757 34.2109 32.9357 34.2028 32.8991 34.1862C32.8693 34.1705 32.8429 34.1492 32.8214 34.1232C32.8 34.0973 32.7839 34.0674 32.7741 34.0352C32.7534 33.9664 32.7599 33.8924 32.7921 33.8282C32.8219 33.7689 32.8676 33.719 32.9241 33.6842C32.9901 33.641 33.0649 33.6134 33.1431 33.6032C33.2202 33.5912 33.2988 33.5932 33.3751 33.6092C33.4502 33.6274 33.5221 33.657 33.5881 33.6972C33.6507 33.733 33.7097 33.7748 33.7641 33.8222C33.8311 33.8833 33.89 33.9529 33.9391 34.0292C34.0028 34.1175 34.0537 34.2145 34.0901 34.3172C34.1241 34.4031 34.141 34.4948 34.1401 34.5872C34.1384 34.6423 34.13 34.6971 34.1151 34.7502C34.1129 34.6104 34.0809 34.4726 34.0211 34.3462Z" fill="white"/>
</g>
<defs>
<clipPath id="clip0_479_4938">
<rect width="40.015" height="40.003" fill="white"/>
</clipPath>
</defs>
</svg>
