<svg width="41" height="40" viewBox="0 0 41 40" fill="none" xmlns="http://www.w3.org/2000/svg">
<g clip-path="url(#clip0_479_13880)">
<path d="M0.0117188 11.92V39.986L7.2117 39.999C9.8397 34.885 11.4817 32.352 11.8907 31.712C13.0946 29.7155 14.4254 27.7982 15.8747 25.972C16.1016 25.666 16.3887 25.4097 16.7184 25.219C17.0481 25.0283 17.4134 24.9071 17.7917 24.863C18.2442 24.8563 18.6945 24.9276 19.1227 25.074C20.1198 26.2788 21.445 27.1685 22.9377 27.635C23.3291 27.7431 23.7283 27.8207 24.1317 27.867C24.4067 28.09 24.7867 28.41 25.2227 28.81C26.2985 29.8198 27.2786 30.9268 28.1507 32.117C29.2487 33.5917 30.2526 35.1341 31.1567 36.735L31.1617 36.748C31.3923 37.2009 31.6529 37.6378 31.9417 38.056C32.1495 38.2871 32.4034 38.472 32.6871 38.5987C32.9708 38.7255 33.278 38.7914 33.5887 38.792C33.6098 38.9379 33.6692 39.0756 33.7607 39.1911C33.8521 39.3067 33.9726 39.396 34.1097 39.45L35.0097 39.807C35.3074 39.9239 35.6339 39.9462 35.9447 39.871L36.3747 39.765L36.9747 39.618C37.1516 39.5745 37.317 39.4931 37.4594 39.3795C37.6018 39.2659 37.7179 39.1228 37.7997 38.96L39.0497 36.433C39.2577 36.019 39.7057 35.233 39.7057 35.233C39.8583 35.0264 39.9583 34.7859 39.9971 34.532C40.036 34.2782 40.0125 34.0187 39.9287 33.776C39.8667 33.411 39.4687 31.662 39.2987 30.94C38.1412 25.9851 36.6375 21.1175 34.7987 16.373C34.7207 16.09 34.5767 15.452 34.4097 14.89C34.2867 14.478 34.0927 13.834 33.7867 13.059C33.4614 12.1556 33.0512 11.285 32.5617 10.459C32.1682 9.79861 31.7027 9.18386 31.1737 8.626L31.1317 8.584C31.3917 8.165 31.5797 7.825 31.7997 7.413C32.97 5.38183 33.5222 3.05337 33.3887 0.713C32.1137 1.5 30.7997 3.784 29.9947 5.2C30.5806 3.53242 30.8248 1.76395 30.7127 0C29.3062 0.85596 28.0827 1.98154 27.1127 3.312C26.5846 4.05486 26.1374 4.85206 25.7787 5.69L25.7297 5.679C23.6252 5.2133 21.4618 5.07267 19.3147 5.262C13.5567 5.607 7.04271 8.423 5.84271 8.943C3.83729 9.80942 1.88962 10.8038 0.0117188 11.92Z" fill="#5D5A5E"/>
<path d="M32.3409 15.3911C31.2801 15.1568 30.1951 15.0494 29.1089 15.0711C29.4179 19.0591 32.6179 18.5771 33.7719 17.6421C33.2279 16.7011 32.7179 15.9381 32.3409 15.3911Z" fill="#1D1D28"/>
<path d="M29.8569 15.0879C29.8809 17.9879 32.4949 17.8429 33.3629 16.9589C32.9759 16.3269 32.6229 15.7979 32.3389 15.3909C31.5261 15.1942 30.6932 15.0925 29.8569 15.0879Z" fill="#241711"/>
<path d="M31.3466 16.5281C31.5283 16.5281 31.6756 16.3808 31.6756 16.1991C31.6756 16.0174 31.5283 15.8701 31.3466 15.8701C31.1649 15.8701 31.0176 16.0174 31.0176 16.1991C31.0176 16.3808 31.1649 16.5281 31.3466 16.5281Z" fill="#FCFBFA"/>
<path d="M31.7178 33.552C32.5537 35.215 33.1808 36.975 33.5848 38.792C33.6059 38.9378 33.6652 39.0755 33.7567 39.1911C33.8482 39.3066 33.9686 39.3959 34.1058 39.45L35.0058 39.807C35.3035 39.9238 35.6299 39.9462 35.9408 39.871L36.9698 39.618C37.1467 39.5745 37.312 39.4931 37.4545 39.3795C37.5969 39.2659 37.713 39.1228 37.7948 38.96L39.0518 36.426C39.2598 36.012 39.7078 35.226 39.7078 35.226C39.8446 34.9937 39.9385 34.7386 39.9848 34.473C39.9989 34.2383 39.9807 34.0027 39.9308 33.773C39.8618 33.409 39.7748 33.048 39.6748 32.601C39.5858 32.182 39.4748 31.661 39.2988 30.939C37.6748 32.348 37.2328 34.925 36.8608 38.154C36.2442 36.7238 35.5416 35.3322 34.7568 33.987C33.9631 33.3854 33.062 32.9408 32.1018 32.677C32.0568 32.784 31.8938 33.129 31.7178 33.552Z" fill="#45454C"/>
<path d="M35.9407 39.8721C35.46 38.0337 34.7331 36.2688 33.7798 34.6251C33.7583 34.593 33.7488 34.5544 33.7529 34.516C33.757 34.4776 33.7744 34.4418 33.8021 34.415C33.8298 34.3881 33.866 34.3718 33.9045 34.3689C33.943 34.366 33.9813 34.3767 34.0128 34.3991C34.079 34.4434 34.1421 34.4922 34.2018 34.5451C34.2349 34.5732 34.2627 34.6071 34.2838 34.6451C35.18 36.2633 35.8806 37.9823 36.3708 39.7661L35.9407 39.8721Z" fill="#33333A"/>
<path d="M25.0771 26.5181C23.7128 26.4387 22.4014 25.9625 21.304 25.1481C20.3385 24.4263 19.5527 23.4912 19.0081 22.4158C18.4634 21.3403 18.1746 20.1536 18.1641 18.9481C18.0742 18.2103 18.0658 17.4648 18.139 16.7251C18.008 17.0251 16.355 21.0011 18.6 24.4011C19.6467 25.9281 21.1691 27.0659 22.93 27.6371C23.3214 27.7452 23.7206 27.8228 24.124 27.8691C25.4615 28.0463 26.8219 27.8569 28.0601 27.3211C29.2351 26.7941 30.2477 25.9623 30.993 24.9121C29.264 26.1111 27.175 26.6782 25.0771 26.5181Z" fill="#5D5A5E"/>
<path d="M39.307 30.9391C38.4112 27.397 37.125 23.9654 35.472 20.7071C34.919 19.6221 34.3491 18.6011 33.7721 17.6421L33.3521 19.6361C35.6702 23.6912 36.9991 28.2359 37.231 32.9011C37.2712 33.8342 37.2629 34.7688 37.2061 35.7011C37.5641 33.6251 38.118 31.9721 39.307 30.9391Z" fill="#777477"/>
<path d="M32.3389 15.3899C32.7199 15.9369 33.2259 16.7009 33.7699 17.6419C34.3489 18.6009 34.9189 19.6219 35.4699 20.7069C37.1232 23.9648 38.4088 27.3966 39.3029 30.9389C38.1453 25.984 36.6416 21.1164 34.8029 16.3719C34.4489 16.2589 33.9869 16.0989 33.4579 15.8829C33.1849 15.7719 32.7999 15.6069 32.3389 15.3899Z" fill="#929293"/>
<path d="M37.2308 32.901C36.9988 28.2356 35.6691 23.6907 33.3498 19.636C33.2422 20.1136 33.1087 20.5849 32.9498 21.048C32.4773 22.4356 31.8096 23.7487 30.9668 24.948L30.9958 24.909C30.9838 25.2499 30.9928 25.5912 31.0228 25.931C31.0967 26.5804 31.235 27.2209 31.4358 27.843C32.322 30.0034 33.4391 32.0617 34.7678 33.982C35.5591 35.3238 36.2606 36.7165 36.8678 38.151C36.9678 37.284 37.0728 36.464 37.2048 35.701C37.262 34.7687 37.2706 33.8341 37.2308 32.901Z" fill="#5D5A5E"/>
<path d="M18.1568 18.947C18.1673 20.1524 18.4561 21.3392 19.0008 22.4146C19.5455 23.4901 20.3312 24.4252 21.2968 25.147C22.3942 25.9614 23.7055 26.4376 25.0698 26.517C27.1677 26.679 29.2574 26.114 30.9878 24.917C31.8177 23.7267 32.4762 22.4256 32.9438 21.052C33.1028 20.589 33.2363 20.1176 33.3438 19.64L33.7638 17.646C33.2198 16.705 32.7138 15.946 32.3328 15.395C31.2719 15.1607 30.187 15.0533 29.1008 15.075C28.9158 14.693 27.5118 12.027 26.3918 10.293C26.2808 10.356 26.1688 10.416 26.0488 10.473C25.5883 10.697 25.1083 10.8784 24.6148 11.015C24.4838 11.036 24.2668 11.088 23.9358 11.136H23.9248C23.7968 11.154 23.6508 11.173 23.4858 11.192L23.2998 11.212C21.8528 11.723 19.6548 12.97 18.1318 16.723C18.0586 17.463 18.067 18.2088 18.1568 18.947Z" fill="#838084"/>
<path d="M28.2119 27.2521C29.2668 28.3352 30.2099 29.5219 31.0269 30.7941C31.4439 31.4431 31.8029 32.0771 32.1119 32.6771C33.0711 32.9413 33.9713 33.3852 34.7649 33.9851C33.4323 32.0673 32.3149 30.0085 31.4329 27.8461C31.2322 27.2241 31.0938 26.5836 31.0199 25.9341C30.99 25.5943 30.9809 25.253 30.9929 24.9121C30.7726 25.2246 30.5268 25.5182 30.2579 25.7901C29.6675 26.3943 28.9748 26.8893 28.2119 27.2521Z" fill="#33333A"/>
<path d="M31.1571 36.748C31.3877 37.2009 31.6482 37.6378 31.9371 38.056C32.1448 38.2871 32.3988 38.472 32.6825 38.5988C32.9662 38.7255 33.2733 38.7914 33.5841 38.792C33.1811 36.9752 32.5551 35.2151 31.7201 33.552C31.4868 34.0781 31.2933 34.621 31.1411 35.176C31.1291 35.234 31.115 35.293 31.105 35.35C31.0441 35.6949 31.031 36.0465 31.066 36.395C31.0873 36.5148 31.1177 36.6328 31.1571 36.748Z" fill="#33333A"/>
<path d="M24.125 27.8721C24.401 28.0951 24.781 28.4151 25.217 28.8151C26.2927 29.8249 27.2729 30.9319 28.145 32.1221C29.2426 33.597 30.2466 35.1394 31.151 36.7401C31.1129 36.6284 31.0831 36.5141 31.062 36.3981C31.0261 36.0497 31.0389 35.698 31.1 35.3531C31.3455 34.4275 31.6842 33.5293 32.111 32.6721C31.802 32.0721 31.443 31.4381 31.026 30.7891C30.209 29.5169 29.2659 28.3302 28.211 27.2471L28.06 27.3161C26.8228 27.854 25.4628 28.0462 24.125 27.8721Z" fill="#1D1D28"/>
<path d="M39.6811 32.6069C39.7811 33.0539 39.868 33.4149 39.937 33.7789C39.987 34.0087 40.0052 34.2442 39.991 34.4789C39.9447 34.7445 39.8509 34.9996 39.714 35.2319C39.714 35.2319 39.266 36.0149 39.058 36.4319C38.6486 35.8371 38.4848 35.107 38.6009 34.3942C38.717 33.6815 39.104 33.0411 39.6811 32.6069Z" fill="#33333A"/>
<path d="M39.9366 33.7871V33.7721C39.8676 33.4081 39.7806 33.0471 39.6806 32.6001C39.2698 32.9159 38.9534 33.3384 38.766 33.8215C38.5786 34.3046 38.5273 34.8298 38.6176 35.3401C38.6847 34.9894 38.8414 34.662 39.0726 34.3899C39.3037 34.1177 39.6014 33.9101 39.9366 33.7871Z" fill="#1D1D28"/>
<path d="M27.1938 9.74307C28.0817 11.7767 29.4999 13.5343 31.2998 14.8321C31.9919 15.2358 32.7133 15.5871 33.4578 15.8831C33.9868 16.0991 34.4488 16.2591 34.8028 16.3721C32.2338 11.5351 29.8778 9.47207 28.2338 8.64307C27.9315 9.04929 27.5825 9.4185 27.1938 9.74307Z" fill="#777477"/>
<path d="M32.3409 15.3911C31.2801 15.1568 30.1951 15.0494 29.1089 15.0711C29.4179 19.0591 32.6179 18.5771 33.7719 17.6421C33.2279 16.7011 32.7179 15.9381 32.3409 15.3911Z" fill="#33333A"/>
<path d="M29.8569 15.0879C29.8809 17.9879 32.4949 17.8429 33.3629 16.9589C32.9759 16.3269 32.6229 15.7979 32.3389 15.3909C31.5261 15.1942 30.6932 15.0925 29.8569 15.0879Z" fill="black"/>
<path d="M31.3466 16.5281C31.5283 16.5281 31.6756 16.3808 31.6756 16.1991C31.6756 16.0174 31.5283 15.8701 31.3466 15.8701C31.1649 15.8701 31.0176 16.0174 31.0176 16.1991C31.0176 16.3808 31.1649 16.5281 31.3466 16.5281Z" fill="#FCFBFA"/>
<path d="M26.4009 10.2881C27.5189 12.0231 28.9249 14.6881 29.1099 15.0701C30.1961 15.0484 31.281 15.1558 32.3419 15.3901C32.0239 15.2321 31.6729 15.0521 31.2999 14.8321C29.5021 13.5326 28.0842 11.7764 27.1929 9.74512C26.9454 9.9491 26.6804 10.1308 26.4009 10.2881Z" fill="#45454C"/>
<path d="M6.25098 40.0071H7.20798C9.83598 34.8931 11.478 32.3601 11.887 31.7201C13.0909 29.7235 14.4216 27.8063 15.871 25.9801C16.0978 25.6741 16.385 25.4178 16.7147 25.2271C17.0444 25.0363 17.4097 24.9152 17.788 24.8711C18.2385 24.8627 18.6869 24.9334 19.113 25.0801C18.819 24.7241 18.64 24.4661 18.6 24.4051C17.8683 23.2838 17.4639 21.9806 17.432 20.6421C15.962 23.3361 14.126 25.2661 13 27.1821C10.3947 31.2603 8.13704 35.5504 6.25098 40.0071Z" fill="#33333A"/>
<path d="M5.97559 40.007H6.24359C6.56859 39.193 6.9436 38.358 7.3526 37.514C8.99218 33.9439 10.8787 30.4925 12.9986 27.185C14.1256 25.267 15.9646 23.339 17.4346 20.639C17.3974 19.3017 17.6356 17.9712 18.1346 16.73C19.6576 12.977 21.8556 11.73 23.3026 11.219C23.2621 11.2215 23.222 11.2094 23.1896 11.185C23.1553 11.1586 23.1327 11.1197 23.1269 11.0768C23.1211 11.0339 23.1325 10.9905 23.1586 10.956C23.3356 10.726 23.4906 10.513 23.6356 10.304C15.5736 11.488 7.75659 26.684 5.97559 40.007Z" fill="#777477"/>
<path d="M28.3179 8.51702C28.2879 8.55902 28.2629 8.60102 28.2319 8.64302C29.8759 9.47202 32.2369 11.535 34.8009 16.372C33.0519 11.872 30.1559 8.45102 28.9189 7.57202C28.8289 7.74002 28.7259 7.90902 28.6189 8.07802C28.6019 8.10602 28.5829 8.13302 28.5659 8.16002C28.4859 8.28002 28.4039 8.39902 28.3179 8.51702Z" fill="#929293"/>
<path d="M33.3889 0.714111C33.2185 1.41852 33.0041 2.11155 32.7469 2.78911C32.7029 2.90611 32.6469 3.03911 32.5829 3.17811C32.3339 3.79844 32.0498 4.40409 31.7319 4.99211C31.5519 5.32011 30.3319 7.33011 30.0649 7.66311C30.4471 7.93722 30.8039 8.24512 31.1309 8.58311C31.3789 8.20111 31.5659 7.84411 31.7999 7.41311C32.9698 5.38217 33.522 3.05413 33.3889 0.714111Z" fill="#1D1D28"/>
<path d="M34.7679 16.2881L34.799 16.3521C34.77 16.2281 34.581 15.4521 34.414 14.8901C34.291 14.4781 34.097 13.8341 33.791 13.0591C33.4657 12.1557 33.0555 11.2851 32.5659 10.4591C32.1724 9.7987 31.7069 9.18395 31.1779 8.62609C30.589 8.01466 29.9102 7.4967 29.1649 7.09009C29.0739 7.27209 28.918 7.57209 28.918 7.57209C30.157 8.45409 33.0179 11.8391 34.7679 16.2881Z" fill="#1D1D28"/>
<path d="M29.5787 6.21511C29.3647 6.69911 29.1507 7.11511 29.1647 7.08711C29.4761 7.25922 29.7767 7.45025 30.0647 7.65911C30.2434 7.41711 30.4101 7.16811 30.5647 6.91211C30.9827 6.24411 31.5517 5.32711 31.7357 4.98711C32.1235 4.27759 32.4626 3.54257 32.7507 2.78711C33.0066 2.11015 33.2197 1.41779 33.3887 0.714111C32.1137 1.50111 30.7997 3.78511 29.9947 5.20111C29.9567 5.32411 29.7637 5.80111 29.5787 6.21511Z" fill="#45454C"/>
<path d="M0.00878906 39.9901L5.97876 40.0011C7.76076 26.6801 15.5788 11.4801 23.6428 10.3011C24.2096 9.48233 24.6715 8.59575 25.0178 7.66208C13.1828 5.90108 1.79079 19.5441 0.00878906 22.6371V39.9901Z" fill="#5D5A5E"/>
<path d="M0.00878906 22.6369C1.79079 19.5439 13.1828 5.9009 25.0178 7.6549C25.2048 7.1699 25.3728 6.6959 25.5668 6.1959C24.9458 6.04916 24.3152 5.94657 23.6798 5.8889C22.932 5.82091 22.1801 5.81088 21.4308 5.8589C16.5804 6.25198 11.8511 7.57613 7.50177 9.7589C5.55877 10.6589 0.226789 13.7279 0.00878906 13.8589V22.6369Z" fill="#777477"/>
<path d="M0.00683594 13.863C0.224836 13.728 5.55685 10.654 7.49985 9.76304C11.8508 7.5841 16.5805 6.26306 21.4308 5.87204C22.1802 5.82402 22.9321 5.83405 23.6798 5.90204C24.3153 5.9597 24.9459 6.06229 25.5668 6.20904C25.6328 6.04104 25.7038 5.87004 25.7778 5.69804C22.7364 5.02705 19.5891 4.99301 16.5338 5.59804C10.7046 6.74187 5.11501 8.87825 0.0088501 11.914L0.00683594 13.863Z" fill="#1D1D28"/>
<path opacity="0.3" d="M28.2949 16.788C28.2944 17.5724 28.6052 18.3249 29.1591 18.8802C29.7129 19.4356 30.4646 19.7484 31.2489 19.75C31.8386 19.6901 32.3972 19.4568 32.8544 19.0797C33.3116 18.7026 33.6469 18.1985 33.8179 17.631C34.005 17.2125 34.0824 16.7533 34.0429 16.2967C34.0034 15.84 33.8483 15.4009 33.5922 15.0208C33.3361 14.6406 32.9874 14.332 32.579 14.1238C32.1707 13.9157 31.716 13.8149 31.2579 13.831C30.8696 13.8302 30.4849 13.9059 30.1259 14.0538C29.7668 14.2017 29.4404 14.4188 29.1653 14.6929C28.8901 14.9669 28.6716 15.2924 28.5223 15.6509C28.373 16.0093 28.2957 16.3937 28.2949 16.782V16.788Z" fill="black"/>
<path d="M18.4839 24.9161C18.6958 24.9543 18.9047 25.0078 19.1089 25.0761C19.7614 25.843 20.5391 26.4939 21.4089 27.0011C22.2443 27.4709 23.1661 27.7665 24.1189 27.8701C24.3189 28.0321 24.7019 28.3571 24.8319 28.4701C31.4209 28.3391 35.7409 23.2161 36.8319 22.0951C36.7719 21.8811 35.6629 18.4871 34.7999 16.3721C34.3077 13.9545 33.3573 11.6534 31.9999 9.59311C31.2569 8.55804 30.2903 7.70357 29.1719 7.09311C28.1053 6.47859 26.962 6.00784 25.7719 5.69312C24.5706 5.40134 23.3425 5.23379 22.1069 5.19312C21.8249 8.48712 21.3549 12.0381 20.7719 15.2871C20.1889 18.5361 18.4839 24.9161 18.4839 24.9161ZM31.2519 19.7531C30.8634 19.7527 30.4789 19.6757 30.1202 19.5266C29.7615 19.3775 29.4356 19.1593 29.1613 18.8843C28.8869 18.6093 28.6694 18.2829 28.5212 17.9239C28.373 17.5648 28.2969 17.1801 28.2974 16.7916C28.2979 16.4032 28.3748 16.0186 28.5239 15.6599C28.673 15.3012 28.8913 14.9754 29.1663 14.701C29.4413 14.4267 29.7676 14.2092 30.1266 14.0609C30.4857 13.9127 30.8705 13.8367 31.2589 13.8371C31.717 13.821 32.1716 13.9218 32.58 14.1299C32.9884 14.3381 33.337 14.6467 33.5931 15.0269C33.8492 15.407 34.0043 15.8461 34.0438 16.3028C34.0833 16.7594 34.0059 17.2186 33.8189 17.6371C33.648 18.2043 33.3131 18.7082 32.8562 19.0853C32.3994 19.4624 31.8412 19.6958 31.2519 19.7561V19.7531ZM22.7999 11.0531C22.7415 10.7858 22.7442 10.5088 22.8078 10.2427C22.8713 9.97657 22.9941 9.72821 23.1669 9.51612C23.5477 8.9523 24.0916 8.51827 24.7259 8.27212C25.0241 8.16278 25.3393 8.10693 25.6569 8.10711C26.0365 8.07928 26.4153 8.17021 26.7408 8.36731C27.0664 8.5644 27.3226 8.8579 27.4739 9.20712C27.8229 10.1881 27.3829 10.9561 26.2339 11.3681C25.0339 11.8001 23.1189 11.9351 22.8029 11.0501L22.7999 11.0531Z" fill="#FCC447"/>
<path d="M22.5021 11.1532C22.7281 11.7842 23.4841 12.0142 24.3361 12.0142C25.0175 12.005 25.6929 11.8855 26.3361 11.6602C26.914 11.4944 27.4075 11.1156 27.7171 10.6002C27.8302 10.369 27.8932 10.1164 27.9018 9.85906C27.9104 9.60174 27.8645 9.34551 27.7671 9.10721C27.6635 8.83791 27.5016 8.59482 27.2932 8.39533C27.0847 8.19584 26.8347 8.04487 26.5611 7.95321C25.9295 7.73721 25.2424 7.74817 24.6181 7.98421C23.1891 8.49421 22.1181 10.0942 22.5021 11.1532ZM23.1621 9.51021C23.5441 8.9513 24.0867 8.52138 24.7181 8.27721C25.0156 8.16741 25.3299 8.1099 25.6471 8.10721C26.0271 8.07932 26.4063 8.1702 26.7323 8.36726C27.0584 8.56433 27.3151 8.85784 27.4671 9.20721C27.8171 10.1842 27.3761 10.9492 26.2261 11.3602C25.0261 11.7902 23.1051 11.9242 22.7891 11.0422C22.7298 10.7752 22.7321 10.4982 22.7958 10.2322C22.8596 9.96624 22.9831 9.71829 23.1571 9.50721L23.1621 9.51021Z" fill="#1A1C1E"/>
<path d="M25.7679 5.68917C26.9653 5.98647 28.1138 6.4546 29.1779 7.07917C29.9601 7.51356 30.6688 8.06873 31.2779 8.72417C33.1859 10.7152 34.3309 14.2592 34.8059 16.4092C34.1827 15.1914 33.4812 14.0152 32.7059 12.8882C31.5316 11.1841 30.0179 9.74097 28.2599 8.64917C26.4876 7.77841 24.5186 7.38577 22.5479 7.51017C22.5799 7.31017 22.7479 5.42217 22.7539 5.22217C23.7698 5.29356 24.778 5.44977 25.7679 5.68917Z" fill="#FCE086"/>
<path d="M18.4849 24.9151C19.1379 22.4091 19.9019 19.6151 20.5759 16.2521C21.2779 12.5918 21.7866 8.89698 22.0999 5.18311C22.2999 5.19111 22.5179 5.20411 22.7549 5.22011C22.1438 11.9342 20.9238 18.5789 19.1099 25.0721C18.9051 25.0063 18.6964 24.9539 18.4849 24.9151Z" fill="black"/>
<path d="M19.106 25.0721C19.127 25.0981 19.163 25.1401 19.2 25.1811C19.6219 25.6552 20.091 26.0851 20.5999 26.4641C21.0718 26.8204 21.5852 27.1179 22.129 27.3501C22.7646 27.6153 23.434 27.7909 24.118 27.8721C26.632 27.9721 30.672 27.0721 34.956 23.0461C33.307 24.3161 24.618 30.1591 19.568 23.3521C19.418 23.9011 19.257 24.5281 19.106 25.0721Z" fill="#F4A127"/>
<path d="M28.168 15.694C27.8752 16.5089 27.918 17.4067 28.2868 18.1901C28.6556 18.9735 29.3203 19.5785 30.1349 19.872L30.2419 19.578L30.5959 18.61C30.6198 18.5466 30.6237 18.4774 30.6069 18.4117C30.59 18.346 30.5534 18.2871 30.5019 18.243C30.3514 18.1191 30.2091 17.9855 30.0759 17.843C29.8262 17.4721 29.7067 17.0287 29.7364 16.5825C29.7661 16.1363 29.9432 15.7126 30.2399 15.378C29.9399 15.118 29.672 14.878 29.328 14.548C29.255 14.48 29.1809 14.409 29.0999 14.332C28.6775 14.6985 28.3566 15.1676 28.168 15.694Z" fill="#60696D"/>
<path d="M29.3311 14.548C29.6751 14.873 29.9431 15.118 30.2431 15.378C29.9468 15.7129 29.7702 16.1367 29.7408 16.5828C29.7115 17.029 29.8312 17.4722 30.0811 17.843C30.1727 17.9428 30.2702 18.0369 30.3731 18.125C30.0864 17.7863 29.9279 17.3576 29.9256 16.9139C29.9232 16.4701 30.077 16.0397 30.3601 15.698C30.6039 15.4283 30.9296 15.2462 31.2871 15.18C31.4034 15.1551 31.5222 15.143 31.6411 15.144C31.7044 15.1446 31.7663 15.1257 31.8186 15.0899C31.8708 15.0542 31.9108 15.0032 31.9331 14.944L32.2741 14.011L32.3811 13.717C31.8295 13.514 31.2333 13.4641 30.6557 13.5725C30.078 13.681 29.5405 13.9438 29.1001 14.333C29.1771 14.407 29.2511 14.481 29.3311 14.548Z" fill="#839196"/>
<path d="M29.8059 20.193H29.8139C29.8595 20.2094 29.9098 20.2071 29.9536 20.1864C29.9975 20.1658 30.0314 20.1286 30.0479 20.083L30.1279 19.864C29.3125 19.5655 28.649 18.9553 28.2835 18.1677C27.918 17.38 27.8804 16.4795 28.1789 15.664C28.4774 14.8486 29.0876 14.1852 29.8752 13.8197C30.6629 13.4542 31.5635 13.4165 32.3789 13.715L32.4629 13.487V13.479C32.4707 13.455 32.4736 13.4297 32.4716 13.4045C32.4696 13.3793 32.4626 13.3548 32.4511 13.3323C32.4396 13.3098 32.4238 13.2898 32.4045 13.2735C32.3853 13.2571 32.363 13.2448 32.3389 13.237C31.7801 13.0751 31.1913 13.045 30.6189 13.149C29.8372 13.2918 29.1221 13.6821 28.5792 14.2624C28.0363 14.8426 27.6943 15.5821 27.6037 16.3715C27.5132 17.161 27.6788 17.9586 28.0763 18.6468C28.4737 19.3349 29.0818 19.877 29.8109 20.193H29.8059Z" fill="black"/>
<path d="M31.2568 20.072H31.2698C31.9227 20.0091 32.5422 19.7536 33.0498 19.3381C33.5574 18.9226 33.9301 18.3657 34.1208 17.738C34.3468 17.136 34.3884 16.4803 34.2404 15.8545C34.0924 15.2287 33.7615 14.6611 33.2898 14.224L33.2818 14.217C32.9982 14.0224 32.6969 13.855 32.3818 13.717L32.2748 14.011C32.6041 14.1229 32.9081 14.2986 33.1696 14.5281C33.431 14.7575 33.6446 15.0362 33.7983 15.3482C33.952 15.6602 34.0427 15.9995 34.0653 16.3465C34.0878 16.6936 34.0418 17.0418 33.9298 17.371C33.8998 17.4606 33.8647 17.5484 33.8248 17.634C33.7461 18.0141 33.5854 18.3724 33.3537 18.6838C33.122 18.9953 32.8251 19.2523 32.4837 19.4369C32.1423 19.6215 31.7646 19.7293 31.3772 19.7526C30.9897 19.776 30.6019 19.7143 30.2408 19.572L30.1338 19.866C30.4892 20.0138 30.8721 20.084 31.2568 20.072Z" fill="#1A1C1E"/>
<path d="M24.1299 27.8722C26.9179 27.9842 31.5799 26.8722 36.3799 21.6182L36.6029 21.3882L36.8389 22.0962C32.4659 26.9122 28.4519 28.4062 24.8389 28.4742C24.5829 28.2452 24.1249 27.8722 24.1299 27.8722Z" fill="black"/>
<path d="M24.5102 8.82498C24.2972 9.25533 24.0567 9.67153 23.7902 10.071C23.6062 10.344 23.4012 10.632 23.1612 10.944C23.142 10.9697 23.1306 11.0004 23.1284 11.0325C23.1261 11.0645 23.133 11.0965 23.1484 11.1247C23.1638 11.1529 23.1869 11.1761 23.2151 11.1916C23.2432 11.2071 23.2752 11.2141 23.3072 11.212C23.7506 11.1699 24.1913 11.1031 24.6272 11.012C25.2761 10.2611 25.8148 9.42167 26.2272 8.51898C26.4402 8.06798 26.4402 7.98598 27.4602 5.17798C28.2169 3.26715 29.3193 1.51217 30.7122 0.000976562C29.3061 0.855385 28.0827 1.97925 27.1122 3.30798C25.5182 5.56298 25.4002 7.01298 24.5102 8.82498Z" fill="#45454C"/>
<path d="M24.6182 11.007C25.112 10.8709 25.5921 10.6891 26.0522 10.464C27.292 9.82613 28.2967 8.81051 28.9212 7.56395C28.9292 7.54895 29.3792 6.65795 29.4292 6.54895C29.5202 6.34895 29.6032 6.15795 29.6802 5.98095C29.7942 5.71795 29.8972 5.45795 29.9872 5.20195C30.575 3.5348 30.8202 1.76614 30.7082 0.00195312C29.3121 1.51089 28.209 3.26644 27.4552 5.17895C26.4352 7.98695 26.4352 8.06895 26.2222 8.51995C25.8089 9.42124 25.2688 10.2587 24.6182 11.007Z" fill="#1D1D28"/>
<path d="M29.6182 33.1718C29.6182 32.7703 29.7372 32.3779 29.9603 32.044C30.1834 31.7102 30.5004 31.45 30.8713 31.2964C31.2423 31.1427 31.6504 31.1025 32.0442 31.1809C32.438 31.2592 32.7997 31.4525 33.0836 31.7364C33.3675 32.0203 33.5608 32.382 33.6392 32.7758C33.7175 33.1696 33.6773 33.5778 33.5237 33.9487C33.37 34.3196 33.1098 34.6367 32.776 34.8597C32.4421 35.0828 32.0497 35.2018 31.6482 35.2018C31.1098 35.2018 30.5934 34.988 30.2127 34.6073C29.832 34.2266 29.6182 33.7102 29.6182 33.1718ZM31.6482 31.3488C31.2875 31.3496 30.9353 31.4573 30.6358 31.6583C30.3364 31.8592 30.1032 32.1444 29.9658 32.4778C29.8284 32.8112 29.7929 33.1779 29.8638 33.5315C29.9347 33.8851 30.1088 34.2097 30.3642 34.4644C30.6195 34.719 30.9446 34.8923 31.2984 34.9622C31.6522 35.0322 32.0188 34.9957 32.3518 34.8573C32.6848 34.719 32.9694 34.4851 33.1695 34.1851C33.3697 33.8851 33.4764 33.5325 33.4762 33.1718C33.476 32.9321 33.4286 32.6947 33.3367 32.4732C33.2447 32.2518 33.1099 32.0506 32.9402 31.8813C32.7704 31.712 32.5689 31.5778 32.3472 31.4864C32.1255 31.3951 31.8879 31.3483 31.6482 31.3488Z" fill="#E5E8EA"/>
<path d="M33.4739 33.9158L33.5289 33.9438C33.656 33.6356 33.7052 33.3007 33.672 32.9689C33.6388 32.6371 33.5242 32.3187 33.3385 32.0417C33.1527 31.7648 32.9015 31.538 32.6071 31.3813C32.3128 31.2247 31.9843 31.1431 31.6509 31.1438C31.4822 31.143 31.3142 31.1638 31.1509 31.2058C31.2896 31.186 31.4297 31.1767 31.5699 31.1778C31.8368 31.1786 32.101 31.232 32.3473 31.3349C32.5936 31.4378 32.8172 31.5882 33.0053 31.7776C33.1935 31.9669 33.3425 32.1915 33.4438 32.4384C33.5451 32.6854 33.5968 32.9499 33.5959 33.2168C33.5958 33.4558 33.5532 33.6928 33.4699 33.9168L33.4739 33.9158Z" fill="white"/>
<path d="M31.572 35.0348C31.8253 35.0368 32.0761 34.9839 32.307 34.8798C32.0971 34.9568 31.8756 34.9978 31.652 35.0008C31.2544 35.0022 30.8672 34.8736 30.5494 34.6346C30.2316 34.3956 30.0006 34.0594 29.8916 33.677C29.7825 33.2946 29.8014 32.8871 29.9454 32.5164C30.0893 32.1458 30.3505 31.8323 30.689 31.6238C30.6627 31.6357 30.637 31.6491 30.612 31.6638C30.3391 31.816 30.1138 32.0408 29.9611 32.3134C29.8084 32.586 29.7343 32.8956 29.747 33.2078C29.7475 33.6918 29.9399 34.1559 30.282 34.4984C30.6241 34.8408 31.088 35.0337 31.572 35.0348Z" fill="white"/>
<path d="M22.127 27.3329C22.286 27.3949 22.4269 27.4499 22.5999 27.5149C23.4579 23.5372 23.8509 19.4733 23.771 15.4049C25.1104 19.8375 26.8115 24.1526 28.857 28.3069C29.479 29.6069 30.065 30.7729 30.565 31.7159C30.8045 31.5471 31.0772 31.4312 31.365 31.3759C31.215 31.1759 29.697 28.2189 28.004 24.3269C27.284 22.6709 26.536 20.8429 25.841 18.9929C25.674 18.5309 25.4129 17.8249 25.1129 16.9659C24.7749 15.9789 24.413 14.8659 24.164 13.9879C26.657 13.0028 29.0022 11.6783 31.133 10.0519C31.448 9.82089 31.8619 9.50489 31.9059 9.46889C31.6509 9.14189 31.537 9.00689 31.258 8.70089C31.096 8.83189 30.686 9.13789 30.519 9.26589C28.4986 10.8169 26.2736 12.0812 23.907 13.0229C23.5121 12.0996 23.4589 11.0658 23.757 10.1069C24.3539 9.20036 24.8337 8.22192 25.185 7.19489C25.285 6.92789 25.3699 6.69489 25.4279 6.53589C25.4009 6.53589 21.414 9.22889 22.881 13.3779C22.968 13.6779 23.045 13.9269 23.145 14.3449C23.718 18.0009 22.683 24.9589 22.127 27.3329Z" fill="black"/>
<path d="M0 34.901V35.74C4.39262 38.0412 9.27218 39.2577 14.231 39.288C15.214 39.288 16.166 39.233 17.093 39.142C19.3349 38.9227 21.5459 38.4573 23.686 37.754C25.0497 37.2953 26.3853 36.7571 27.686 36.142C28.761 35.611 29.729 35.085 30.536 34.611C30.3352 34.4421 30.1659 34.239 30.036 34.011C29.1764 34.5307 28.2913 35.007 27.384 35.438C26.1653 36.0041 24.9148 36.4992 23.639 36.921C21.4075 37.6 19.1182 38.0713 16.8 38.329C10.9884 38.8003 5.16237 37.6116 0 34.901Z" fill="black"/>
<path d="M27.5228 36.2069C27.1368 36.3949 26.8168 36.5329 26.5688 36.6439C26.2418 36.7859 25.9688 36.8939 25.6418 37.0259C25.2418 37.1929 24.2528 37.5579 23.8718 37.6839L23.4248 37.4129C23.4248 37.4129 23.5638 37.0879 23.6248 36.9239C24.3088 36.6979 24.9738 36.4499 25.1888 36.3669C25.6058 36.2049 26.0098 36.0399 26.2758 35.9259C26.6758 35.7599 27.1068 35.5629 27.2068 35.5159C27.3178 35.7539 27.4178 35.9719 27.5228 36.2069Z" fill="#32373A"/>
<path d="M26.2801 36.7718C26.3801 36.7298 26.5391 36.6628 26.7031 36.5898L26.3911 35.8838L25.9771 36.0568L26.2801 36.7718Z" fill="black"/>
<path d="M25.7922 18.8538L25.5212 19.3338C25.5212 19.3338 25.1422 19.2148 24.9692 19.1588L24.8502 18.8218L24.7302 18.4838C24.5982 18.1168 24.4882 17.7588 24.3672 17.3968L25.1722 17.1318C25.3722 17.6888 25.7922 18.8538 25.7922 18.8538Z" fill="#32373A"/>
<path d="M28.769 28.1428C28.469 27.5428 27.929 26.3618 27.55 25.5198C27.424 25.2358 27.325 24.9838 27.25 24.8198C27.25 24.8198 27.413 24.4548 27.499 24.2778L28.062 24.4658L29.562 27.7788C29.3 27.9068 28.775 28.1458 28.769 28.1428Z" fill="#32373A"/>
<path d="M25.2571 17.3519L24.4431 17.6139L24.3721 17.3969L25.1721 17.1289L25.2571 17.3519Z" fill="black"/>
<path d="M25.6707 18.507L24.8427 18.791C24.7887 18.637 24.7317 18.479 24.6777 18.324C24.9497 18.224 25.2278 18.132 25.4998 18.032C25.5568 18.193 25.6107 18.352 25.6707 18.507Z" fill="black"/>
<path d="M27.5571 25.5218C27.6371 25.7008 27.7201 25.8798 27.7991 26.0598L28.6061 25.6598C28.5261 25.4858 28.4501 25.3118 28.3691 25.1348L27.5571 25.5218Z" fill="black"/>
<path d="M28.1279 26.7879C28.2079 26.9679 28.2849 27.1359 28.3779 27.3289L29.1779 26.9289C29.0969 26.7549 29.0199 26.5749 28.9389 26.4009L28.1279 26.7879Z" fill="black"/>
<path d="M28.6572 27.895L28.9102 28.409C28.9102 28.409 29.4102 28.185 29.7012 28.052C29.6012 27.837 29.4552 27.532 29.4552 27.532L28.6572 27.895Z" fill="black"/>
<path d="M24.7948 17.6109C24.9075 17.6109 24.9988 17.5195 24.9988 17.4069C24.9988 17.2942 24.9075 17.2029 24.7948 17.2029C24.6822 17.2029 24.5908 17.2942 24.5908 17.4069C24.5908 17.5195 24.6822 17.6109 24.7948 17.6109Z" fill="black"/>
<path d="M29.1319 28.0798C29.2606 28.0798 29.3649 27.9755 29.3649 27.8468C29.3649 27.7181 29.2606 27.6138 29.1319 27.6138C29.0032 27.6138 28.8989 27.7181 28.8989 27.8468C28.8989 27.9755 29.0032 28.0798 29.1319 28.0798Z" fill="black"/>
<path d="M27.3341 36.2959L27.5222 36.2049L27.2072 35.5139C27.1442 35.5429 27.0781 35.5709 27.0151 35.6009L27.3341 36.2959Z" fill="black"/>
<path d="M27.2308 36.104C27.3424 36.104 27.4328 36.0135 27.4328 35.902C27.4328 35.7904 27.3424 35.7 27.2308 35.7C27.1192 35.7 27.0288 35.7904 27.0288 35.902C27.0288 36.0135 27.1192 36.104 27.2308 36.104Z" fill="black"/>
<path d="M26.2631 35.9329L26.1001 36.0009L26.4141 36.7119L26.5761 36.6419L26.2631 35.9329Z" fill="#666666"/>
<path d="M28.5771 27.744L28.415 27.817C28.463 27.917 28.534 28.066 28.593 28.186L28.6931 28.378L28.7721 28.342C29.0791 28.199 29.7191 27.905 29.7191 27.905L29.799 27.869L29.532 27.283L29.3711 27.356L29.5651 27.782L28.7761 28.145L28.757 28.107C28.7 27.99 28.6281 27.847 28.5771 27.744Z" fill="#666666"/>
<path d="M24.146 17.2798L24.346 17.8938L24.514 17.8398L24.369 17.3918L24.645 17.3008L24.685 17.4248C24.6926 17.4458 24.7061 17.4641 24.7238 17.4775C24.7415 17.491 24.7628 17.4991 24.785 17.5008H24.819C24.8468 17.4917 24.8698 17.472 24.8833 17.446C24.8968 17.42 24.8995 17.3898 24.891 17.3618L24.85 17.2368L25.169 17.1308L25.323 17.5578L25.489 17.4978L25.276 16.9088L25.194 16.9368L24.794 17.0698L24.759 16.9588C24.7494 16.9314 24.7296 16.9088 24.7036 16.8958C24.6777 16.8827 24.6477 16.8802 24.62 16.8888C24.5925 16.898 24.5697 16.9176 24.5566 16.9435C24.5435 16.9693 24.5411 16.9993 24.55 17.0268L24.586 17.1388L24.225 17.2568L24.146 17.2798Z" fill="#666666"/>
<path d="M25.5554 18.1917L24.731 18.4849L24.7899 18.6507L25.6143 18.3575L25.5554 18.1917Z" fill="#666666"/>
<path d="M27.2988 35.272L26.7598 35.52L26.8348 35.683L27.2138 35.512L27.3138 35.742L27.2138 35.787C27.1941 35.7953 27.1774 35.8092 27.1656 35.827C27.1539 35.8448 27.1477 35.8656 27.1478 35.887C27.1485 35.916 27.1606 35.9436 27.1813 35.9639C27.202 35.9842 27.2298 35.9957 27.2588 35.996C27.2739 35.9954 27.2888 35.992 27.3028 35.986L27.4028 35.94C27.4438 36.032 27.4858 36.123 27.5218 36.201L27.4988 36.212C27.3908 36.265 27.2638 36.329 27.1638 36.372L27.2358 36.533C27.3358 36.49 27.4668 36.424 27.5758 36.371L27.7548 36.284L27.7178 36.212C27.6758 36.121 27.6178 35.998 27.5638 35.874L27.6498 35.836C27.6751 35.8215 27.6936 35.7976 27.7013 35.7695C27.709 35.7413 27.7052 35.7113 27.6908 35.686C27.6783 35.6638 27.6585 35.6466 27.6348 35.6375C27.6111 35.6284 27.5849 35.6278 27.5608 35.636L27.4718 35.676L27.3278 35.359L27.2988 35.272Z" fill="#666666"/>
<path d="M29.0231 26.5718L28.2231 26.9628L28.2971 27.1238L29.0971 26.7338L29.0231 26.5718Z" fill="#666666"/>
<path d="M28.457 25.3218L27.6479 25.7218L27.719 25.8798L28.5309 25.4888L28.457 25.3218Z" fill="#666666"/>
<path d="M22.766 26.7338C22.713 26.9988 22.656 27.2768 22.599 27.5338C22.524 27.5058 22.218 27.3958 22.124 27.3508C22.187 27.0718 22.251 26.7658 22.309 26.4718C22.351 26.2538 22.393 26.0408 22.43 25.8298C22.53 25.8808 22.808 25.9888 22.9 26.0248C22.863 26.2568 22.818 26.4918 22.766 26.7338Z" fill="black"/>
<path d="M29.202 28.2719L29.028 27.8869C29.0195 27.861 29.0208 27.8329 29.0319 27.8079C29.0429 27.783 29.0628 27.763 29.0877 27.7519C29.1127 27.7408 29.1408 27.7394 29.1667 27.7479C29.1927 27.7564 29.2145 27.7742 29.228 27.7979L29.402 28.1839C29.4138 28.2105 29.4147 28.2406 29.4044 28.2678C29.3941 28.2949 29.3735 28.3169 29.347 28.3289C29.3317 28.3348 29.3154 28.3382 29.299 28.3389C29.2783 28.3375 29.2584 28.3305 29.2414 28.3187C29.2243 28.3069 29.2107 28.2908 29.202 28.2719Z" fill="#666666"/>
<path d="M33.7132 33.683C34.0842 33.962 34.3452 34.572 34.1522 34.83C33.9592 35.088 33.3422 35.009 32.9722 34.73C32.8103 34.6304 32.6932 34.4721 32.6454 34.2881C32.5975 34.1042 32.6225 33.9089 32.7152 33.743C32.7767 33.6734 32.8513 33.6167 32.9348 33.576C33.0183 33.5353 33.109 33.5115 33.2017 33.5059C33.2944 33.5003 33.3873 33.5131 33.4751 33.5435C33.5629 33.5739 33.6438 33.6213 33.7132 33.683Z" fill="#E5E8EA"/>
<path d="M34.0179 34.3509C33.9688 34.2422 33.896 34.1459 33.8049 34.0689C33.7274 34.002 33.6347 33.955 33.5349 33.9319C33.4998 33.9175 33.4619 33.9111 33.424 33.9132C33.3861 33.9153 33.3492 33.9258 33.3159 33.9439C33.2947 33.9584 33.2775 33.978 33.2659 34.0009C33.2569 34.0394 33.2399 34.0755 33.2162 34.107C33.1924 34.1385 33.1623 34.1647 33.1279 34.1839C33.0921 34.2021 33.0527 34.2121 33.0126 34.2133C32.9725 34.2145 32.9327 34.2069 32.8959 34.1909C32.8366 34.1583 32.7919 34.1043 32.7709 34.0399C32.7506 33.9711 32.7571 33.8972 32.7889 33.8329C32.8185 33.7735 32.8642 33.7236 32.9209 33.6889C32.9865 33.645 33.0615 33.6173 33.1399 33.6079C33.2168 33.5944 33.2957 33.5965 33.3719 33.6139C33.4475 33.6304 33.5197 33.6602 33.5849 33.7019C33.7282 33.781 33.849 33.8952 33.9359 34.0339C34 34.122 34.0509 34.2191 34.0869 34.3219C34.121 34.4078 34.138 34.4995 34.1369 34.5919C34.1356 34.6471 34.1272 34.7019 34.1119 34.7549C34.111 34.615 34.0788 34.4769 34.0179 34.3509Z" fill="white"/>
</g>
<defs>
<clipPath id="clip0_479_13880">
<rect width="40.016" height="40.004" fill="white"/>
</clipPath>
</defs>
</svg>
