<svg width="40" height="40" viewBox="0 0 40 40" fill="none" xmlns="http://www.w3.org/2000/svg">
<g clip-path="url(#clip0_479_12535)">
<path d="M0.0117188 11.919V39.985L7.21172 39.998C9.83972 34.884 11.4817 32.351 11.8907 31.711C13.0945 29.7144 14.4253 27.7971 15.8747 25.971C16.1018 25.6653 16.3889 25.4091 16.7186 25.2184C17.0483 25.0277 17.4135 24.9064 17.7917 24.862C18.2441 24.8563 18.6942 24.9277 19.1227 25.073C20.1188 26.279 21.4444 27.1689 22.9377 27.634C23.3288 27.7433 23.7281 27.8209 24.1317 27.866C24.4067 28.089 24.7867 28.409 25.2227 28.809C26.2975 29.8198 27.2775 30.9268 28.1507 32.116C29.2475 33.5915 30.2515 35.1339 31.1567 36.734L31.1617 36.747C31.3911 37.2006 31.6518 37.6376 31.9417 38.055C32.149 38.2867 32.4029 38.472 32.6867 38.5988C32.9705 38.7256 33.2779 38.7911 33.5887 38.791C33.6093 38.9371 33.6684 39.0751 33.7599 39.1907C33.8515 39.3064 33.9722 39.3956 34.1097 39.449L35.0097 39.806C35.3071 39.9244 35.634 39.9468 35.9447 39.87L36.3747 39.764L36.9747 39.617C37.1518 39.5739 37.3173 39.4927 37.4598 39.379C37.6023 39.2654 37.7183 39.1221 37.7997 38.959L39.0447 36.435C39.2527 36.021 39.7007 35.235 39.7007 35.235C39.8531 35.0284 39.953 34.7878 39.9919 34.534C40.0307 34.2802 40.0073 34.0208 39.9237 33.778C39.8617 33.413 39.4637 31.664 39.2937 30.942C38.1349 25.9874 36.6313 21.1199 34.7937 16.375V16.368H34.7997C36.5997 14.49 36.1527 9.56802 31.7997 7.41202C32.9698 5.38078 33.522 3.05239 33.3887 0.712036C32.1137 1.49904 30.7997 3.78304 29.9947 5.19904C30.5807 3.53147 30.8249 1.76298 30.7127 -0.000976562C29.3063 0.855153 28.0829 1.98071 27.1127 3.31104C26.5844 4.05379 26.1372 4.851 25.7787 5.68903L25.7297 5.67804C23.625 5.21386 21.4618 5.07323 19.3147 5.26102C13.5567 5.60602 7.04272 8.42202 5.84272 8.94202C3.83763 9.80913 1.88999 10.8035 0.0117188 11.919Z" fill="#5D5A5E"/>
<path d="M32.3409 15.39C31.2798 15.1572 30.195 15.0498 29.1089 15.07C29.4209 19.058 32.6149 18.576 33.7719 17.641C33.2279 16.7 32.7219 15.937 32.3409 15.39Z" fill="#3A1919"/>
<path d="M29.8589 15.0869C29.8829 17.9869 32.4969 17.8419 33.3649 16.9579C32.9779 16.3259 32.6249 15.7969 32.3409 15.3899C31.5278 15.1947 30.6951 15.0931 29.8589 15.0869Z" fill="#241711"/>
<path d="M31.3471 16.5271C31.5288 16.5271 31.6761 16.3798 31.6761 16.1981C31.6761 16.0164 31.5288 15.8691 31.3471 15.8691C31.1654 15.8691 31.0181 16.0164 31.0181 16.1981C31.0181 16.3798 31.1654 16.5271 31.3471 16.5271Z" fill="#FCFBFA"/>
<path d="M31.7227 33.5461C32.5583 35.2093 33.1854 36.9693 33.5897 38.7861C33.6102 38.9322 33.6693 39.0702 33.7609 39.1858C33.8524 39.3015 33.9732 39.3906 34.1107 39.4441L35.0107 39.8011C35.308 39.9195 35.6349 39.9418 35.9457 39.8651L36.9747 39.6121C37.1517 39.569 37.3173 39.4878 37.4597 39.3741C37.6022 39.2605 37.7182 39.1172 37.7997 38.9541L39.0567 36.4201C39.2647 36.0061 39.7127 35.2201 39.7127 35.2201C39.849 34.9876 39.9428 34.7326 39.9897 34.4671C40.0037 34.2324 39.9855 33.9969 39.9357 33.7671C39.8667 33.4031 39.7797 33.0421 39.6797 32.5951C39.5907 32.1761 39.4797 31.6551 39.3037 30.9331C37.6797 32.3421 37.2377 34.9191 36.8657 38.1481C36.2495 36.7184 35.5483 35.3269 34.7657 33.9811C33.9713 33.3807 33.0704 32.9362 32.1107 32.6711C32.0567 32.7831 31.8937 33.1281 31.7227 33.5461Z" fill="#45454C"/>
<path d="M35.9408 39.87C35.4596 38.0318 34.7327 36.2668 33.7798 34.623C33.7607 34.5955 33.7505 34.5629 33.7505 34.5295C33.7505 34.4961 33.7607 34.4634 33.7798 34.436C33.8053 34.4005 33.8437 34.3766 33.8867 34.3693C33.9298 34.362 33.974 34.3719 34.0098 34.397C34.0753 34.4423 34.1384 34.491 34.1988 34.543C34.2314 34.5715 34.2592 34.6053 34.2808 34.643C35.1759 36.2617 35.8764 37.9807 36.3678 39.764L35.9408 39.87Z" fill="#33333A"/>
<path d="M25.08 26.5171C23.7154 26.4391 22.4037 25.9628 21.307 25.1471C20.341 24.4258 19.5549 23.4908 19.0102 22.4152C18.4654 21.3397 18.1769 20.1527 18.167 18.9471C18.0771 18.2093 18.0688 17.4638 18.142 16.7241C18.011 17.0241 16.358 21.0001 18.603 24.4001C19.6488 25.9279 21.1715 27.0659 22.933 27.6361C23.3241 27.7454 23.7234 27.823 24.127 27.8681C25.4644 28.0468 26.8252 27.8574 28.063 27.3201C29.2385 26.7939 30.2514 25.962 30.996 24.9111C29.2674 26.111 27.178 26.6782 25.08 26.5171Z" fill="#5D5A5E"/>
<path d="M39.3071 30.9381C38.411 27.3961 37.1248 23.9645 35.472 20.7061C34.919 19.6211 34.349 18.6001 33.772 17.6411L33.3521 19.6351C35.6699 23.6903 36.9989 28.235 37.2311 32.9001C37.2702 33.8333 37.2619 34.7678 37.206 35.7001C37.564 33.6241 38.1191 31.9681 39.3071 30.9381Z" fill="#777477"/>
<path d="M32.3389 15.3892C32.7199 15.9362 33.2259 16.7001 33.7699 17.6411C34.3489 18.6001 34.9189 19.6211 35.4699 20.7061C37.1218 23.9646 38.4074 27.3963 39.3029 30.9381C38.1441 25.9836 36.6404 21.1161 34.8029 16.3712C34.4489 16.2582 33.9869 16.0981 33.4579 15.8821C33.1799 15.7701 32.7999 15.6112 32.3389 15.3892Z" fill="#929293"/>
<path d="M37.2309 32.9C36.9984 28.2347 35.6687 23.69 33.3499 19.635C33.2499 20.085 33.1119 20.557 32.9449 21.047C32.472 22.4344 31.8044 23.7475 30.9619 24.947L30.9909 24.908C30.9779 25.2489 30.9869 25.5903 31.0179 25.93C31.0906 26.5796 31.229 27.2203 31.4309 27.842C32.3161 30.0029 33.4333 32.0613 34.7629 33.981C35.5534 35.3232 36.2549 36.7159 36.8629 38.15C36.9629 37.283 37.0629 36.463 37.1999 35.7C37.2577 34.7678 37.2681 33.8332 37.2309 32.9Z" fill="#5D5A5E"/>
<path d="M18.1597 18.946C18.1696 20.1516 18.4582 21.3385 19.0029 22.4141C19.5476 23.4896 20.3337 24.4246 21.2997 25.146C22.3963 25.9618 23.7081 26.4381 25.0727 26.516C27.1707 26.679 29.2607 26.114 30.9907 24.916C31.8207 23.7257 32.4791 22.4246 32.9467 21.051C33.1137 20.561 33.2467 20.089 33.3517 19.639L33.7717 17.645C33.2277 16.704 32.7217 15.945 32.3407 15.394C31.2796 15.1612 30.1949 15.0538 29.1087 15.074C28.9237 14.692 27.5197 12.026 26.3997 10.292C26.2887 10.355 26.1767 10.415 26.0567 10.472C25.5963 10.6961 25.1163 10.8775 24.6227 11.014C24.4917 11.035 24.2747 11.087 23.9437 11.135H23.9277C23.7997 11.153 23.6537 11.172 23.4887 11.191L23.3027 11.211C21.8557 11.722 19.6577 12.969 18.1347 16.722C18.0615 17.462 18.0699 18.2078 18.1597 18.946Z" fill="#838084"/>
<path d="M28.2119 27.2511C29.2658 28.3352 30.2088 29.5217 31.0269 30.7931C31.4439 31.4421 31.8029 32.0761 32.1119 32.6761C33.0706 32.9416 33.9706 33.3853 34.7649 33.9841C33.4311 32.067 32.3137 30.0081 31.4329 27.8451C31.231 27.2234 31.0926 26.5828 31.0199 25.9331C30.9889 25.5934 30.9799 25.252 30.9929 24.9111C30.7731 25.224 30.5272 25.5177 30.2579 25.7891C29.668 26.3939 28.9752 26.889 28.2119 27.2511Z" fill="#33333A"/>
<path d="M31.1549 36.7461C31.3843 37.1996 31.6449 37.6366 31.9349 38.054C32.1421 38.2857 32.396 38.471 32.6798 38.5978C32.9636 38.7247 33.271 38.7902 33.5819 38.7901C33.1771 36.9733 32.5501 35.2134 31.7149 33.55C31.4813 34.0761 31.2878 34.619 31.1359 35.1741C31.1239 35.2321 31.1099 35.2911 31.0999 35.3481C31.0379 35.6928 31.0248 36.0446 31.0609 36.3931C31.0819 36.5132 31.1134 36.6313 31.1549 36.7461Z" fill="#33333A"/>
<path d="M24.125 27.868C24.401 28.091 24.781 28.411 25.217 28.811C26.2918 29.8217 27.2718 30.9287 28.145 32.118C29.2418 33.5935 30.2457 35.1358 31.151 36.736C31.1118 36.6247 31.082 36.5102 31.062 36.394C31.0261 36.0455 31.0389 35.6939 31.1 35.349C31.3463 34.4263 31.685 33.5307 32.111 32.676C31.802 32.076 31.443 31.442 31.026 30.793C30.2079 29.5216 29.2649 28.335 28.211 27.251L28.06 27.32C26.8225 27.8567 25.4621 28.0461 24.125 27.868Z" fill="#1D1D28"/>
<path d="M39.6801 32.6091C39.7801 33.0561 39.8671 33.4171 39.9361 33.7811C39.9859 34.0109 40.0041 34.2464 39.9901 34.4811C39.9432 34.7466 39.8494 35.0016 39.7131 35.2341C39.7131 35.2341 39.2651 36.0171 39.0571 36.4341C38.6476 35.8392 38.4838 35.1092 38.5999 34.3964C38.716 33.6837 39.103 33.0433 39.6801 32.6091Z" fill="#33333A"/>
<path d="M39.9369 33.7861V33.7721C39.8679 33.4081 39.7809 33.0471 39.6809 32.6001C39.2697 32.9154 38.953 33.3376 38.7652 33.8206C38.5774 34.3036 38.5258 34.8288 38.6159 35.3391C38.683 34.9881 38.84 34.6605 39.0715 34.3883C39.3031 34.1161 39.6012 33.9086 39.9369 33.7861Z" fill="#1D1D28"/>
<path d="M27.1938 9.746C28.0803 11.7805 29.4987 13.5385 31.2998 14.835C31.9914 15.2397 32.7128 15.5911 33.4578 15.886C33.9868 16.102 34.4488 16.262 34.8028 16.375C32.2338 11.538 29.8778 9.475 28.2338 8.646C27.9315 9.0522 27.5825 9.42141 27.1938 9.746Z" fill="#777477"/>
<path d="M32.3409 15.39C31.2798 15.1572 30.195 15.0498 29.1089 15.07C29.4209 19.058 32.6149 18.576 33.7719 17.641C33.2279 16.7 32.7219 15.937 32.3409 15.39Z" fill="#33333A"/>
<path d="M29.8589 15.0869C29.8829 17.9869 32.4969 17.8419 33.3649 16.9579C32.9779 16.3259 32.6249 15.7969 32.3409 15.3899C31.5278 15.1947 30.6951 15.0931 29.8589 15.0869Z" fill="black"/>
<path d="M31.3471 16.5271C31.5288 16.5271 31.6761 16.3798 31.6761 16.1981C31.6761 16.0164 31.5288 15.8691 31.3471 15.8691C31.1654 15.8691 31.0181 16.0164 31.0181 16.1981C31.0181 16.3798 31.1654 16.5271 31.3471 16.5271Z" fill="#FCFBFA"/>
<path d="M26.4009 10.2871C27.5189 12.0221 28.9249 14.6872 29.1099 15.0692C30.196 15.049 31.2808 15.1564 32.3419 15.3892C32.0239 15.2312 31.6729 15.0511 31.2999 14.8311C29.5009 13.5329 28.0827 11.7763 27.1929 9.74414C26.9453 9.94801 26.6803 10.1297 26.4009 10.2871Z" fill="#45454C"/>
<path d="M6.25098 40.002H7.20798C9.83598 34.888 11.478 32.355 11.887 31.715C13.0908 29.7184 14.4215 27.8011 15.871 25.975C16.098 25.6692 16.3852 25.4131 16.7149 25.2224C17.0445 25.0316 17.4097 24.9103 17.788 24.866C18.2384 24.8591 18.6866 24.9298 19.113 25.075C18.819 24.719 18.64 24.461 18.6 24.4C17.8671 23.2792 17.4625 21.9757 17.432 20.637C15.962 23.331 14.126 25.261 13 27.177C10.3951 31.2554 8.13745 35.5455 6.25098 40.002Z" fill="#33333A"/>
<path d="M5.97998 40.0031H6.24798C6.57298 39.1891 6.94798 38.3541 7.35698 37.5101C8.99677 33.9401 10.8833 30.4887 13.003 27.1811C14.13 25.2631 15.969 23.3351 17.439 20.6351C17.4019 19.2979 17.6402 17.9673 18.139 16.726C19.662 12.973 21.86 11.7261 23.307 11.2151C23.2665 11.219 23.226 11.2072 23.194 11.1821C23.1768 11.169 23.1624 11.1527 23.1516 11.1341C23.1407 11.1154 23.1337 11.0948 23.1308 11.0735C23.1279 11.0521 23.1293 11.0304 23.1348 11.0096C23.1403 10.9887 23.1499 10.9692 23.163 10.9521C23.34 10.7221 23.495 10.509 23.64 10.3C15.574 11.487 7.76098 26.6831 5.97998 40.0031Z" fill="#777477"/>
<path d="M28.316 8.51605C28.286 8.55805 28.261 8.60006 28.23 8.64206C29.874 9.47106 32.235 11.5341 34.799 16.3711C33.05 11.8711 30.154 8.45004 28.917 7.57104C28.827 7.73904 28.724 7.90806 28.617 8.07706C28.6 8.10506 28.581 8.13206 28.564 8.15906C28.486 8.27906 28.4033 8.39805 28.316 8.51605Z" fill="#929293"/>
<path d="M0.00878906 39.989L5.97879 40.0001C7.76079 26.6791 15.5788 11.4791 23.6428 10.3001C24.21 9.48153 24.6719 8.59493 25.0178 7.66108C13.1798 5.90008 1.79079 19.5461 0.00878906 22.6361V39.989Z" fill="#5D5A5E"/>
<path d="M0.00878906 22.6359C1.79079 19.5459 13.1798 5.89992 25.0178 7.65392C25.2048 7.16892 25.3728 6.69493 25.5668 6.19493C24.9455 6.0497 24.3151 5.94713 23.6798 5.88793C22.932 5.82094 22.1801 5.81091 21.4308 5.85793C16.5805 6.25194 11.8515 7.57603 7.50179 9.75792C5.55879 10.6579 0.226789 13.7269 0.00878906 13.8579V22.6359Z" fill="#777477"/>
<path d="M33.389 0.712891C33.2192 1.41635 33.0061 2.10869 32.751 2.78592C32.707 2.90292 32.651 3.0359 32.587 3.1749C32.3384 3.7954 32.0543 4.40106 31.736 4.98889C31.615 5.20989 31.022 6.1999 30.561 6.9119C30.9861 7.0469 31.4003 7.21405 31.8 7.4119C32.9699 5.38095 33.5221 3.05291 33.389 0.712891Z" fill="#1D1D28"/>
<path d="M0.00683594 13.8621C0.224836 13.7271 5.55684 10.6531 7.49984 9.76206C11.8509 7.58297 16.5805 6.26095 21.4308 5.86805C22.1802 5.82103 22.932 5.83109 23.6798 5.89808C24.3151 5.9573 24.9456 6.05985 25.5668 6.20506C25.6335 6.03706 25.7038 5.86674 25.7778 5.69407C22.7363 5.02415 19.5891 4.9901 16.5338 5.59407C10.7047 6.73984 5.11526 8.87718 0.00883675 11.9131L0.00683594 13.8621Z" fill="#1D1D28"/>
<path d="M32.7509 2.78592C33.006 2.10869 33.2191 1.41635 33.3889 0.712891C32.1139 1.49989 30.7999 3.78391 29.9959 5.19891C29.9539 5.31391 29.7659 5.7989 29.5809 6.2139C29.4729 6.4579 29.4579 6.49289 29.3999 6.61389C29.7939 6.69031 30.183 6.79052 30.5649 6.91391C30.9829 6.24591 31.5519 5.32889 31.7359 4.98889C32.124 4.27853 32.4631 3.54251 32.7509 2.78592Z" fill="#45454C"/>
<path d="M28.9209 7.57111C30.1499 8.44511 33.0209 11.8301 34.7609 16.2861L34.7999 16.3681C36.5999 14.4901 36.1529 9.56811 31.7999 7.41211C31.04 7.03931 30.2324 6.77282 29.3999 6.62012C29.2799 6.86212 28.9459 7.52611 28.9209 7.57111Z" fill="#1D1D28"/>
<path d="M24.5098 8.82401C24.2969 9.25439 24.0564 9.67059 23.7898 10.07C23.6058 10.343 23.4008 10.631 23.1608 10.943C23.1368 10.9752 23.1251 11.0149 23.1278 11.055C23.1292 11.077 23.135 11.0986 23.1448 11.1184C23.1545 11.1382 23.1681 11.1558 23.1848 11.1703C23.2014 11.1849 23.2208 11.1959 23.2417 11.2029C23.2627 11.2099 23.2848 11.2126 23.3068 11.211C23.7503 11.1698 24.1911 11.103 24.6268 11.011C25.2761 10.2604 25.8149 9.42095 26.2268 8.51801C26.4398 8.06701 26.4398 7.985 27.4598 5.177C28.217 3.26641 29.3194 1.51151 30.7118 0C29.306 0.85483 28.0827 1.97863 27.1118 3.30701C25.5208 5.56201 25.3998 7.012 24.5098 8.82401Z" fill="#45454C"/>
<path d="M24.623 11.01C25.1172 10.8748 25.5973 10.693 26.057 10.467C27.2975 9.82784 28.3024 8.81036 28.926 7.56198C28.934 7.54698 29.384 6.656 29.434 6.547C29.525 6.347 29.608 6.156 29.685 5.979C29.799 5.717 29.9014 5.45731 29.992 5.19998C30.58 3.53286 30.8252 1.7642 30.713 0C29.3172 1.5091 28.2141 3.2646 27.46 5.177C26.44 7.985 26.44 8.06701 26.227 8.51801C25.8141 9.42098 25.2739 10.2602 24.623 11.01Z" fill="#1D1D28"/>
<path d="M29.6221 33.1711C29.6221 32.6327 29.8359 32.1164 30.2166 31.7357C30.5973 31.355 31.1137 31.1411 31.6521 31.1411C32.1905 31.1411 32.7068 31.355 33.0875 31.7357C33.4682 32.1164 33.6821 32.6327 33.6821 33.1711C33.6821 33.7095 33.4682 34.2258 33.0875 34.6065C32.7068 34.9872 32.1905 35.2011 31.6521 35.2011C31.1137 35.2011 30.5973 34.9872 30.2166 34.6065C29.8359 34.2258 29.6221 33.7095 29.6221 33.1711ZM31.6521 31.3481C31.1684 31.3484 30.7045 31.5404 30.3622 31.8822C30.0199 32.2239 29.8271 32.6874 29.8261 33.1711C29.8259 33.4107 29.873 33.648 29.9646 33.8694C30.0562 34.0909 30.1906 34.292 30.36 34.4615C30.5293 34.631 30.7305 34.7655 30.9518 34.8572C31.1732 34.9489 31.4105 34.9961 31.6501 34.9961C31.8897 34.9963 32.1271 34.9492 32.3485 34.8576C32.57 34.766 32.7713 34.6317 32.9408 34.4623C33.1104 34.2929 33.2449 34.0918 33.3368 33.8705C33.4286 33.6491 33.4759 33.4118 33.4761 33.1721C33.4761 32.6882 33.284 32.224 32.942 31.8817C32.5999 31.5393 32.136 31.3467 31.6521 31.3461V31.3481Z" fill="#E5E8EA"/>
<path d="M33.4739 33.9151L33.5289 33.9431C33.6296 33.6981 33.6812 33.4359 33.6809 33.1711C33.6807 32.9046 33.6281 32.6408 33.526 32.3947C33.424 32.1485 33.2744 31.925 33.0859 31.7366C32.8974 31.5483 32.6736 31.399 32.4274 31.2971C32.1812 31.1953 31.9173 31.1429 31.6509 31.1431C31.4823 31.1431 31.3144 31.1639 31.1509 31.205C31.2898 31.1867 31.4298 31.1774 31.5699 31.1771C32.1079 31.1781 32.6237 31.3923 33.0041 31.7728C33.3846 32.1533 33.5988 32.669 33.5999 33.2071C33.6008 33.4487 33.5581 33.6886 33.4739 33.9151Z" fill="white"/>
<path d="M31.5719 35.0341C31.8253 35.0369 32.0763 34.984 32.3069 34.8791C32.0973 34.9571 31.8756 34.998 31.6519 35.0001C31.3395 35.0014 31.032 34.9224 30.759 34.7705C30.486 34.6187 30.2566 34.3992 30.0929 34.1331C29.9674 33.9289 29.8833 33.702 29.8456 33.4653C29.8078 33.2286 29.817 32.9868 29.8727 32.7537C29.9285 32.5206 30.0296 32.3008 30.1703 32.1068C30.311 31.9127 30.4886 31.7484 30.6929 31.623C30.6669 31.636 30.6409 31.6491 30.6159 31.6631C30.343 31.8152 30.1177 32.0401 29.965 32.3127C29.8123 32.5853 29.7382 32.8949 29.7509 33.2071C29.7509 33.6906 29.9426 34.1544 30.2839 34.4968C30.6252 34.8393 31.0884 35.0325 31.5719 35.0341Z" fill="white"/>
<path d="M22.127 27.3321C22.286 27.3941 22.427 27.4491 22.6 27.5141C23.458 23.5364 23.851 19.4725 23.771 15.4041C25.1096 19.8364 26.811 24.151 28.858 28.304C29.48 29.604 30.066 30.77 30.566 31.713C30.8058 31.5449 31.0784 31.4291 31.366 31.373C31.216 31.173 29.698 28.2161 28.005 24.3241C27.285 22.6681 26.537 20.8401 25.842 18.9901C25.675 18.5281 25.414 17.822 25.114 16.963C24.776 15.976 24.414 14.863 24.165 13.985C26.6583 13.0006 29.0035 11.6761 31.134 10.0491L31.213 9.98706C30.958 9.66006 30.836 9.49505 30.587 9.21005L30.52 9.26306C28.5001 10.8148 26.2749 12.0792 23.908 13.0201C23.5142 12.0985 23.4617 11.0668 23.76 10.11C24.3567 9.20342 24.8365 8.22501 25.188 7.19806C25.288 6.93106 25.373 6.69806 25.431 6.53906C25.404 6.53906 21.417 9.23204 22.884 13.381C22.971 13.681 23.048 13.9301 23.148 14.3481C23.717 18.0001 22.68 24.9581 22.127 27.3321Z" fill="black"/>
<path d="M0 34.9V35.739C4.39206 38.0417 9.27199 39.2583 14.231 39.287C15.214 39.287 16.166 39.232 17.093 39.141C19.3352 38.9232 21.5463 38.4577 23.686 37.753C25.05 37.295 26.3856 36.7567 27.686 36.141C28.761 35.61 29.729 35.084 30.536 34.61C30.3345 34.4418 30.1651 34.2386 30.036 34.01C29.1764 34.5297 28.2913 35.0059 27.384 35.437C26.1656 36.0038 24.9151 36.4989 23.639 36.92C21.4079 37.6003 19.1184 38.0717 16.8 38.328C10.9883 38.801 5.16183 37.6121 0 34.9Z" fill="black"/>
<path d="M27.5228 36.2081C27.1368 36.3961 26.8168 36.5341 26.5688 36.6451C26.2418 36.7871 25.9688 36.8951 25.6418 37.0271C25.2418 37.1941 24.2528 37.5591 23.8718 37.6851L23.4248 37.4141C23.4248 37.4141 23.5638 37.0891 23.6248 36.9251C24.3088 36.6991 24.9738 36.4511 25.1888 36.3681C25.6058 36.2061 26.0098 36.0411 26.2758 35.9271C26.6758 35.7611 27.1068 35.5641 27.2068 35.5171C27.3168 35.7531 27.4128 35.9721 27.5228 36.2081Z" fill="#32373A"/>
<path d="M26.2801 36.7672C26.3801 36.7252 26.5391 36.6581 26.7031 36.5851L26.3911 35.8792L25.9771 36.0522L26.2801 36.7672Z" fill="black"/>
<path d="M25.7922 18.8531L25.5212 19.3331C25.5212 19.3331 25.1422 19.2141 24.9692 19.1581L24.8502 18.8211L24.7302 18.4831C24.5982 18.1161 24.4882 17.7581 24.3672 17.3961L25.1722 17.1311C25.3722 17.6881 25.7922 18.8531 25.7922 18.8531Z" fill="#32373A"/>
<path d="M28.769 28.146C28.469 27.546 27.929 26.365 27.55 25.523C27.424 25.239 27.325 24.987 27.25 24.823C27.25 24.823 27.413 24.458 27.499 24.281L28.062 24.469L29.562 27.782C29.3 27.907 28.775 28.146 28.769 28.146Z" fill="#32373A"/>
<path d="M25.2561 17.3461L24.4421 17.6081L24.3711 17.3911L25.1711 17.123L25.2561 17.3461Z" fill="black"/>
<path d="M25.6712 18.5092L24.8432 18.7932C24.7892 18.6392 24.7322 18.4812 24.6782 18.3262C24.9502 18.2262 25.2282 18.1342 25.5002 18.0342C25.5552 18.1922 25.6112 18.3462 25.6712 18.5092Z" fill="black"/>
<path d="M27.5562 25.521C27.6362 25.7 27.7192 25.879 27.7982 26.059L28.6052 25.659C28.5252 25.485 28.4492 25.311 28.3682 25.134L27.5562 25.521Z" fill="black"/>
<path d="M28.1279 26.7871C28.2079 26.9671 28.2849 27.1352 28.3779 27.3282L29.1779 26.9282C29.0969 26.7542 29.0199 26.5741 28.9389 26.4001L28.1279 26.7871Z" fill="black"/>
<path d="M28.6538 27.894L28.9068 28.408C28.9068 28.408 29.4068 28.184 29.6978 28.051C29.5978 27.836 29.4518 27.531 29.4518 27.531L28.6538 27.894Z" fill="black"/>
<path d="M24.7948 17.6101C24.9075 17.6101 24.9988 17.5188 24.9988 17.4061C24.9988 17.2935 24.9075 17.2021 24.7948 17.2021C24.6822 17.2021 24.5908 17.2935 24.5908 17.4061C24.5908 17.5188 24.6822 17.6101 24.7948 17.6101Z" fill="black"/>
<path d="M29.1319 28.079C29.2606 28.079 29.3649 27.9747 29.3649 27.846C29.3649 27.7174 29.2606 27.613 29.1319 27.613C29.0032 27.613 28.8989 27.7174 28.8989 27.846C28.8989 27.9747 29.0032 28.079 29.1319 28.079Z" fill="black"/>
<path d="M27.3341 36.2952L27.5221 36.2042L27.2071 35.5132C27.1441 35.5422 27.0781 35.5702 27.0151 35.6002L27.3341 36.2952Z" fill="black"/>
<path d="M27.2308 36.103C27.3424 36.103 27.4328 36.0125 27.4328 35.901C27.4328 35.7894 27.3424 35.699 27.2308 35.699C27.1192 35.699 27.0288 35.7894 27.0288 35.901C27.0288 36.0125 27.1192 36.103 27.2308 36.103Z" fill="black"/>
<path d="M26.2631 35.9321L26.1001 36.0001L26.4141 36.7111L26.5761 36.6411L26.2631 35.9321Z" fill="#666666"/>
<path d="M28.58 27.7462L28.418 27.8192C28.466 27.9192 28.537 28.0681 28.596 28.1881L28.696 28.3802L28.775 28.3441C29.082 28.2011 29.722 27.9071 29.722 27.9071L29.802 27.8712L29.535 27.2852L29.374 27.3582L29.568 27.7841L28.779 28.1472L28.76 28.1101C28.7 27.9891 28.628 27.8462 28.58 27.7462Z" fill="#666666"/>
<path d="M24.146 17.2791L24.346 17.8931L24.514 17.8391L24.369 17.3911L24.645 17.3001L24.685 17.4241C24.6922 17.4463 24.7062 17.4656 24.7251 17.4792C24.744 17.4929 24.7667 17.5002 24.79 17.5001C24.8012 17.5021 24.8127 17.5021 24.824 17.5001C24.8517 17.491 24.8748 17.4712 24.8881 17.4452C24.9013 17.4192 24.9038 17.389 24.895 17.3611L24.854 17.2361L25.173 17.1301L25.327 17.5571L25.493 17.4971L25.28 16.9081L25.198 16.9361L24.798 17.0691L24.763 16.9581C24.753 16.931 24.7331 16.9087 24.7073 16.8957C24.6815 16.8827 24.6517 16.88 24.624 16.8881C24.6103 16.8924 24.5977 16.8994 24.5868 16.9087C24.5758 16.9179 24.5668 16.9292 24.5603 16.942C24.5538 16.9547 24.5499 16.9686 24.5488 16.9829C24.5477 16.9972 24.5495 17.0115 24.554 17.0251L24.59 17.1371L24.229 17.2551L24.146 17.2791Z" fill="#666666"/>
<path d="M25.5554 18.1919L24.731 18.4851L24.7899 18.6509L25.6143 18.3577L25.5554 18.1919Z" fill="#666666"/>
<path d="M27.2988 35.2751L26.7598 35.5232L26.8348 35.6862L27.2138 35.5151L27.3138 35.7451L27.2138 35.7902C27.1943 35.7987 27.1777 35.8126 27.166 35.8304C27.1542 35.8481 27.1479 35.8689 27.1478 35.8901C27.1478 35.9046 27.1506 35.9189 27.1563 35.9322C27.1619 35.9455 27.1701 35.9575 27.1805 35.9676C27.1908 35.9777 27.2031 35.9856 27.2165 35.9908C27.23 35.9961 27.2443 35.9985 27.2588 35.9981C27.2741 35.9988 27.2892 35.9953 27.3028 35.9882L27.4028 35.9421C27.4438 36.0341 27.4858 36.1252 27.5218 36.2032L27.4988 36.2141C27.3908 36.2671 27.2638 36.3311 27.1638 36.3741L27.2358 36.5352C27.3358 36.4922 27.4668 36.4261 27.5758 36.3731L27.7548 36.2862L27.7178 36.2082C27.6758 36.1172 27.6178 35.9941 27.5638 35.8701L27.6498 35.8322C27.6718 35.8196 27.6888 35.7998 27.698 35.7761C27.7071 35.7524 27.7077 35.7263 27.6998 35.7021C27.6904 35.6746 27.6706 35.6518 27.6446 35.6387C27.6186 35.6256 27.5885 35.6233 27.5608 35.6321L27.4718 35.6721L27.3278 35.3552L27.2988 35.2751Z" fill="#666666"/>
<path d="M29.0228 26.575L28.2178 26.966L28.2918 27.127L29.0918 26.737L29.0228 26.575Z" fill="#666666"/>
<path d="M28.454 25.321L27.645 25.7211L27.716 25.8791L28.528 25.4881L28.454 25.321Z" fill="#666666"/>
<path d="M22.766 26.7331C22.713 26.9981 22.656 27.2761 22.599 27.5331C22.524 27.5051 22.218 27.3951 22.124 27.3501C22.187 27.0711 22.251 26.7651 22.309 26.4711C22.351 26.2531 22.393 26.0401 22.43 25.8291C22.53 25.8801 22.808 25.9881 22.9 26.0241C22.863 26.2561 22.818 26.4911 22.766 26.7331Z" fill="black"/>
<path d="M29.2021 28.268L29.0281 27.883C29.0166 27.8565 29.016 27.8265 29.0265 27.7995C29.037 27.7726 29.0577 27.7508 29.0841 27.739C29.1108 27.7274 29.141 27.7267 29.1682 27.7369C29.1955 27.7472 29.2177 27.7677 29.2301 27.794L29.4041 28.18C29.4101 28.1931 29.4134 28.2073 29.4139 28.2217C29.4144 28.2362 29.412 28.2505 29.4068 28.264C29.4017 28.2775 29.394 28.2899 29.3841 28.3003C29.3742 28.3108 29.3623 28.3192 29.3491 28.325C29.3341 28.3323 29.3176 28.3357 29.3011 28.335C29.2798 28.335 29.259 28.3286 29.2413 28.3167C29.2237 28.3047 29.21 28.2878 29.2021 28.268Z" fill="#666666"/>
<path d="M33.7129 33.682C34.0839 33.961 34.3449 34.571 34.1519 34.829C33.9589 35.087 33.3419 35.008 32.9719 34.729C32.8097 34.6297 32.6923 34.4714 32.6443 34.2874C32.5964 34.1033 32.6217 33.9078 32.7149 33.742C32.8396 33.6022 33.0145 33.5174 33.2015 33.5062C33.3885 33.4949 33.5723 33.5582 33.7129 33.682Z" fill="#E5E8EA"/>
<path d="M34.0211 34.3459C33.9712 34.2377 33.8985 34.1415 33.8081 34.0639C33.7294 33.9987 33.6372 33.9519 33.5381 33.9269C33.5028 33.9133 33.4651 33.9072 33.4273 33.9093C33.3895 33.9114 33.3527 33.9215 33.3191 33.9389C33.2984 33.9539 33.2813 33.9734 33.2691 33.9959C33.2604 34.0345 33.2435 34.0707 33.2198 34.1023C33.196 34.1338 33.1657 34.1599 33.1311 34.1789C33.0955 34.1978 33.0561 34.2082 33.0159 34.2094C32.9757 34.2106 32.9357 34.2026 32.8991 34.1859C32.8693 34.1703 32.8429 34.1489 32.8214 34.123C32.8 34.0971 32.7839 34.0671 32.7741 34.0349C32.7534 33.9662 32.7599 33.8921 32.7921 33.8279C32.8219 33.7687 32.8676 33.7188 32.9241 33.6839C32.9901 33.6408 33.0649 33.6131 33.1431 33.6029C33.2202 33.5909 33.2988 33.593 33.3751 33.6089C33.4502 33.6271 33.5221 33.6568 33.5881 33.6969C33.6507 33.7327 33.7097 33.7746 33.7641 33.8219C33.8311 33.8831 33.89 33.9527 33.9391 34.0289C34.0028 34.1173 34.0537 34.2142 34.0901 34.3169C34.1241 34.4028 34.141 34.4946 34.1401 34.5869C34.1384 34.6421 34.13 34.6968 34.1151 34.7499C34.113 34.6101 34.0809 34.4724 34.0211 34.3459Z" fill="white"/>
<path d="M28.0091 30.5402C27.9261 30.3842 27.8451 30.2282 27.7631 30.0712C27.6631 29.8712 27.0721 29.5042 26.9201 29.1962C26.7471 28.8482 26.8871 28.2622 26.7201 27.9102C26.5951 27.6452 26.1971 27.4752 26.0751 27.2102C25.9331 26.9022 26.0141 26.2602 25.8751 25.9492C25.7571 25.6872 25.1231 25.4132 25.0081 25.1492C24.8731 24.8402 25.0821 24.3832 24.9501 24.0732C24.8271 23.7892 24.3441 23.6632 24.2271 23.3732C24.0961 23.0582 24.3341 22.5782 24.2071 22.2582C24.0991 21.9872 23.6631 21.8662 23.5631 21.5932C23.4461 21.2932 23.6541 20.8362 23.5401 20.5362C23.4341 20.2532 23.0251 20.1202 22.9251 19.8362C22.8131 19.5282 23.0001 19.0602 22.8931 18.7592C22.7861 18.4582 22.4451 18.3462 22.3451 18.0462C22.1451 17.2612 22.6241 17.2582 22.3811 16.5132C22.1981 15.8602 22.5911 15.5132 23.1091 15.2992L24.7411 14.7992C25.6411 14.5872 26.0221 15.0672 26.0641 15.6292C26.1451 15.8762 26.5571 15.9962 26.6451 16.2422C26.8921 16.8192 26.5751 17.0252 26.6651 17.2722C26.7851 17.6012 27.1031 17.6592 27.2261 17.9862C27.3631 18.3552 27.1841 18.7022 27.3261 19.0692C27.4641 19.3992 27.8421 19.5442 27.9261 19.7692C28.0441 20.0692 27.8761 20.4612 27.9961 20.7612C28.1611 21.1692 28.4571 21.2062 28.6261 21.6122C28.7191 21.8332 28.6831 22.4252 28.7771 22.6452C28.9401 23.0282 29.3981 23.2722 29.5651 23.6542C29.7021 23.9662 29.5411 24.4042 29.6861 24.7262C29.8311 25.0482 30.2141 25.3262 30.3581 25.6342C30.5021 25.9422 30.4131 26.3072 30.5581 26.6172C30.7031 26.9272 31.0931 27.1272 31.2401 27.4272C31.6061 28.1192 31.3541 28.1832 31.5541 28.6732C31.6149 28.7614 31.6589 28.8601 31.6841 28.9642C31.7111 29.0756 31.7158 29.1913 31.698 29.3045C31.6802 29.4178 31.6403 29.5264 31.5805 29.6243C31.5206 29.7221 31.4421 29.8071 31.3494 29.8745C31.2567 29.942 31.1516 29.9904 31.0401 30.0172L29.2211 30.9332C29.0074 31.037 28.7619 31.0541 28.5359 30.9808C28.31 30.9076 28.1212 30.7497 28.0091 30.5402Z" fill="white"/>
<path d="M25.1459 14.9803H25.2109C25.3849 14.9863 25.5494 15.061 25.6685 15.188C25.7875 15.3151 25.8513 15.4842 25.8459 15.6582V15.6872L25.8559 15.7152C25.9339 15.8861 26.0619 16.0294 26.2229 16.1263C26.3086 16.1756 26.3819 16.244 26.4369 16.3262C26.4835 16.4185 26.5109 16.5192 26.5174 16.6223C26.5239 16.7255 26.5095 16.8289 26.4749 16.9262C26.4209 17.0625 26.4149 17.2131 26.4579 17.3532C26.5296 17.5306 26.6477 17.6853 26.7999 17.8012C26.8927 17.8671 26.9677 17.9551 27.0179 18.0573C27.0617 18.203 27.074 18.3564 27.0539 18.5072C27.0289 18.7216 27.0518 18.9388 27.1209 19.1432C27.2156 19.3454 27.3589 19.5209 27.5379 19.6542C27.6117 19.7095 27.6753 19.7771 27.7259 19.8542C27.7596 19.9849 27.7661 20.121 27.7449 20.2542C27.7156 20.4555 27.7331 20.6608 27.7959 20.8542C27.8787 21.0469 28.0046 21.2179 28.1639 21.3542C28.277 21.4489 28.3672 21.5678 28.4279 21.7022C28.4631 21.8481 28.4826 21.9973 28.4859 22.1472C28.4876 22.3471 28.519 22.5456 28.5789 22.7362C28.6879 22.9557 28.8383 23.1519 29.0219 23.3142C29.1616 23.4372 29.2788 23.5838 29.3679 23.7473C29.4107 23.8901 29.425 24.0399 29.4099 24.1882C29.3886 24.4026 29.416 24.6189 29.4899 24.8212C29.5879 25.011 29.7143 25.1847 29.8649 25.3362C29.9827 25.4552 30.0837 25.5898 30.1649 25.7362C30.2149 25.869 30.2416 26.0094 30.2439 26.1512C30.2388 26.3536 30.2828 26.5542 30.3719 26.736C30.4611 26.9178 30.5928 27.0753 30.7559 27.1953C30.8711 27.2912 30.9697 27.4053 31.0479 27.5332C31.1763 27.737 31.2455 27.9724 31.2479 28.2132C31.2456 28.4035 31.2831 28.5922 31.3579 28.7672C31.4182 28.8565 31.4589 28.9576 31.4774 29.0638C31.4958 29.17 31.4916 29.2788 31.4649 29.3832C31.4152 29.4864 31.3454 29.5786 31.2595 29.6544C31.1736 29.7301 31.0735 29.7879 30.9649 29.8242L29.1309 30.7462C29.0315 30.7865 28.9251 30.8069 28.8179 30.8062C28.6947 30.8119 28.5724 30.7817 28.466 30.7195C28.3595 30.6572 28.2733 30.5654 28.2179 30.4552C28.1269 30.2822 28.0459 30.1262 27.9649 29.9692C27.8584 29.8152 27.7269 29.68 27.5759 29.5692C27.4022 29.4376 27.2498 29.2801 27.1239 29.1022C27.0636 28.923 27.0371 28.7341 27.0459 28.5452C27.0555 28.2977 27.0151 28.0508 26.9269 27.8192C26.8325 27.6528 26.7028 27.5091 26.5469 27.3983C26.4423 27.3242 26.3524 27.2312 26.2819 27.1242C26.2276 26.9439 26.2 26.7566 26.1999 26.5682C26.1996 26.3301 26.1601 26.0936 26.0829 25.8682C25.9582 25.6677 25.7866 25.5006 25.5829 25.3812C25.4458 25.2984 25.3237 25.1929 25.2219 25.0692C25.1861 24.9286 25.1816 24.7818 25.2089 24.6393C25.2479 24.4246 25.2328 24.2036 25.1649 23.9962C25.0633 23.81 24.9106 23.6567 24.7249 23.5542C24.6121 23.494 24.5151 23.408 24.4419 23.3033C24.4089 23.1568 24.4089 23.0047 24.4419 22.8582C24.4927 22.6378 24.4851 22.4079 24.4199 22.1913C24.3295 22.014 24.1908 21.866 24.0199 21.7643C23.9198 21.7061 23.8349 21.6253 23.7719 21.5282C23.7429 21.3884 23.7429 21.2441 23.7719 21.1042C23.8152 20.8948 23.8076 20.6781 23.7499 20.4722C23.6664 20.2947 23.5374 20.1426 23.3759 20.0312C23.2763 19.9659 23.1937 19.8778 23.1349 19.7742C23.1059 19.6283 23.1059 19.4782 23.1349 19.3322C23.173 19.1219 23.1638 18.9056 23.1079 18.6992C23.0359 18.5267 22.9222 18.3748 22.7769 18.2572C22.6843 18.1862 22.6102 18.094 22.5609 17.9883C22.4969 17.7808 22.5079 17.5574 22.5919 17.3572C22.7076 17.0689 22.7101 16.7474 22.5989 16.4572C22.4749 16.0252 22.6539 15.7412 23.1989 15.5152L24.8109 15.0152C24.9221 14.9896 25.0358 14.9759 25.1499 14.9742M25.1499 14.7612C25.0151 14.7632 24.8809 14.7803 24.7499 14.8122L23.1179 15.3122C22.5999 15.5262 22.2069 15.8732 22.3899 16.5262C22.6329 17.2712 22.1539 17.2742 22.3539 18.0592C22.4539 18.3592 22.7929 18.4592 22.9019 18.7722C23.0109 19.0852 22.8219 19.5412 22.9339 19.8492C23.0339 20.1332 23.4429 20.2663 23.5489 20.5493C23.6629 20.8493 23.4549 21.3062 23.5719 21.6062C23.6719 21.8792 24.1079 22.0002 24.2159 22.2712C24.3429 22.5862 24.1049 23.0712 24.2359 23.3862C24.3529 23.6712 24.8359 23.7972 24.9589 24.0812C25.0909 24.3912 24.8819 24.8482 25.0169 25.1572C25.1319 25.4212 25.7659 25.6952 25.8839 25.9572C26.0219 26.2682 25.9409 26.9102 26.0839 27.2182C26.2059 27.4862 26.6039 27.6562 26.7289 27.9182C26.8979 28.2702 26.7579 28.8563 26.9289 29.2043C27.0809 29.5123 27.6719 29.8793 27.7719 30.0793C27.8539 30.2363 27.9349 30.3922 28.0179 30.5482C28.0904 30.6989 28.2052 30.8251 28.3484 30.9114C28.4916 30.9978 28.6568 31.0405 28.8239 31.0342C28.9654 31.0342 29.1054 31.006 29.2359 30.9512L31.0549 30.0352C31.1586 30.0102 31.2568 29.9665 31.3449 29.9062C31.4394 29.8412 31.5202 29.7582 31.5827 29.6619C31.6451 29.5657 31.688 29.458 31.7088 29.3452C31.7296 29.2323 31.7279 29.1165 31.7039 29.0043C31.6799 28.8921 31.634 28.7857 31.5689 28.6913C31.3689 28.2013 31.6209 28.1373 31.2549 27.4453C31.1079 27.1453 30.7189 26.9453 30.5729 26.6353C30.4269 26.3253 30.5209 25.9733 30.3729 25.6523C30.2249 25.3313 29.8399 25.0522 29.7009 24.7442C29.5619 24.4362 29.7169 23.9842 29.5799 23.6722C29.4129 23.2902 28.9549 23.0462 28.7919 22.6632C28.6979 22.4432 28.7339 21.8512 28.6409 21.6302C28.4719 21.2242 28.1759 21.1872 28.0109 20.7792C27.8909 20.4792 28.0589 20.0872 27.9409 19.7872C27.8519 19.5672 27.4739 19.4222 27.3359 19.0872C27.1949 18.7202 27.3739 18.3732 27.2359 18.0042C27.1129 17.6772 26.7949 17.6193 26.6749 17.2903C26.5849 17.0433 26.9019 16.8373 26.6549 16.2603C26.5669 16.0143 26.1599 15.8942 26.0739 15.6472C26.0739 15.6272 26.0739 15.6062 26.0739 15.5862C26.0675 15.4721 26.0387 15.3603 25.9891 15.2574C25.9395 15.1544 25.8701 15.0621 25.7848 14.986C25.6996 14.9098 25.6001 14.8512 25.4922 14.8135C25.3843 14.7758 25.27 14.7597 25.1559 14.7662L25.1499 14.7612Z" fill="#E5E8EA"/>
<path d="M30.3753 30.1211C30.681 30.1048 30.9809 30.0312 31.2593 29.9041C31.2993 29.8846 31.3375 29.8615 31.3733 29.8351C31.5519 29.7055 31.6717 29.5104 31.7066 29.2925C31.7415 29.0747 31.6885 28.8519 31.5593 28.6731C31.3593 28.1831 31.6113 28.1191 31.2453 27.4271C31.0983 27.1271 30.7093 26.9271 30.5633 26.6171C30.4173 26.3071 30.5113 25.9551 30.3633 25.6341C30.2153 25.3131 29.8303 25.034 29.6913 24.726C29.5523 24.418 29.7073 23.9661 29.5703 23.6541C29.4033 23.2721 28.9453 23.0281 28.7823 22.6451C28.6883 22.4251 28.7243 21.8331 28.6313 21.6121C28.4623 21.2061 28.1663 21.1691 28.0013 20.7611C27.8813 20.4611 28.0493 20.069 27.9313 19.769C27.8423 19.549 27.4643 19.4041 27.3313 19.0691C27.1903 18.7021 27.3693 18.3551 27.2313 17.9861C27.1083 17.6591 26.7903 17.6011 26.6703 17.2721C26.5803 17.0251 26.8973 16.8191 26.6503 16.2421C26.5623 15.9961 26.1503 15.8761 26.0693 15.6291C26.0303 15.0991 25.6953 14.5791 24.7303 14.7991C24.5363 14.8521 24.3623 14.9161 24.3623 14.9161C24.3955 14.9811 24.435 15.0428 24.4803 15.1001C25.1983 14.9601 25.4433 15.3931 25.4633 15.6271C25.5553 15.8821 25.9633 16.0111 26.0553 16.2661C26.3103 16.8661 25.9943 17.0661 26.0883 17.3261C26.2133 17.6681 26.5333 17.7261 26.6603 18.0681C26.8043 18.4491 26.6293 18.8051 26.7763 19.1851C26.9183 19.5311 27.3013 19.6851 27.3933 19.9181C27.5153 20.2261 27.3503 20.6331 27.4753 20.9401C27.6463 21.3621 27.9443 21.4041 28.1203 21.8241C28.2203 22.0531 28.1833 22.6611 28.2833 22.8891C28.4523 23.2891 28.9163 23.543 29.0893 23.937C29.2303 24.26 29.0733 24.7101 29.2233 25.0431C29.3733 25.3761 29.7623 25.6661 29.9103 25.9861C30.0583 26.3061 29.9743 26.6861 30.1233 27.0011C30.2723 27.3161 30.6563 27.4601 30.8083 27.7751C31.1133 28.3121 30.9083 28.4491 31.1233 28.9561C31.2163 29.2691 31.1413 29.7691 30.3753 30.1211Z" fill="#E5E8EA"/>
<path d="M22.3451 18.056C22.4451 18.356 22.7841 18.456 22.8931 18.769C23.0021 19.082 22.8131 19.538 22.9251 19.846C23.0251 20.13 23.4341 20.263 23.5401 20.546C23.6541 20.846 23.4461 21.303 23.5631 21.603C23.6631 21.876 24.0991 21.997 24.2071 22.268C24.3341 22.583 24.0961 23.068 24.2271 23.383C24.3441 23.668 24.8271 23.794 24.9501 24.083C25.0811 24.393 24.8731 24.85 25.0081 25.159C25.1231 25.423 25.7571 25.697 25.8751 25.959C26.0131 26.27 25.9321 26.912 26.0751 27.22C26.1971 27.488 26.5951 27.658 26.7201 27.92C26.8891 28.272 26.7491 28.858 26.9201 29.206C27.0721 29.514 27.6631 29.881 27.7631 30.081L28.0081 30.55C28.1194 30.7621 28.3089 30.9225 28.5365 30.9972C28.7641 31.0718 29.0118 31.0549 29.2271 30.95L31.1361 29.993C31.5001 29.766 31.3221 29.635 31.0081 29.666C30.8041 29.8607 30.5545 30.001 30.2821 30.074C29.3041 30.343 29.1281 29.731 29.0471 29.574C28.9471 29.374 28.3561 29.007 28.2041 28.699C28.0311 28.351 28.1711 27.765 28.0041 27.414C27.8791 27.149 27.4801 26.979 27.3581 26.714C27.2161 26.406 27.2971 25.764 27.1581 25.453C27.0401 25.191 26.4071 24.917 26.2921 24.653C26.1571 24.345 26.3651 23.887 26.2341 23.577C26.1101 23.293 25.6271 23.168 25.5101 22.877C25.3791 22.563 25.6181 22.082 25.4901 21.763C25.3821 21.492 24.9521 21.37 24.8461 21.098C24.7241 20.798 24.9381 20.34 24.8241 20.04C24.7181 19.757 24.3091 19.624 24.2091 19.34C24.0961 19.032 24.2821 18.564 24.1761 18.263C24.0701 17.962 23.7281 17.85 23.6281 17.55C23.4281 16.766 23.9071 16.762 23.6651 16.017C23.5921 15.757 23.7341 15.266 24.5451 15.086C24.7671 14.902 24.6041 14.896 24.7271 14.802L23.1091 15.302C22.5911 15.516 22.1981 15.863 22.3811 16.516C22.6241 17.261 22.1411 17.264 22.3451 18.056Z" fill="#E5E8EA"/>
</g>
<defs>
<clipPath id="clip0_479_12535">
<rect width="40.01" height="40.003" fill="white"/>
</clipPath>
</defs>
</svg>
