<svg width="41" height="40" viewBox="0 0 41 40" fill="none" xmlns="http://www.w3.org/2000/svg">
<g clip-path="url(#clip0_479_5021)">
<path d="M0.0117188 11.919V39.985L7.21172 39.998C9.83972 34.884 11.4817 32.351 11.8907 31.711C13.094 29.7141 14.4248 27.7968 15.8747 25.971C16.1015 25.6649 16.3886 25.4086 16.7183 25.2178C17.048 25.0271 17.4133 24.906 17.7917 24.862C18.2442 24.8558 18.6944 24.9272 19.1227 25.073C20.1193 26.2784 21.4447 27.1681 22.9377 27.634C23.3291 27.7423 23.7283 27.8199 24.1317 27.866C24.4067 28.089 24.7867 28.409 25.2227 28.809C26.2979 29.8194 27.2781 30.9263 28.1507 32.116C29.248 33.5912 30.2519 35.1335 31.1567 36.734V36.747C31.3866 37.2003 31.6472 37.6373 31.9367 38.055C32.1443 38.2863 32.3982 38.4714 32.6819 38.5982C32.9657 38.725 33.2729 38.7907 33.5837 38.791C33.6045 38.937 33.6636 39.0749 33.7552 39.1905C33.8467 39.3061 33.9674 39.3953 34.1047 39.449L35.0047 39.806C35.3023 39.9234 35.6289 39.9458 35.9397 39.87L36.3697 39.764L36.9697 39.617C37.1466 39.5735 37.312 39.4921 37.4544 39.3785C37.5969 39.2649 37.713 39.1218 37.7947 38.959L39.0447 36.432C39.2527 36.018 39.7007 35.232 39.7007 35.232C39.853 35.0254 39.9529 34.7848 39.9918 34.531C40.0306 34.2772 40.0073 34.0178 39.9237 33.775C39.8617 33.41 39.4637 31.661 39.2937 30.939C38.1352 25.9844 36.6316 21.1168 34.7937 16.372C34.7157 16.089 34.5717 15.451 34.4047 14.889C34.2817 14.477 34.0877 13.833 33.7817 13.058C33.456 12.1548 33.0459 11.2843 32.5567 10.458C32.1625 9.79806 31.6971 9.18336 31.1687 8.62502L31.1267 8.58302C31.3867 8.16402 31.5747 7.82402 31.7947 7.41202C32.9647 5.38074 33.5169 3.05236 33.3837 0.712021C32.1087 1.49902 30.7947 3.78302 29.9897 5.19902C30.5755 3.53142 30.8197 1.76297 30.7077 -0.000976562C29.3009 0.854645 28.0774 1.98028 27.1077 3.31102C26.5792 4.05364 26.132 4.85089 25.7737 5.68903L25.7247 5.67802C23.6201 5.21286 21.4568 5.07222 19.3097 5.26102C13.5517 5.60602 7.03771 8.42202 5.83772 8.94202C3.83395 9.80853 1.88794 10.8029 0.0117188 11.919Z" fill="#684040"/>
<path d="M32.3409 15.39C31.2799 15.1562 30.1951 15.0488 29.1089 15.07C29.4209 19.058 32.6149 18.576 33.7719 17.641C33.2279 16.7 32.7219 15.937 32.3409 15.39Z" fill="#3A1919"/>
<path d="M29.8589 15.0869C29.8829 17.9869 32.4969 17.8419 33.3649 16.9579C32.9779 16.3259 32.6249 15.7969 32.3409 15.3899C31.528 15.1938 30.6951 15.0921 29.8589 15.0869Z" fill="#241711"/>
<path d="M31.3471 16.5271C31.5288 16.5271 31.6761 16.3798 31.6761 16.1981C31.6761 16.0164 31.5288 15.8691 31.3471 15.8691C31.1654 15.8691 31.0181 16.0164 31.0181 16.1981C31.0181 16.3798 31.1654 16.5271 31.3471 16.5271Z" fill="#FCFBFA"/>
<path d="M31.7227 33.551C32.5586 35.214 33.1857 36.974 33.5897 38.791C33.6104 38.937 33.6696 39.0749 33.7611 39.1905C33.8527 39.3061 33.9733 39.3953 34.1107 39.449L35.0107 39.806C35.3082 39.9234 35.6349 39.9457 35.9457 39.87L36.9747 39.617C37.1516 39.5735 37.3169 39.4921 37.4594 39.3785C37.6018 39.2649 37.7179 39.1218 37.7997 38.959L39.0567 36.425C39.2647 36.011 39.7127 35.225 39.7127 35.225C39.8487 34.9923 39.9424 34.7374 39.9897 34.472C40.0038 34.2373 39.9856 34.0018 39.9357 33.772C39.8667 33.408 39.7797 33.047 39.6797 32.6C39.5907 32.181 39.4797 31.66 39.3036 30.938C37.6796 32.347 37.2377 34.924 36.8657 38.153C36.25 36.7231 35.5487 35.3316 34.7657 33.986C33.9718 33.3848 33.0708 32.9403 32.1107 32.676C32.0567 32.783 31.8937 33.128 31.7227 33.551Z" fill="#593232"/>
<path d="M35.9408 39.8701C35.46 38.0318 34.7331 36.2668 33.7798 34.6231C33.7583 34.591 33.7488 34.5524 33.7529 34.514C33.757 34.4756 33.7744 34.4399 33.8021 34.413C33.8298 34.3862 33.866 34.3698 33.9045 34.3669C33.943 34.364 33.9813 34.3747 34.0127 34.3971C34.0787 34.4418 34.1419 34.4905 34.2018 34.5431C34.2349 34.5712 34.2627 34.6051 34.2838 34.6431C35.1792 36.2617 35.8798 37.9807 36.3708 39.7641L35.9408 39.8701Z" fill="#492626"/>
<path d="M25.08 26.5171C23.7156 26.4382 22.4041 25.962 21.307 25.1471C20.3411 24.4256 19.5552 23.4906 19.0105 22.4151C18.4658 21.3395 18.1771 20.1527 18.167 18.9471C18.0772 18.2093 18.0688 17.4638 18.142 16.7241C18.011 17.0241 16.358 21.0001 18.603 24.4001C19.6494 25.9273 21.1719 27.0652 22.933 27.6361C23.3243 27.7444 23.7235 27.822 24.127 27.8681C25.4644 28.0458 26.8249 27.8564 28.063 27.3201C29.238 26.7931 30.2507 25.9614 30.996 24.9111C29.267 26.1101 27.1779 26.6772 25.08 26.5171Z" fill="#684040"/>
<path d="M39.3071 30.9381C38.4114 27.396 37.1252 23.9643 35.4721 20.7061C34.9191 19.6211 34.349 18.6001 33.772 17.6411L33.3521 19.6351C35.6702 23.6902 36.9991 28.2349 37.231 32.9001C37.2702 33.8333 37.2619 34.7678 37.2061 35.7001C37.5641 33.6241 38.1191 31.9681 39.3071 30.9381Z" fill="#775050"/>
<path d="M32.3389 15.3889C32.7199 15.9359 33.2259 16.6999 33.7699 17.6409C34.3489 18.5999 34.9189 19.6209 35.4699 20.7059C37.1222 23.9643 38.4077 27.3959 39.3029 30.9379C38.1444 25.9833 36.6407 21.1157 34.8029 16.3709C34.4489 16.2579 33.9869 16.0979 33.4579 15.8819C33.1849 15.7699 32.7999 15.6109 32.3389 15.3889Z" fill="#A58484"/>
<path d="M37.2308 32.9C36.9983 28.2347 35.6686 23.69 33.3498 19.635C33.2498 20.085 33.1118 20.557 32.9498 21.047C32.4765 22.4342 31.8089 23.7473 30.9668 24.947L30.9958 24.908C30.9828 25.2489 30.9918 25.5903 31.0228 25.93C31.0957 26.5796 31.234 27.2202 31.4358 27.842C32.3214 30.0027 33.4386 32.0611 34.7678 33.981C35.5587 35.323 36.2602 36.7157 36.8678 38.15C36.9678 37.283 37.0728 36.463 37.2048 35.7C37.2609 34.7677 37.2696 33.8332 37.2308 32.9Z" fill="#684040"/>
<path d="M18.1601 18.945C18.1702 20.1506 18.4589 21.3374 19.0036 22.4129C19.5483 23.4885 20.3342 24.4235 21.3001 25.145C22.397 25.9602 23.7086 26.4365 25.0731 26.515C27.1709 26.6771 29.2606 26.1121 30.9911 24.915C31.8206 23.7245 32.479 22.4235 32.9471 21.05C33.1141 20.56 33.2471 20.088 33.3471 19.638L33.7671 17.644C33.2231 16.703 32.7171 15.944 32.3361 15.393C31.2751 15.1592 30.1902 15.0518 29.104 15.073C28.919 14.691 27.515 12.025 26.395 10.291C26.284 10.354 26.1721 10.414 26.0521 10.471C25.5914 10.6947 25.1115 10.8761 24.6181 11.013C24.4871 11.034 24.2701 11.086 23.9391 11.134H23.923C23.795 11.152 23.6491 11.171 23.4841 11.19L23.298 11.21C21.851 11.721 19.653 12.968 18.13 16.721C18.0585 17.4612 18.0686 18.207 18.1601 18.945Z" fill="#896262"/>
<path d="M28.2119 27.2511C29.2662 28.3348 30.2093 29.5214 31.0269 30.7931C31.4439 31.4421 31.8029 32.0761 32.1119 32.6761C33.0709 32.9408 33.9711 33.3846 34.7649 33.9841C33.4315 32.0668 32.3141 30.0079 31.4329 27.8451C31.2312 27.2233 31.0928 26.5827 31.0199 25.9331C30.9889 25.5934 30.9799 25.252 30.9929 24.9111C30.7726 25.2236 30.5267 25.5173 30.2579 25.7891C29.6675 26.3933 28.9748 26.8883 28.2119 27.2511Z" fill="#492626"/>
<path d="M31.1549 36.7451C31.3847 37.1984 31.6454 37.6354 31.9349 38.0531C32.1425 38.2844 32.3963 38.4695 32.6801 38.5963C32.9638 38.7231 33.2711 38.7888 33.5819 38.7891C33.1775 36.9723 32.5504 35.2123 31.7149 33.5491C31.481 34.075 31.2875 34.6179 31.1359 35.1731C31.1239 35.2311 31.1099 35.2901 31.0999 35.3471C31.0379 35.6919 31.0248 36.0437 31.0609 36.3921C31.0822 36.5122 31.1136 36.6303 31.1549 36.7451Z" fill="#492626"/>
<path d="M24.125 27.868C24.401 28.091 24.781 28.411 25.217 28.811C26.2922 29.8213 27.2723 30.9283 28.145 32.118C29.2423 33.5932 30.2462 35.1355 31.151 36.736C31.112 36.6246 31.0822 36.5102 31.062 36.394C31.0261 36.0456 31.0389 35.6939 31.1 35.349C31.346 34.4262 31.6847 33.5306 32.111 32.676C31.802 32.076 31.443 31.442 31.026 30.793C30.2084 29.5212 29.2653 28.3346 28.211 27.251L28.06 27.32C26.8222 27.8558 25.4621 28.0452 24.125 27.868Z" fill="#3A1919"/>
<path d="M39.6801 32.6089C39.7801 33.0559 39.8671 33.4169 39.9361 33.7809C39.986 34.0106 40.0042 34.2462 39.9901 34.4809C39.9428 34.7463 39.8491 35.0012 39.7131 35.2339C39.7131 35.2339 39.2651 36.0169 39.0571 36.4339C38.6476 35.839 38.4838 35.109 38.5999 34.3962C38.716 33.6834 39.103 33.0431 39.6801 32.6089Z" fill="#3A1919"/>
<path d="M39.937 33.7861V33.7721C39.868 33.4081 39.781 33.0471 39.681 32.6001C39.2697 32.9154 38.9529 33.3375 38.7651 33.8205C38.5773 34.3035 38.5258 34.8288 38.616 35.3391C38.6828 34.988 38.8397 34.6603 39.0713 34.388C39.3028 34.1158 39.6012 33.9084 39.937 33.7861Z" fill="#241711"/>
<path d="M27.1938 9.74503C28.0808 11.7792 29.4991 13.5371 31.2998 14.834C31.9918 15.2379 32.7132 15.5893 33.4578 15.885C33.9868 16.101 34.4488 16.261 34.8028 16.374C32.2338 11.537 29.8778 9.47402 28.2338 8.64502C27.931 9.05078 27.582 9.41994 27.1938 9.74503Z" fill="#775050"/>
<path d="M32.3409 15.39C31.2799 15.1562 30.1951 15.0488 29.1089 15.07C29.4209 19.058 32.6149 18.576 33.7719 17.641C33.2279 16.7 32.7219 15.937 32.3409 15.39Z" fill="#3A1919"/>
<path d="M29.8589 15.0869C29.8829 17.9869 32.4969 17.8419 33.3649 16.9579C32.9779 16.3259 32.6249 15.7969 32.3409 15.3899C31.528 15.1938 30.6951 15.0921 29.8589 15.0869Z" fill="#241711"/>
<path d="M31.3471 16.5271C31.5288 16.5271 31.6761 16.3798 31.6761 16.1981C31.6761 16.0164 31.5288 15.8691 31.3471 15.8691C31.1654 15.8691 31.0181 16.0164 31.0181 16.1981C31.0181 16.3798 31.1654 16.5271 31.3471 16.5271Z" fill="#FCFBFA"/>
<path d="M26.4009 10.2871C27.5189 12.0221 28.9249 14.6871 29.1099 15.0691C30.1961 15.0479 31.2809 15.1554 32.3419 15.3891C32.0239 15.2311 31.6729 15.0511 31.2999 14.8311C29.5014 13.5325 28.0833 11.776 27.1929 9.74414C26.9451 9.94767 26.6801 10.1293 26.4009 10.2871Z" fill="#593232"/>
<path d="M6.25098 40.002H7.20798C9.83598 34.888 11.478 32.355 11.887 31.715C13.0903 29.718 14.4211 27.8007 15.871 25.975C16.0977 25.6689 16.3848 25.4125 16.7145 25.2218C17.0443 25.031 17.4096 24.9099 17.788 24.866C18.2384 24.8581 18.6868 24.9288 19.113 25.075C18.819 24.719 18.64 24.461 18.6 24.4C17.8674 23.2791 17.4628 21.9757 17.432 20.637C15.962 23.331 14.126 25.261 13 27.177C10.3947 31.2551 8.13703 35.5453 6.25098 40.002Z" fill="#492626"/>
<path d="M5.97998 40.0031H6.24798C6.57298 39.1891 6.94798 38.354 7.35698 37.51C8.99635 33.9399 10.8829 30.4885 13.003 27.181C14.13 25.263 15.969 23.3351 17.439 20.6351C17.4018 19.2978 17.64 17.9672 18.139 16.726C19.662 12.973 21.86 11.7261 23.307 11.2151C23.2755 11.2173 23.244 11.2104 23.2163 11.1953C23.1886 11.1801 23.1659 11.1574 23.1507 11.1297C23.1355 11.102 23.1286 11.0706 23.1308 11.0391C23.133 11.0076 23.1442 10.9774 23.163 10.9521C23.34 10.7221 23.495 10.509 23.64 10.3C15.574 11.487 7.76098 26.6831 5.97998 40.0031Z" fill="#775050"/>
<path d="M28.316 8.51605C28.286 8.55805 28.261 8.60004 28.23 8.64204C29.874 9.47104 32.23 11.534 34.799 16.371C33.05 11.871 30.154 8.45004 28.917 7.57104C28.827 7.73904 28.724 7.90806 28.617 8.07706C28.6 8.10506 28.581 8.13206 28.564 8.15906C28.486 8.27906 28.4033 8.39805 28.316 8.51605Z" fill="#A58484"/>
<path d="M33.3889 0.712891C33.2181 1.41717 33.0037 2.11018 32.7469 2.7879C32.7029 2.9049 32.6469 3.0379 32.5829 3.1769C32.3339 3.79722 32.0498 4.40286 31.7319 4.99089C31.5519 5.31889 30.3319 7.3289 30.0649 7.6619C30.4469 7.93626 30.8037 8.24414 31.131 8.58189C31.379 8.19989 31.5659 7.8429 31.7999 7.4119C32.9697 5.38091 33.5219 3.0529 33.3889 0.712891Z" fill="#3A1919"/>
<path d="M34.7679 16.2871L34.7989 16.3511C34.7699 16.2271 34.5809 15.4511 34.4139 14.8891C34.2909 14.4771 34.0969 13.8331 33.7909 13.0581C33.4652 12.1549 33.0551 11.2843 32.5659 10.4581C32.1717 9.79815 31.7063 9.18346 31.1779 8.62511C30.5885 8.01422 29.9097 7.49633 29.1649 7.08911C29.0739 7.27111 28.9209 7.57111 28.9209 7.57111C30.1539 8.45311 33.0189 11.8381 34.7679 16.2871Z" fill="#3A1919"/>
<path d="M29.5797 6.2139C29.3657 6.6979 29.1517 7.11389 29.1657 7.08589C29.4765 7.25895 29.777 7.44995 30.0657 7.6579C30.245 7.41723 30.4117 7.16824 30.5657 6.9109C30.9837 6.2429 31.5527 5.3259 31.7367 4.9859C32.476 3.64173 33.0319 2.20462 33.3897 0.712891C32.1147 1.49989 30.8007 3.78389 29.9957 5.19989C29.9527 5.32289 29.7637 5.7999 29.5797 6.2139Z" fill="#593232"/>
<path d="M0.00878906 39.9891L5.97879 40.0001C7.76079 26.6791 15.5788 11.4791 23.6428 10.3001C24.2096 9.48134 24.6715 8.59477 25.0178 7.66111C13.1828 5.90011 1.79079 19.5431 0.00878906 22.6361V39.9891Z" fill="#684040"/>
<path d="M0.00878906 22.6359C1.79079 19.5429 13.1828 5.89992 25.0178 7.65392C25.2048 7.16892 25.3728 6.69492 25.5668 6.19492C24.9457 6.04874 24.3152 5.94615 23.6798 5.88791C22.932 5.81994 22.1801 5.80991 21.4308 5.85792C16.5804 6.25099 11.8511 7.57515 7.50179 9.75793C5.55879 10.6579 0.226789 13.7269 0.00878906 13.8579V22.6359Z" fill="#775050"/>
<path d="M0.00683594 13.8621C0.224836 13.7271 5.55683 10.6531 7.49983 9.76214C11.8506 7.58213 16.5803 6.26007 21.4308 5.86814C22.1802 5.82012 22.9321 5.83015 23.6798 5.89814C24.3152 5.95637 24.9458 6.05895 25.5668 6.20513C25.6328 6.03713 25.7028 5.86613 25.7778 5.69413C22.7364 5.02314 19.589 4.9891 16.5338 5.59414C10.7044 6.73902 5.11485 8.87641 0.00883484 11.9131L0.00683594 13.8621Z" fill="#3A1919"/>
<path opacity="0.3" d="M28.2938 16.7872C28.293 17.5718 28.6038 18.3246 29.158 18.88C29.7121 19.4355 30.4642 19.7481 31.2488 19.7492C31.8381 19.6889 32.3963 19.4554 32.8531 19.0783C33.3099 18.7012 33.6449 18.1974 33.8158 17.6302C33.9569 17.2351 34.0088 16.8137 33.968 16.3962C33.9271 15.9787 33.7944 15.5754 33.5794 15.2152C33.3644 14.8549 33.0724 14.5467 32.7242 14.3126C32.3761 14.0785 31.9806 13.9243 31.5659 13.861C31.1512 13.7976 30.7276 13.8268 30.3255 13.9464C29.9234 14.066 29.5527 14.273 29.24 14.5527C28.9273 14.8323 28.6803 15.1777 28.5167 15.564C28.3531 15.9503 28.277 16.368 28.2938 16.7872Z" fill="black"/>
<path d="M18.48 24.9151C18.6918 24.954 18.9006 25.0074 19.105 25.0751C19.757 25.8425 20.5348 26.4935 21.405 27.0001C22.2401 27.4704 23.1621 27.766 24.115 27.8691C24.315 28.0311 24.698 28.3561 24.828 28.4691C31.382 28.3691 35.702 23.2421 36.828 22.0941C36.768 21.8801 35.659 18.4861 34.796 16.3711C34.3036 13.9536 33.3532 11.6525 31.996 9.59215C31.2524 8.55753 30.286 7.70317 29.168 7.09215C28.1011 6.47803 26.9579 6.0073 25.768 5.69214C24.5665 5.40098 23.3385 5.23344 22.103 5.19214C21.821 8.48614 21.351 12.0371 20.768 15.2861C20.185 18.5351 18.48 24.9151 18.48 24.9151ZM31.248 19.7521C30.4635 19.7512 29.7115 19.4387 29.1574 18.8833C28.6033 18.3279 28.2925 17.5751 28.2935 16.7906C28.2944 16.0061 28.6069 15.2541 29.1623 14.7C29.7177 14.146 30.4705 13.8352 31.255 13.8361C31.7131 13.82 32.1677 13.9208 32.5761 14.1289C32.9845 14.3371 33.3331 14.6458 33.5892 15.0259C33.8453 15.4061 34.0004 15.8452 34.0399 16.3018C34.0794 16.7585 34.002 17.2177 33.815 17.6361C33.6441 18.2033 33.3091 18.7072 32.8523 19.0843C32.3955 19.4614 31.8373 19.6948 31.248 19.7551V19.7521ZM22.796 11.0521C22.7374 10.7849 22.74 10.5078 22.8035 10.2416C22.8671 9.97549 22.99 9.72713 23.163 9.51514C23.5448 8.95344 24.0886 8.52129 24.722 8.27614C25.0193 8.16749 25.3334 8.11166 25.65 8.11115C26.0294 8.08405 26.4079 8.17529 26.7333 8.3723C27.0588 8.56931 27.3151 8.86237 27.467 9.21114C27.816 10.1921 27.376 10.9601 26.227 11.3721C25.027 11.8041 23.112 11.9391 22.796 11.0541V11.0521Z" fill="#25282B"/>
<path d="M22.502 11.1522C22.728 11.7832 23.484 12.0132 24.336 12.0132C25.0174 12.004 25.6928 11.8844 26.336 11.6592C26.9139 11.4934 27.4074 11.1146 27.717 10.5992C27.8301 10.368 27.8931 10.1154 27.9017 9.85806C27.9103 9.60075 27.8644 9.34452 27.767 9.10622C27.6635 8.83681 27.5017 8.59364 27.2932 8.39412C27.0847 8.19461 26.8347 8.0437 26.5609 7.95223C25.9291 7.73624 25.2416 7.74719 24.6169 7.98322C23.1889 8.49322 22.12 10.0932 22.502 11.1522ZM23.162 9.50922C23.5451 8.94934 24.0896 8.5193 24.723 8.27622C25.0208 8.16813 25.3351 8.11231 25.652 8.11122C26.0318 8.08408 26.4107 8.17527 26.7366 8.37224C27.0625 8.56921 27.3194 8.8623 27.472 9.21121C27.822 10.1882 27.381 10.9532 26.231 11.3642C25.031 11.7942 23.11 11.9282 22.794 11.0462C22.7343 10.7789 22.7365 10.5015 22.8002 10.2352C22.864 9.96882 22.9877 9.72053 23.162 9.50922Z" fill="#1A1C1E"/>
<path d="M25.7679 5.68802C26.9651 5.98613 28.1134 6.45422 29.1779 7.07802C29.9599 7.51273 30.6685 8.06786 31.2779 8.72302C33.1859 10.714 34.3309 14.258 34.8059 16.408C34.1819 15.1906 33.4805 14.0145 32.7059 12.887C31.5316 11.1821 30.018 9.73797 28.2599 8.64502C26.4874 7.77483 24.5185 7.38222 22.5479 7.50601C22.5799 7.30601 22.7479 5.41802 22.7539 5.21802C23.7698 5.29089 24.7779 5.4481 25.7679 5.68802Z" fill="#32373A"/>
<path d="M18.4849 24.9141C19.1379 22.4081 19.9019 19.6141 20.5759 16.2511C21.2774 12.5907 21.7861 8.89595 22.0999 5.18213C22.2999 5.19013 22.5179 5.20313 22.7549 5.21913C22.1428 11.9341 20.9228 18.5796 19.1099 25.0741C18.905 25.0079 18.6963 24.9545 18.4849 24.9141Z" fill="black"/>
<path d="M19.106 25.074C19.127 25.1 19.163 25.142 19.2 25.183C19.6216 25.6573 20.0907 26.0872 20.6 26.466C21.0714 26.8229 21.5849 27.1204 22.129 27.352C22.7683 27.6163 23.4415 27.7897 24.129 27.867C26.643 27.967 30.683 27.067 34.967 23.041C33.313 24.315 24.629 30.158 19.574 23.351C19.422 23.9 19.257 24.527 19.106 25.074Z" fill="#1A1C1E"/>
<path d="M24.1299 27.8692C26.9179 27.9812 31.5799 26.8692 36.3799 21.6152L36.6029 21.3853L36.8389 22.0932C32.4659 26.9092 28.4519 28.4033 24.8389 28.4713C24.5799 28.2453 24.1249 27.8692 24.1299 27.8692Z" fill="black"/>
<path d="M27.9858 16.7872C27.9853 17.6566 28.33 18.4906 28.9441 19.106C29.5582 19.7214 30.3914 20.0679 31.2608 20.0692C31.9137 20.0023 32.5322 19.7436 33.0383 19.3258C33.5445 18.9079 33.9156 18.3496 34.1048 17.7212C34.3109 17.2575 34.3957 16.7491 34.3513 16.2437C34.3069 15.7383 34.1349 15.2525 33.8513 14.8318C33.5677 14.4111 33.1818 14.0694 32.7299 13.8388C32.278 13.6081 31.7749 13.4961 31.2678 13.5132C30.3985 13.5124 29.5645 13.8568 28.9491 14.4707C28.3336 15.0847 27.9872 15.9179 27.9858 16.7872ZM28.6698 15.3612C28.7952 15.1402 28.9485 14.9362 29.1258 14.7542H29.2758V15.6762H30.1958V16.6002H31.1148V17.5252H32.0358V18.4502H32.9548V18.9812C32.7738 19.1502 32.5722 19.2956 32.3548 19.4142V19.3702V19.0452H31.4338V18.1222H30.5098V17.1982H29.5888V16.2752H28.6678V15.3612H28.6698ZM32.3558 14.0612C32.5941 14.1575 32.8185 14.2853 33.0228 14.4412H32.3538V14.0652L32.3558 14.0612ZM33.2778 14.6812C33.4591 14.8843 33.6088 15.1135 33.7218 15.3612H33.2798V14.6852L33.2778 14.6812ZM33.8478 15.6812C34.0039 16.1751 34.0308 16.7009 33.9258 17.2082H33.2798V16.2852H32.3578V15.3612H31.4368V14.4382H30.5128V13.9382C30.7549 13.8734 31.0043 13.8398 31.2548 13.8382C31.517 13.8403 31.7778 13.878 32.0298 13.9502V14.7612H32.9488V15.6832H33.8488L33.8478 15.6812ZM33.8118 17.6312C33.6889 17.9905 33.5064 18.3265 33.2718 18.6252V18.1252H32.3518V17.2022H31.4318V16.2782H30.5118V15.3552H29.5988V14.4322H29.4928C29.7071 14.2706 29.9427 14.1393 30.1928 14.0422V14.7542H31.1138V15.6792H32.0328V16.6022H32.9528V17.5262H33.8388C33.8278 17.5612 33.8228 17.5972 33.8098 17.6332L33.8118 17.6312ZM32.0308 19.5632C31.7805 19.6594 31.518 19.72 31.2508 19.7432C31.0027 19.74 30.7558 19.7064 30.5158 19.6432V19.0362L29.5948 19.0192V18.1122H28.6848L28.6738 18.0892V17.1892H28.3338C28.3146 17.0547 28.3042 16.919 28.3028 16.7832C28.3028 16.7192 28.3028 16.6562 28.3098 16.5942H29.2698V17.5182H30.1888V18.4412H31.1098V19.3652H32.0288V19.5652L32.0308 19.5632ZM30.1848 19.3632V19.5392C30.0558 19.4881 29.9299 19.4293 29.8078 19.3632H30.1848ZM29.2658 18.9702C29.0914 18.8109 28.9363 18.6317 28.8038 18.4362H29.2638V18.9632L29.2658 18.9702Z" fill="#666666"/>
<path d="M24.5099 8.82401C24.2965 9.25415 24.056 9.67032 23.7899 10.07C23.6059 10.343 23.4009 10.631 23.1609 10.943C23.1367 10.9748 23.125 11.0142 23.1279 11.054C23.1293 11.0761 23.135 11.0977 23.1448 11.1175C23.1545 11.1374 23.1681 11.1551 23.1847 11.1697C23.2014 11.1843 23.2207 11.1954 23.2417 11.2025C23.2626 11.2096 23.2848 11.2125 23.3069 11.211C23.7502 11.1689 24.1909 11.1021 24.6269 11.011C25.2758 10.2601 25.8145 9.42069 26.2269 8.51801C26.4399 8.06701 26.4399 7.985 27.4599 5.177C28.2166 3.26618 29.319 1.51119 30.7119 0C29.3058 0.854514 28.0824 1.97836 27.1119 3.30701C25.5209 5.56201 25.3999 7.012 24.5099 8.82401Z" fill="#593232"/>
<path d="M24.623 11.0099C25.1169 10.8738 25.597 10.692 26.057 10.4669C27.2963 9.82839 28.3009 8.81295 28.926 7.56688C28.934 7.55188 29.384 6.66088 29.434 6.55188C29.525 6.35188 29.6081 6.16089 29.6851 5.98389C29.7991 5.72055 29.9014 5.46088 29.992 5.20488C30.5798 3.53772 30.8251 1.76907 30.7131 0.00488281C29.3168 1.51367 28.2136 3.26926 27.46 5.18188C26.44 7.98988 26.44 8.07189 26.227 8.52289C25.8134 9.42398 25.2733 10.2614 24.623 11.0099Z" fill="#3A1919"/>
<path d="M29.6221 33.1711C29.6221 32.7696 29.7411 32.3771 29.9642 32.0433C30.1872 31.7095 30.5043 31.4493 30.8752 31.2956C31.2462 31.142 31.6543 31.1018 32.0481 31.1801C32.4419 31.2585 32.8036 31.4518 33.0875 31.7357C33.3714 32.0196 33.5647 32.3813 33.6431 32.7751C33.7214 33.1689 33.6812 33.577 33.5275 33.948C33.3739 34.3189 33.1137 34.636 32.7799 34.859C32.446 35.0821 32.0536 35.2011 31.6521 35.2011C31.3854 35.2011 31.1213 35.1486 30.875 35.0465C30.6286 34.9444 30.4048 34.7948 30.2163 34.6062C30.0278 34.4176 29.8783 34.1937 29.7763 33.9473C29.6743 33.7009 29.6219 33.4368 29.6221 33.1701V33.1711ZM31.6521 31.3481C31.2913 31.3481 30.9387 31.4551 30.6387 31.6555C30.3387 31.8559 30.105 32.1408 29.9669 32.4741C29.8289 32.8074 29.7927 33.1741 29.8631 33.528C29.9335 33.8818 30.1072 34.2068 30.3623 34.4619C30.6174 34.717 30.9424 34.8907 31.2962 34.9611C31.65 35.0314 32.0168 34.9953 32.3501 34.8573C32.6834 34.7192 32.9682 34.4854 33.1687 34.1855C33.3691 33.8855 33.4761 33.5329 33.4761 33.1721C33.4755 32.6885 33.2832 32.2249 32.9413 31.8829C32.5993 31.541 32.1357 31.3487 31.6521 31.3481Z" fill="#E5E8EA"/>
<path d="M33.4739 33.9151L33.5289 33.9431C33.6555 33.6348 33.7043 33.3001 33.6708 32.9685C33.6374 32.6369 33.5228 32.3187 33.3372 32.0419C33.1515 31.7651 32.9005 31.5383 32.6064 31.3816C32.3123 31.2248 31.9842 31.1429 31.6509 31.1431C31.4822 31.1422 31.3142 31.163 31.1509 31.2051C31.2897 31.1858 31.4297 31.1764 31.5699 31.1771C31.897 31.1782 32.219 31.2582 32.5086 31.4104C32.7982 31.5625 33.0468 31.7823 33.2333 32.0511C33.4198 32.3198 33.5387 32.6296 33.5799 32.9541C33.6211 33.2786 33.5833 33.6083 33.4699 33.9151H33.4739Z" fill="white"/>
<path d="M31.5721 35.0341C31.8254 35.0359 32.0761 34.9831 32.3071 34.8791C32.0971 34.9561 31.8757 34.997 31.6521 35.0001C31.2544 35.0015 30.8673 34.8729 30.5495 34.6339C30.2317 34.3949 30.0006 34.0586 29.8916 33.6763C29.7826 33.2939 29.8015 32.8863 29.9454 32.5157C30.0894 32.145 30.3505 31.8316 30.6891 31.623C30.6627 31.635 30.637 31.6483 30.6121 31.6631C30.339 31.815 30.1136 32.0399 29.9608 32.3125C29.8081 32.5851 29.7341 32.8948 29.7471 33.2071C29.7473 33.6912 29.9396 34.1554 30.2818 34.4979C30.6239 34.8404 31.0879 35.0333 31.5721 35.0341Z" fill="white"/>
<path d="M22.127 27.3321C22.286 27.3941 22.427 27.4491 22.6 27.5141C23.4579 23.5364 23.8509 19.4725 23.771 15.4041C25.11 19.8363 26.8114 24.1509 28.8579 28.3041C29.4799 29.6041 30.066 30.7701 30.566 31.7131C30.8054 31.5441 31.0781 31.4282 31.366 31.3731C31.216 31.1731 29.698 28.2161 28.005 24.3241C27.285 22.6681 26.537 20.8401 25.842 18.9901C25.675 18.5281 25.414 17.8221 25.114 16.9631C24.776 15.9761 24.414 14.8631 24.165 13.9851C26.6579 12.9998 29.003 11.6753 31.1339 10.0491C31.4489 9.81807 31.863 9.50206 31.907 9.46606C31.652 9.13906 31.5379 9.00406 31.2589 8.69806C31.0969 8.82906 30.687 9.13506 30.52 9.26306C28.4996 10.8141 26.2746 12.0784 23.908 13.0201C23.5143 12.0985 23.4618 11.0668 23.76 10.1101C24.3563 9.2032 24.8361 8.22483 25.188 7.19806C25.288 6.93106 25.373 6.69806 25.431 6.53906C25.404 6.53906 21.417 9.23206 22.884 13.3811C22.971 13.6811 23.048 13.9301 23.148 14.3481C23.717 18.0001 22.68 24.9581 22.127 27.3321Z" fill="black"/>
<path d="M0 34.9V35.739C4.3924 38.0408 9.27212 39.2574 14.231 39.287C15.214 39.287 16.166 39.232 17.093 39.141C19.335 38.9223 21.5461 38.4568 23.686 37.753C25.0496 37.2942 26.3852 36.7559 27.686 36.141C28.761 35.61 29.729 35.084 30.536 34.61C30.3349 34.4414 30.1656 34.2382 30.036 34.01C29.176 34.5293 28.292 35.005 27.384 35.437C26.1652 36.0029 24.9148 36.4981 23.639 36.92C21.4077 37.5993 19.1182 38.0707 16.8 38.328C10.9883 38.8 5.16216 37.6112 0 34.9Z" fill="black"/>
<path d="M27.5228 36.2081C27.1368 36.3961 26.8168 36.5341 26.5688 36.6451C26.2418 36.7871 25.9688 36.8951 25.6418 37.0271C25.2418 37.1941 24.2528 37.5591 23.8718 37.6851L23.4248 37.4141C23.4248 37.4141 23.5638 37.0891 23.6248 36.9251C24.3088 36.6991 24.9738 36.4511 25.1888 36.3681C25.6058 36.2061 26.0098 36.0411 26.2758 35.9271C26.6758 35.7611 27.1068 35.5641 27.2068 35.5171C27.3168 35.7531 27.4128 35.9721 27.5228 36.2081Z" fill="#32373A"/>
<path d="M26.2801 36.7672C26.3801 36.7252 26.5391 36.6581 26.7031 36.5851L26.3911 35.8792L25.9771 36.0522L26.2801 36.7672Z" fill="black"/>
<path d="M25.7922 18.8531L25.5212 19.3331C25.5212 19.3331 25.1422 19.2141 24.9692 19.1581L24.8502 18.8211L24.7302 18.4831C24.5982 18.1161 24.4882 17.7581 24.3672 17.3961L25.1722 17.1311C25.3722 17.6881 25.7922 18.8531 25.7922 18.8531Z" fill="#32373A"/>
<path d="M28.769 28.145C28.469 27.545 27.929 26.364 27.55 25.522C27.424 25.238 27.325 24.986 27.25 24.822C27.25 24.822 27.413 24.457 27.499 24.28L28.062 24.468L29.562 27.781C29.3 27.907 28.78 28.145 28.769 28.145Z" fill="#32373A"/>
<path d="M25.2561 17.3512L24.4421 17.6132L24.3711 17.3962L25.1711 17.1282L25.2561 17.3512Z" fill="black"/>
<path d="M25.6712 18.5092L24.8432 18.7932C24.7892 18.6392 24.7322 18.4812 24.6782 18.3262C24.9502 18.2262 25.2282 18.1342 25.5002 18.0342C25.5552 18.1922 25.6112 18.3512 25.6712 18.5092Z" fill="black"/>
<path d="M27.5562 25.521C27.6362 25.7 27.7191 25.879 27.7981 26.059L28.6052 25.659C28.5252 25.485 28.4492 25.311 28.3682 25.134L27.5562 25.521Z" fill="black"/>
<path d="M28.1279 26.7871C28.2079 26.9671 28.2849 27.1351 28.3779 27.3281L29.1779 26.9281C29.0969 26.7541 29.0199 26.5741 28.9389 26.4001L28.1279 26.7871Z" fill="black"/>
<path d="M28.6538 27.894L28.9068 28.408C28.9068 28.408 29.4068 28.184 29.6978 28.051C29.5978 27.836 29.4518 27.531 29.4518 27.531L28.6538 27.894Z" fill="black"/>
<path d="M24.7948 17.6101C24.9075 17.6101 24.9988 17.5188 24.9988 17.4061C24.9988 17.2935 24.9075 17.2021 24.7948 17.2021C24.6822 17.2021 24.5908 17.2935 24.5908 17.4061C24.5908 17.5188 24.6822 17.6101 24.7948 17.6101Z" fill="black"/>
<path d="M29.1319 28.079C29.2606 28.079 29.3649 27.9747 29.3649 27.846C29.3649 27.7174 29.2606 27.613 29.1319 27.613C29.0032 27.613 28.8989 27.7174 28.8989 27.846C28.8989 27.9747 29.0032 28.079 29.1319 28.079Z" fill="black"/>
<path d="M27.3341 36.2952L27.5221 36.2042L27.2071 35.5132C27.1441 35.5422 27.0781 35.5702 27.0151 35.6002L27.3341 36.2952Z" fill="black"/>
<path d="M27.2308 36.103C27.3424 36.103 27.4328 36.0125 27.4328 35.901C27.4328 35.7894 27.3424 35.699 27.2308 35.699C27.1192 35.699 27.0288 35.7894 27.0288 35.901C27.0288 36.0125 27.1192 36.103 27.2308 36.103Z" fill="black"/>
<path d="M26.2631 35.9321L26.1001 36.0002L26.4141 36.7112L26.5761 36.6411L26.2631 35.9321Z" fill="#666666"/>
<path d="M28.58 27.7452L28.418 27.8182C28.466 27.9182 28.537 28.0672 28.596 28.1872L28.696 28.3792L28.775 28.3432C29.082 28.2002 29.722 27.9062 29.722 27.9062L29.802 27.8702L29.535 27.2842L29.374 27.3572L29.568 27.7832L28.779 28.1462L28.76 28.1092C28.7 27.9892 28.628 27.8452 28.58 27.7452Z" fill="#666666"/>
<path d="M24.146 17.2791L24.346 17.8931L24.514 17.8391L24.369 17.3911L24.645 17.3001L24.685 17.4241C24.6925 17.4461 24.7066 17.4652 24.7254 17.4789C24.7442 17.4925 24.7668 17.4999 24.79 17.5001C24.8013 17.5011 24.8127 17.5011 24.824 17.5001C24.8516 17.4907 24.8744 17.471 24.8877 17.445C24.901 17.4191 24.9036 17.389 24.895 17.3611L24.854 17.2361L25.173 17.1301L25.327 17.5571L25.493 17.4971L25.28 16.9081L25.198 16.9361L24.798 17.0691L24.763 16.9581C24.7534 16.9307 24.7336 16.9081 24.7076 16.895C24.6817 16.882 24.6517 16.8795 24.624 16.8881C24.6103 16.8925 24.5976 16.8996 24.5867 16.909C24.5757 16.9183 24.5668 16.9297 24.5603 16.9425C24.5537 16.9554 24.5498 16.9694 24.5488 16.9837C24.5477 16.9981 24.5495 17.0125 24.554 17.0261L24.59 17.1381L24.229 17.2561L24.146 17.2791Z" fill="#666666"/>
<path d="M25.5554 18.1909L24.731 18.4841L24.7899 18.65L25.6143 18.3568L25.5554 18.1909Z" fill="#666666"/>
<path d="M27.2988 35.2751L26.7598 35.5231L26.8348 35.6861L27.2138 35.5151L27.3138 35.7451L27.2138 35.7901C27.1941 35.7984 27.1774 35.8123 27.1656 35.8301C27.1539 35.8479 27.1477 35.8688 27.1478 35.8901C27.1479 35.9046 27.1509 35.9189 27.1565 35.9322C27.1622 35.9455 27.1704 35.9575 27.1807 35.9676C27.191 35.9777 27.2032 35.9857 27.2166 35.9911C27.23 35.9966 27.2443 35.9993 27.2588 35.9991C27.274 35.9988 27.2889 35.9954 27.3028 35.9891L27.4028 35.9431C27.4438 36.0351 27.4858 36.1261 27.5218 36.2041L27.4988 36.2151C27.3908 36.2681 27.2638 36.3322 27.1638 36.3752L27.2358 36.5361C27.3358 36.4931 27.4668 36.4271 27.5758 36.3741L27.7548 36.2871L27.7178 36.2091C27.6758 36.1181 27.6178 35.9952 27.5638 35.8712L27.6498 35.8331C27.6718 35.8202 27.6887 35.8002 27.6978 35.7764C27.7069 35.7526 27.7076 35.7264 27.6998 35.7021C27.6953 35.6884 27.6881 35.6757 27.6786 35.6648C27.6691 35.6539 27.6576 35.645 27.6447 35.6386C27.6318 35.6322 27.6177 35.6284 27.6033 35.6274C27.5889 35.6265 27.5744 35.6285 27.5608 35.6331L27.4718 35.6732L27.3278 35.3561L27.2988 35.2751Z" fill="#666666"/>
<path d="M29.0228 26.575L28.2178 26.966L28.2918 27.127L29.0918 26.737L29.0228 26.575Z" fill="#666666"/>
<path d="M28.454 25.321L27.645 25.7211L27.716 25.879L28.528 25.4881L28.454 25.321Z" fill="#666666"/>
<path d="M22.766 26.7331C22.713 26.9981 22.656 27.2761 22.599 27.5331C22.524 27.5051 22.218 27.3951 22.124 27.3501C22.187 27.0711 22.251 26.7651 22.309 26.4711C22.351 26.2531 22.393 26.0401 22.43 25.8291C22.53 25.8801 22.808 25.9881 22.9 26.0241C22.863 26.2561 22.818 26.4911 22.766 26.7331Z" fill="black"/>
<path d="M29.202 28.2681L29.028 27.8832C29.0166 27.8567 29.0161 27.8269 29.0265 27.8001C29.037 27.7733 29.0577 27.7518 29.084 27.7401C29.0972 27.7341 29.1115 27.7308 29.1259 27.7303C29.1404 27.7298 29.1549 27.7322 29.1684 27.7373C29.182 27.7424 29.1944 27.7501 29.205 27.7601C29.2156 27.77 29.2241 27.7819 29.23 27.7951L29.404 28.1811C29.4158 28.2077 29.4167 28.2378 29.4064 28.265C29.3961 28.2922 29.3755 28.3141 29.349 28.3261C29.3338 28.3324 29.3175 28.3358 29.301 28.3361C29.2797 28.3356 29.259 28.3289 29.2414 28.3169C29.2238 28.3048 29.2101 28.2879 29.202 28.2681Z" fill="#666666"/>
<path d="M33.7129 33.6821C34.0839 33.9611 34.3449 34.5711 34.1519 34.8291C33.9589 35.0871 33.3419 35.0081 32.9719 34.7291C32.8097 34.6298 32.6922 34.4715 32.6443 34.2874C32.5964 34.1034 32.6217 33.9079 32.7149 33.7421C32.8393 33.6018 33.0143 33.5167 33.2015 33.5054C33.3886 33.4942 33.5726 33.5577 33.7129 33.6821Z" fill="#E5E8EA"/>
<path d="M34.0212 34.345C33.9718 34.2365 33.899 34.1402 33.8082 34.063C33.73 33.997 33.6376 33.9501 33.5382 33.926C33.503 33.9119 33.4652 33.9056 33.4273 33.9077C33.3895 33.9098 33.3526 33.9201 33.3192 33.938C33.298 33.9525 33.2808 33.9721 33.2692 33.995C33.2602 34.0334 33.2432 34.0696 33.2195 34.1011C33.1957 34.1326 33.1656 34.1588 33.1312 34.178C33.0955 34.1964 33.0561 34.2065 33.016 34.2077C32.9758 34.2089 32.9359 34.2012 32.8992 34.185C32.8394 34.1529 32.7945 34.0987 32.7742 34.034C32.7534 33.9653 32.7598 33.8912 32.7922 33.827C32.8214 33.7673 32.8673 33.7173 32.9242 33.683C32.9898 33.6391 33.0648 33.6114 33.1432 33.602C33.2202 33.5889 33.299 33.591 33.3752 33.608C33.4506 33.6254 33.5225 33.6551 33.5882 33.696C33.7313 33.7753 33.852 33.8895 33.9392 34.028C34.0033 34.1161 34.0542 34.2132 34.0902 34.316C34.1471 34.4534 34.1559 34.606 34.1152 34.749C34.1132 34.6092 34.0812 34.4714 34.0212 34.345Z" fill="white"/>
</g>
<defs>
<clipPath id="clip0_479_5021">
<rect width="40.015" height="40.003" fill="white"/>
</clipPath>
</defs>
</svg>
