<svg width="41" height="40" viewBox="0 0 41 40" fill="none" xmlns="http://www.w3.org/2000/svg">
<g clip-path="url(#clip0_479_6144)">
<path d="M0.0117188 11.919V39.985L7.21172 39.998C9.83972 34.884 11.4817 32.351 11.8907 31.711C13.094 29.7141 14.4248 27.7968 15.8747 25.971C16.1015 25.6649 16.3886 25.4086 16.7183 25.2179C17.048 25.0271 17.4133 24.906 17.7917 24.862C18.2442 24.8559 18.6944 24.9272 19.1227 25.073C20.1193 26.2784 21.4447 27.1681 22.9377 27.634C23.3291 27.7423 23.7283 27.8199 24.1317 27.866C24.4067 28.089 24.7867 28.409 25.2227 28.809C26.2979 29.8194 27.2781 30.9263 28.1507 32.116C29.248 33.5912 30.2519 35.1335 31.1567 36.734V36.747C31.3866 37.2003 31.6472 37.6373 31.9367 38.055C32.1443 38.2863 32.3982 38.4714 32.6819 38.5982C32.9657 38.725 33.2729 38.7907 33.5837 38.791C33.6045 38.937 33.6636 39.0749 33.7552 39.1905C33.8467 39.3061 33.9674 39.3953 34.1047 39.449L35.0047 39.806C35.3023 39.9234 35.6289 39.9458 35.9397 39.87L36.3697 39.764L36.9697 39.617C37.1466 39.5735 37.312 39.4921 37.4544 39.3785C37.5969 39.2649 37.7129 39.1218 37.7947 38.959L39.0447 36.432C39.2527 36.018 39.7007 35.232 39.7007 35.232C39.853 35.0254 39.9529 34.7848 39.9918 34.531C40.0306 34.2772 40.0073 34.0178 39.9237 33.775C39.8617 33.41 39.4637 31.661 39.2937 30.939C38.1352 25.9844 36.6316 21.1168 34.7937 16.372C34.7157 16.089 34.5717 15.451 34.4047 14.889C34.2817 14.477 34.0877 13.833 33.7817 13.058C33.456 12.1548 33.0459 11.2842 32.5567 10.458C32.1625 9.79804 31.6971 9.18338 31.1687 8.62503L31.1267 8.58301C31.3867 8.16401 31.5747 7.82402 31.7947 7.41202C32.9647 5.38074 33.5169 3.05235 33.3837 0.712006C32.1087 1.49901 30.7947 3.78301 29.9897 5.19901C30.5755 3.53141 30.8197 1.76297 30.7077 -0.000976562C29.3009 0.854645 28.0774 1.98026 27.1077 3.311C26.5792 4.05363 26.132 4.85089 25.7737 5.68903L25.7247 5.67801C23.6201 5.21284 21.4568 5.07222 19.3097 5.26102C13.5517 5.60602 7.03772 8.42202 5.83772 8.94202C3.83395 9.80853 1.88794 10.8029 0.0117188 11.919Z" fill="#B27053"/>
<path d="M32.3409 15.39C31.2799 15.1562 30.1951 15.0488 29.1089 15.07C29.4209 19.058 32.6149 18.576 33.7719 17.641C33.2279 16.7 32.7219 15.937 32.3409 15.39Z" fill="#4C2E22"/>
<path d="M29.8589 15.0869C29.8829 17.9869 32.4969 17.8419 33.3649 16.9579C32.9779 16.3259 32.6249 15.7969 32.3409 15.3899C31.528 15.1938 30.6951 15.0921 29.8589 15.0869Z" fill="#241711"/>
<path d="M31.3471 16.5271C31.5288 16.5271 31.6761 16.3798 31.6761 16.1981C31.6761 16.0164 31.5288 15.8691 31.3471 15.8691C31.1654 15.8691 31.0181 16.0164 31.0181 16.1981C31.0181 16.3798 31.1654 16.5271 31.3471 16.5271Z" fill="#FCFBFA"/>
<path d="M31.7227 33.551C32.5586 35.214 33.1857 36.974 33.5897 38.791C33.6104 38.937 33.6696 39.0749 33.7611 39.1905C33.8527 39.3061 33.9733 39.3953 34.1107 39.449L35.0107 39.806C35.3082 39.9234 35.6349 39.9457 35.9457 39.87L36.9747 39.617C37.1516 39.5735 37.3169 39.4921 37.4594 39.3785C37.6018 39.2649 37.7179 39.1218 37.7997 38.959L39.0567 36.425C39.2647 36.011 39.7127 35.225 39.7127 35.225C39.8487 34.9923 39.9424 34.7374 39.9897 34.472C40.0038 34.2373 39.9856 34.0018 39.9357 33.772C39.8667 33.408 39.7797 33.047 39.6797 32.6C39.5907 32.181 39.4797 31.66 39.3037 30.938C37.6797 32.347 37.2377 34.924 36.8657 38.153C36.25 36.7231 35.5487 35.3316 34.7657 33.986C33.9718 33.3848 33.0708 32.9403 32.1107 32.676C32.0567 32.783 31.8937 33.128 31.7227 33.551Z" fill="#8E5A42"/>
<path d="M35.9407 39.87C35.4599 38.0317 34.733 36.2667 33.7797 34.623C33.7607 34.5953 33.7505 34.5626 33.7505 34.529C33.7505 34.4954 33.7607 34.4627 33.7797 34.435C33.8052 34.3995 33.8437 34.3755 33.8868 34.3684C33.9299 34.3613 33.9741 34.3716 34.0097 34.397C34.0757 34.4417 34.1388 34.4904 34.1987 34.543C34.2318 34.5711 34.2596 34.605 34.2807 34.643C35.1761 36.2616 35.8767 37.9806 36.3677 39.764L35.9407 39.87Z" fill="#7C4F3A"/>
<path d="M25.08 26.5171C23.7156 26.4382 22.4041 25.962 21.307 25.1471C20.3411 24.4256 19.5552 23.4906 19.0105 22.415C18.4658 21.3395 18.1771 20.1527 18.167 18.9471C18.0772 18.2093 18.0688 17.4638 18.142 16.7241C18.011 17.0241 16.358 21.0001 18.603 24.4001C19.6494 25.9273 21.1719 27.0652 22.933 27.6361C23.3243 27.7444 23.7235 27.822 24.127 27.8681C25.4644 28.0458 26.8249 27.8564 28.063 27.3201C29.238 26.7931 30.2507 25.9613 30.996 24.9111C29.267 26.1101 27.1779 26.6772 25.08 26.5171Z" fill="#B27053"/>
<path d="M39.3071 30.9381C38.4114 27.396 37.1252 23.9643 35.472 20.7061C34.919 19.6211 34.349 18.6001 33.772 17.6411L33.3521 19.6351C35.6702 23.6902 36.9991 28.2349 37.2311 32.9001C37.2702 33.8333 37.2619 34.7678 37.206 35.7001C37.564 33.6241 38.1191 31.9681 39.3071 30.9381Z" fill="#C88769"/>
<path d="M32.3389 15.3889C32.7199 15.9359 33.2259 16.6999 33.7699 17.6409C34.3489 18.5999 34.9189 19.6209 35.4699 20.7059C37.1222 23.9643 38.4077 27.3959 39.3029 30.9379C38.1444 25.9833 36.6407 21.1157 34.8029 16.3709C34.4489 16.2579 33.9869 16.0979 33.4579 15.8819C33.1799 15.7699 32.7999 15.6109 32.3389 15.3889Z" fill="#D8AB96"/>
<path d="M37.2309 32.9C36.9984 28.2347 35.6687 23.69 33.3499 19.635C33.2499 20.085 33.1119 20.557 32.9449 21.047C32.4716 22.4342 31.804 23.7473 30.9619 24.947L30.9909 24.908C30.9779 25.2489 30.9869 25.5903 31.0179 25.93C31.0908 26.5796 31.2292 27.2202 31.4309 27.842C32.3165 30.0027 33.4337 32.0611 34.7629 33.981C35.5538 35.323 36.2553 36.7157 36.8629 38.15C36.9629 37.283 37.0629 36.463 37.1999 35.7C37.2577 34.7678 37.2681 33.8333 37.2309 32.9Z" fill="#B27053"/>
<path d="M18.1597 18.945C18.1698 20.1505 18.4585 21.3374 19.0032 22.413C19.5479 23.4885 20.3339 24.4235 21.2997 25.145C22.3967 25.9602 23.7083 26.4365 25.0727 26.515C27.1706 26.6771 29.2603 26.1121 30.9907 24.915C31.8203 23.7245 32.4787 22.4235 32.9467 21.05C33.1137 20.56 33.2467 20.088 33.3517 19.638L33.7717 17.644C33.2277 16.703 32.7217 15.944 32.3407 15.393C31.2798 15.1592 30.1949 15.0518 29.1087 15.073C28.9237 14.691 27.5197 12.025 26.3997 10.291C26.2887 10.354 26.1767 10.414 26.0567 10.471C25.5961 10.6947 25.1161 10.8761 24.6227 11.013C24.4917 11.034 24.2747 11.086 23.9437 11.134H23.9277C23.7997 11.152 23.6537 11.171 23.4887 11.19L23.3027 11.21C21.8557 11.721 19.6577 12.968 18.1347 16.721C18.0615 17.461 18.0699 18.2068 18.1597 18.945Z" fill="#CC9079"/>
<path d="M28.2119 27.2511C29.2662 28.3348 30.2093 29.5214 31.0269 30.7932C31.4439 31.4422 31.8029 32.0761 32.1119 32.6761C33.0709 32.9408 33.9711 33.3846 34.7649 33.9841C33.4315 32.0668 32.314 30.008 31.4329 27.8452C31.2312 27.2234 31.0928 26.5828 31.0199 25.9331C30.9889 25.5934 30.9799 25.252 30.9929 24.9111C30.7726 25.2236 30.5267 25.5173 30.2579 25.7892C29.6675 26.3934 28.9748 26.8883 28.2119 27.2511Z" fill="#7C4F3A"/>
<path d="M31.1549 36.7451C31.3848 37.1984 31.6454 37.6354 31.9349 38.0531C32.1425 38.2844 32.3964 38.4695 32.6801 38.5963C32.9639 38.7231 33.2711 38.7888 33.5819 38.7891C33.1775 36.9723 32.5504 35.2123 31.7149 33.5491C31.481 34.075 31.2875 34.6179 31.1359 35.1731C31.1239 35.2311 31.1099 35.2901 31.0999 35.3471C31.0379 35.6919 31.0248 36.0437 31.0609 36.3921C31.0822 36.5122 31.1136 36.6303 31.1549 36.7451Z" fill="#7C4F3A"/>
<path d="M24.125 27.868C24.401 28.091 24.781 28.411 25.217 28.811C26.2922 29.8213 27.2723 30.9283 28.145 32.118C29.2423 33.5932 30.2462 35.1355 31.151 36.736C31.112 36.6246 31.0822 36.5102 31.062 36.394C31.0261 36.0456 31.0389 35.6939 31.1 35.349C31.346 34.4262 31.6847 33.5306 32.111 32.676C31.802 32.076 31.443 31.442 31.026 30.793C30.2084 29.5212 29.2653 28.3346 28.211 27.251L28.06 27.32C26.8222 27.8558 25.4621 28.0452 24.125 27.868Z" fill="#4C2E22"/>
<path d="M39.6801 32.6089C39.7801 33.0559 39.8671 33.4169 39.9361 33.7809C39.986 34.0106 40.0042 34.2462 39.9901 34.4809C39.9428 34.7463 39.8491 35.0012 39.7131 35.2339C39.7131 35.2339 39.2651 36.0169 39.0571 36.4339C38.6476 35.839 38.4838 35.109 38.5999 34.3962C38.716 33.6834 39.103 33.0431 39.6801 32.6089Z" fill="#7C4F3A"/>
<path d="M39.937 33.7861V33.7721C39.868 33.4081 39.781 33.0471 39.681 32.6001C39.2697 32.9154 38.9529 33.3375 38.7651 33.8205C38.5773 34.3035 38.5258 34.8288 38.616 35.3391C38.6828 34.988 38.8397 34.6603 39.0713 34.388C39.3028 34.1158 39.6012 33.9084 39.937 33.7861Z" fill="#4C2E22"/>
<path d="M27.1938 9.74503C28.0808 11.7792 29.4991 13.5371 31.2998 14.834C31.9918 15.2379 32.7132 15.5893 33.4578 15.885C33.9868 16.101 34.4488 16.261 34.8028 16.374C32.2338 11.537 29.8778 9.47402 28.2338 8.64502C27.931 9.05078 27.582 9.41994 27.1938 9.74503Z" fill="#C88769"/>
<path d="M32.3409 15.39C31.2799 15.1562 30.1951 15.0488 29.1089 15.07C29.4209 19.058 32.6149 18.576 33.7719 17.641C33.2279 16.7 32.7219 15.937 32.3409 15.39Z" fill="#7C4F3A"/>
<path d="M29.8589 15.0869C29.8829 17.9869 32.4969 17.8419 33.3649 16.9579C32.9779 16.3259 32.6249 15.7969 32.3409 15.3899C31.528 15.1938 30.6951 15.0921 29.8589 15.0869Z" fill="#4C2E22"/>
<path d="M31.3471 16.5271C31.5288 16.5271 31.6761 16.3798 31.6761 16.1981C31.6761 16.0164 31.5288 15.8691 31.3471 15.8691C31.1654 15.8691 31.0181 16.0164 31.0181 16.1981C31.0181 16.3798 31.1654 16.5271 31.3471 16.5271Z" fill="#FCFBFA"/>
<path d="M26.4009 10.2871C27.5189 12.0221 28.9249 14.6872 29.1099 15.0692C30.1961 15.048 31.2809 15.1554 32.3419 15.3891C32.0239 15.2311 31.6729 15.0511 31.2999 14.8311C29.5014 13.5325 28.0833 11.776 27.1929 9.74414C26.9451 9.94768 26.6801 10.1294 26.4009 10.2871Z" fill="#8E5A42"/>
<path d="M6.25098 40.002H7.20798C9.83598 34.888 11.478 32.355 11.887 31.715C13.0903 29.718 14.4211 27.8007 15.871 25.9749C16.0977 25.6689 16.3848 25.4125 16.7145 25.2218C17.0443 25.0311 17.4096 24.9099 17.788 24.866C18.2384 24.8581 18.6868 24.9288 19.113 25.075C18.819 24.719 18.64 24.461 18.6 24.4C17.8674 23.2791 17.4628 21.9757 17.432 20.637C15.962 23.331 14.126 25.261 13 27.177C10.3947 31.2552 8.13703 35.5453 6.25098 40.002Z" fill="#7C4F3A"/>
<path d="M5.97998 40.0031H6.24798C6.57298 39.1891 6.94798 38.354 7.35698 37.51C8.99634 33.9399 10.8829 30.4885 13.003 27.1811C14.13 25.2631 15.969 23.335 17.439 20.635C17.4018 19.2978 17.64 17.9672 18.139 16.726C19.662 12.973 21.86 11.7261 23.307 11.2151C23.2664 11.2182 23.2261 11.2061 23.194 11.1811C23.1769 11.1681 23.1625 11.1519 23.1517 11.1333C23.1408 11.1148 23.1338 11.0943 23.1309 11.073C23.128 11.0517 23.1294 11.0301 23.1349 11.0093C23.1404 10.9886 23.1499 10.9691 23.163 10.9521C23.34 10.7221 23.495 10.509 23.64 10.3C15.574 11.487 7.76098 26.6831 5.97998 40.0031Z" fill="#C88769"/>
<path d="M28.316 8.51605C28.286 8.55805 28.261 8.60006 28.23 8.64206C29.874 9.47106 32.235 11.5341 34.799 16.3711C33.05 11.8711 30.154 8.45004 28.917 7.57104C28.827 7.73904 28.724 7.90806 28.617 8.07706C28.6 8.10506 28.581 8.13206 28.564 8.15906C28.486 8.27906 28.4033 8.39805 28.316 8.51605Z" fill="#D8AB96"/>
<path d="M33.3889 0.712891C33.2181 1.41717 33.0037 2.11018 32.7469 2.7879C32.7029 2.9049 32.6469 3.03791 32.5829 3.17691C32.3339 3.79724 32.0498 4.40288 31.7319 4.99091C31.5519 5.31891 30.3319 7.3289 30.0649 7.6619C30.4469 7.93625 30.8037 8.24415 31.1309 8.58191C31.3789 8.19991 31.5659 7.8429 31.7999 7.4119C32.9697 5.38091 33.5219 3.0529 33.3889 0.712891Z" fill="#4C2E22"/>
<path d="M34.7679 16.2871L34.7989 16.3511C34.7699 16.2271 34.5809 15.4511 34.4139 14.8891C34.2909 14.4771 34.0969 13.8331 33.7909 13.0581C33.4652 12.1549 33.055 11.2843 32.5659 10.4581C32.1723 9.79823 31.7075 9.18357 31.1799 8.62512C30.5904 8.01422 29.9117 7.49631 29.1669 7.08911C29.0759 7.27111 28.9229 7.57111 28.9229 7.57111C30.1539 8.45311 33.0189 11.8381 34.7679 16.2871Z" fill="#4C2E22"/>
<path d="M29.5797 6.2139C29.3657 6.6979 29.1517 7.11391 29.1657 7.08591C29.4765 7.25897 29.777 7.44995 30.0657 7.6579C30.245 7.41723 30.4117 7.16822 30.5657 6.91089C30.9837 6.24289 31.5527 5.3259 31.7367 4.9859C32.1244 4.27638 32.4635 3.54135 32.7517 2.78589C33.0065 2.10857 33.2196 1.41627 33.3897 0.712891C32.1147 1.49989 30.8007 3.78389 29.9957 5.19989C29.9527 5.32289 29.7637 5.7999 29.5797 6.2139Z" fill="#8E5A42"/>
<path d="M0.00878906 39.9891L5.97879 40.0001C7.76079 26.6791 15.5788 11.4791 23.6428 10.3001C24.2096 9.48134 24.6715 8.59475 25.0178 7.66109C13.1798 5.90009 1.79079 19.5451 0.00878906 22.6361V39.9891Z" fill="#B27053"/>
<path d="M0.00878906 22.6359C1.79079 19.5429 13.1828 5.89992 25.0178 7.65392C25.2048 7.16892 25.3728 6.6949 25.5668 6.1949C24.9457 6.04871 24.3152 5.94615 23.6798 5.88793C22.932 5.81993 22.1801 5.8099 21.4308 5.85793C16.5803 6.25098 11.8511 7.57512 7.50179 9.75792C5.55879 10.6579 0.226789 13.7269 0.00878906 13.8579V22.6359Z" fill="#C88769"/>
<path d="M0.00683594 13.8621C0.224836 13.7271 5.55683 10.6531 7.49983 9.76213C11.8506 7.58214 16.5803 6.26008 21.4308 5.86812C22.1802 5.82011 22.9321 5.83014 23.6798 5.89812C24.3152 5.95636 24.9458 6.05895 25.5668 6.20512C25.6328 6.03712 25.7028 5.86614 25.7778 5.69414C22.7364 5.02315 19.589 4.9891 16.5338 5.59413C10.7044 6.73899 5.11484 8.87639 0.00883484 11.9131L0.00683594 13.8621Z" fill="#4C2E22"/>
<path opacity="0.3" d="M28.2939 16.7871C28.2932 17.5717 28.604 18.3245 29.1581 18.8799C29.7123 19.4354 30.4643 19.748 31.2489 19.7491C31.8382 19.6887 32.3965 19.4553 32.8533 19.0782C33.3101 18.7011 33.6451 18.1972 33.8159 17.63C34.0203 17.0875 34.0591 16.4966 33.9276 15.9319C33.796 15.3673 33.5 14.8544 33.0769 14.458C32.5579 14.0502 31.9161 13.8299 31.2559 13.833C30.8675 13.8325 30.4827 13.9085 30.1237 14.0567C29.7646 14.2048 29.4382 14.4223 29.1632 14.6966C28.8881 14.9709 28.6698 15.2967 28.5206 15.6554C28.3715 16.014 28.2945 16.3986 28.2939 16.7871Z" fill="black"/>
<path d="M18.48 24.9151C18.6918 24.954 18.9006 25.0074 19.105 25.0751C19.757 25.8425 20.5348 26.4935 21.405 27.0002C22.2401 27.4704 23.1621 27.766 24.115 27.8691C24.315 28.0311 24.698 28.3561 24.828 28.4691C31.417 28.3381 35.737 23.2151 36.828 22.0941C36.768 21.8801 35.659 18.4862 34.796 16.3712C34.3021 13.9532 33.3499 11.6521 31.991 9.59213C31.2474 8.55752 30.281 7.70315 29.163 7.09213C28.0961 6.47802 26.9529 6.0073 25.763 5.69214C24.5615 5.401 23.3335 5.23346 22.098 5.19214C21.816 8.48614 21.346 12.0371 20.763 15.2861C20.18 18.5451 18.48 24.9151 18.48 24.9151ZM31.248 19.7521C30.4634 19.7511 29.7113 19.4384 29.1572 18.883C28.603 18.3275 28.2922 17.5747 28.293 16.7901C28.2935 16.4017 28.3705 16.0172 28.5197 15.6585C28.6688 15.2998 28.8871 14.974 29.1622 14.6997C29.4372 14.4254 29.7636 14.208 30.1227 14.0598C30.4818 13.9116 30.8665 13.8356 31.255 13.8362C31.9151 13.833 32.5569 14.0533 33.076 14.4612C33.4991 14.8575 33.7951 15.3704 33.9266 15.9351C34.0582 16.4997 34.0193 17.0906 33.815 17.6331C33.6441 18.2003 33.3091 18.7042 32.8523 19.0813C32.3955 19.4584 31.8373 19.6918 31.248 19.7521ZM22.796 11.0522C22.7374 10.7849 22.74 10.5078 22.8035 10.2416C22.8671 9.97549 22.99 9.72713 23.163 9.51514C23.5448 8.95344 24.0886 8.5213 24.722 8.27615C25.0193 8.16751 25.3334 8.11166 25.65 8.11115C26.0294 8.08405 26.4079 8.17528 26.7333 8.37228C27.0588 8.56929 27.3151 8.86239 27.467 9.21115C27.816 10.1922 27.376 10.9601 26.227 11.3721C25.027 11.8041 23.112 11.9391 22.796 11.0541V11.0522Z" fill="#25282B"/>
<path d="M22.502 11.1522C22.728 11.7832 23.484 12.0132 24.336 12.0132C25.0174 12.004 25.6928 11.8844 26.336 11.6592C26.9139 11.4934 27.4074 11.1146 27.717 10.5992C27.8301 10.368 27.8931 10.1154 27.9017 9.85807C27.9103 9.60076 27.8644 9.34452 27.767 9.10621C27.6635 8.8368 27.5017 8.59363 27.2932 8.39411C27.0847 8.1946 26.8347 8.0437 26.561 7.95222C25.9291 7.73623 25.2416 7.7472 24.617 7.98323C23.189 8.49323 22.12 10.0932 22.502 11.1522ZM23.162 9.50923C23.5451 8.94935 24.0896 8.51931 24.723 8.27622C25.0208 8.16813 25.3351 8.1123 25.652 8.11122C26.0318 8.08408 26.4107 8.17526 26.7366 8.37223C27.0625 8.56921 27.3194 8.86231 27.472 9.21122C27.822 10.1882 27.381 10.9532 26.231 11.3642C25.031 11.7942 23.11 11.9282 22.794 11.0462C22.7343 10.7789 22.7365 10.5015 22.8002 10.2352C22.864 9.96883 22.9877 9.72054 23.162 9.50923Z" fill="#1A1C1E"/>
<path d="M25.7679 5.68826C26.9651 5.98636 28.1134 6.45447 29.1779 7.07828C29.9599 7.51297 30.6685 8.0681 31.2779 8.72327C33.1859 10.7143 34.3309 14.2583 34.8059 16.4083C34.1819 15.1909 33.4805 14.0148 32.7059 12.8873C31.5316 11.1824 30.018 9.73821 28.2599 8.64526C26.4874 7.77508 24.5185 7.38247 22.5479 7.50626C22.5799 7.30626 22.7429 5.41826 22.7539 5.21826C23.7698 5.29114 24.7779 5.44835 25.7679 5.68826Z" fill="#32373A"/>
<path d="M18.4849 24.9142C19.1379 22.4082 19.9019 19.6141 20.5759 16.2511C21.2774 12.5907 21.7861 8.89595 22.0999 5.18213C22.2999 5.19013 22.5179 5.20315 22.7549 5.21915C22.1428 11.9341 20.9228 18.5796 19.1099 25.0741C18.905 25.0079 18.6963 24.9545 18.4849 24.9142Z" fill="black"/>
<path d="M19.106 25.074C19.127 25.1 19.163 25.142 19.2 25.183C19.6216 25.6573 20.0907 26.0873 20.6 26.466C21.0714 26.8229 21.5849 27.1204 22.129 27.352C22.7667 27.6159 23.4382 27.7892 24.124 27.867C26.638 27.967 30.678 27.067 34.962 23.041C33.308 24.315 24.624 30.158 19.569 23.351C19.422 23.9 19.257 24.527 19.106 25.074Z" fill="#1A1C1E"/>
<path d="M28.1672 15.693C27.8742 16.5082 27.9169 17.4063 28.286 18.19C28.655 18.9736 29.3202 19.5787 30.1352 19.872L30.2422 19.578L30.5962 18.61C30.6198 18.5466 30.6235 18.4774 30.6067 18.4118C30.5899 18.3462 30.5534 18.2873 30.5022 18.243C30.3516 18.1191 30.2093 17.9855 30.0762 17.843C29.8259 17.4723 29.7061 17.0288 29.7358 16.5824C29.7655 16.1361 29.943 15.7123 30.2402 15.378C29.9402 15.118 29.6722 14.873 29.3282 14.548C29.2552 14.48 29.1812 14.409 29.1002 14.332C28.678 14.6986 28.3568 15.1671 28.1672 15.693Z" fill="#60696D"/>
<path d="M29.3311 14.545C29.6751 14.87 29.9431 15.1151 30.2431 15.3751C29.9453 15.7101 29.7677 16.1348 29.7382 16.5821C29.7086 17.0294 29.829 17.4738 30.0801 17.8451C30.1715 17.9451 30.269 18.0392 30.3721 18.127C30.0852 17.7885 29.9267 17.3597 29.9243 16.9159C29.9219 16.4721 30.0759 16.0417 30.3591 15.7C30.6029 15.4303 30.9286 15.2483 31.2861 15.182C31.4024 15.1571 31.5212 15.145 31.6401 15.146C31.7034 15.1465 31.7653 15.1276 31.8175 15.0918C31.8697 15.0561 31.9097 15.0052 31.9321 14.946L32.2731 14.0131L32.3801 13.719C31.8285 13.5161 31.2323 13.4663 30.6547 13.5747C30.0771 13.6832 29.5396 13.9459 29.0991 14.335C29.1801 14.409 29.2511 14.48 29.3311 14.545Z" fill="#839196"/>
<path d="M29.806 20.1922H29.814C29.8596 20.2086 29.9099 20.2062 29.9537 20.1856C29.9976 20.165 30.0315 20.1278 30.048 20.0822L30.128 19.8632C29.7242 19.7154 29.3535 19.4895 29.0371 19.1984C28.7206 18.9074 28.4646 18.5569 28.2836 18.1668C28.1026 17.7768 28.0002 17.355 27.9823 16.9254C27.9643 16.4958 28.0312 16.0669 28.179 15.6632C28.3268 15.2594 28.5527 14.8887 28.8437 14.5723C29.1348 14.2558 29.4853 13.9998 29.8753 13.8188C30.2653 13.6378 30.6872 13.5354 31.1167 13.5175C31.5463 13.4995 31.9752 13.5664 32.379 13.7142L32.463 13.4862V13.4782C32.4708 13.4542 32.4737 13.4288 32.4717 13.4036C32.4697 13.3785 32.4627 13.3539 32.4512 13.3315C32.4397 13.309 32.4238 13.289 32.4046 13.2726C32.3853 13.2563 32.363 13.2439 32.339 13.2362C31.7782 13.0723 31.1869 13.0411 30.612 13.1452C29.896 13.274 29.2341 13.6115 28.7094 14.1154C28.1847 14.6193 27.8206 15.267 27.663 15.9772C27.4743 16.8193 27.5851 17.7009 27.9762 18.4702C28.3674 19.2395 29.0144 19.8484 29.806 20.1922Z" fill="black"/>
<path d="M31.2539 20.0721H31.2669C31.9195 20.0084 32.5385 19.7525 33.0457 19.3369C33.5528 18.9212 33.9253 18.3645 34.1159 17.7371C34.3417 17.135 34.3833 16.4793 34.2353 15.8535C34.0873 15.2278 33.7564 14.6602 33.2849 14.2231L33.2769 14.2161C32.9931 14.0218 32.6917 13.8544 32.3769 13.7161L32.2699 14.01C32.5618 14.1149 32.8352 14.2654 33.0799 14.4561C33.5039 14.8529 33.8005 15.3666 33.9323 15.9322C34.064 16.4978 34.0249 17.0897 33.8199 17.6331C33.6494 18.2016 33.3141 18.7067 32.8565 19.0846C32.3988 19.4625 31.8393 19.6962 31.2489 19.756C30.9038 19.754 30.5617 19.6921 30.2379 19.5731L30.1309 19.867C30.4862 20.0151 30.8692 20.0851 31.2539 20.0721Z" fill="#1A1C1E"/>
<path d="M24.1299 27.8693C26.9179 27.9813 31.5799 26.8693 36.3799 21.6153L36.6029 21.3853L36.8389 22.0933C32.4659 26.9093 28.4519 28.4033 24.8389 28.4713C24.5799 28.2453 24.1249 27.8693 24.1299 27.8693Z" fill="black"/>
<path d="M24.5099 8.82397C24.2965 9.25413 24.056 9.6703 23.7899 10.07C23.6059 10.343 23.4009 10.631 23.1609 10.943C23.1367 10.9747 23.125 11.0142 23.1279 11.054C23.1293 11.0761 23.135 11.0976 23.1448 11.1175C23.1545 11.1373 23.1681 11.1551 23.1847 11.1697C23.2014 11.1843 23.2207 11.1954 23.2417 11.2025C23.2626 11.2096 23.2848 11.2125 23.3069 11.211C23.7502 11.1688 24.1909 11.1021 24.6269 11.011C25.2757 10.2601 25.8145 9.42066 26.2269 8.51797C26.4399 8.06697 26.4399 7.985 27.4599 5.177C28.2165 3.26617 29.319 1.51118 30.7119 0C29.304 0.854007 28.0789 1.97786 27.1069 3.30698C25.5209 5.56198 25.3999 7.01197 24.5099 8.82397Z" fill="#8E5A42"/>
<path d="M24.623 11.0099C25.1169 10.8738 25.597 10.6921 26.057 10.4669C27.2964 9.82845 28.301 8.813 28.926 7.56689C28.934 7.55189 29.384 6.66091 29.434 6.55191C29.525 6.35191 29.608 6.16089 29.685 5.98389C29.799 5.72055 29.9014 5.4609 29.992 5.2049C30.5799 3.53774 30.8251 1.76907 30.713 0.00488281C29.3167 1.51365 28.2136 3.26924 27.46 5.18188C26.44 7.98988 26.44 8.07189 26.227 8.52289C25.8134 9.42398 25.2733 10.2614 24.623 11.0099Z" fill="#4C2E22"/>
<path d="M29.6221 33.1711C29.6221 32.6327 29.8359 32.1164 30.2166 31.7357C30.5973 31.355 31.1137 31.1411 31.6521 31.1411C32.1905 31.1411 32.7068 31.355 33.0875 31.7357C33.4682 32.1164 33.6821 32.6327 33.6821 33.1711C33.6821 33.7095 33.4682 34.2258 33.0875 34.6065C32.7068 34.9872 32.1905 35.2011 31.6521 35.2011C31.1138 35.2008 30.5976 34.9869 30.2169 34.6062C29.8363 34.2256 29.6223 33.7094 29.6221 33.1711ZM31.6521 31.3481C31.1683 31.3481 30.7043 31.5401 30.3619 31.8819C30.0196 32.2237 29.8269 32.6873 29.8261 33.1711C29.8261 33.655 30.0182 34.119 30.3602 34.4612C30.7023 34.8035 31.1662 34.9959 31.6501 34.9961C32.134 34.9961 32.5982 34.804 32.9405 34.462C33.2829 34.12 33.4755 33.6561 33.4761 33.1721C33.4763 32.9324 33.4293 32.695 33.3378 32.4735C33.2463 32.252 33.1119 32.0506 32.9425 31.881C32.7731 31.7115 32.572 31.5769 32.3505 31.4851C32.1291 31.3933 31.8918 31.3461 31.6521 31.3461V31.3481Z" fill="#E5E8EA"/>
<path d="M33.4739 33.9151L33.5289 33.9431C33.6296 33.6979 33.6812 33.4352 33.6809 33.1701C33.6807 32.9037 33.6281 32.6399 33.526 32.3939C33.4239 32.1478 33.2743 31.9243 33.0858 31.736C32.8973 31.5478 32.6736 31.3986 32.4273 31.2968C32.1811 31.1951 31.9173 31.1428 31.6509 31.1431C31.4822 31.1422 31.3142 31.163 31.1509 31.2051C31.2897 31.1858 31.4297 31.1764 31.5699 31.1771C32.108 31.1779 32.6239 31.392 33.0044 31.7726C33.385 32.1531 33.5991 32.669 33.5999 33.2071C33.6006 33.4488 33.558 33.6886 33.4739 33.9151Z" fill="white"/>
<path d="M31.572 35.0341C31.8253 35.0359 32.076 34.9831 32.307 34.8791C32.097 34.9561 31.8756 34.997 31.652 35.0001C31.3395 35.0009 31.0321 34.9215 30.7592 34.7696C30.4862 34.6176 30.2568 34.3981 30.093 34.132C29.9673 33.928 29.8832 33.7012 29.8454 33.4645C29.8075 33.2279 29.8167 32.9861 29.8725 32.7531C29.9282 32.52 30.0294 32.3002 30.1702 32.1063C30.3109 31.9124 30.4886 31.7482 30.693 31.623C30.6666 31.635 30.6409 31.6483 30.616 31.6631C30.3429 31.815 30.1175 32.0399 29.9647 32.3125C29.812 32.5851 29.738 32.8948 29.751 33.2071C29.7512 33.6905 29.943 34.1541 30.2843 34.4965C30.6255 34.8389 31.0885 35.0322 31.572 35.0341Z" fill="white"/>
<path d="M22.127 27.3321C22.286 27.3941 22.427 27.449 22.6 27.514C23.4579 23.5363 23.8509 19.4724 23.771 15.4041C25.11 19.8363 26.8114 24.1508 28.858 28.304C29.48 29.604 30.066 30.77 30.566 31.713C30.8054 31.5441 31.0781 31.4282 31.366 31.373C31.216 31.173 29.698 28.216 28.005 24.324C27.285 22.668 26.537 20.8401 25.842 18.9901C25.675 18.5281 25.414 17.822 25.114 16.963C24.776 15.976 24.414 14.863 24.165 13.985C26.6579 12.9998 29.003 11.6753 31.134 10.049C31.449 9.81804 31.863 9.50206 31.907 9.46606C31.652 9.13906 31.538 9.00406 31.259 8.69806C31.097 8.82906 30.687 9.13506 30.52 9.26306C28.4996 10.8141 26.2746 12.0784 23.908 13.0201C23.5143 12.0985 23.4618 11.0668 23.76 10.11C24.3563 9.20319 24.8361 8.22484 25.188 7.19806C25.288 6.93106 25.373 6.69806 25.431 6.53906C25.404 6.53906 21.417 9.23204 22.884 13.381C22.971 13.681 23.048 13.9301 23.148 14.3481C23.717 18.0001 22.68 24.9581 22.127 27.3321Z" fill="black"/>
<path d="M0 34.9V35.739C4.3924 38.0408 9.27211 39.2574 14.231 39.287C15.214 39.287 16.166 39.232 17.093 39.141C19.335 38.9223 21.5461 38.4568 23.686 37.753C25.0496 37.2942 26.3852 36.7559 27.686 36.141C28.761 35.61 29.729 35.084 30.536 34.61C30.3349 34.4414 30.1655 34.2382 30.036 34.01C29.176 34.5293 28.292 35.005 27.384 35.437C26.1652 36.0029 24.9148 36.4981 23.639 36.92C21.4077 37.5993 19.1182 38.0707 16.8 38.328C10.9883 38.8 5.16216 37.6112 0 34.9Z" fill="black"/>
<path d="M27.5228 36.2081C27.1368 36.3961 26.8168 36.5341 26.5688 36.6451C26.2418 36.7871 25.9688 36.8951 25.6418 37.0271C25.2418 37.1941 24.2528 37.5591 23.8718 37.6851L23.4248 37.4141C23.4248 37.4141 23.5638 37.0891 23.6248 36.9251C24.3088 36.6991 24.9738 36.4511 25.1888 36.3681C25.6058 36.2061 26.0098 36.0411 26.2758 35.9271C26.6758 35.7611 27.1068 35.5641 27.2068 35.5171C27.3168 35.7531 27.4128 35.9721 27.5228 36.2081Z" fill="#32373A"/>
<path d="M26.28 36.7672C26.38 36.7252 26.539 36.6581 26.703 36.5851L26.391 35.8792L25.9771 36.0522L26.28 36.7672Z" fill="black"/>
<path d="M25.7922 18.8531L25.5212 19.3331C25.5212 19.3331 25.1422 19.2141 24.9692 19.1581L24.8502 18.8211L24.7302 18.4831C24.5982 18.1161 24.4882 17.7581 24.3672 17.3961L25.1722 17.1311C25.3722 17.6881 25.7922 18.8531 25.7922 18.8531Z" fill="#32373A"/>
<path d="M28.769 28.145C28.469 27.545 27.929 26.364 27.55 25.522C27.424 25.238 27.325 24.986 27.25 24.822C27.25 24.822 27.413 24.457 27.499 24.28L28.062 24.468L29.562 27.781C29.3 27.907 28.78 28.145 28.769 28.145Z" fill="#32373A"/>
<path d="M25.2561 17.3509L24.4421 17.6129L24.3711 17.3959L25.1711 17.1279L25.2561 17.3509Z" fill="black"/>
<path d="M25.6712 18.5092L24.8432 18.7932C24.7892 18.6392 24.7322 18.4812 24.6782 18.3262C24.9502 18.2262 25.2282 18.1342 25.5002 18.0342C25.5552 18.1922 25.6112 18.3512 25.6712 18.5092Z" fill="black"/>
<path d="M27.5562 25.521C27.6362 25.7 27.7192 25.879 27.7982 26.059L28.6052 25.659C28.5252 25.485 28.4492 25.311 28.3682 25.134L27.5562 25.521Z" fill="black"/>
<path d="M28.1279 26.7871C28.2079 26.9671 28.2849 27.1352 28.3779 27.3282L29.1779 26.9281C29.0969 26.7541 29.0199 26.5741 28.9389 26.4001L28.1279 26.7871Z" fill="black"/>
<path d="M28.6538 27.894L28.9068 28.408C28.9068 28.408 29.4068 28.184 29.6978 28.051C29.5978 27.836 29.4518 27.531 29.4518 27.531L28.6538 27.894Z" fill="black"/>
<path d="M24.7948 17.6101C24.9075 17.6101 24.9988 17.5188 24.9988 17.4061C24.9988 17.2935 24.9075 17.2021 24.7948 17.2021C24.6822 17.2021 24.5908 17.2935 24.5908 17.4061C24.5908 17.5188 24.6822 17.6101 24.7948 17.6101Z" fill="black"/>
<path d="M29.1319 28.079C29.2606 28.079 29.3649 27.9747 29.3649 27.846C29.3649 27.7174 29.2606 27.613 29.1319 27.613C29.0032 27.613 28.8989 27.7174 28.8989 27.846C28.8989 27.9747 29.0032 28.079 29.1319 28.079Z" fill="black"/>
<path d="M27.3341 36.2952L27.5221 36.2042L27.2071 35.5132C27.1441 35.5422 27.0781 35.5702 27.0151 35.6002L27.3341 36.2952Z" fill="black"/>
<path d="M27.2308 36.103C27.3424 36.103 27.4328 36.0125 27.4328 35.901C27.4328 35.7894 27.3424 35.699 27.2308 35.699C27.1192 35.699 27.0288 35.7894 27.0288 35.901C27.0288 36.0125 27.1192 36.103 27.2308 36.103Z" fill="black"/>
<path d="M26.2631 35.9321L26.1001 36.0002L26.4141 36.7112L26.5761 36.6411L26.2631 35.9321Z" fill="#666666"/>
<path d="M28.58 27.7452L28.418 27.8182C28.466 27.9182 28.537 28.0672 28.596 28.1872L28.696 28.3792L28.775 28.3432C29.082 28.2002 29.722 27.9062 29.722 27.9062L29.802 27.8702L29.535 27.2842L29.374 27.3572L29.568 27.7832L28.779 28.1462L28.76 28.1092C28.7 27.9892 28.628 27.8452 28.58 27.7452Z" fill="#666666"/>
<path d="M24.146 17.2791L24.346 17.8931L24.514 17.8391L24.369 17.3911L24.645 17.3001L24.685 17.4241C24.6922 17.4453 24.7055 17.4639 24.7233 17.4774C24.7412 17.491 24.7626 17.4989 24.785 17.5001H24.819C24.8466 17.4907 24.8694 17.471 24.8827 17.445C24.896 17.419 24.8986 17.389 24.89 17.3611L24.849 17.2361L25.168 17.1301L25.322 17.5571L25.488 17.4971L25.275 16.9081L25.193 16.9361L24.793 17.0691L24.758 16.9581C24.7484 16.9307 24.7286 16.9081 24.7026 16.895C24.6767 16.882 24.6467 16.8795 24.619 16.8881C24.6053 16.8925 24.5926 16.8996 24.5817 16.909C24.5707 16.9183 24.5618 16.9297 24.5553 16.9425C24.5488 16.9554 24.5448 16.9694 24.5438 16.9837C24.5427 16.998 24.5445 17.0125 24.549 17.0261L24.585 17.1381L24.224 17.2561L24.146 17.2791Z" fill="#666666"/>
<path d="M25.5554 18.1909L24.731 18.4841L24.7899 18.65L25.6143 18.3568L25.5554 18.1909Z" fill="#666666"/>
<path d="M27.2988 35.2751L26.7598 35.5231L26.8348 35.6861L27.2138 35.5151L27.3138 35.7451L27.2138 35.7901C27.1941 35.7984 27.1774 35.8123 27.1656 35.8301C27.1539 35.8479 27.1477 35.8688 27.1478 35.8901C27.1479 35.9046 27.1509 35.9189 27.1565 35.9322C27.1622 35.9455 27.1704 35.9575 27.1807 35.9676C27.191 35.9777 27.2032 35.9857 27.2166 35.9911C27.23 35.9966 27.2443 35.9993 27.2588 35.9991C27.274 35.9988 27.2889 35.9954 27.3028 35.9891L27.4028 35.9431C27.4438 36.0351 27.4858 36.1261 27.5218 36.2041L27.4988 36.2151C27.3908 36.2681 27.2638 36.3322 27.1638 36.3752L27.2358 36.5361C27.3358 36.4931 27.4668 36.4271 27.5758 36.3741L27.7548 36.2871L27.7178 36.2091C27.6758 36.1181 27.6178 35.9952 27.5638 35.8712L27.6498 35.8331C27.6718 35.8202 27.6887 35.8002 27.6978 35.7764C27.7069 35.7526 27.7076 35.7264 27.6998 35.7021C27.6953 35.6884 27.6881 35.6757 27.6786 35.6648C27.6691 35.6539 27.6576 35.645 27.6447 35.6386C27.6318 35.6322 27.6177 35.6284 27.6033 35.6274C27.5889 35.6265 27.5744 35.6285 27.5608 35.6331L27.4718 35.6732L27.3278 35.3561L27.2988 35.2751Z" fill="#666666"/>
<path d="M29.0228 26.575L28.2178 26.966L28.2918 27.127L29.0918 26.737L29.0228 26.575Z" fill="#666666"/>
<path d="M28.454 25.321L27.645 25.721L27.716 25.8791L28.528 25.488L28.454 25.321Z" fill="#666666"/>
<path d="M22.766 26.7331C22.713 26.9981 22.656 27.2761 22.599 27.5331C22.524 27.5051 22.218 27.3951 22.124 27.3501C22.187 27.0711 22.251 26.7651 22.309 26.4711C22.351 26.2531 22.393 26.0401 22.43 25.8291C22.53 25.8801 22.808 25.9881 22.9 26.0291C22.863 26.2561 22.818 26.4911 22.766 26.7331Z" fill="black"/>
<path d="M29.202 28.2681L29.028 27.8832C29.0166 27.8567 29.0161 27.8269 29.0265 27.8001C29.037 27.7733 29.0577 27.7518 29.084 27.7401C29.0972 27.7341 29.1115 27.7308 29.1259 27.7303C29.1404 27.7298 29.1549 27.7322 29.1684 27.7373C29.182 27.7424 29.1944 27.7501 29.205 27.7601C29.2156 27.77 29.2241 27.7819 29.23 27.7951L29.404 28.1812C29.4158 28.2077 29.4167 28.2378 29.4064 28.265C29.3961 28.2922 29.3755 28.3141 29.349 28.3261C29.3338 28.3324 29.3175 28.3358 29.301 28.3362C29.2797 28.3356 29.259 28.3289 29.2414 28.3168C29.2238 28.3048 29.2101 28.2878 29.202 28.2681Z" fill="#666666"/>
<path d="M33.7129 33.6821C34.0839 33.9611 34.3449 34.5711 34.1519 34.8291C33.9589 35.0871 33.3419 35.0081 32.9719 34.7291C32.8097 34.6298 32.6922 34.4715 32.6443 34.2874C32.5964 34.1034 32.6217 33.9079 32.7149 33.7421C32.8393 33.6018 33.0143 33.5167 33.2015 33.5054C33.3886 33.4942 33.5726 33.5577 33.7129 33.6821Z" fill="#E5E8EA"/>
<path d="M34.0212 34.345C33.9718 34.2365 33.8991 34.1402 33.8082 34.063C33.73 33.997 33.6376 33.9501 33.5382 33.926C33.503 33.9119 33.4652 33.9056 33.4273 33.9077C33.3895 33.9098 33.3526 33.9201 33.3192 33.938C33.298 33.9525 33.2808 33.9721 33.2692 33.995C33.2601 34.0334 33.2432 34.0696 33.2195 34.1011C33.1957 34.1326 33.1656 34.1588 33.1312 34.178C33.0955 34.1964 33.0561 34.2065 33.016 34.2077C32.9758 34.2089 32.9359 34.2012 32.8992 34.185C32.8394 34.1529 32.7945 34.0987 32.7742 34.034C32.7534 33.9653 32.7598 33.8912 32.7922 33.827C32.8215 33.7674 32.8673 33.7174 32.9242 33.683C32.9898 33.6391 33.0648 33.6114 33.1432 33.602C33.2202 33.5889 33.299 33.591 33.3752 33.608C33.4505 33.6254 33.5225 33.6551 33.5882 33.696C33.6512 33.7311 33.7103 33.773 33.7642 33.821C33.8316 33.8818 33.8905 33.9514 33.9392 34.028C34.0033 34.1161 34.0542 34.2132 34.0902 34.316C34.1243 34.4019 34.1413 34.4936 34.1402 34.586C34.1383 34.6412 34.1299 34.6959 34.1152 34.749C34.1133 34.6092 34.0812 34.4714 34.0212 34.345Z" fill="white"/>
</g>
<defs>
<clipPath id="clip0_479_6144">
<rect width="40.015" height="40.003" fill="white"/>
</clipPath>
</defs>
</svg>
