<svg width="40" height="40" viewBox="0 0 40 40" fill="none" xmlns="http://www.w3.org/2000/svg">
<g clip-path="url(#clip0_479_10937)">
<path d="M0.0117188 11.919V39.985L7.21172 39.998C9.83972 34.884 11.4817 32.351 11.8907 31.711C13.0945 29.7144 14.4253 27.7971 15.8747 25.971C16.1018 25.6652 16.3889 25.4091 16.7186 25.2184C17.0483 25.0277 17.4135 24.9064 17.7917 24.862C18.2441 24.8563 18.6942 24.9277 19.1227 25.073C20.1188 26.279 21.4444 27.1689 22.9377 27.634C23.3288 27.7433 23.7281 27.8209 24.1317 27.866C24.4067 28.089 24.7867 28.409 25.2227 28.809C26.2975 29.8198 27.2776 30.9267 28.1507 32.116C29.2475 33.5915 30.2515 35.1338 31.1567 36.734V36.747C31.3861 37.2006 31.6468 37.6376 31.9367 38.055C32.1442 38.2865 32.398 38.4717 32.6818 38.5985C32.9656 38.7253 33.2729 38.7909 33.5837 38.791C33.6043 38.9371 33.6633 39.0751 33.7549 39.1907C33.8465 39.3064 33.9672 39.3955 34.1047 39.449L35.0047 39.806C35.3021 39.9244 35.629 39.9468 35.9397 39.87L36.3697 39.764L36.9697 39.617C37.1468 39.5739 37.3123 39.4927 37.4548 39.379C37.5973 39.2654 37.7133 39.1221 37.7947 38.959L39.0397 36.435C39.2477 36.021 39.6957 35.235 39.6957 35.235C39.8481 35.0284 39.948 34.7878 39.9869 34.534C40.0257 34.2802 40.0023 34.0208 39.9187 33.778C39.8567 33.413 39.4587 31.664 39.2887 30.942C38.1299 25.9874 36.6263 21.1199 34.7887 16.375V16.368H34.7947C36.5947 14.49 36.1477 9.56803 31.7947 7.41203C32.9648 5.38079 33.517 3.05238 33.3837 0.712029C32.1087 1.49903 30.7947 3.78303 29.9897 5.19903C30.5757 3.53146 30.8199 1.76298 30.7077 -0.000976562C29.3013 0.855153 28.0779 1.98071 27.1077 3.31103C26.5794 4.05378 26.1322 4.851 25.7737 5.68903L25.7247 5.67802C23.62 5.21385 21.4568 5.07323 19.3097 5.26102C13.5517 5.60602 7.03772 8.42202 5.83772 8.94202C3.83433 9.80934 1.88837 10.8037 0.0117188 11.919Z" fill="#B27053"/>
<path d="M32.3409 15.39C31.2798 15.1572 30.195 15.0498 29.1089 15.07C29.4209 19.058 32.6149 18.576 33.7719 17.641C33.2279 16.7 32.7219 15.937 32.3409 15.39Z" fill="#3A1919"/>
<path d="M29.8589 15.0869C29.8829 17.9869 32.4969 17.8419 33.3649 16.9579C32.9779 16.3259 32.6249 15.7969 32.3409 15.3899C31.5278 15.1947 30.6951 15.0931 29.8589 15.0869Z" fill="#241711"/>
<path d="M31.3471 16.5271C31.5288 16.5271 31.6761 16.3798 31.6761 16.1981C31.6761 16.0164 31.5288 15.8691 31.3471 15.8691C31.1654 15.8691 31.0181 16.0164 31.0181 16.1981C31.0181 16.3798 31.1654 16.5271 31.3471 16.5271Z" fill="#FCFBFA"/>
<path d="M31.7227 33.5461C32.5583 35.2093 33.1854 36.9692 33.5897 38.7861C33.6102 38.9322 33.6693 39.0702 33.7609 39.1858C33.8524 39.3015 33.9732 39.3906 34.1107 39.4441L35.0107 39.8011C35.308 39.9194 35.6349 39.9418 35.9457 39.8651L36.9747 39.6121C37.1517 39.569 37.3173 39.4877 37.4597 39.3741C37.6022 39.2605 37.7182 39.1171 37.7997 38.9541L39.0567 36.4201C39.2647 36.0061 39.7127 35.2201 39.7127 35.2201C39.849 34.9875 39.9428 34.7326 39.9897 34.4671C40.0037 34.2324 39.9855 33.9969 39.9357 33.7671C39.8667 33.4031 39.7797 33.0421 39.6797 32.5951C39.5907 32.1761 39.4797 31.6551 39.3037 30.9331C37.6797 32.3461 37.2377 34.9241 36.8657 38.1531C36.2496 36.7234 35.5483 35.3319 34.7657 33.9861C33.9713 33.3857 33.0704 32.9412 32.1107 32.6761C32.0567 32.7831 31.8937 33.1281 31.7227 33.5461Z" fill="#8E5A42"/>
<path d="M35.9408 39.87C35.4596 38.0318 34.7327 36.2669 33.7798 34.623C33.7607 34.5955 33.7505 34.5629 33.7505 34.5295C33.7505 34.4961 33.7607 34.4634 33.7798 34.436C33.8053 34.4005 33.8437 34.3766 33.8867 34.3693C33.9298 34.362 33.974 34.3719 34.0098 34.397C34.0753 34.4423 34.1384 34.491 34.1988 34.543C34.2314 34.5715 34.2592 34.6053 34.2808 34.643C35.1759 36.2617 35.8764 37.9807 36.3678 39.764L35.9408 39.87Z" fill="#7C4F3A"/>
<path d="M25.08 26.5171C23.7154 26.4391 22.4037 25.9628 21.307 25.1471C20.341 24.4258 19.5549 23.4908 19.0102 22.4152C18.4654 21.3397 18.1769 20.1527 18.167 18.9471C18.0771 18.2093 18.0688 17.4638 18.142 16.7241C18.011 17.0241 16.358 21.0001 18.603 24.4001C19.6488 25.9279 21.1715 27.0659 22.933 27.6361C23.3241 27.7454 23.7234 27.823 24.127 27.8681C25.4644 28.0468 26.8252 27.8574 28.063 27.3201C29.2385 26.7939 30.2514 25.962 30.996 24.9111C29.2674 26.111 27.178 26.6782 25.08 26.5171Z" fill="#B27053"/>
<path d="M39.3071 30.9381C38.411 27.3961 37.1248 23.9645 35.472 20.7061C34.919 19.6211 34.349 18.6001 33.772 17.6411L33.3521 19.6351C35.6699 23.6903 36.9989 28.235 37.2311 32.9001C37.2702 33.8333 37.2619 34.7678 37.206 35.7001C37.564 33.6241 38.1191 31.9681 39.3071 30.9381Z" fill="#C88769"/>
<path d="M32.3389 15.3889C32.7199 15.9359 33.2259 16.6999 33.7699 17.6409C34.3489 18.5999 34.9189 19.6209 35.4699 20.7059C37.1218 23.9644 38.4074 27.396 39.3029 30.9379C38.1441 25.9833 36.6404 21.1158 34.8029 16.3709C34.4489 16.2579 33.9869 16.0979 33.4579 15.8819C33.1799 15.7699 32.7999 15.6109 32.3389 15.3889Z" fill="#D8AB96"/>
<path d="M37.2309 32.9C36.9982 28.2347 35.6685 23.69 33.3499 19.635C33.2499 20.085 33.1119 20.557 32.9449 21.047C32.472 22.4344 31.8043 23.7475 30.9619 24.947L30.9909 24.908C30.9779 25.2489 30.9869 25.5903 31.0179 25.93C31.0906 26.5797 31.229 27.2203 31.4309 27.842C32.3161 30.0029 33.4333 32.0613 34.7629 33.981C35.5534 35.3232 36.2549 36.7159 36.8629 38.15C36.9629 37.283 37.0629 36.463 37.1999 35.7C37.2577 34.7678 37.2681 33.8333 37.2309 32.9Z" fill="#B27053"/>
<path d="M18.16 18.9461C18.1699 20.1517 18.4585 21.3386 19.0032 22.4142C19.5479 23.4898 20.334 24.4248 21.3 25.1461C22.3966 25.9619 23.7084 26.4383 25.073 26.5161C27.1709 26.6791 29.261 26.1141 30.991 24.9161C31.8213 23.7243 32.4798 22.4215 32.947 21.0461C33.114 20.5561 33.247 20.0841 33.352 19.6341L33.772 17.6401C33.228 16.6991 32.722 15.9401 32.341 15.3891C31.2799 15.1563 30.1951 15.0489 29.109 15.0691C28.924 14.6871 27.52 12.0211 26.4 10.2871C26.289 10.3501 26.177 10.4101 26.057 10.4671C25.5965 10.6912 25.1165 10.8726 24.623 11.0091C24.492 11.0301 24.275 11.0821 23.944 11.1301H23.928C23.8 11.1481 23.654 11.1671 23.489 11.1861L23.303 11.2061C21.856 11.7171 19.658 12.9641 18.135 16.7171C18.0614 17.4588 18.0698 18.2063 18.16 18.9461Z" fill="#CC9079"/>
<path d="M28.2119 27.2511C29.2658 28.3352 30.2088 29.5217 31.0269 30.7931C31.4439 31.4421 31.8029 32.0761 32.1119 32.6761C33.0706 32.9416 33.9706 33.3853 34.7649 33.9841C33.4312 32.0673 32.3137 30.0088 31.4329 27.8461C31.231 27.2244 31.0926 26.5838 31.0199 25.9341C30.9889 25.5944 30.9799 25.253 30.9929 24.9121C30.7731 25.225 30.5272 25.5187 30.2579 25.7901C29.6679 26.3946 28.9752 26.8893 28.2119 27.2511Z" fill="#7C4F3A"/>
<path d="M31.1549 36.746C31.3843 37.1996 31.6449 37.6366 31.9349 38.054C32.1423 38.2855 32.3962 38.4707 32.68 38.5975C32.9637 38.7243 33.271 38.7899 33.5819 38.79C33.1771 36.9733 32.5501 35.2134 31.7149 33.55C31.4813 34.0761 31.2878 34.6189 31.1359 35.174C31.1239 35.232 31.1099 35.2911 31.0999 35.3481C31.0379 35.6928 31.0248 36.0446 31.0609 36.3931C31.0819 36.5132 31.1134 36.6313 31.1549 36.746Z" fill="#7C4F3A"/>
<path d="M24.125 27.868C24.401 28.091 24.781 28.4111 25.217 28.8111C26.2918 29.8218 27.2718 30.9288 28.145 32.118C29.2418 33.5935 30.2457 35.1359 31.151 36.736C31.1118 36.6247 31.082 36.5103 31.062 36.3941C31.0258 36.0447 31.0386 35.6919 31.1 35.346C31.3463 34.4233 31.685 33.5278 32.111 32.673C31.802 32.0731 31.443 31.439 31.026 30.79C30.2079 29.5186 29.2649 28.3321 28.211 27.248L28.06 27.317C26.8227 27.8548 25.4624 28.0453 24.125 27.868Z" fill="#4C2E22"/>
<path d="M39.6801 32.6091C39.7801 33.0561 39.8671 33.4171 39.9361 33.7811C39.9859 34.0109 40.0041 34.2464 39.9901 34.4811C39.9432 34.7466 39.8494 35.0016 39.7131 35.2341C39.7131 35.2341 39.2651 36.0171 39.0571 36.4341C38.6476 35.8393 38.4838 35.1092 38.5999 34.3964C38.716 33.6837 39.103 33.0433 39.6801 32.6091Z" fill="#7C4F3A"/>
<path d="M39.9369 33.7861V33.7721C39.8679 33.4081 39.7809 33.0471 39.6809 32.6001C39.2697 32.9154 38.953 33.3376 38.7652 33.8206C38.5774 34.3036 38.5258 34.8288 38.6159 35.3391C38.683 34.9881 38.84 34.6605 39.0715 34.3883C39.3031 34.1161 39.6012 33.9086 39.9369 33.7861Z" fill="#4C2E22"/>
<path d="M27.1938 9.74599C28.0803 11.7805 29.4987 13.5385 31.2998 14.835C31.9914 15.2397 32.7128 15.5911 33.4578 15.886C33.9868 16.102 34.4488 16.262 34.8028 16.375C32.2338 11.538 29.8778 9.475 28.2338 8.646C27.9315 9.0522 27.5825 9.4214 27.1938 9.74599Z" fill="#C88769"/>
<path d="M32.3409 15.39C31.2798 15.1572 30.195 15.0498 29.1089 15.07C29.4209 19.058 32.6149 18.576 33.7719 17.641C33.2279 16.7 32.7219 15.937 32.3409 15.39Z" fill="#7C4F3A"/>
<path d="M29.8589 15.0869C29.8829 17.9869 32.4969 17.8419 33.3649 16.9579C32.9779 16.3259 32.6249 15.7969 32.3409 15.3899C31.5278 15.1947 30.6951 15.0931 29.8589 15.0869Z" fill="#4C2E22"/>
<path d="M31.3471 16.5271C31.5288 16.5271 31.6761 16.3798 31.6761 16.1981C31.6761 16.0164 31.5288 15.8691 31.3471 15.8691C31.1654 15.8691 31.0181 16.0164 31.0181 16.1981C31.0181 16.3798 31.1654 16.5271 31.3471 16.5271Z" fill="#FCFBFA"/>
<path d="M26.4009 10.2871C27.5189 12.0221 28.9249 14.6871 29.1099 15.0691C30.196 15.0489 31.2808 15.1563 32.3419 15.3891C32.0239 15.2311 31.6729 15.0511 31.2999 14.8311C29.5012 13.5334 28.083 11.7775 27.1929 9.74609C26.9452 9.94927 26.6802 10.1303 26.4009 10.2871Z" fill="#8E5A42"/>
<path d="M6.25098 40.002H7.20798C9.83598 34.888 11.478 32.355 11.887 31.715C13.0908 29.7184 14.4215 27.8011 15.871 25.975C16.098 25.6692 16.3852 25.4131 16.7149 25.2223C17.0445 25.0316 17.4097 24.9103 17.788 24.866C18.2384 24.8591 18.6866 24.9298 19.113 25.075C18.819 24.719 18.64 24.461 18.6 24.4C17.8671 23.2792 17.4625 21.9757 17.432 20.637C15.962 23.331 14.126 25.261 13 27.177C10.3951 31.2554 8.13745 35.5455 6.25098 40.002Z" fill="#7C4F3A"/>
<path d="M5.97998 40.0031H6.24798C6.57298 39.1891 6.94798 38.354 7.35698 37.51C8.99677 33.9401 10.8833 30.4887 13.003 27.1811C14.13 25.2631 15.969 23.335 17.439 20.635C17.4019 19.2978 17.6402 17.9673 18.139 16.7261C19.662 12.9731 21.86 11.726 23.307 11.215C23.2665 11.219 23.226 11.2072 23.194 11.1821C23.1768 11.169 23.1624 11.1527 23.1516 11.134C23.1407 11.1154 23.1337 11.0948 23.1308 11.0735C23.1279 11.0521 23.1293 11.0304 23.1348 11.0096C23.1403 10.9887 23.1499 10.9692 23.163 10.952C23.34 10.722 23.495 10.509 23.64 10.3C15.574 11.487 7.76098 26.6831 5.97998 40.0031Z" fill="#C88769"/>
<path d="M28.316 8.51604C28.286 8.55804 28.261 8.60004 28.23 8.64204C29.874 9.47104 32.235 11.534 34.799 16.371C33.05 11.871 30.154 8.45004 28.917 7.57104C28.827 7.73904 28.724 7.90804 28.617 8.07704C28.6 8.10504 28.581 8.13204 28.564 8.15904C28.486 8.27904 28.4033 8.39804 28.316 8.51604Z" fill="#D8AB96"/>
<path d="M0.00878906 39.9891L5.97879 40.0001C7.76079 26.6791 15.5788 11.4791 23.6428 10.3001C24.21 9.48155 24.6719 8.59493 25.0178 7.66108C13.1798 5.90008 1.79079 19.5461 0.00878906 22.6361V39.9891Z" fill="#B27053"/>
<path d="M0.00878906 22.6359C1.79079 19.5429 13.1828 5.89993 25.0178 7.65393C25.2048 7.16893 25.3728 6.69493 25.5668 6.19493C24.9455 6.04971 24.315 5.94714 23.6798 5.88792C22.932 5.82094 22.1801 5.81091 21.4308 5.85792C16.5805 6.25196 11.8515 7.57606 7.50179 9.75792C5.55879 10.6579 0.226789 13.7269 0.00878906 13.8579V22.6359Z" fill="#C88769"/>
<path d="M33.389 0.713135C33.2192 1.41659 33.0061 2.10891 32.751 2.78613C32.707 2.90313 32.651 3.03613 32.587 3.17513C32.3382 3.79555 32.0541 4.40121 31.736 4.98914C31.615 5.21014 31.022 6.20013 30.561 6.91213C30.9861 7.04713 31.4003 7.21428 31.8 7.41213C32.9699 5.38119 33.5221 3.05315 33.389 0.713135Z" fill="#4C2E22"/>
<path d="M0.00683594 13.8621C0.224836 13.7271 5.55683 10.6531 7.49983 9.76207C11.8509 7.58297 16.5805 6.26097 21.4308 5.86807C22.1802 5.82106 22.932 5.83109 23.6798 5.89807C24.3151 5.95729 24.9456 6.05986 25.5668 6.20507C25.6335 6.03707 25.7038 5.86673 25.7778 5.69407C22.7363 5.02415 19.5891 4.9901 16.5338 5.59407C10.7047 6.73987 5.11526 8.8772 0.00883484 11.9131L0.00683594 13.8621Z" fill="#4C2E22"/>
<path d="M32.7509 2.78613C33.006 2.10891 33.2191 1.41659 33.3889 0.713135C32.1139 1.50013 30.7999 3.78413 29.9959 5.19913C29.9539 5.31413 29.7659 5.79913 29.5809 6.21413C29.4729 6.45813 29.4579 6.49314 29.3999 6.61414C29.7939 6.69055 30.183 6.79073 30.5649 6.91413C30.9829 6.24613 31.5519 5.32914 31.7359 4.98914C32.124 4.27878 32.4631 3.54273 32.7509 2.78613Z" fill="#8E5A42"/>
<path d="M28.9209 7.57112C30.1499 8.44512 33.0159 11.8301 34.7609 16.2861L34.7999 16.3681C36.5999 14.4901 36.1529 9.56812 31.7999 7.41212C31.04 7.03931 30.2324 6.77281 29.3999 6.62012C29.2799 6.86212 28.9459 7.52612 28.9209 7.57112Z" fill="#4C2E22"/>
<path d="M24.5098 8.82401C24.2969 9.25439 24.0564 9.67059 23.7898 10.07C23.6058 10.343 23.4008 10.631 23.1608 10.943C23.1368 10.9752 23.1251 11.0149 23.1278 11.055C23.1292 11.077 23.135 11.0986 23.1448 11.1184C23.1545 11.1382 23.1681 11.1558 23.1848 11.1704C23.2014 11.1849 23.2208 11.1959 23.2417 11.2029C23.2627 11.2099 23.2848 11.2126 23.3068 11.211C23.7503 11.1698 24.1911 11.1031 24.6268 11.011C25.2761 10.2604 25.8149 9.42095 26.2268 8.51801C26.4398 8.06701 26.4398 7.985 27.4598 5.177C28.217 3.26641 29.3194 1.51151 30.7118 0C29.3042 0.854302 28.0791 1.97813 27.1068 3.30701C25.5208 5.56201 25.3998 7.012 24.5098 8.82401Z" fill="#8E5A42"/>
<path d="M24.623 11.0099C25.1172 10.8747 25.5973 10.6929 26.057 10.4669C27.2968 9.82901 28.3015 8.81339 28.926 7.56688C28.934 7.55188 29.384 6.66088 29.434 6.55188C29.525 6.35188 29.608 6.16088 29.685 5.98388C29.799 5.72188 29.9014 5.46221 29.992 5.20488C30.58 3.53776 30.8252 1.76908 30.713 0.00488281C29.3172 1.51399 28.2141 3.2695 27.46 5.18188C26.44 7.98988 26.44 8.07188 26.227 8.52288C25.8137 9.4241 25.2735 10.2616 24.623 11.0099Z" fill="#4C2E22"/>
<path d="M39.4001 31.3511C39.1501 30.1511 38.4711 27.5 38.2591 26.8C36.7211 27.667 37.0501 31.3001 39.4001 31.3511Z" fill="#CCCCCC"/>
<path d="M38.874 30.7121C38.8151 30.7323 38.7506 30.7286 38.6945 30.7016C38.6384 30.6747 38.5951 30.6267 38.574 30.5681L37.933 27.9071C37.9252 27.8414 37.9423 27.7751 37.981 27.7214C38.0197 27.6676 38.0772 27.6304 38.142 27.6171L38.47 27.5231L38.493 27.5151C38.6276 27.467 38.7758 27.4743 38.905 27.5354C39.0343 27.5966 39.1339 27.7065 39.182 27.8411L39.69 29.9511C39.7087 30.1011 39.67 30.2527 39.5818 30.3754C39.4935 30.4981 39.3622 30.583 39.214 30.6131L38.886 30.7081L38.874 30.7121Z" fill="black"/>
<path d="M27.2163 24.0781C27.2163 23.9385 27.2438 23.8002 27.2973 23.6712C27.3508 23.5423 27.4292 23.4251 27.5281 23.3265C27.6269 23.2278 27.7442 23.1496 27.8733 23.0964C28.0024 23.0431 28.1407 23.0159 28.2803 23.0161C28.5619 23.0161 28.832 23.1278 29.0313 23.3268C29.2306 23.5257 29.3428 23.7955 29.3433 24.0771C29.3436 24.2168 29.3163 24.3551 29.2629 24.4842C29.2096 24.6133 29.1313 24.7306 29.0326 24.8294C28.9338 24.9281 28.8165 25.0064 28.6874 25.0597C28.5583 25.1131 28.42 25.1404 28.2803 25.1401C28.1407 25.1402 28.0025 25.1129 27.8734 25.0596C27.7444 25.0063 27.6272 24.9281 27.5284 24.8295C27.4296 24.7309 27.3511 24.6137 27.2976 24.4848C27.2441 24.3559 27.2164 24.2177 27.2163 24.0781ZM28.2793 23.2361C28.1686 23.2365 28.0591 23.2587 27.9569 23.3014C27.8548 23.3442 27.7621 23.4066 27.6841 23.4851C27.6061 23.5637 27.5443 23.6569 27.5023 23.7593C27.4603 23.8617 27.4389 23.9714 27.4393 24.0821C27.4392 24.1926 27.4608 24.3021 27.503 24.4043C27.5452 24.5064 27.6072 24.5992 27.6853 24.6774C27.7634 24.7556 27.8561 24.8177 27.9582 24.86C28.0603 24.9023 28.1698 24.9241 28.2803 24.9241C28.3909 24.9244 28.5005 24.9028 28.6028 24.8607C28.705 24.8185 28.798 24.7566 28.8763 24.6785C28.9546 24.6004 29.0167 24.5076 29.0591 24.4054C29.1015 24.3032 29.1233 24.1937 29.1233 24.0831C29.1234 23.9725 29.1018 23.863 29.0596 23.7608C29.0174 23.6586 28.9555 23.5657 28.8774 23.4874C28.7993 23.4092 28.7066 23.347 28.6045 23.3046C28.5023 23.2622 28.3929 23.2402 28.2823 23.2401L28.2793 23.2361Z" fill="white"/>
<path d="M38.168 28.331C34.945 27.231 31.783 25.79 28.894 24.653C28.9719 24.5702 29.0318 24.4722 29.0702 24.3652C29.1086 24.2582 29.1245 24.1444 29.117 24.031C31.923 25.231 35.017 26.531 38.058 27.631C38.516 27.771 38.618 28.464 38.168 28.331Z" fill="black"/>
<path d="M24.5513 28.2301C25.1653 27.4711 25.6513 26.8301 26.2203 26.0421C26.6423 25.4581 27.0573 24.8581 27.4573 24.2581C27.4839 24.3759 27.5353 24.4867 27.608 24.583C27.6808 24.6794 27.7733 24.7592 27.8793 24.8171C27.5143 25.3611 27.1373 25.9011 26.7553 26.4291C26.1793 27.2291 25.6693 27.8971 25.0473 28.6661L24.5513 28.2301Z" fill="black"/>
<path d="M27.6501 23.522C26.0819 20.5023 24.7078 17.3856 23.5361 14.191L24.1581 13.967C25.3228 17.141 26.6882 20.2375 28.2461 23.238C28.1327 23.2426 28.0214 23.2701 27.919 23.3189C27.8165 23.3677 27.7251 23.4368 27.6501 23.522Z" fill="black"/>
<path d="M31.1802 36.8381C34.2664 35.1859 36.8598 32.7454 38.6962 29.7651C38.8832 29.5851 39.1662 30.2841 38.9252 30.5531C37.0463 33.4124 34.4979 35.77 31.5012 37.4211L31.1802 36.8381Z" fill="black"/>
<path d="M29.6221 33.1711C29.6221 32.6327 29.8359 32.1164 30.2166 31.7357C30.5973 31.355 31.1137 31.1411 31.6521 31.1411C32.1899 31.1416 32.7056 31.3556 33.0858 31.736C33.4661 32.1165 33.6798 32.6322 33.6801 33.1701C33.6801 33.7085 33.4662 34.2248 33.0855 34.6055C32.7048 34.9862 32.1885 35.2001 31.6501 35.2001C31.1122 35.1996 30.5965 34.9856 30.2163 34.6052C29.8361 34.2248 29.6223 33.709 29.6221 33.1711ZM31.6521 31.3481C31.1684 31.3484 30.7045 31.5404 30.3622 31.8822C30.0199 32.2239 29.8271 32.6874 29.8261 33.1711C29.8259 33.4107 29.873 33.648 29.9646 33.8694C30.0562 34.0908 30.1906 34.292 30.36 34.4615C30.5293 34.631 30.7305 34.7654 30.9518 34.8572C31.1732 34.9489 31.4105 34.9961 31.6501 34.9961C31.8901 34.9968 32.1278 34.9501 32.3498 34.8587C32.5717 34.7674 32.7734 34.6331 32.9434 34.4637C33.1134 34.2943 33.2483 34.093 33.3404 33.8714C33.4325 33.6497 33.4799 33.4121 33.4801 33.1721C33.4801 32.9321 33.4328 32.6945 33.3409 32.4729C33.249 32.2512 33.1143 32.0498 32.9445 31.8802C32.7748 31.7106 32.5732 31.5762 32.3515 31.4845C32.1297 31.3929 31.892 31.3458 31.6521 31.3461V31.3481Z" fill="#E5E8EA"/>
<path d="M33.4739 33.9151L33.5289 33.9431C33.6292 33.6981 33.6805 33.4358 33.6799 33.1711C33.6798 32.9046 33.6272 32.6408 33.5251 32.3947C33.423 32.1486 33.2734 31.925 33.0849 31.7366C32.8964 31.5483 32.6727 31.399 32.4264 31.2971C32.1802 31.1953 31.9164 31.1429 31.6499 31.1431C31.4813 31.1431 31.3134 31.1639 31.1499 31.2051C31.2888 31.1867 31.4288 31.1774 31.5689 31.1771C32.107 31.1781 32.6227 31.3923 33.0032 31.7728C33.3836 32.1533 33.5978 32.669 33.5989 33.2071C33.6001 33.4487 33.5578 33.6885 33.4739 33.9151Z" fill="white"/>
<path d="M31.5719 35.034C31.8253 35.0369 32.0763 34.984 32.3069 34.8791C32.0973 34.9571 31.8756 34.998 31.6519 35C31.3395 35.0014 31.032 34.9224 30.759 34.7705C30.486 34.6187 30.2566 34.3992 30.0929 34.133C29.9674 33.9289 29.8833 33.702 29.8456 33.4653C29.8078 33.2286 29.817 32.9868 29.8727 32.7537C29.9285 32.5206 30.0296 32.3008 30.1703 32.1068C30.311 31.9128 30.4886 31.7484 30.6929 31.623C30.6669 31.635 30.6409 31.649 30.6159 31.663C30.343 31.8152 30.1177 32.0401 29.965 32.3127C29.8123 32.5853 29.7382 32.8949 29.7509 33.207C29.7509 33.6906 29.9426 34.1544 30.2839 34.4968C30.6252 34.8393 31.0884 35.0325 31.5719 35.034Z" fill="white"/>
<path d="M22.127 27.3321C22.286 27.3941 22.427 27.4491 22.6 27.5141C23.458 23.5364 23.851 19.4725 23.771 15.4041C25.1096 19.8365 26.811 24.1511 28.858 28.3041C29.48 29.6041 30.066 30.7701 30.566 31.7131C30.8058 31.545 31.0784 31.4291 31.366 31.3731C31.216 31.1731 29.698 28.2161 28.005 24.3241C27.285 22.6681 26.537 20.8401 25.842 18.9901C25.675 18.5281 25.414 17.8221 25.114 16.9631C24.776 15.9761 24.414 14.8631 24.165 13.9851C26.6585 12.9997 29.0037 11.6742 31.134 10.0461L31.213 9.98413C30.958 9.65713 30.836 9.49213 30.587 9.20713L30.52 9.26013C28.5001 10.8119 26.2749 12.0763 23.908 13.0171C23.5142 12.0956 23.4617 11.0639 23.76 10.1071C24.3567 9.2005 24.8365 8.22208 25.188 7.19514C25.288 6.92814 25.373 6.69513 25.431 6.53613C25.404 6.53613 21.417 9.22914 22.884 13.3781C22.971 13.6781 23.048 13.9271 23.148 14.3451C23.717 18.0001 22.68 24.9581 22.127 27.3321Z" fill="black"/>
<path d="M0 34.9003V35.7393C4.39206 38.042 9.27199 39.2586 14.231 39.2873C15.214 39.2873 16.166 39.2323 17.093 39.1413C19.3352 38.9235 21.5463 38.458 23.686 37.7533C25.05 37.2953 26.3856 36.757 27.686 36.1413C28.761 35.6103 29.729 35.0843 30.536 34.6103C30.3344 34.4421 30.165 34.2388 30.036 34.0103C29.1751 34.5301 28.2887 35.0063 27.38 35.4373C26.1616 36.004 24.9111 36.4992 23.635 36.9203C21.4039 37.6006 19.1144 38.0719 16.796 38.3283C10.9856 38.8005 5.16065 37.6116 0 34.9003Z" fill="black"/>
<path d="M27.5228 36.2081C27.1368 36.3961 26.8168 36.5341 26.5688 36.6451C26.2418 36.7871 25.9688 36.8951 25.6418 37.0271C25.2418 37.1941 24.2528 37.5591 23.8718 37.6851L23.4248 37.4141C23.4248 37.4141 23.5638 37.0891 23.6248 36.9251C24.3088 36.6991 24.9738 36.4511 25.1888 36.3681C25.6058 36.2061 26.0098 36.0411 26.2758 35.9271C26.6758 35.7611 27.1068 35.5641 27.2068 35.5171C27.3168 35.7531 27.4128 35.9721 27.5228 36.2081Z" fill="#32373A"/>
<path d="M26.28 36.7672C26.38 36.7252 26.539 36.6582 26.703 36.5852L26.391 35.8792L25.9771 36.0521L26.28 36.7672Z" fill="black"/>
<path d="M25.7922 18.8531L25.5212 19.3331C25.5212 19.3331 25.1422 19.2141 24.9692 19.1581L24.8502 18.8211L24.7302 18.4831C24.5982 18.1161 24.4882 17.7581 24.3672 17.3961L25.1722 17.1311C25.3722 17.6881 25.7922 18.8531 25.7922 18.8531Z" fill="#32373A"/>
<path d="M28.769 28.1462C28.469 27.5462 27.929 26.3652 27.55 25.5232C27.424 25.2392 27.325 24.9872 27.25 24.8232C27.25 24.8232 27.413 24.4583 27.499 24.2812L28.062 24.4692L29.562 27.7822C29.3 27.9072 28.78 28.1462 28.769 28.1462Z" fill="#32373A"/>
<path d="M25.2561 17.3512L24.4421 17.6132L24.3711 17.3962L25.1711 17.1282L25.2561 17.3512Z" fill="black"/>
<path d="M25.6712 18.5092L24.8432 18.7932C24.7892 18.6392 24.7322 18.4812 24.6782 18.3262C24.9502 18.2262 25.2282 18.1342 25.5002 18.0342C25.5552 18.1922 25.6112 18.3512 25.6712 18.5092Z" fill="black"/>
<path d="M27.5562 25.521C27.6362 25.7 27.7192 25.879 27.7982 26.059L28.6052 25.659C28.5252 25.485 28.4492 25.311 28.3682 25.134L27.5562 25.521Z" fill="black"/>
<path d="M28.1279 26.7871C28.2079 26.9671 28.2849 27.1351 28.3779 27.3281L29.1779 26.9281C29.0969 26.7541 29.0199 26.5741 28.9389 26.4001L28.1279 26.7871Z" fill="black"/>
<path d="M28.6538 27.8942L28.9068 28.4082C28.9068 28.4082 29.4068 28.1842 29.6978 28.0512C29.5978 27.8362 29.4518 27.5312 29.4518 27.5312L28.6538 27.8942Z" fill="black"/>
<path d="M24.7948 17.6101C24.9075 17.6101 24.9988 17.5188 24.9988 17.4061C24.9988 17.2935 24.9075 17.2021 24.7948 17.2021C24.6822 17.2021 24.5908 17.2935 24.5908 17.4061C24.5908 17.5188 24.6822 17.6101 24.7948 17.6101Z" fill="black"/>
<path d="M29.1319 28.079C29.2606 28.079 29.3649 27.9747 29.3649 27.846C29.3649 27.7174 29.2606 27.613 29.1319 27.613C29.0032 27.613 28.8989 27.7174 28.8989 27.846C28.8989 27.9747 29.0032 28.079 29.1319 28.079Z" fill="black"/>
<path d="M27.3341 36.2952L27.5221 36.2042L27.2071 35.5132C27.1441 35.5422 27.0781 35.5702 27.0151 35.6002L27.3341 36.2952Z" fill="black"/>
<path d="M27.2308 36.1032C27.3424 36.1032 27.4328 36.0128 27.4328 35.9012C27.4328 35.7897 27.3424 35.6992 27.2308 35.6992C27.1192 35.6992 27.0288 35.7897 27.0288 35.9012C27.0288 36.0128 27.1192 36.1032 27.2308 36.1032Z" fill="black"/>
<path d="M26.2631 35.9321L26.1001 36.0001L26.4141 36.7111L26.5801 36.6461L26.2631 35.9321Z" fill="#666666"/>
<path d="M28.58 27.7462L28.418 27.8192C28.466 27.9192 28.537 28.0682 28.596 28.1882L28.696 28.3802L28.775 28.3442C29.082 28.2012 29.722 27.9072 29.722 27.9072L29.802 27.8712L29.535 27.2852L29.374 27.3582L29.568 27.7842L28.779 28.1472L28.76 28.1102C28.7 27.9892 28.628 27.8462 28.58 27.7462Z" fill="#666666"/>
<path d="M24.146 17.2791L24.346 17.8931L24.514 17.8391L24.369 17.3911L24.645 17.3001L24.685 17.4241C24.6919 17.4455 24.7052 17.4642 24.7231 17.4778C24.741 17.4914 24.7626 17.4992 24.785 17.5001C24.7962 17.5021 24.8077 17.5021 24.819 17.5001C24.8467 17.491 24.8698 17.4712 24.8831 17.4452C24.8963 17.4192 24.8988 17.389 24.89 17.3611L24.849 17.2361L25.168 17.1301L25.322 17.5571L25.488 17.4971L25.275 16.9081L25.193 16.9361L24.793 17.0691L24.758 16.9581C24.748 16.931 24.7281 16.9087 24.7023 16.8957C24.6765 16.8827 24.6467 16.88 24.619 16.8881C24.6053 16.8924 24.5927 16.8994 24.5818 16.9087C24.5708 16.9179 24.5618 16.9292 24.5553 16.942C24.5488 16.9547 24.5449 16.9687 24.5438 16.9829C24.5427 16.9972 24.5445 17.0116 24.549 17.0251L24.585 17.1371L24.224 17.2551L24.146 17.2791Z" fill="#666666"/>
<path d="M25.5554 18.1919L24.731 18.4851L24.7899 18.6509L25.6143 18.3577L25.5554 18.1919Z" fill="#666666"/>
<path d="M27.2988 35.2751L26.7598 35.5231L26.8348 35.6861L27.2138 35.5152L27.3138 35.7451L27.2138 35.7901C27.1943 35.7987 27.1777 35.8126 27.166 35.8304C27.1542 35.8481 27.1479 35.8689 27.1478 35.8902C27.1478 35.9046 27.1506 35.9189 27.1563 35.9322C27.1619 35.9455 27.1701 35.9575 27.1805 35.9676C27.1908 35.9777 27.2031 35.9856 27.2165 35.9908C27.23 35.9961 27.2443 35.9985 27.2588 35.9981C27.2741 35.9988 27.2892 35.9953 27.3028 35.9882L27.4028 35.9421C27.4438 36.0341 27.4858 36.1251 27.5218 36.2031L27.4988 36.2141C27.3908 36.2671 27.2638 36.3311 27.1638 36.3741L27.2358 36.5351C27.3358 36.4921 27.4668 36.4261 27.5758 36.3731L27.7548 36.2861L27.7178 36.2081C27.6758 36.1171 27.6178 35.9941 27.5638 35.8701L27.6498 35.8321C27.6718 35.8196 27.6888 35.7998 27.698 35.7761C27.7071 35.7524 27.7077 35.7263 27.6998 35.7021C27.6904 35.6746 27.6706 35.6518 27.6446 35.6387C27.6186 35.6256 27.5885 35.6233 27.5608 35.6321L27.4718 35.6721L27.3278 35.3551L27.2988 35.2751Z" fill="#666666"/>
<path d="M29.0228 26.5752L28.2178 26.9662L28.2918 27.1272L29.0918 26.7372L29.0228 26.5752Z" fill="#666666"/>
<path d="M28.454 25.321L27.645 25.721L27.716 25.879L28.528 25.488L28.454 25.321Z" fill="#666666"/>
<path d="M22.766 26.7331C22.713 26.9981 22.656 27.2761 22.599 27.5331C22.524 27.5051 22.218 27.3951 22.124 27.3501C22.187 27.0711 22.251 26.7651 22.309 26.4711C22.351 26.2531 22.393 26.0401 22.43 25.8291C22.53 25.8801 22.808 25.9881 22.9 26.0241C22.863 26.2561 22.818 26.4911 22.766 26.7331Z" fill="black"/>
<path d="M29.2021 28.268L29.0281 27.883C29.0166 27.8565 29.016 27.8265 29.0265 27.7995C29.037 27.7726 29.0577 27.7509 29.0841 27.739C29.1108 27.7274 29.141 27.7267 29.1682 27.7369C29.1955 27.7472 29.2177 27.7677 29.2301 27.794L29.4041 28.18C29.4159 28.2066 29.4168 28.2367 29.4065 28.2639C29.3962 28.291 29.3755 28.313 29.3491 28.325C29.3341 28.3323 29.3176 28.3357 29.3011 28.335C29.2798 28.335 29.259 28.3286 29.2413 28.3166C29.2237 28.3047 29.21 28.2878 29.2021 28.268Z" fill="#666666"/>
<path d="M33.7129 33.682C34.0839 33.961 34.3449 34.571 34.1519 34.829C33.9589 35.087 33.3419 35.008 32.9719 34.729C32.8097 34.6297 32.6922 34.4714 32.6443 34.2873C32.5964 34.1033 32.6217 33.9078 32.7149 33.742C32.8396 33.6022 33.0145 33.5174 33.2015 33.5062C33.3885 33.4949 33.5723 33.5581 33.7129 33.682Z" fill="#E5E8EA"/>
<path d="M34.0211 34.3462C33.9712 34.238 33.8985 34.1418 33.8081 34.0642C33.7294 33.9989 33.6372 33.9521 33.5381 33.9272C33.5028 33.9135 33.4651 33.9075 33.4273 33.9096C33.3895 33.9116 33.3527 33.9217 33.3191 33.9392C33.2984 33.9542 33.2813 33.9737 33.2691 33.9962C33.2604 34.0347 33.2435 34.071 33.2198 34.1025C33.196 34.134 33.1657 34.1602 33.1311 34.1792C33.0955 34.198 33.0561 34.2084 33.0159 34.2097C32.9757 34.2109 32.9357 34.2028 32.8991 34.1862C32.8693 34.1705 32.8429 34.1491 32.8214 34.1232C32.8 34.0973 32.7839 34.0674 32.7741 34.0352C32.7534 33.9664 32.7599 33.8923 32.7921 33.8282C32.8219 33.7689 32.8676 33.7191 32.9241 33.6842C32.9901 33.6411 33.0649 33.6134 33.1431 33.6032C33.2202 33.5912 33.2988 33.5932 33.3751 33.6092C33.4502 33.6273 33.5221 33.657 33.5881 33.6972C33.6507 33.733 33.7097 33.7748 33.7641 33.8222C33.8311 33.8833 33.89 33.9529 33.9391 34.0292C34.0028 34.1175 34.0537 34.2145 34.0901 34.3172C34.1241 34.4031 34.1411 34.4948 34.1401 34.5872C34.1384 34.6423 34.13 34.697 34.1151 34.7502C34.113 34.6103 34.0809 34.4726 34.0211 34.3462Z" fill="white"/>
</g>
<defs>
<clipPath id="clip0_479_10937">
<rect width="40.01" height="40.003" fill="white"/>
</clipPath>
</defs>
</svg>
