<svg width="41" height="40" viewBox="0 0 41 40" fill="none" xmlns="http://www.w3.org/2000/svg">
<g clip-path="url(#clip0_479_14060)">
<path d="M0.0117188 11.92V39.986L7.21172 39.999C9.83972 34.885 11.4817 32.352 11.8907 31.712C13.0946 29.7155 14.4254 27.7982 15.8747 25.972C16.1015 25.666 16.3887 25.4097 16.7184 25.219C17.0481 25.0283 17.4134 24.9071 17.7917 24.863C18.2442 24.8563 18.6945 24.9276 19.1227 25.074C20.1198 26.2788 21.445 27.1685 22.9377 27.635C23.3291 27.7431 23.7283 27.8207 24.1317 27.867C24.4067 28.09 24.7867 28.41 25.2227 28.81C26.2985 29.8198 27.2786 30.9268 28.1507 32.117C29.2487 33.5917 30.2526 35.1341 31.1567 36.735L31.1617 36.748C31.3923 37.2009 31.6529 37.6378 31.9417 38.056C32.1495 38.2871 32.4034 38.472 32.6871 38.5987C32.9708 38.7255 33.278 38.7914 33.5887 38.792C33.6098 38.9379 33.6692 39.0756 33.7607 39.1911C33.8521 39.3067 33.9726 39.396 34.1097 39.45L35.0097 39.807C35.3074 39.9239 35.6339 39.9462 35.9447 39.871L36.3747 39.765L36.9747 39.618C37.1516 39.5745 37.317 39.4931 37.4594 39.3795C37.6018 39.2659 37.7179 39.1228 37.7997 38.96L39.0497 36.433C39.2577 36.019 39.7057 35.233 39.7057 35.233C39.8583 35.0264 39.9583 34.7859 39.9971 34.532C40.036 34.2782 40.0125 34.0187 39.9287 33.776C39.8667 33.411 39.4687 31.662 39.2987 30.94C38.1411 25.9851 36.6375 21.1175 34.7987 16.373C34.7207 16.09 34.5767 15.452 34.4097 14.89C34.2867 14.478 34.0927 13.834 33.7867 13.059C33.4614 12.1556 33.0512 11.285 32.5617 10.459C32.1681 9.79862 31.7027 9.18387 31.1737 8.626L31.1317 8.584C31.3917 8.165 31.5797 7.825 31.7997 7.413C32.97 5.38183 33.5222 3.05337 33.3887 0.713C32.1137 1.5 30.7997 3.784 29.9947 5.2C30.5806 3.53242 30.8248 1.76395 30.7127 0C29.3062 0.85596 28.0827 1.98154 27.1127 3.312C26.5846 4.05485 26.1374 4.85205 25.7787 5.69L25.7297 5.679C23.6252 5.2133 21.4618 5.07267 19.3147 5.262C13.5567 5.607 7.04271 8.423 5.84271 8.943C3.83729 9.80942 1.88962 10.8038 0.0117188 11.92Z" fill="#B27053"/>
<path d="M32.3409 15.3911C31.28 15.1568 30.1951 15.0494 29.1089 15.0711C29.4209 19.0591 32.6149 18.5771 33.7719 17.6421C33.2279 16.7011 32.7179 15.9381 32.3409 15.3911Z" fill="#4C2E22"/>
<path d="M29.8569 15.0879C29.8809 17.9879 32.4949 17.8429 33.3629 16.9589C32.9759 16.3269 32.6229 15.7979 32.3389 15.3909C31.5261 15.1942 30.6932 15.0925 29.8569 15.0879Z" fill="#241711"/>
<path d="M31.3471 16.5281C31.5288 16.5281 31.6761 16.3808 31.6761 16.1991C31.6761 16.0174 31.5288 15.8701 31.3471 15.8701C31.1654 15.8701 31.0181 16.0174 31.0181 16.1991C31.0181 16.3808 31.1654 16.5281 31.3471 16.5281Z" fill="#FCFBFA"/>
<path d="M31.7178 33.552C32.5537 35.215 33.1808 36.975 33.5848 38.792C33.6059 38.9378 33.6652 39.0755 33.7567 39.1911C33.8482 39.3066 33.9686 39.3959 34.1058 39.45L35.0058 39.807C35.3035 39.9238 35.6299 39.9462 35.9408 39.871L36.9698 39.618C37.1467 39.5745 37.3121 39.4931 37.4545 39.3795C37.5969 39.2659 37.713 39.1228 37.7948 38.96L39.0518 36.426C39.2598 36.012 39.7078 35.226 39.7078 35.226C39.8446 34.9937 39.9384 34.7386 39.9848 34.473C39.9989 34.2383 39.9807 34.0027 39.9308 33.773C39.8618 33.409 39.7748 33.048 39.6748 32.601C39.5858 32.182 39.4748 31.661 39.2988 30.939C37.6748 32.348 37.2328 34.925 36.8608 38.154C36.2442 36.7238 35.5416 35.3322 34.7568 33.987C33.9631 33.3854 33.062 32.9408 32.1018 32.677C32.0568 32.784 31.8938 33.129 31.7178 33.552Z" fill="#8E5A42"/>
<path d="M35.9407 39.8721C35.46 38.0338 34.733 36.2688 33.7797 34.6251C33.7567 34.5935 33.7459 34.5547 33.7491 34.5158C33.7523 34.4768 33.7694 34.4403 33.7973 34.4129C33.8252 34.3856 33.862 34.3691 33.9009 34.3666C33.9399 34.364 33.9786 34.3756 34.0097 34.3991C34.076 34.4434 34.1391 34.4922 34.1987 34.5451C34.2319 34.5732 34.2597 34.6071 34.2807 34.6451C35.177 36.2633 35.8776 37.9824 36.3677 39.7661L35.9407 39.8721Z" fill="#7C4F3A"/>
<path d="M25.077 26.5181C23.7128 26.4387 22.4014 25.9625 21.304 25.1481C20.3385 24.4263 19.5527 23.4912 19.0081 22.4158C18.4634 21.3403 18.1745 20.1536 18.164 18.9481C18.0742 18.2103 18.0658 17.4648 18.139 16.7251C18.008 17.0251 16.355 21.0011 18.6 24.4011C19.6467 25.9281 21.1691 27.0659 22.93 27.6371C23.3214 27.7452 23.7206 27.8228 24.124 27.8691C25.4615 28.0464 26.8219 27.857 28.06 27.3211C29.2351 26.7941 30.2477 25.9623 30.993 24.9121C29.264 26.1111 27.175 26.6782 25.077 26.5181Z" fill="#B27053"/>
<path d="M39.3071 30.9391C38.4112 27.397 37.125 23.9654 35.472 20.7071C34.919 19.6221 34.349 18.6011 33.772 17.6421L33.3521 19.6361C35.6702 23.6912 36.9991 28.2359 37.231 32.9011C37.2712 33.8342 37.2629 34.7688 37.2061 35.7011C37.5641 33.6251 38.1181 31.9721 39.3071 30.9391Z" fill="#C88769"/>
<path d="M32.3389 15.3899C32.7199 15.9369 33.2259 16.7009 33.7699 17.6419C34.3489 18.6009 34.9189 19.6219 35.4699 20.7069C37.1232 23.9648 38.4088 27.3966 39.3029 30.9389C38.1453 25.984 36.6416 21.1164 34.8029 16.3719C34.4489 16.2589 33.9869 16.0989 33.4579 15.8829C33.1849 15.7719 32.7999 15.6069 32.3389 15.3899Z" fill="#D8AB96"/>
<path d="M37.2308 32.901C36.9988 28.2356 35.6691 23.6907 33.3498 19.636C33.2422 20.1136 33.1087 20.5849 32.9498 21.048C32.4773 22.4355 31.8096 23.7487 30.9668 24.948L30.9958 24.909C30.9838 25.2499 30.9928 25.5912 31.0228 25.931C31.0967 26.5804 31.235 27.2209 31.4358 27.843C32.322 30.0034 33.4391 32.0617 34.7678 33.982C35.5591 35.3238 36.2606 36.7165 36.8678 38.151C36.9678 37.284 37.0678 36.464 37.2048 35.701C37.2619 34.7687 37.2706 33.8341 37.2308 32.901Z" fill="#B27053"/>
<path d="M18.1568 18.947C18.1673 20.1524 18.4561 21.3392 19.0008 22.4146C19.5454 23.4901 20.3312 24.4252 21.2968 25.147C22.3941 25.9614 23.7055 26.4376 25.0698 26.517C27.1676 26.679 29.2573 26.114 30.9878 24.917C31.8177 23.7267 32.4761 22.4256 32.9438 21.052C33.1028 20.589 33.2363 20.1176 33.3438 19.64L33.7638 17.646C33.2198 16.705 32.7138 15.946 32.3328 15.395C31.2719 15.1607 30.187 15.0533 29.1008 15.075C28.9158 14.693 27.5118 12.027 26.3918 10.293C26.2808 10.356 26.1688 10.416 26.0488 10.473C25.5883 10.697 25.1083 10.8784 24.6148 11.015C24.4838 11.036 24.2668 11.088 23.9358 11.136H23.9198C23.7918 11.154 23.6458 11.173 23.4808 11.192L23.2948 11.212C21.8478 11.723 19.6498 12.97 18.1268 16.723C18.0557 17.4632 18.0658 18.2089 18.1568 18.947Z" fill="#CC9079"/>
<path d="M28.2119 27.2521C29.2668 28.3352 30.2099 29.5219 31.0269 30.7941C31.4439 31.4431 31.8029 32.0771 32.1119 32.6771C33.071 32.9413 33.9713 33.3852 34.7649 33.9851C33.4323 32.0673 32.3149 30.0085 31.4329 27.8461C31.2321 27.2241 31.0938 26.5836 31.0199 25.9341C30.9899 25.5943 30.9809 25.253 30.9929 24.9121C30.7726 25.2246 30.5268 25.5182 30.2579 25.7901C29.6675 26.3943 28.9748 26.8893 28.2119 27.2521Z" fill="#7C4F3A"/>
<path d="M31.157 36.748C31.3877 37.2009 31.6482 37.6378 31.937 38.056C32.1448 38.2871 32.3987 38.472 32.6824 38.5988C32.9662 38.7255 33.2733 38.7914 33.584 38.792C33.1811 36.9752 32.555 35.2151 31.72 33.552C31.4868 34.0781 31.2932 34.621 31.141 35.176C31.129 35.234 31.115 35.293 31.105 35.35C31.0441 35.6949 31.031 36.0465 31.066 36.395C31.0873 36.5148 31.1177 36.6328 31.157 36.748Z" fill="#7C4F3A"/>
<path d="M24.125 27.8721C24.401 28.0951 24.781 28.4151 25.217 28.8151C26.2928 29.8249 27.2729 30.9319 28.145 32.1221C29.2426 33.597 30.2466 35.1394 31.151 36.7401C31.1129 36.6284 31.0832 36.5141 31.062 36.3981C31.0261 36.0497 31.0389 35.6979 31.1 35.3531C31.3455 34.4275 31.6842 33.5293 32.111 32.6721C31.802 32.0721 31.443 31.4381 31.026 30.7891C30.209 29.5169 29.2659 28.3302 28.211 27.2471L28.06 27.3161C26.8228 27.854 25.4628 28.0462 24.125 27.8721Z" fill="#4C2E22"/>
<path d="M39.681 32.6069C39.781 33.0539 39.868 33.4149 39.937 33.7789C39.987 34.0087 40.0052 34.2442 39.991 34.4789C39.9447 34.7445 39.8509 34.9996 39.714 35.2319C39.714 35.2319 39.266 36.0149 39.058 36.4319C38.6486 35.8371 38.4848 35.107 38.6009 34.3942C38.717 33.6815 39.104 33.0411 39.681 32.6069Z" fill="#7C4F3A"/>
<path d="M39.937 33.7871V33.7721C39.868 33.4081 39.781 33.0471 39.681 32.6001C39.2703 32.916 38.954 33.3384 38.7666 33.8215C38.5792 34.3046 38.5278 34.8298 38.618 35.3401C38.6851 34.9894 38.8418 34.662 39.073 34.3899C39.3041 34.1177 39.6018 33.9101 39.937 33.7871Z" fill="#4C2E22"/>
<path d="M27.1938 9.74307C28.0817 11.7767 29.4999 13.5343 31.2999 14.8321C31.9919 15.2358 32.7133 15.5871 33.4579 15.8831C33.9869 16.0991 34.4489 16.2591 34.8029 16.3721C32.2339 11.5351 29.8779 9.47207 28.2339 8.64307C27.9316 9.0493 27.5825 9.41851 27.1938 9.74307Z" fill="#C88769"/>
<path d="M32.3409 15.3911C31.28 15.1568 30.1951 15.0494 29.1089 15.0711C29.4209 19.0591 32.6149 18.5771 33.7719 17.6421C33.2279 16.7011 32.7179 15.9381 32.3409 15.3911Z" fill="#7C4F3A"/>
<path d="M29.8569 15.0879C29.8809 17.9879 32.4949 17.8429 33.3629 16.9589C32.9759 16.3269 32.6229 15.7979 32.3389 15.3909C31.5261 15.1942 30.6932 15.0925 29.8569 15.0879Z" fill="#4C2E22"/>
<path d="M31.3471 16.5281C31.5288 16.5281 31.6761 16.3808 31.6761 16.1991C31.6761 16.0174 31.5288 15.8701 31.3471 15.8701C31.1654 15.8701 31.0181 16.0174 31.0181 16.1991C31.0181 16.3808 31.1654 16.5281 31.3471 16.5281Z" fill="#FCFBFA"/>
<path d="M26.4009 10.2881C27.5189 12.0231 28.9249 14.6881 29.1099 15.0701C30.1961 15.0484 31.281 15.1558 32.3419 15.3901C32.0239 15.2321 31.6729 15.0521 31.2999 14.8321C29.5021 13.5326 28.0843 11.7764 27.1929 9.74512C26.9454 9.9491 26.6804 10.1308 26.4009 10.2881Z" fill="#8E5A42"/>
<path d="M6.25098 40.0071H7.20798C9.83598 34.8931 11.478 32.3601 11.887 31.7201C13.0909 29.7235 14.4216 27.8063 15.871 25.9801C16.0978 25.6741 16.3849 25.4178 16.7146 25.2271C17.0443 25.0363 17.4096 24.9152 17.788 24.8711C18.2385 24.8627 18.6869 24.9334 19.113 25.0801C18.819 24.7241 18.64 24.4661 18.6 24.4051C17.8683 23.2838 17.4639 21.9806 17.432 20.6421C15.962 23.3361 14.126 25.2661 13 27.1821C10.3947 31.2603 8.13704 35.5504 6.25098 40.0071Z" fill="#7C4F3A"/>
<path d="M5.97559 40.007H6.24359C6.56859 39.193 6.94358 38.358 7.35258 37.514C8.99216 33.9439 10.8787 30.4925 12.9986 27.185C14.1256 25.267 15.9646 23.339 17.4346 20.639C17.3974 19.3017 17.6357 17.9712 18.1346 16.73C19.6576 12.977 21.8556 11.73 23.3026 11.219C23.2621 11.2215 23.222 11.2094 23.1896 11.185C23.1552 11.1586 23.1327 11.1197 23.1269 11.0768C23.1211 11.0339 23.1325 10.9905 23.1586 10.956C23.3356 10.726 23.4906 10.513 23.6356 10.304C15.5736 11.488 7.75659 26.684 5.97559 40.007Z" fill="#C88769"/>
<path d="M28.3179 8.51702C28.2879 8.55902 28.2629 8.60102 28.2319 8.64302C29.8759 9.47202 32.2319 11.535 34.8009 16.372C33.0519 11.872 30.1559 8.45102 28.9189 7.57202C28.8289 7.74002 28.7259 7.90902 28.6189 8.07802C28.6019 8.10602 28.5829 8.13302 28.5659 8.16002C28.4859 8.28002 28.4039 8.39902 28.3179 8.51702Z" fill="#D8AB96"/>
<path d="M33.3889 0.714111C33.2185 1.41852 33.0041 2.11154 32.7469 2.78911C32.7029 2.90611 32.6469 3.03911 32.5829 3.17811C32.3339 3.79844 32.0498 4.40408 31.7319 4.99211C31.5519 5.32011 30.3319 7.33011 30.0649 7.66311C30.4471 7.93721 30.8039 8.24512 31.1309 8.58311C31.3789 8.20111 31.5659 7.84411 31.7999 7.41311C32.9698 5.38217 33.522 3.05413 33.3889 0.714111Z" fill="#4C2E22"/>
<path d="M34.768 16.2881L34.799 16.3521C34.77 16.2281 34.581 15.4521 34.414 14.8901C34.291 14.4781 34.097 13.8341 33.791 13.0591C33.4657 12.1557 33.0555 11.2851 32.566 10.4591C32.1724 9.79871 31.7069 9.18396 31.178 8.62609C30.589 8.01468 29.9102 7.49672 29.165 7.09009C29.074 7.27209 28.918 7.57209 28.918 7.57209C30.157 8.45409 33.018 11.8391 34.768 16.2881Z" fill="#4C2E22"/>
<path d="M29.5787 6.21511C29.3647 6.69911 29.1507 7.11511 29.1647 7.08711C29.4761 7.25922 29.7767 7.45024 30.0647 7.65911C30.244 7.41711 30.4107 7.16811 30.5647 6.91211C30.9827 6.24411 31.5517 5.32711 31.7357 4.98711C32.1234 4.27759 32.4625 3.54257 32.7507 2.78711C33.0066 2.11015 33.2196 1.41778 33.3887 0.714111C32.1137 1.50111 30.7997 3.78511 29.9947 5.20111C29.9567 5.32411 29.7637 5.80111 29.5787 6.21511Z" fill="#8E5A42"/>
<path d="M0.00878906 39.9901L5.97879 40.0011C7.76079 26.6801 15.5788 11.4801 23.6428 10.3011C24.2096 9.48232 24.6715 8.59574 25.0178 7.66208C13.1828 5.90108 1.79079 19.5441 0.00878906 22.6371V39.9901Z" fill="#B27053"/>
<path d="M0.00878906 22.6369C1.79079 19.5439 13.1828 5.9009 25.0178 7.6549C25.2048 7.1699 25.3728 6.6959 25.5668 6.1959C24.9458 6.04916 24.3153 5.94657 23.6798 5.8889C22.932 5.82091 22.1801 5.81088 21.4308 5.8589C16.5804 6.25198 11.8511 7.57613 7.50179 9.7589C5.55879 10.6589 0.226789 13.7279 0.00878906 13.8589V22.6369Z" fill="#C88769"/>
<path d="M0.00683594 13.863C0.224836 13.728 5.55683 10.654 7.49983 9.76304C11.8508 7.58412 16.5805 6.26309 21.4308 5.87204C22.1802 5.82402 22.9321 5.83405 23.6798 5.90204C24.3153 5.9597 24.9459 6.06229 25.5668 6.20904C25.6328 6.04104 25.7038 5.87004 25.7778 5.69804C22.7364 5.02705 19.589 4.99301 16.5338 5.59804C10.7043 6.74248 5.11465 8.8799 0.00883484 11.917L0.00683594 13.863Z" fill="#4C2E22"/>
<path opacity="0.3" d="M28.2949 16.788C28.2941 17.5724 28.6048 18.3251 29.1588 18.8805C29.7127 19.4359 30.4645 19.7487 31.2489 19.75C31.8386 19.6901 32.3972 19.4568 32.8544 19.0797C33.3117 18.7026 33.6469 18.1985 33.8179 17.631C34.005 17.2125 34.0824 16.7533 34.0429 16.2967C34.0034 15.84 33.8483 15.4009 33.5922 15.0208C33.3361 14.6406 32.9874 14.332 32.579 14.1238C32.1707 13.9157 31.716 13.8149 31.2579 13.831C30.8696 13.8302 30.4849 13.9059 30.1259 14.0538C29.7668 14.2017 29.4404 14.4188 29.1653 14.6929C28.8901 14.9669 28.6716 15.2924 28.5223 15.6509C28.373 16.0093 28.2957 16.3937 28.2949 16.782V16.788Z" fill="black"/>
<path d="M18.4839 24.9161C18.6958 24.9543 18.9047 25.0078 19.1089 25.0761C19.7614 25.843 20.539 26.4939 21.4089 27.0011C22.2442 27.4709 23.1661 27.7665 24.1189 27.8701C24.3189 28.0321 24.7019 28.3571 24.8319 28.4701C31.4209 28.3391 35.7409 23.2161 36.8319 22.0951C36.7719 21.8811 35.6629 18.4871 34.7999 16.3721C34.3077 13.9545 33.3573 11.6534 31.9999 9.59311C31.2569 8.55802 30.2903 7.70354 29.1719 7.09311C28.1052 6.47858 26.962 6.00783 25.7719 5.69312C24.5706 5.40134 23.3425 5.23379 22.1069 5.19312C21.8249 8.48712 21.3549 12.0381 20.7719 15.2871C20.1889 18.5361 18.4839 24.9161 18.4839 24.9161ZM31.2519 19.7531C30.4674 19.7518 29.7157 19.439 29.1617 18.8836C28.6078 18.3282 28.2971 17.5755 28.2979 16.7911C28.2981 16.4028 28.3749 16.0183 28.5238 15.6596C28.6728 15.3009 28.8909 14.9751 29.1658 14.7008C29.4407 14.4265 29.7669 14.209 30.1259 14.0608C30.4849 13.9126 30.8695 13.8366 31.2579 13.8371C31.716 13.821 32.1706 13.9218 32.579 14.1299C32.9874 14.3381 33.336 14.6467 33.5921 15.0269C33.8482 15.407 34.0033 15.8461 34.0428 16.3028C34.0823 16.7594 34.0049 17.2186 33.8179 17.6371C33.6466 18.2036 33.3115 18.7067 32.8549 19.0833C32.3984 19.4598 31.8406 19.6928 31.2519 19.7531ZM22.7999 11.0531C22.7415 10.7858 22.7442 10.5088 22.8078 10.2427C22.8713 9.97657 22.9941 9.72821 23.1669 9.51612C23.5477 8.9523 24.0916 8.51827 24.7259 8.27212C25.0241 8.16278 25.3393 8.10693 25.6569 8.10711C26.0364 8.07928 26.4153 8.17021 26.7408 8.36731C27.0664 8.5644 27.3226 8.8579 27.4739 9.20712C27.8229 10.1881 27.3829 10.9561 26.2339 11.3681C25.0339 11.8001 23.1189 11.9351 22.8029 11.0501L22.7999 11.0531Z" fill="#FCC447"/>
<path d="M22.5021 11.1532C22.7281 11.7842 23.4841 12.0142 24.3361 12.0142C25.0175 12.005 25.6929 11.8855 26.3361 11.6602C26.914 11.4944 27.4075 11.1156 27.7171 10.6002C27.8303 10.369 27.8932 10.1164 27.9018 9.85906C27.9105 9.60174 27.8645 9.34551 27.7671 9.10721C27.6635 8.83787 27.5017 8.59476 27.2932 8.39526C27.0847 8.19576 26.8347 8.04481 26.5611 7.95321C25.9295 7.73721 25.2424 7.74817 24.6181 7.98421C23.1891 8.49421 22.1181 10.0942 22.5021 11.1532ZM23.1621 9.51021C23.5441 8.9513 24.0867 8.52138 24.7181 8.27721C25.0156 8.16741 25.3299 8.1099 25.6471 8.10721C26.027 8.07947 26.4062 8.17041 26.7322 8.36746C27.0582 8.5645 27.315 8.85793 27.4671 9.20721C27.8171 10.1842 27.3761 10.9492 26.2261 11.3602C25.0261 11.7902 23.1051 11.9242 22.7891 11.0422C22.7298 10.7752 22.7321 10.4982 22.7958 10.2322C22.8596 9.96624 22.9831 9.71829 23.1571 9.50721L23.1621 9.51021Z" fill="#1A1C1E"/>
<path d="M25.7679 5.68917C26.9653 5.98648 28.1138 6.45461 29.1779 7.07917C29.9601 7.51356 30.6688 8.06873 31.2778 8.72417C33.1858 10.7152 34.3308 14.2592 34.8058 16.4092C34.1827 15.1914 33.4812 14.0152 32.7059 12.8882C31.5315 11.1841 30.0179 9.74097 28.2599 8.64917C26.4876 7.77845 24.5186 7.38582 22.5479 7.51017C22.5799 7.31017 22.7428 5.42217 22.7538 5.22217C23.7698 5.29357 24.778 5.44978 25.7679 5.68917Z" fill="#FCE086"/>
<path d="M18.4849 24.9151C19.1379 22.4091 19.9019 19.6151 20.5759 16.2521C21.2779 12.5918 21.7866 8.89698 22.0999 5.18311C22.2999 5.19111 22.5179 5.20411 22.7549 5.22011C22.1438 11.9342 20.9238 18.5789 19.1099 25.0721C18.9051 25.0063 18.6964 24.9539 18.4849 24.9151Z" fill="black"/>
<path d="M19.106 25.0721C19.127 25.0981 19.163 25.1401 19.2 25.1811C19.6219 25.6551 20.091 26.085 20.6 26.4641C21.0718 26.8203 21.5852 27.1179 22.129 27.3501C22.7685 27.6138 23.4416 27.7871 24.129 27.8651C26.643 27.9651 30.683 27.0651 34.967 23.0391C33.313 24.3131 24.629 30.1561 19.574 23.3491C19.418 23.9011 19.257 24.5281 19.106 25.0721Z" fill="#F4A127"/>
<path d="M28.168 15.694C27.8752 16.5089 27.918 17.4067 28.2868 18.1901C28.6556 18.9735 29.3204 19.5785 30.135 19.872L30.242 19.578L30.596 18.61C30.6197 18.5466 30.6235 18.4774 30.6067 18.4118C30.5898 18.3461 30.5533 18.2872 30.502 18.243C30.3514 18.1191 30.2091 17.9855 30.076 17.843C29.8262 17.4721 29.7067 17.0287 29.7364 16.5825C29.7661 16.1363 29.9432 15.7126 30.24 15.378C29.94 15.118 29.672 14.878 29.328 14.548C29.255 14.48 29.181 14.409 29.1 14.332C28.6776 14.6985 28.3566 15.1676 28.168 15.694Z" fill="#60696D"/>
<path d="M29.3311 14.548C29.6751 14.873 29.9431 15.118 30.2431 15.378C29.9468 15.7129 29.7702 16.1367 29.7408 16.5828C29.7115 17.029 29.8312 17.4722 30.0811 17.843C30.1727 17.9428 30.2702 18.0369 30.3731 18.125C30.0864 17.7863 29.9279 17.3576 29.9256 16.9139C29.9232 16.4701 30.077 16.0397 30.3601 15.698C30.6039 15.4283 30.9296 15.2462 31.2871 15.18C31.4034 15.1551 31.5221 15.143 31.6411 15.144C31.7044 15.1446 31.7663 15.1257 31.8186 15.0899C31.8708 15.0542 31.9108 15.0032 31.9331 14.944L32.2741 14.011L32.3811 13.717C31.8295 13.514 31.2333 13.4641 30.6556 13.5725C30.078 13.681 29.5405 13.9438 29.1001 14.333C29.1771 14.407 29.2511 14.481 29.3311 14.548Z" fill="#839196"/>
<path d="M29.8058 20.193H29.8138C29.8594 20.2094 29.9097 20.2071 29.9536 20.1864C29.9974 20.1658 30.0313 20.1286 30.0478 20.083L30.1278 19.864C29.3124 19.5655 28.649 18.9553 28.2835 18.1677C27.918 17.38 27.8803 16.4795 28.1788 15.664C28.4773 14.8486 29.0875 14.1852 29.8752 13.8197C30.6628 13.4542 31.5634 13.4165 32.3788 13.715L32.4628 13.487V13.479C32.4706 13.455 32.4736 13.4297 32.4715 13.4045C32.4695 13.3793 32.4626 13.3548 32.451 13.3323C32.4395 13.3098 32.4237 13.2898 32.4044 13.2735C32.3851 13.2571 32.3629 13.2448 32.3388 13.237C31.78 13.0751 31.1912 13.045 30.6188 13.149C29.8373 13.2919 29.1224 13.682 28.5795 14.262C28.0366 14.842 27.6945 15.5811 27.6035 16.3703C27.5125 17.1595 27.6775 17.957 28.0743 18.6453C28.471 19.3336 29.0783 19.8762 29.8068 20.193H29.8058Z" fill="black"/>
<path d="M31.2568 20.072H31.2698C31.9227 20.0091 32.5422 19.7536 33.0498 19.3381C33.5574 18.9226 33.9301 18.3657 34.1208 17.738C34.3468 17.136 34.3884 16.4803 34.2404 15.8545C34.0924 15.2287 33.7615 14.6611 33.2898 14.224L33.2818 14.217C32.9982 14.0224 32.6969 13.855 32.3818 13.717L32.2748 14.011C32.567 14.1152 32.8405 14.2658 33.0848 14.457C33.509 14.8537 33.8058 15.3674 33.9376 15.9331C34.0693 16.4987 34.0301 17.0908 33.8248 17.634C33.7461 18.0141 33.5854 18.3724 33.3537 18.6838C33.122 18.9953 32.8251 19.2523 32.4837 19.4369C32.1423 19.6215 31.7646 19.7293 31.3772 19.7526C30.9898 19.776 30.6019 19.7143 30.2408 19.572L30.1338 19.866C30.4892 20.0138 30.8721 20.084 31.2568 20.072Z" fill="#1A1C1E"/>
<path d="M24.1299 27.8722C26.9179 27.9842 31.5799 26.8722 36.3799 21.6182L36.6029 21.3882L36.8389 22.0962C32.4659 26.9122 28.4519 28.4062 24.8389 28.4742C24.5829 28.2452 24.1249 27.8722 24.1299 27.8722Z" fill="black"/>
<path d="M24.5101 8.82498C24.2971 9.25533 24.0566 9.67152 23.7901 10.071C23.6061 10.344 23.4011 10.632 23.1611 10.944C23.1379 10.9762 23.1262 11.0153 23.1281 11.055C23.1317 11.0993 23.1524 11.1404 23.1858 11.1697C23.2192 11.1991 23.2627 11.2142 23.3071 11.212C23.7505 11.1699 24.1912 11.1031 24.6271 11.012C25.276 10.2611 25.8147 9.42166 26.2271 8.51898C26.4401 8.06798 26.4401 7.98598 27.4601 5.17798C28.2168 3.26714 29.3192 1.51215 30.7121 0.000976562C29.3065 0.856038 28.0832 1.97979 27.1121 3.30798C25.5181 5.56298 25.4001 7.01298 24.5101 8.82498Z" fill="#8E5A42"/>
<path d="M24.623 11.007C25.1169 10.8709 25.597 10.6891 26.0571 10.464C27.2968 9.82613 28.3016 8.81051 28.9261 7.56395C28.9341 7.54895 29.3841 6.65795 29.4341 6.54895C29.5251 6.34895 29.608 6.15795 29.685 5.98095C29.799 5.71795 29.9021 5.45795 29.9921 5.20195C30.5799 3.5348 30.8251 1.76614 30.713 0.00195312C29.317 1.51089 28.2139 3.26644 27.4601 5.17895C26.4401 7.98695 26.4401 8.06895 26.2271 8.51995C25.8138 9.42124 25.2736 10.2587 24.623 11.007Z" fill="#4C2E22"/>
<path d="M29.6182 33.1718C29.6182 32.7703 29.7372 32.3779 29.9603 32.044C30.1833 31.7102 30.5004 31.45 30.8713 31.2964C31.2423 31.1427 31.6504 31.1025 32.0442 31.1809C32.438 31.2592 32.7997 31.4525 33.0836 31.7364C33.3675 32.0203 33.5608 32.382 33.6392 32.7758C33.7175 33.1696 33.6773 33.5778 33.5237 33.9487C33.37 34.3196 33.1098 34.6367 32.776 34.8597C32.4422 35.0828 32.0497 35.2018 31.6482 35.2018C31.1098 35.2018 30.5934 34.988 30.2127 34.6073C29.832 34.2266 29.6182 33.7102 29.6182 33.1718ZM31.6482 31.3488C31.2877 31.3496 30.9424 31.4935 30.6879 31.7488C30.4335 32.0041 30.2908 32.3499 30.2912 32.7103C30.2916 33.0708 30.435 33.4163 30.69 33.671C30.945 33.9258 31.2907 34.0688 31.6512 34.0688C32.0116 34.0688 32.3573 33.9258 32.6123 33.671C32.8673 33.4163 33.0108 33.0708 33.0112 32.7103C33.0116 32.3499 32.8689 32.0041 32.6144 31.7488C32.36 31.4935 32.0146 31.3496 31.6542 31.3488H31.6482Z" fill="#E5E8EA"/>
<path d="M33.4739 33.9158L33.5289 33.9438C33.656 33.6356 33.7052 33.3007 33.672 32.9689C33.6388 32.6371 33.5242 32.3187 33.3385 32.0417C33.1527 31.7648 32.9016 31.538 32.6072 31.3813C32.3128 31.2247 31.9843 31.1431 31.6509 31.1438C31.4822 31.143 31.3142 31.1638 31.1509 31.2058C31.2896 31.186 31.4297 31.1767 31.5699 31.1778C31.897 31.1789 32.219 31.2589 32.5086 31.4111C32.7982 31.5632 33.0468 31.783 33.2333 32.0518C33.4198 32.3205 33.5387 32.6303 33.5799 32.9548C33.6211 33.2793 33.5833 33.609 33.4699 33.9158H33.4739Z" fill="white"/>
<path d="M31.5719 35.0348C31.8252 35.0368 32.076 34.9839 32.3069 34.8798C32.097 34.9568 31.8755 34.9978 31.6519 35.0008C31.2543 35.0021 30.8671 34.8733 30.5494 34.6341C30.2317 34.3949 30.001 34.0583 29.8923 33.6758C29.7837 33.2933 29.8031 32.8857 29.9477 32.5152C30.0922 32.1447 30.3539 31.8317 30.6929 31.6238C30.6666 31.6357 30.6408 31.6491 30.6159 31.6638C30.343 31.816 30.1177 32.0408 29.965 32.3134C29.8123 32.586 29.7382 32.8956 29.7509 33.2078C29.7514 33.6911 29.9433 34.1546 30.2845 34.497C30.6257 34.8393 31.0886 35.0327 31.5719 35.0348Z" fill="white"/>
<path d="M22.127 27.3329C22.286 27.3949 22.427 27.4499 22.6 27.5149C23.4579 23.5372 23.8509 19.4733 23.771 15.4049C25.1104 19.8375 26.8115 24.1526 28.857 28.3069C29.479 29.6069 30.065 30.7729 30.565 31.7159C30.8045 31.5471 31.0772 31.4312 31.365 31.3759C31.215 31.1759 29.697 28.2189 28.004 24.3269C27.284 22.6709 26.536 20.8429 25.841 18.9929C25.674 18.5309 25.413 17.8249 25.113 16.9659C24.775 15.9789 24.413 14.8659 24.164 13.9879C26.657 13.0028 29.0022 11.6783 31.133 10.0519C31.448 9.82089 31.862 9.50489 31.906 9.46889C31.651 9.14189 31.537 9.00689 31.258 8.70089C31.096 8.83189 30.686 9.13789 30.519 9.26589C28.4986 10.8169 26.2736 12.0812 23.907 13.0229C23.5121 12.0996 23.4589 11.0658 23.757 10.1069C24.3539 9.20036 24.8337 8.22192 25.185 7.19489C25.285 6.92789 25.37 6.69489 25.428 6.53589C25.401 6.53589 21.414 9.22889 22.881 13.3779C22.968 13.6779 23.045 13.9269 23.145 14.3449C23.718 18.0009 22.683 24.9589 22.127 27.3329Z" fill="black"/>
<path d="M0 34.901V35.74C4.39262 38.0412 9.27219 39.2577 14.231 39.288C15.214 39.288 16.166 39.233 17.093 39.142C19.335 38.9227 21.5459 38.4573 23.686 37.754C25.0497 37.2953 26.3853 36.7571 27.686 36.142C28.761 35.611 29.729 35.085 30.536 34.611C30.3352 34.4421 30.1659 34.239 30.036 34.011C29.1764 34.5307 28.2913 35.007 27.384 35.438C26.1653 36.0041 24.9149 36.4992 23.639 36.921C21.4076 37.6 19.1182 38.0713 16.8 38.329C10.9884 38.8003 5.16237 37.6116 0 34.901Z" fill="black"/>
<path d="M27.5179 36.2069C27.1319 36.3949 26.8119 36.5329 26.5639 36.6439C26.2369 36.7859 25.9639 36.8939 25.6369 37.0259C25.2369 37.1929 24.2479 37.5579 23.8669 37.6839L23.4199 37.4129C23.4199 37.4129 23.5589 37.0879 23.6199 36.9239C24.3039 36.6979 24.9689 36.4499 25.1839 36.3669C25.6009 36.2049 26.0049 36.0399 26.2709 35.9259C26.6709 35.7599 27.1019 35.5629 27.2019 35.5159C27.3179 35.7539 27.4129 35.9719 27.5179 36.2069Z" fill="#32373A"/>
<path d="M26.28 36.7718C26.38 36.7298 26.539 36.6628 26.703 36.5898L26.3911 35.8838L25.9771 36.0568L26.28 36.7718Z" fill="black"/>
<path d="M25.7922 18.8538L25.5212 19.3338C25.5212 19.3338 25.1422 19.2148 24.9692 19.1588L24.8502 18.8218L24.7302 18.4838C24.5982 18.1168 24.4882 17.7588 24.3672 17.3968L25.1672 17.1318C25.3722 17.6888 25.7922 18.8538 25.7922 18.8538Z" fill="#32373A"/>
<path d="M28.769 28.1428C28.469 27.5428 27.929 26.3618 27.55 25.5198C27.424 25.2358 27.325 24.9838 27.25 24.8198C27.25 24.8198 27.413 24.4548 27.499 24.2778L28.062 24.4658L29.562 27.7788C29.3 27.9068 28.775 28.1458 28.769 28.1428Z" fill="#32373A"/>
<path d="M25.2571 17.3519L24.4431 17.6139L24.3721 17.3969L25.1721 17.1289L25.2571 17.3519Z" fill="black"/>
<path d="M25.6712 18.507L24.8432 18.791C24.7892 18.637 24.7322 18.479 24.6782 18.324C24.9502 18.224 25.2282 18.132 25.5002 18.032C25.5572 18.193 25.6112 18.352 25.6712 18.507Z" fill="black"/>
<path d="M27.5571 25.5218C27.6371 25.7008 27.7201 25.8798 27.7991 26.0598L28.6061 25.6598C28.5261 25.4858 28.4501 25.3118 28.3691 25.1348L27.5571 25.5218Z" fill="black"/>
<path d="M28.1279 26.7879C28.2079 26.9679 28.2849 27.1359 28.3779 27.3289L29.1779 26.9289C29.0969 26.7549 29.0199 26.5749 28.9389 26.4009L28.1279 26.7879Z" fill="black"/>
<path d="M28.6572 27.895L28.9102 28.409C28.9102 28.409 29.4102 28.185 29.7012 28.052C29.6012 27.837 29.4552 27.532 29.4552 27.532L28.6572 27.895Z" fill="black"/>
<path d="M24.7948 17.6109C24.9075 17.6109 24.9988 17.5195 24.9988 17.4069C24.9988 17.2942 24.9075 17.2029 24.7948 17.2029C24.6822 17.2029 24.5908 17.2942 24.5908 17.4069C24.5908 17.5195 24.6822 17.6109 24.7948 17.6109Z" fill="black"/>
<path d="M29.1319 28.0798C29.2606 28.0798 29.3649 27.9755 29.3649 27.8468C29.3649 27.7181 29.2606 27.6138 29.1319 27.6138C29.0032 27.6138 28.8989 27.7181 28.8989 27.8468C28.8989 27.9755 29.0032 28.0798 29.1319 28.0798Z" fill="black"/>
<path d="M27.3341 36.2959L27.5221 36.2049L27.2071 35.5139C27.1441 35.5429 27.0781 35.5709 27.0151 35.6009L27.3341 36.2959Z" fill="black"/>
<path d="M27.2308 36.104C27.3424 36.104 27.4328 36.0135 27.4328 35.902C27.4328 35.7904 27.3424 35.7 27.2308 35.7C27.1192 35.7 27.0288 35.7904 27.0288 35.902C27.0288 36.0135 27.1192 36.104 27.2308 36.104Z" fill="black"/>
<path d="M26.2631 35.9329L26.1001 36.0009L26.4141 36.7119L26.5761 36.6419L26.2631 35.9329Z" fill="#666666"/>
<path d="M28.577 27.744L28.415 27.817C28.463 27.917 28.534 28.066 28.593 28.186L28.693 28.378L28.772 28.342C29.079 28.199 29.719 27.905 29.719 27.905L29.799 27.869L29.532 27.283L29.371 27.356L29.565 27.782L28.776 28.145L28.757 28.107C28.7 27.99 28.628 27.847 28.577 27.744Z" fill="#666666"/>
<path d="M24.146 17.2798L24.346 17.8938L24.514 17.8398L24.369 17.3918L24.645 17.3008L24.685 17.4248C24.6925 17.4458 24.7059 17.4642 24.7237 17.4777C24.7414 17.4912 24.7627 17.4992 24.785 17.5008H24.819C24.8468 17.4917 24.8698 17.472 24.8833 17.446C24.8968 17.42 24.8995 17.3898 24.891 17.3618L24.85 17.2368L25.169 17.1308L25.323 17.5578L25.489 17.4978L25.276 16.9088L25.194 16.9368L24.794 17.0698L24.757 16.9588C24.7474 16.9314 24.7276 16.9088 24.7016 16.8958C24.6757 16.8827 24.6457 16.8802 24.618 16.8888C24.5905 16.898 24.5677 16.9176 24.5546 16.9435C24.5415 16.9693 24.5391 16.9993 24.548 17.0268L24.584 17.1388L24.223 17.2568L24.146 17.2798Z" fill="#666666"/>
<path d="M25.5554 18.1917L24.731 18.4849L24.7899 18.6507L25.6143 18.3575L25.5554 18.1917Z" fill="#666666"/>
<path d="M27.2988 35.272L26.7598 35.52L26.8348 35.683L27.2138 35.512L27.3138 35.742L27.2138 35.787C27.1941 35.7953 27.1774 35.8092 27.1656 35.827C27.1539 35.8448 27.1477 35.8656 27.1478 35.887C27.1485 35.916 27.1605 35.9436 27.1812 35.9639C27.2019 35.9842 27.2297 35.9957 27.2588 35.996C27.2739 35.9954 27.2888 35.992 27.3028 35.986L27.4028 35.94C27.4438 36.032 27.4858 36.123 27.5218 36.201L27.4988 36.212C27.3908 36.265 27.2638 36.329 27.1638 36.372L27.2358 36.533C27.3358 36.49 27.4668 36.424 27.5758 36.371L27.7548 36.284L27.7178 36.206C27.6758 36.115 27.6178 35.992 27.5638 35.868L27.6498 35.83C27.6735 35.8165 27.6913 35.7946 27.6998 35.7687C27.7083 35.7428 27.7068 35.7146 27.6958 35.6897C27.6847 35.6648 27.6647 35.6449 27.6398 35.6338C27.6148 35.6228 27.5867 35.6214 27.5608 35.63L27.4718 35.67L27.3278 35.353L27.2988 35.272Z" fill="#666666"/>
<path d="M29.0228 26.5718L28.2178 26.9628L28.2918 27.1238L29.0918 26.7338L29.0228 26.5718Z" fill="#666666"/>
<path d="M28.4569 25.3218L27.6479 25.7218L27.7189 25.8798L28.5309 25.4888L28.4569 25.3218Z" fill="#666666"/>
<path d="M22.766 26.7338C22.713 26.9988 22.656 27.2768 22.599 27.5338C22.524 27.5058 22.218 27.3958 22.124 27.3508C22.187 27.0718 22.251 26.7658 22.309 26.4718C22.351 26.2538 22.393 26.0408 22.43 25.8298C22.53 25.8808 22.808 25.9888 22.9 26.0248C22.863 26.2568 22.818 26.4918 22.766 26.7338Z" fill="black"/>
<path d="M29.202 28.2719L29.028 27.8869C29.0195 27.861 29.0208 27.8329 29.0319 27.8079C29.0429 27.783 29.0628 27.763 29.0877 27.7519C29.1127 27.7408 29.1408 27.7394 29.1667 27.7479C29.1927 27.7564 29.2145 27.7742 29.228 27.7979L29.402 28.1839C29.4139 28.2105 29.4147 28.2406 29.4044 28.2678C29.3941 28.2949 29.3735 28.3169 29.347 28.3289C29.3317 28.3348 29.3155 28.3382 29.299 28.3389C29.2783 28.3375 29.2584 28.3305 29.2414 28.3187C29.2243 28.3069 29.2107 28.2908 29.202 28.2719Z" fill="#666666"/>
<path d="M33.7132 33.683C34.0842 33.962 34.3452 34.572 34.1522 34.83C33.9592 35.088 33.3422 35.009 32.9722 34.73C32.8103 34.6304 32.6933 34.4721 32.6454 34.2881C32.5975 34.1042 32.6225 33.9089 32.7152 33.743C32.7767 33.6734 32.8513 33.6167 32.9348 33.576C33.0183 33.5353 33.109 33.5115 33.2017 33.5059C33.2944 33.5003 33.3873 33.5131 33.4751 33.5435C33.5629 33.5739 33.6438 33.6213 33.7132 33.683Z" fill="#E5E8EA"/>
<path d="M34.0179 34.3509C33.9688 34.2422 33.896 34.1459 33.8049 34.0689C33.7274 34.002 33.6347 33.955 33.5349 33.9319C33.4998 33.9175 33.4619 33.9111 33.424 33.9132C33.3861 33.9153 33.3492 33.9258 33.3159 33.9439C33.2947 33.9584 33.2775 33.978 33.2659 34.0009C33.2569 34.0394 33.2399 34.0755 33.2162 34.107C33.1924 34.1385 33.1623 34.1647 33.1279 34.1839C33.0921 34.2021 33.0528 34.2121 33.0127 34.2133C32.9726 34.2145 32.9327 34.2069 32.8959 34.1909C32.8366 34.1583 32.7919 34.1043 32.7709 34.0399C32.7506 33.9711 32.757 33.8972 32.7889 33.8329C32.8185 33.7735 32.8642 33.7236 32.9209 33.6889C32.9865 33.645 33.0615 33.6173 33.1399 33.6079C33.2168 33.5944 33.2957 33.5965 33.3719 33.6139C33.4475 33.6304 33.5197 33.6602 33.5849 33.7019C33.648 33.737 33.707 33.7789 33.7609 33.8269C33.8289 33.8871 33.8879 33.9568 33.9359 34.0339C34 34.122 34.0509 34.2191 34.0869 34.3219C34.121 34.4078 34.138 34.4995 34.1369 34.5919C34.1356 34.6471 34.1272 34.7019 34.1119 34.7549C34.1109 34.615 34.0788 34.4769 34.0179 34.3509Z" fill="white"/>
</g>
<defs>
<clipPath id="clip0_479_14060">
<rect width="40.016" height="40.004" fill="white"/>
</clipPath>
</defs>
</svg>
