<svg width="33" height="32" viewBox="0 0 33 32" fill="none" xmlns="http://www.w3.org/2000/svg">
<g id="Group 2038">
<g id="Brown 1">
<g id="Group 782">
<path id="Path 353" d="M0.509277 9.53503V31.9856L6.26851 31.996C8.37063 27.9052 9.68406 25.879 10.0112 25.3671C10.9738 23.7697 12.0382 22.236 13.198 20.7755C13.3794 20.5307 13.609 20.3256 13.8728 20.1731C14.1365 20.0205 14.4287 19.9236 14.7314 19.8884C15.0933 19.8835 15.4534 19.9406 15.7961 20.0572C16.5932 21.0214 17.6534 21.7331 18.8477 22.1058C19.1607 22.1924 19.48 22.2545 19.8027 22.2914C20.0227 22.4698 20.3267 22.7257 20.6754 23.0457C21.5355 23.8539 22.3195 24.7394 23.0175 25.691C23.8952 26.8711 24.6982 28.1048 25.422 29.385V29.3955C25.6059 29.758 25.8143 30.1076 26.0459 30.4418C26.2119 30.6268 26.415 30.7748 26.642 30.8763C26.869 30.9777 27.1147 31.0302 27.3633 31.0305C27.3799 31.1473 27.4272 31.2576 27.5005 31.3501C27.5737 31.4426 27.6702 31.5139 27.7801 31.5568L28.5 31.8424C28.738 31.9363 28.9993 31.9542 29.2479 31.8936L29.5918 31.8088L30.0718 31.6912C30.2133 31.6564 30.3455 31.5913 30.4595 31.5005C30.5734 31.4096 30.6663 31.2951 30.7317 31.1649L31.7275 29.1459C31.8939 28.8147 32.2523 28.186 32.2523 28.186C32.3741 28.0207 32.454 27.8282 32.4851 27.6252C32.5161 27.4222 32.4975 27.2147 32.4306 27.0205C32.3811 26.7285 32.0627 25.3295 31.9267 24.7519C31 20.7886 29.7973 16.895 28.3272 13.0995V13.0939H28.332C29.7718 11.5916 29.4143 7.65443 25.9323 5.9298C26.8682 4.30494 27.3099 2.44241 27.2033 0.570329C26.1835 1.19987 25.1324 3.02688 24.4885 4.15957C24.9571 2.82562 25.1524 1.41102 25.0628 0C23.9375 0.684429 22.9589 1.58483 22.1832 2.64932C21.7604 3.24336 21.4027 3.8811 21.1161 4.55155L21.077 4.54273C19.3935 4.17064 17.6631 4.05815 15.9456 4.20917C11.3398 4.48515 6.12933 6.73772 5.16946 7.15368C3.56666 7.84682 2.01006 8.64224 0.509277 9.53503Z" fill="#684040"/>
<path id="Path 355" d="M26.3689 12.3115C25.5203 12.1245 24.6525 12.0386 23.7837 12.0556C24.0333 15.2456 26.5881 14.8601 27.5136 14.1122C27.0785 13.3594 26.6737 12.7491 26.3689 12.3115Z" fill="#3A1919"/>
<path id="Path 356" d="M24.3838 12.0692C24.403 14.389 26.4939 14.273 27.1882 13.5658C26.8787 13.0603 26.5963 12.6371 26.3691 12.3116C25.7189 12.1547 25.0527 12.0733 24.3838 12.0692Z" fill="#241711"/>
<path id="Ellipse 159" d="M25.5742 13.2211C25.7195 13.2211 25.8374 13.1033 25.8374 12.9579C25.8374 12.8126 25.7195 12.6947 25.5742 12.6947C25.4289 12.6947 25.311 12.8126 25.311 12.9579C25.311 13.1033 25.4289 13.2211 25.5742 13.2211Z" fill="#FCFBFA"/>
<path id="Path 357" d="M25.875 26.8389C26.5437 28.1692 27.0453 29.5771 27.3684 31.0305C27.385 31.1473 27.4323 31.2576 27.5055 31.3501C27.5788 31.4425 27.6753 31.5139 27.7851 31.5568L28.505 31.8424C28.7431 31.9363 29.0044 31.9542 29.253 31.8936L30.076 31.6912C30.2176 31.6564 30.3498 31.5913 30.4638 31.5005C30.5777 31.4096 30.6705 31.2951 30.736 31.1649L31.7414 29.1379C31.9078 28.8067 32.2662 28.178 32.2662 28.178C32.3749 27.9918 32.45 27.7879 32.4877 27.5756C32.499 27.3879 32.4845 27.1995 32.4445 27.0157C32.3893 26.7245 32.3197 26.4357 32.2398 26.0782C32.1686 25.743 32.0798 25.3263 31.939 24.7487C30.64 25.8758 30.2864 27.9372 29.9889 30.5201C29.4964 29.3763 28.9354 28.2632 28.3091 27.1869C27.6741 26.706 26.9533 26.3504 26.1854 26.139C26.1422 26.2246 26.0118 26.5005 25.875 26.8389Z" fill="#593232"/>
<path id="Path 358" d="M29.2489 31.8936C28.8643 30.4231 28.2828 29.0113 27.5203 27.6964C27.5031 27.6708 27.4955 27.6399 27.4988 27.6092C27.502 27.5784 27.516 27.5499 27.5381 27.5284C27.5603 27.5069 27.5893 27.4938 27.6201 27.4915C27.6509 27.4892 27.6815 27.4977 27.7067 27.5157C27.7594 27.5514 27.8099 27.5904 27.8578 27.6324C27.8844 27.6549 27.9066 27.682 27.9234 27.7124C28.6397 29.0072 29.2001 30.3822 29.5928 31.8088L29.2489 31.8936Z" fill="#492626"/>
<path id="Path 359" d="M20.561 21.2123C19.4697 21.1491 18.4206 20.7682 17.543 20.1164C16.7704 19.5392 16.1418 18.7913 15.7061 17.9309C15.2704 17.0706 15.0394 16.1212 15.0313 15.1569C14.9595 14.5667 14.9528 13.9703 15.0113 13.3787C14.9066 13.6186 13.5843 16.7991 15.3801 19.5188C16.2171 20.7405 17.435 21.6507 18.8436 22.1074C19.1567 22.194 19.476 22.2561 19.7987 22.293C20.8685 22.4351 21.9568 22.2836 22.9471 21.8546C23.887 21.433 24.697 20.7677 25.2932 19.9276C23.9102 20.8867 22.2391 21.3403 20.561 21.2123Z" fill="#684040"/>
<path id="Path 360" d="M31.9416 24.7487C31.2251 21.9153 30.1963 19.1702 28.874 16.5639C28.4317 15.696 27.9757 14.8793 27.5142 14.1122L27.1782 15.7072C29.0325 18.951 30.0955 22.5864 30.281 26.3182C30.3123 27.0646 30.3057 27.8122 30.261 28.5579C30.5474 26.8973 30.9913 25.5726 31.9416 24.7487Z" fill="#775050"/>
<path id="Path 361" d="M26.3677 12.3108C26.6724 12.7483 27.0772 13.3595 27.5123 14.1122C27.9755 14.8793 28.4314 15.696 28.8721 16.5639C30.1938 19.1704 31.2221 21.9154 31.9381 24.7487C31.0115 20.7854 29.8087 16.8918 28.3386 13.0963C28.0555 13.0059 27.6859 12.8779 27.2628 12.7051C27.0444 12.6155 26.7364 12.4883 26.3677 12.3108Z" fill="#A58484"/>
<g id="Group 776">
<g id="Group 775">
<g id="Group 774">
<path id="Path 362" d="M30.2806 26.3182C30.0946 22.5863 29.031 18.9508 27.1762 15.7072C27.0962 16.0672 26.9858 16.4448 26.8562 16.8367C26.4776 17.9464 25.9436 18.9967 25.27 19.9564L25.2932 19.9252C25.2828 20.1979 25.29 20.471 25.3148 20.7427C25.3731 21.2624 25.4838 21.7748 25.6452 22.2722C26.3536 24.0005 27.2472 25.6471 28.3104 27.1829C28.943 28.2564 29.5042 29.3704 29.9902 30.5177C30.0702 29.8242 30.1542 29.1683 30.2598 28.5579C30.3047 27.8122 30.3116 27.0646 30.2806 26.3182Z" fill="#684040"/>
</g>
</g>
</g>
<g id="Group 777">
<path id="Path 363" d="M15.026 15.1553C15.0341 16.1196 15.265 17.0691 15.7007 17.9294C16.1364 18.7897 16.7651 19.5376 17.5377 20.1148C18.4151 20.7669 19.4642 21.1479 20.5556 21.2107C22.2337 21.3403 23.9053 20.8884 25.2894 19.9308C25.953 18.9785 26.4796 17.9378 26.854 16.8391C26.9876 16.4472 27.094 16.0696 27.174 15.7097L27.5099 14.1146C27.0748 13.3619 26.67 12.7547 26.3653 12.314C25.5166 12.127 24.6489 12.0411 23.78 12.058C23.632 11.7524 22.509 9.61985 21.6131 8.23279C21.5243 8.28318 21.4347 8.33117 21.3387 8.37677C20.9703 8.55567 20.5864 8.7008 20.1917 8.81034C20.0869 8.82714 19.9133 8.86874 19.6486 8.90713H19.6358C19.5334 8.92153 19.4166 8.93673 19.2846 8.95193L19.1358 8.96792C17.9784 9.37668 16.2202 10.3742 15.002 13.3763C14.9448 13.9684 14.9528 14.565 15.026 15.1553Z" fill="#896262"/>
</g>
<path id="Path 364" d="M23.0664 21.7994C23.9098 22.6662 24.6641 23.6155 25.3181 24.6328C25.6517 25.1519 25.9388 25.6591 26.186 26.139C26.9531 26.3507 27.6731 26.7057 28.3081 27.1853C27.2415 25.6516 26.3477 24.0047 25.6429 22.2746C25.4815 21.7772 25.3708 21.2648 25.3125 20.7451C25.2877 20.4734 25.2805 20.2003 25.2909 19.9276C25.1147 20.1776 24.918 20.4125 24.703 20.63C24.2307 21.1133 23.6766 21.5092 23.0664 21.7994Z" fill="#492626"/>
<path id="Path 365" d="M25.4207 29.3939C25.6045 29.7565 25.813 30.106 26.0446 30.4401C26.2106 30.6252 26.4137 30.7732 26.6407 30.8747C26.8676 30.9761 27.1134 31.0286 27.362 31.0289C27.0385 29.5756 26.5369 28.1677 25.8686 26.8373C25.6816 27.258 25.5267 27.6923 25.4055 28.1364C25.3959 28.1828 25.3847 28.23 25.3767 28.2756C25.3271 28.5514 25.3166 28.8328 25.3455 29.1115C25.3625 29.2076 25.3877 29.302 25.4207 29.3939Z" fill="#492626"/>
<g id="Group 780">
<g id="Group 779">
<g id="Group 778">
<path id="Path 366" d="M19.7974 22.293C20.0181 22.4713 20.3221 22.7273 20.6708 23.0473C21.5309 23.8555 22.3149 24.741 23.0129 25.6926C23.8906 26.8727 24.6937 28.1064 25.4174 29.3867C25.3862 29.2976 25.3624 29.2061 25.3462 29.1131C25.3175 28.8344 25.3277 28.5531 25.3766 28.2772C25.5734 27.539 25.8443 26.8226 26.1853 26.139C25.9382 25.659 25.651 25.1519 25.3174 24.6327C24.6634 23.6154 23.9091 22.6662 23.0657 21.7994L22.945 21.8546C21.9548 22.2832 20.8669 22.4347 19.7974 22.293Z" fill="#3A1919"/>
</g>
</g>
</g>
<path id="Path 367" d="M32.2398 26.0854C32.3198 26.443 32.3894 26.7317 32.4446 27.0229C32.4846 27.2067 32.4991 27.3951 32.4878 27.5828C32.45 27.7951 32.375 27.999 32.2662 28.1852C32.2662 28.1852 31.9079 28.8115 31.7415 29.1451C31.414 28.6692 31.283 28.0853 31.3758 27.5151C31.4687 26.9449 31.7782 26.4327 32.2398 26.0854Z" fill="#3A1919"/>
<path id="Path 368" d="M32.4458 27.0269V27.0157C32.3906 26.7245 32.321 26.4358 32.241 26.0782C31.912 26.3304 31.6586 26.6681 31.5084 27.0544C31.3581 27.4408 31.3169 27.861 31.3891 28.2692C31.4425 27.9883 31.568 27.7262 31.7533 27.5084C31.9385 27.2906 32.1771 27.1247 32.4458 27.0269Z" fill="#241711"/>
<path id="Path 369" d="M22.2524 7.79602C22.9619 9.42322 24.0964 10.8294 25.5368 11.8668C26.0903 12.1899 26.6673 12.4709 27.263 12.7075C27.6861 12.8803 28.0557 13.0083 28.3388 13.0987C26.2839 9.22948 24.3994 7.57924 23.0843 6.91611C22.8421 7.24069 22.5629 7.53598 22.2524 7.79602Z" fill="#775050"/>
<path id="Path 370" d="M26.3689 12.3115C25.5203 12.1245 24.6525 12.0386 23.7837 12.0556C24.0333 15.2456 26.5881 14.8601 27.5136 14.1122C27.0785 13.3594 26.6737 12.7491 26.3689 12.3115Z" fill="#3A1919"/>
<path id="Path 371" d="M24.3838 12.0692C24.403 14.389 26.4939 14.273 27.1882 13.5658C26.8787 13.0603 26.5963 12.6371 26.3691 12.3116C25.7189 12.1547 25.0527 12.0733 24.3838 12.0692Z" fill="#241711"/>
<path id="Ellipse 160" d="M25.5742 13.2211C25.7195 13.2211 25.8374 13.1033 25.8374 12.9579C25.8374 12.8126 25.7195 12.6947 25.5742 12.6947C25.4289 12.6947 25.311 12.8126 25.311 12.9579C25.311 13.1033 25.4289 13.2211 25.5742 13.2211Z" fill="#FCFBFA"/>
<path id="Path 372" d="M21.6182 8.22958C22.5124 9.61744 23.6371 11.7492 23.7851 12.0548C24.6539 12.0379 25.5217 12.1238 26.3703 12.3108C26.116 12.1844 25.8352 12.0404 25.5368 11.8644C24.0982 10.8256 22.9639 9.42054 22.2517 7.79523C22.0535 7.95804 21.8415 8.10337 21.6182 8.22958Z" fill="#593232"/>
<path id="Path 373" d="M5.5 31.9992H6.2655C8.36762 27.9084 9.68105 25.8822 10.0082 25.3703C10.9707 23.7729 12.0352 22.2392 13.195 20.7787C13.3764 20.5339 13.606 20.3288 13.8697 20.1763C14.1335 20.0237 14.4257 19.9268 14.7284 19.8916C15.0887 19.8854 15.4473 19.9419 15.7882 20.0588C15.5531 19.774 15.4099 19.5677 15.3779 19.5189C14.7919 18.6222 14.4683 17.5796 14.4436 16.5088C13.2678 18.6637 11.7992 20.2076 10.8985 21.7402C8.8145 25.0025 7.00864 28.4342 5.5 31.9992Z" fill="#492626"/>
<path id="Path 374" d="M5.2832 32H5.49757C5.75754 31.3489 6.0575 30.6809 6.38466 30.0058C7.69598 27.1499 9.20504 24.3891 10.9009 21.7435C11.8023 20.2092 13.2733 18.6669 14.4492 16.5072C14.4194 15.4375 14.61 14.3731 15.0091 13.3803C16.2274 10.3782 17.9855 9.38068 19.143 8.97192C19.1178 8.97369 19.0926 8.96818 19.0705 8.95608C19.0483 8.94398 19.0301 8.92579 19.018 8.90364C19.0058 8.8815 19.0003 8.85633 19.0021 8.83114C19.0038 8.80595 19.0127 8.78181 19.0278 8.76154C19.1694 8.57756 19.2933 8.40717 19.4093 8.23999C12.9574 9.1895 6.70781 21.3451 5.2832 32Z" fill="#775050"/>
<path id="Path 375" d="M23.1498 6.81294C23.1258 6.84653 23.1059 6.88014 23.0811 6.91373C24.3961 7.57687 26.2806 9.2271 28.3356 13.0963C26.9365 9.49668 24.62 6.76014 23.6306 6.05701C23.5586 6.19139 23.4762 6.32659 23.3906 6.46178C23.377 6.48417 23.3618 6.50577 23.3482 6.52737C23.2858 6.62336 23.2197 6.71855 23.1498 6.81294Z" fill="#A58484"/>
<path id="Path 376" d="M0.506836 31.9888L5.28221 31.9976C6.70762 21.3419 12.9612 9.1831 19.4115 8.23999C19.8649 7.58505 20.2344 6.87585 20.5114 6.129C11.0446 4.72034 1.93225 15.6337 0.506836 18.1078V31.9888Z" fill="#684040"/>
<path id="Path 377" d="M0.506836 18.1078C1.93225 15.6336 11.0446 4.72033 20.5114 6.12339C20.661 5.73543 20.7954 5.35626 20.9505 4.9563C20.4537 4.83936 19.9494 4.75732 19.4411 4.71074C18.843 4.65635 18.2415 4.64833 17.6422 4.68674C13.7623 5.00115 9.97944 6.06036 6.50044 7.80643C4.94625 8.52635 0.681213 10.9813 0.506836 11.0861V18.1078Z" fill="#775050"/>
<path id="Path 378" d="M27.2079 0.571136C27.0718 1.13379 26.9014 1.68757 26.6976 2.22937C26.6624 2.32296 26.6176 2.42936 26.5664 2.54054C26.3672 3.03676 26.1399 3.52122 25.8857 3.9916C25.7889 4.16838 25.3146 4.9603 24.9458 5.52985C25.2861 5.63713 25.6174 5.77086 25.9369 5.92981C26.8726 4.30518 27.3143 2.44295 27.2079 0.571136Z" fill="#3A1919"/>
<path id="Path 379" d="M0.505859 11.0893C0.680236 10.9813 4.94527 8.52236 6.49946 7.80964C9.9796 6.06582 13.7629 5.00827 17.6428 4.69474C18.2422 4.65633 18.8436 4.66436 19.4417 4.71873C19.95 4.76532 20.4544 4.84739 20.9512 4.96431C21.0039 4.82993 21.0599 4.69315 21.1199 4.55557C18.6871 4.01883 16.1695 3.99159 13.7257 4.47557C9.06277 5.39137 4.59172 7.10111 0.507458 9.53026L0.505859 11.0893Z" fill="#3A1919"/>
<g id="Group 781">
<path id="Path 380" d="M26.6975 2.22937C26.9014 1.68757 27.0718 1.13379 27.2079 0.571136C26.188 1.20067 25.1369 3.0277 24.4938 4.16199C24.4602 4.25638 24.309 4.64194 24.1611 4.9715C24.0339 5.25307 24.0443 5.23227 24.0171 5.29147C24.3324 5.35183 24.6437 5.432 24.949 5.53146C25.2833 4.99711 25.7385 4.26357 25.8856 3.9916C26.1958 3.42322 26.4671 2.83446 26.6975 2.22937Z" fill="#593232"/>
</g>
<path id="Path 381" d="M23.6338 6.05698C24.6169 6.75611 26.9134 9.46384 28.3052 13.0283L28.3364 13.0939C29.7762 11.5916 29.4186 7.65442 25.9367 5.9298C25.3291 5.63088 24.6831 5.41767 24.0169 5.29626C23.921 5.48985 23.6538 6.02098 23.6338 6.05698Z" fill="#3A1919"/>
</g>
</g>
<g id="Brown">
<g id="Group 783">
<path id="Path 382" d="M20.1053 7.05908C19.9346 7.40317 19.7423 7.73608 19.5294 8.05579C19.3822 8.27416 19.2182 8.50455 19.0263 8.75413C19.0069 8.77953 18.9976 8.81109 18.9999 8.84291C19.001 8.86058 19.0056 8.87784 19.0134 8.89371C19.0212 8.9096 19.032 8.92379 19.0454 8.93546C19.0587 8.94713 19.0741 8.95605 19.0909 8.96173C19.1077 8.9674 19.1254 8.96971 19.143 8.96851C19.4977 8.93479 19.8502 8.88137 20.1989 8.80852C20.7179 8.20786 21.1489 7.53639 21.4787 6.81431C21.6491 6.45355 21.6491 6.38797 22.465 4.1418C23.0703 2.61328 23.9521 1.20943 25.0662 0.000610352C23.9416 0.68417 22.963 1.58313 22.1866 2.64593C20.914 4.44975 20.8172 5.60963 20.1053 7.05908Z" fill="#593232"/>
<path id="Path 383" d="M20.1958 8.80788C20.5908 8.69905 20.9748 8.55364 21.3428 8.37353C22.3342 7.86283 23.1377 7.05055 23.6377 6.05377C23.6441 6.04177 24.0041 5.32905 24.0441 5.24186C24.1169 5.08188 24.1833 4.92907 24.2449 4.78749C24.3361 4.57684 24.4179 4.36913 24.4904 4.16435C24.9606 2.83076 25.1568 1.41597 25.0672 0.00476074C23.9503 1.21165 23.0679 2.61599 22.4651 4.14595C21.6492 6.39212 21.6492 6.45772 21.4788 6.81848C21.148 7.53928 20.7159 8.20917 20.1958 8.80788Z" fill="#3A1919"/>
</g>
</g>
<g id="DRIBLE 2">
<g id="Group 784">
<path id="Path 384" d="M24.1943 26.5349C24.1943 26.2138 24.2896 25.8998 24.468 25.6328C24.6464 25.3658 24.9 25.1576 25.1967 25.0347C25.4934 24.9118 25.8199 24.8797 26.1349 24.9423C26.4499 25.005 26.7392 25.1596 26.9663 25.3867C27.1934 25.6138 27.3481 25.9032 27.4107 26.2182C27.4734 26.5331 27.4412 26.8597 27.3183 27.1564C27.1954 27.4531 26.9873 27.7067 26.7202 27.8851C26.4532 28.0636 26.1393 28.1588 25.8181 28.1588C25.6048 28.1588 25.3936 28.1167 25.1965 28.0351C24.9995 27.9534 24.8204 27.8337 24.6697 27.6829C24.5189 27.532 24.3993 27.3529 24.3177 27.1558C24.2362 26.9587 24.1942 26.7475 24.1943 26.5341V26.5349ZM25.8181 25.0767C25.5296 25.0767 25.2475 25.1623 25.0075 25.3226C24.7676 25.4829 24.5806 25.7108 24.4702 25.9774C24.3597 26.244 24.3308 26.5374 24.3871 26.8204C24.4434 27.1034 24.5824 27.3634 24.7864 27.5675C24.9905 27.7715 25.2505 27.9105 25.5335 27.9668C25.8165 28.0231 26.1099 27.9942 26.3765 27.8837C26.6431 27.7733 26.8709 27.5863 27.0312 27.3464C27.1916 27.1064 27.2771 26.8243 27.2771 26.5358C27.2767 26.1489 27.1229 25.778 26.8493 25.5045C26.5758 25.231 26.2049 25.0771 25.8181 25.0767Z" fill="#E5E8EA"/>
<path id="Path 385" d="M27.2756 27.1301L27.3196 27.1525C27.4209 26.9059 27.4599 26.6381 27.4332 26.3729C27.4064 26.1076 27.3148 25.8531 27.1663 25.6317C27.0178 25.4103 26.817 25.2288 26.5818 25.1034C26.3465 24.978 26.084 24.9125 25.8174 24.9127C25.6825 24.9119 25.5481 24.9286 25.4175 24.9623C25.5285 24.9468 25.6405 24.9394 25.7526 24.9399C26.0143 24.9408 26.2719 25.0048 26.5035 25.1265C26.7352 25.2482 26.934 25.424 27.0832 25.639C27.2324 25.854 27.3275 26.1018 27.3604 26.3613C27.3934 26.6209 27.3632 26.8846 27.2724 27.1301H27.2756Z" fill="white"/>
<path id="Path 386" d="M25.7539 28.0252C25.9566 28.0267 26.1571 27.9844 26.3419 27.9012C26.1739 27.9629 25.9968 27.9956 25.8179 27.998C25.4999 27.9991 25.1902 27.8962 24.936 27.7051C24.6818 27.5139 24.497 27.2449 24.4098 26.9391C24.3225 26.6332 24.3377 26.3072 24.4528 26.0107C24.568 25.7142 24.7768 25.4635 25.0476 25.2967C25.0265 25.3062 25.006 25.3169 24.986 25.3287C24.7676 25.4502 24.5873 25.6301 24.4651 25.8482C24.343 26.0662 24.2838 26.314 24.2941 26.5637C24.2943 26.951 24.4482 27.3224 24.7218 27.5963C24.9955 27.8703 25.3667 28.0246 25.7539 28.0252Z" fill="white"/>
<path id="Path 387" d="M18.1992 21.8642C18.3264 21.9138 18.4392 21.9578 18.5776 22.0098C19.2639 18.8279 19.5782 15.5771 19.5142 12.3228C20.5853 15.8682 21.9462 19.3195 23.5833 22.6417C24.0808 23.6816 24.5496 24.6143 24.9495 25.3686C25.141 25.2335 25.3592 25.1408 25.5894 25.0967C25.4695 24.9367 24.2552 22.5713 22.901 19.458C22.3251 18.1334 21.7268 16.6711 21.1708 15.1913C21.0372 14.8217 20.8285 14.257 20.5885 13.5698C20.3181 12.7803 20.0286 11.89 19.8294 11.1877C21.8235 10.3995 23.6993 9.34006 25.4039 8.03918L25.4671 7.9896C25.2631 7.72802 25.1655 7.59603 24.9663 7.36805L24.9127 7.41046C23.2967 8.65119 21.5169 9.66252 19.6238 10.4157C19.3089 9.67857 19.2669 8.8533 19.5054 8.08798C19.9825 7.36257 20.3663 6.57996 20.6477 5.75862C20.7277 5.54504 20.7957 5.35866 20.8421 5.23148C20.8205 5.23148 17.6313 7.38564 18.8047 10.7045C18.8743 10.9445 18.9359 11.1437 19.0159 11.478C19.4711 14.3994 18.6416 19.9652 18.1992 21.8642Z" fill="black"/>
<path id="Path 388" d="M0.5 27.918V28.5891C4.01346 30.4304 7.91671 31.4035 11.8833 31.4272C12.6696 31.4272 13.4311 31.3832 14.1726 31.3105C15.966 31.1355 17.7346 30.7631 19.4463 30.2002C20.5371 29.8331 21.6054 29.4026 22.6459 28.9107C23.5058 28.4859 24.2801 28.0652 24.9256 27.686C24.7647 27.5512 24.6292 27.3886 24.5256 27.2061C23.8377 27.6215 23.1306 28.002 22.4043 28.3475C21.4294 28.8002 20.4292 29.1963 19.4087 29.5338C17.6239 30.0772 15.7926 30.4543 13.9382 30.6601C9.2895 31.0377 4.62918 30.0867 0.5 27.918Z" fill="black"/>
<path id="Path 389" d="M22.5153 28.9643C22.2065 29.1147 21.9505 29.2251 21.7522 29.3139C21.4906 29.4275 21.2722 29.5138 21.0107 29.6194C20.6907 29.753 19.8996 30.045 19.5949 30.1458L19.2373 29.929C19.2373 29.929 19.3485 29.669 19.3973 29.5378C19.9444 29.3571 20.4763 29.1587 20.6483 29.0923C20.9819 28.9627 21.305 28.8307 21.5178 28.7395C21.8378 28.6067 22.1825 28.4492 22.2625 28.4116C22.3505 28.6003 22.4273 28.7755 22.5153 28.9643Z" fill="#32373A"/>
<path id="Path 390" d="M21.5212 29.4114C21.6012 29.3778 21.7284 29.3242 21.8595 29.2658L21.61 28.7011L21.2788 28.8395L21.5212 29.4114Z" fill="black"/>
<path id="Path 391" d="M21.1311 15.0817L20.9143 15.4656C20.9143 15.4656 20.6111 15.3705 20.4728 15.3257L20.3776 15.0561L20.2816 14.7857C20.176 14.4922 20.088 14.2058 19.9912 13.9162L20.6351 13.7042C20.7951 14.1498 21.1311 15.0817 21.1311 15.0817Z" fill="#32373A"/>
<path id="Path 392" d="M23.5119 22.5145C23.2719 22.0346 22.84 21.0899 22.5368 20.4164C22.4361 20.1892 22.3569 19.9876 22.2969 19.8564C22.2969 19.8564 22.4273 19.5644 22.496 19.4229L22.9464 19.5732L24.1462 22.2234C23.9367 22.3241 23.5207 22.5145 23.5119 22.5145Z" fill="#32373A"/>
<path id="Path 393" d="M20.702 13.8802L20.0509 14.0898L19.9941 13.9162L20.6341 13.7018L20.702 13.8802Z" fill="black"/>
<path id="Path 394" d="M21.0345 14.8065L20.3722 15.0337C20.329 14.9105 20.2834 14.7841 20.2402 14.6601C20.4578 14.5801 20.6802 14.5065 20.8977 14.4265C20.9417 14.5529 20.9865 14.6801 21.0345 14.8065Z" fill="black"/>
<path id="Path 395" d="M22.542 20.4156C22.606 20.5587 22.6724 20.7019 22.7356 20.8459L23.3811 20.5259C23.3171 20.3868 23.2563 20.2476 23.1915 20.106L22.542 20.4156Z" fill="black"/>
<path id="Path 396" d="M22.9995 21.4282C23.0635 21.5722 23.1251 21.7066 23.1995 21.861L23.8394 21.541C23.7746 21.4018 23.713 21.2579 23.6482 21.1187L22.9995 21.4282Z" fill="black"/>
<path id="Path 397" d="M23.4199 22.3138L23.6223 22.7249C23.6223 22.7249 24.0222 22.5457 24.255 22.4394C24.175 22.2674 24.0582 22.0234 24.0582 22.0234L23.4199 22.3138Z" fill="black"/>
<path id="Ellipse 161" d="M20.3331 14.0874C20.4232 14.0874 20.4963 14.0143 20.4963 13.9242C20.4963 13.8341 20.4232 13.761 20.3331 13.761C20.243 13.761 20.1699 13.8341 20.1699 13.9242C20.1699 14.0143 20.243 14.0874 20.3331 14.0874Z" fill="black"/>
<path id="Ellipse 162" d="M23.8026 22.4617C23.9055 22.4617 23.989 22.3783 23.989 22.2753C23.989 22.1724 23.9055 22.089 23.8026 22.089C23.6997 22.089 23.6162 22.1724 23.6162 22.2753C23.6162 22.3783 23.6997 22.4617 23.8026 22.4617Z" fill="black"/>
<path id="Path 398" d="M22.3645 29.0339L22.5149 28.9611L22.263 28.4084C22.2126 28.4316 22.1598 28.4539 22.1094 28.4779L22.3645 29.0339Z" fill="black"/>
<path id="Ellipse 163" d="M22.2817 28.8803C22.3709 28.8803 22.4433 28.808 22.4433 28.7187C22.4433 28.6295 22.3709 28.5571 22.2817 28.5571C22.1925 28.5571 22.1201 28.6295 22.1201 28.7187C22.1201 28.808 22.1925 28.8803 22.2817 28.8803Z" fill="black"/>
<path id="Path 399" d="M21.5078 28.7435L21.3774 28.7979L21.6286 29.3667L21.7582 29.3107L21.5078 28.7435Z" fill="#666666"/>
<path id="Path 400" d="M23.361 22.1946L23.2314 22.253C23.2698 22.333 23.3266 22.4521 23.3738 22.5481L23.4538 22.7017L23.517 22.6729C23.7626 22.5585 24.2745 22.3233 24.2745 22.3233L24.3385 22.2946L24.1249 21.8258L23.9961 21.8842L24.1513 22.225L23.5202 22.5153L23.505 22.4857C23.457 22.3897 23.3994 22.2746 23.361 22.1946Z" fill="#666666"/>
<path id="Path 401" d="M19.8145 13.8226L19.9744 14.3137L20.1088 14.2706L19.9928 13.9122L20.2136 13.8394L20.2456 13.9386C20.2516 13.9562 20.2629 13.9715 20.2779 13.9824C20.2929 13.9933 20.311 13.9992 20.3296 13.9994H20.3568C20.3788 13.9919 20.3971 13.9761 20.4077 13.9553C20.4183 13.9345 20.4204 13.9105 20.4136 13.8882L20.3808 13.7882L20.6359 13.7034L20.7591 14.045L20.8919 13.997L20.7215 13.5258L20.6559 13.5482L20.336 13.6546L20.308 13.5658C20.3003 13.5439 20.2844 13.5258 20.2637 13.5154C20.243 13.5049 20.219 13.5029 20.1968 13.5098C20.1859 13.5134 20.1757 13.519 20.167 13.5265C20.1582 13.534 20.151 13.5431 20.1458 13.5534C20.1406 13.5636 20.1375 13.5748 20.1366 13.5863C20.1358 13.5978 20.1372 13.6093 20.1408 13.6202L20.1696 13.7098L19.8808 13.8042L19.8145 13.8226Z" fill="#666666"/>
<path id="Rectangle 2618" d="M20.9412 14.552L20.2817 14.7865L20.3289 14.9191L20.9884 14.6846L20.9412 14.552Z" fill="#666666"/>
<path id="Path 402" d="M22.3359 28.218L21.9048 28.4163L21.9648 28.5467L22.2679 28.4099L22.3479 28.5939L22.2679 28.6299C22.2522 28.6365 22.2388 28.6477 22.2294 28.6619C22.22 28.6761 22.2151 28.6928 22.2151 28.7099C22.2152 28.7215 22.2176 28.7329 22.2221 28.7435C22.2267 28.7542 22.2332 28.7638 22.2415 28.7719C22.2497 28.78 22.2595 28.7864 22.2702 28.7907C22.2809 28.795 22.2924 28.7972 22.3039 28.7971C22.3161 28.7968 22.3281 28.7941 22.3391 28.7891L22.4191 28.7523C22.4519 28.8259 22.4855 28.8987 22.5143 28.9611L22.4959 28.9699C22.4095 29.0123 22.3079 29.0635 22.2279 29.0979L22.2855 29.2266C22.3655 29.1922 22.4703 29.1395 22.5575 29.0971L22.7007 29.0275L22.6711 28.9651C22.6375 28.8923 22.5911 28.7939 22.5479 28.6947L22.6167 28.6643C22.6343 28.654 22.6478 28.638 22.6551 28.6189C22.6624 28.5999 22.6629 28.5789 22.6567 28.5595C22.6531 28.5486 22.6473 28.5384 22.6398 28.5297C22.6322 28.5209 22.623 28.5138 22.6126 28.5087C22.6023 28.5035 22.591 28.5005 22.5795 28.4998C22.568 28.499 22.5564 28.5006 22.5455 28.5043L22.4743 28.5363L22.3591 28.2827L22.3359 28.218Z" fill="#666666"/>
<path id="Path 403" d="M23.7152 21.2587L23.0713 21.5715L23.1305 21.7002L23.7704 21.3883L23.7152 21.2587Z" fill="#666666"/>
<path id="Path 404" d="M23.2604 20.2556L22.6133 20.5755L22.6701 20.7019L23.3196 20.3891L23.2604 20.2556Z" fill="#666666"/>
<path id="Path 405" d="M18.7103 21.3851C18.6679 21.5971 18.6223 21.8194 18.5767 22.025C18.5167 22.0026 18.272 21.9146 18.1968 21.8786C18.2472 21.6554 18.2984 21.4107 18.3448 21.1755C18.3784 21.0011 18.4119 20.8307 18.4415 20.6619C18.5215 20.7027 18.7439 20.7891 18.8175 20.8219C18.7879 21.0035 18.7519 21.1915 18.7103 21.3851Z" fill="black"/>
<path id="Path 406" d="M23.8583 22.6129L23.7191 22.305C23.7099 22.2839 23.7095 22.26 23.7179 22.2386C23.7263 22.2171 23.7428 22.1999 23.7639 22.1906C23.7744 22.1858 23.7858 22.1831 23.7974 22.1827C23.809 22.1823 23.8206 22.1842 23.8314 22.1883C23.8423 22.1924 23.8522 22.1986 23.8607 22.2065C23.8691 22.2145 23.8759 22.224 23.8807 22.2346L24.0198 22.5434C24.0293 22.5646 24.03 22.5887 24.0218 22.6104C24.0135 22.6321 23.997 22.6497 23.9759 22.6593C23.9637 22.6644 23.9506 22.6671 23.9375 22.6673C23.9204 22.6669 23.9038 22.6615 23.8898 22.6519C23.8757 22.6422 23.8648 22.6287 23.8583 22.6129Z" fill="#666666"/>
<path id="Path 407" d="M27.467 26.9437C27.7637 27.1668 27.9725 27.6548 27.8181 27.8612C27.6637 28.0676 27.1702 28.0044 26.8742 27.7812C26.7445 27.7018 26.6506 27.5751 26.6122 27.4279C26.5739 27.2807 26.5941 27.1243 26.6687 26.9917C26.7682 26.8794 26.9082 26.8114 27.0579 26.8024C27.2076 26.7934 27.3547 26.8442 27.467 26.9437Z" fill="#E5E8EA"/>
<path id="Path 408" d="M27.7131 27.4741C27.6736 27.3873 27.6154 27.3102 27.5427 27.2485C27.4802 27.1957 27.4063 27.1582 27.3267 27.1389C27.2986 27.1276 27.2684 27.1226 27.2381 27.1242C27.2078 27.1259 27.1783 27.1342 27.1516 27.1485C27.1346 27.1601 27.1209 27.1758 27.1116 27.1941C27.1044 27.2248 27.0908 27.2537 27.0718 27.2789C27.0528 27.3041 27.0288 27.3251 27.0012 27.3405C26.9726 27.3551 26.9411 27.3633 26.909 27.3642C26.8769 27.3652 26.845 27.359 26.8156 27.3461C26.7678 27.3204 26.7319 27.277 26.7156 27.2253C26.699 27.1703 26.7042 27.111 26.73 27.0597C26.7534 27.012 26.7901 26.972 26.8356 26.9445C26.8881 26.9094 26.9481 26.8872 27.0108 26.8797C27.0724 26.8692 27.1354 26.8709 27.1964 26.8845C27.2567 26.8984 27.3142 26.9222 27.3667 26.9549C27.4812 27.0184 27.5778 27.1097 27.6475 27.2205C27.6988 27.291 27.7395 27.3686 27.7683 27.4508C27.8138 27.5607 27.8209 27.6828 27.7883 27.7972C27.7867 27.6853 27.7611 27.5751 27.7131 27.4741Z" fill="white"/>
</g>
</g>
</g>
</svg>
