<svg width="40" height="40" viewBox="0 0 40 40" fill="none" xmlns="http://www.w3.org/2000/svg">
<g clip-path="url(#clip0_479_13700)">
<path d="M0.0117188 11.922V39.988L7.2117 40.001C9.8397 34.887 11.4817 32.354 11.8907 31.714C13.0946 29.7175 14.4254 27.8002 15.8747 25.974C16.1016 25.668 16.3887 25.4117 16.7184 25.221C17.0481 25.0303 17.4134 24.9091 17.7917 24.865C18.2424 24.8581 18.691 24.9288 19.1177 25.074C20.1148 26.2788 21.44 27.1684 22.9327 27.635C23.3241 27.7431 23.7233 27.8207 24.1267 27.867C24.4017 28.09 24.7817 28.41 25.2177 28.81C26.2935 29.8198 27.2736 30.9269 28.1457 32.117C29.2437 33.5917 30.2476 35.1341 31.1517 36.735V36.748C31.3823 37.2009 31.6429 37.6378 31.9317 38.056C32.1395 38.2871 32.3934 38.472 32.6771 38.5988C32.9608 38.7255 33.268 38.7914 33.5787 38.792C33.5998 38.9379 33.6592 39.0756 33.7507 39.1911C33.8422 39.3067 33.9626 39.396 34.0997 39.45L34.9997 39.807C35.2974 39.9239 35.6239 39.9462 35.9347 39.871L36.3647 39.765L36.9647 39.618C37.1416 39.5745 37.307 39.4931 37.4494 39.3795C37.5919 39.2659 37.7079 39.1228 37.7897 38.96L39.0397 36.433C39.2477 36.019 39.6957 35.233 39.6957 35.233C39.8483 35.0264 39.9483 34.7859 39.9872 34.532C40.026 34.2782 40.0025 34.0187 39.9187 33.776C39.8567 33.411 39.4587 31.662 39.2887 30.94C38.1311 25.9851 36.6275 21.1175 34.7887 16.373C34.7107 16.09 34.5667 15.452 34.3997 14.89C34.2767 14.478 34.0827 13.834 33.7767 13.059C33.4514 12.1556 33.0413 11.285 32.5517 10.459C32.1582 9.79862 31.6927 9.18388 31.1637 8.626L31.1217 8.584C31.3817 8.165 31.5697 7.825 31.7897 7.413C32.9599 5.38183 33.5122 3.05337 33.3787 0.713C32.1037 1.5 30.7897 3.784 29.9847 5.2C30.5706 3.53241 30.8148 1.76395 30.7027 0C29.296 0.855664 28.0724 1.98129 27.1027 3.312C26.5746 4.05485 26.1273 4.85205 25.7687 5.69L25.7197 5.679C23.6152 5.2133 21.4518 5.07267 19.3047 5.262C13.5467 5.607 7.0327 8.423 5.8327 8.943C3.8305 9.81017 1.88617 10.8052 0.0117188 11.922Z" fill="#BDBDBD"/>
<path d="M32.3409 15.393C31.2801 15.1588 30.1951 15.0514 29.1089 15.073C29.4179 19.061 32.6179 18.579 33.7719 17.644C33.2279 16.703 32.7179 15.94 32.3409 15.393Z" fill="#616161"/>
<path d="M29.8569 15.0901C29.8809 17.9901 32.4949 17.8451 33.3629 16.9611C32.9759 16.3291 32.6229 15.8001 32.3389 15.3931C31.5261 15.1964 30.6932 15.0947 29.8569 15.0901Z" fill="#241711"/>
<path d="M31.3466 16.5301C31.5283 16.5301 31.6756 16.3828 31.6756 16.2011C31.6756 16.0194 31.5283 15.8721 31.3466 15.8721C31.1649 15.8721 31.0176 16.0194 31.0176 16.2011C31.0176 16.3828 31.1649 16.5301 31.3466 16.5301Z" fill="#FCFBFA"/>
<path d="M31.7227 33.5539C32.5586 35.2169 33.1857 36.977 33.5897 38.7939C33.6108 38.9398 33.6701 39.0775 33.7616 39.193C33.8531 39.3086 33.9735 39.3979 34.1107 39.4519L35.0107 39.8089C35.3083 39.9258 35.6348 39.9481 35.9456 39.8729L36.9746 39.6199C37.1515 39.5764 37.3169 39.495 37.4594 39.3814C37.6018 39.2678 37.7179 39.1247 37.7997 38.9619L39.0566 36.4279C39.2646 36.0139 39.7126 35.2279 39.7126 35.2279C39.8491 34.9954 39.9429 34.7404 39.9897 34.4749C40.0038 34.2402 39.9856 34.0047 39.9356 33.7749C39.8666 33.4109 39.7797 33.0499 39.6797 32.6029C39.5907 32.1839 39.4797 31.6629 39.3036 30.9409C37.6796 32.3499 37.2377 34.9269 36.8657 38.1559C36.2504 36.7258 35.5491 35.3343 34.7657 33.9889C33.972 33.3874 33.0709 32.9428 32.1107 32.6789C32.0567 32.7859 31.8937 33.1309 31.7227 33.5539Z" fill="#9E9E9E"/>
<path d="M35.9407 39.874C35.46 38.0357 34.7331 36.2707 33.7798 34.627C33.7583 34.5949 33.7488 34.5563 33.7529 34.5179C33.757 34.4795 33.7744 34.4438 33.8021 34.4169C33.8298 34.39 33.866 34.3737 33.9045 34.3708C33.943 34.3679 33.9813 34.3786 34.0128 34.401C34.079 34.4454 34.1421 34.4941 34.2018 34.547C34.2349 34.5751 34.2627 34.609 34.2838 34.647C35.18 36.2652 35.8806 37.9843 36.3708 39.768L35.9407 39.874Z" fill="#757575"/>
<path d="M25.0771 26.5201C23.7128 26.4406 22.4014 25.9645 21.304 25.1501C20.3385 24.4283 19.5527 23.4932 19.0081 22.4177C18.4634 21.3423 18.1746 20.1555 18.1641 18.9501C18.0742 18.2122 18.0658 17.4667 18.139 16.7271C18.008 17.0271 16.355 21.003 18.6 24.403C19.6467 25.93 21.1691 27.0678 22.93 27.639C23.3214 27.7472 23.7206 27.8247 24.124 27.8711C25.4615 28.0483 26.8219 27.8589 28.0601 27.3231C29.2351 26.796 30.2477 25.9643 30.993 24.9141C29.264 26.113 27.175 26.6801 25.0771 26.5201Z" fill="#BDBDBD"/>
<path d="M39.307 30.941C38.4112 27.399 37.125 23.9673 35.472 20.709C34.919 19.624 34.3491 18.603 33.7721 17.644L33.3521 19.638C35.6702 23.6932 36.9991 28.2379 37.231 32.903C37.2712 33.8362 37.2629 34.7708 37.2061 35.703C37.5641 33.627 38.118 31.974 39.307 30.941Z" fill="#D6D6D6"/>
<path d="M32.3389 15.3921C32.7199 15.9391 33.2259 16.7031 33.7699 17.6441C34.3489 18.6031 34.9189 19.6241 35.4699 20.7091C37.1232 23.967 38.4088 27.3988 39.3029 30.9411C38.1453 25.9862 36.6416 21.1186 34.8029 16.3741C34.4489 16.2611 33.9869 16.1011 33.4579 15.8851C33.1849 15.7741 32.7999 15.6091 32.3389 15.3921Z" fill="#F5F5F5"/>
<path d="M37.2308 32.9029C36.9988 28.2375 35.6691 23.6927 33.3498 19.6379C33.2498 20.0879 33.1118 20.5599 32.9498 21.0499C32.4773 22.4375 31.8096 23.7507 30.9668 24.9499L30.9958 24.9109C30.9838 25.2518 30.9928 25.5932 31.0228 25.9329C31.0967 26.5824 31.235 27.2229 31.4358 27.8449C32.322 30.0053 33.4392 32.0636 34.7678 33.9839C35.5591 35.3257 36.2606 36.7184 36.8678 38.1529C36.9678 37.2859 37.0678 36.4659 37.2048 35.7029C37.262 34.7707 37.2706 33.8361 37.2308 32.9029Z" fill="#BDBDBD"/>
<path d="M18.1568 18.9489C18.1673 20.1544 18.4561 21.3411 19.0008 22.4166C19.5455 23.492 20.3312 24.4271 21.2968 25.1489C22.3942 25.9633 23.7055 26.4395 25.0698 26.5189C27.1677 26.681 29.2574 26.116 30.9878 24.9189C31.8177 23.7286 32.4762 22.4276 32.9438 21.0539C33.1028 20.5909 33.2363 20.1195 33.3438 19.6419L33.7638 17.6479C33.2198 16.7069 32.7138 15.9479 32.3328 15.3969C31.2719 15.1626 30.187 15.0552 29.1008 15.0769C28.9158 14.6949 27.5118 12.0289 26.3918 10.2949C26.2808 10.3579 26.1688 10.4179 26.0488 10.4749C25.5883 10.6989 25.1083 10.8803 24.6148 11.0169C24.4838 11.0379 24.2668 11.0899 23.9358 11.1379H23.9248C23.7968 11.1559 23.6508 11.1749 23.4858 11.1939L23.2998 11.2139C21.8528 11.7249 19.6548 12.9719 18.1318 16.7249C18.0586 17.4649 18.067 18.2107 18.1568 18.9489Z" fill="#E0E0E0"/>
<path d="M28.2119 27.2541C29.2668 28.3372 30.2099 29.5238 31.0269 30.7961C31.4439 31.4451 31.8029 32.0791 32.1119 32.6791C33.0711 32.9433 33.9713 33.3871 34.7649 33.9871C33.4323 32.0692 32.3149 30.0105 31.4329 27.8481C31.2322 27.226 31.0938 26.5855 31.0199 25.9361C30.99 25.5963 30.9809 25.255 30.9929 24.9141C30.7726 25.2265 30.5268 25.5202 30.2579 25.7921C29.6675 26.3963 28.9748 26.8912 28.2119 27.2541Z" fill="#757575"/>
<path d="M31.1571 36.75C31.3877 37.2028 31.6482 37.6398 31.9371 38.058C32.1448 38.289 32.3988 38.4739 32.6825 38.6007C32.9662 38.7275 33.2733 38.7933 33.5841 38.794C33.1811 36.9771 32.5551 35.2171 31.7201 33.554C31.4868 34.0801 31.2933 34.6229 31.1411 35.178C31.1291 35.236 31.115 35.295 31.105 35.352C31.0441 35.6968 31.031 36.0485 31.066 36.397C31.0873 36.5168 31.1177 36.6348 31.1571 36.75Z" fill="#757575"/>
<path d="M24.125 27.874C24.401 28.097 24.781 28.417 25.217 28.817C26.2927 29.8268 27.2729 30.9339 28.145 32.124C29.2429 33.5987 30.2469 35.1411 31.151 36.742C31.1129 36.6304 31.0831 36.5161 31.062 36.4C31.0261 36.0516 31.0389 35.6999 31.1 35.355C31.3455 34.4295 31.6842 33.5312 32.111 32.674C31.802 32.074 31.443 31.44 31.026 30.791C30.209 29.5188 29.2659 28.3322 28.211 27.249L28.06 27.318C26.8228 27.856 25.4628 28.0482 24.125 27.874Z" fill="#616161"/>
<path d="M39.6811 32.6089C39.7811 33.0559 39.868 33.4169 39.937 33.7809C39.987 34.0107 40.0052 34.2462 39.991 34.4809C39.9443 34.7464 39.8504 35.0014 39.714 35.2339C39.714 35.2339 39.266 36.0169 39.058 36.4339C38.6486 35.839 38.4848 35.109 38.6009 34.3962C38.717 33.6834 39.104 33.0431 39.6811 32.6089Z" fill="#757575"/>
<path d="M39.9366 33.7891V33.7741C39.8676 33.4101 39.7806 33.0491 39.6806 32.6021C39.2698 32.9179 38.9534 33.3403 38.766 33.8234C38.5786 34.3065 38.5273 34.8318 38.6176 35.3421C38.6847 34.9913 38.8414 34.664 39.0726 34.3918C39.3037 34.1197 39.6014 33.912 39.9366 33.7891Z" fill="#616161"/>
<path d="M27.1938 9.74502C28.0817 11.7787 29.4999 13.5363 31.2998 14.834C31.9919 15.2377 32.7133 15.5891 33.4578 15.885C33.9868 16.101 34.4488 16.261 34.8028 16.374C32.2338 11.537 29.8778 9.47402 28.2338 8.64502C27.9315 9.05124 27.5825 9.42045 27.1938 9.74502Z" fill="#D6D6D6"/>
<path d="M32.3409 15.393C31.2801 15.1588 30.1951 15.0514 29.1089 15.073C29.4179 19.061 32.6179 18.579 33.7719 17.644C33.2279 16.703 32.7179 15.94 32.3409 15.393Z" fill="#616161"/>
<path d="M29.8569 15.0901C29.8809 17.9901 32.4949 17.8451 33.3629 16.9611C32.9759 16.3291 32.6229 15.8001 32.3389 15.3931C31.5261 15.1964 30.6932 15.0947 29.8569 15.0901Z" fill="#241711"/>
<path d="M31.3466 16.5301C31.5283 16.5301 31.6756 16.3828 31.6756 16.2011C31.6756 16.0194 31.5283 15.8721 31.3466 15.8721C31.1649 15.8721 31.0176 16.0194 31.0176 16.2011C31.0176 16.3828 31.1649 16.5301 31.3466 16.5301Z" fill="#FCFBFA"/>
<path d="M26.4009 10.2901C27.5189 12.0251 28.9249 14.6901 29.1099 15.0721C30.1961 15.0504 31.281 15.1578 32.3419 15.3921C32.0239 15.2341 31.6729 15.0541 31.2999 14.8341C29.5021 13.5346 28.0842 11.7783 27.1929 9.74707C26.9454 9.95105 26.6804 10.1328 26.4009 10.2901Z" fill="#9E9E9E"/>
<path d="M6.25098 40.0089H7.20798C9.83598 34.8949 11.478 32.3619 11.887 31.7219C13.0909 29.7253 14.4216 27.8081 15.871 25.9819C16.0978 25.6759 16.385 25.4196 16.7147 25.2289C17.0444 25.0381 17.4097 24.917 17.788 24.8729C18.2399 24.8627 18.6901 24.9321 19.118 25.0779C18.824 24.7219 18.645 24.4639 18.605 24.4029C17.8733 23.2816 17.4689 21.9784 17.437 20.6399C15.967 23.3339 14.131 25.2639 13.005 27.1799C10.3978 31.2592 8.13852 35.5507 6.25098 40.0089Z" fill="#757575"/>
<path d="M5.97559 40.0089H6.24359C6.56859 39.1949 6.9436 38.3599 7.3526 37.5159C8.99218 33.9458 10.8787 30.4945 12.9986 27.1869C14.1256 25.2689 15.9646 23.3409 17.4346 20.6409C17.3974 19.3037 17.6356 17.9731 18.1346 16.7319C19.6576 12.9789 21.8556 11.7319 23.3026 11.2209C23.2621 11.2234 23.222 11.2114 23.1896 11.1869C23.1553 11.1606 23.1327 11.1217 23.1269 11.0788C23.1211 11.0359 23.1325 10.9924 23.1586 10.9579C23.3356 10.7279 23.4906 10.5149 23.6356 10.3059C15.5736 11.4899 7.75659 26.6859 5.97559 40.0089Z" fill="#D6D6D6"/>
<path d="M28.3179 8.51897C28.2879 8.56097 28.2629 8.60297 28.2319 8.64497C29.8759 9.47397 32.2319 11.537 34.8009 16.374C33.0519 11.874 30.1559 8.45297 28.9189 7.57397C28.8289 7.74197 28.7259 7.91098 28.6189 8.07998C28.6019 8.10798 28.5829 8.13497 28.5659 8.16197C28.4859 8.28197 28.4039 8.40097 28.3179 8.51897Z" fill="#F5F5F5"/>
<path d="M33.3889 0.716064C33.2185 1.42047 33.0041 2.1135 32.7469 2.79106C32.7029 2.90806 32.6469 3.04106 32.5829 3.18006C32.3339 3.80039 32.0498 4.40604 31.7319 4.99406C31.5519 5.32206 30.3319 7.33206 30.0649 7.66506C30.4471 7.93917 30.8039 8.24708 31.1309 8.58506C31.3789 8.20306 31.5659 7.84606 31.7999 7.41506C32.9698 5.38412 33.522 3.05608 33.3889 0.716064Z" fill="#616161"/>
<path d="M34.7679 16.29L34.799 16.354C34.77 16.23 34.581 15.454 34.414 14.892C34.291 14.48 34.097 13.836 33.791 13.061C33.4657 12.1576 33.0555 11.2871 32.5659 10.461C32.1724 9.80065 31.7069 9.1859 31.1779 8.62804C30.589 8.01662 29.9102 7.49866 29.1649 7.09204C29.0739 7.27404 28.918 7.57404 28.918 7.57404C30.157 8.45604 33.0179 11.841 34.7679 16.29Z" fill="#616161"/>
<path d="M29.5787 6.21706C29.3647 6.70106 29.1507 7.11706 29.1647 7.08906C29.4761 7.26117 29.7767 7.4522 30.0647 7.66106C30.2447 7.41906 30.4114 7.17006 30.5647 6.91406C30.9827 6.24606 31.5517 5.32906 31.7357 4.98906C32.1235 4.27955 32.4626 3.54452 32.7507 2.78906C33.0066 2.11211 33.2197 1.41974 33.3887 0.716064C32.1137 1.50306 30.7997 3.78706 29.9947 5.20306C29.9567 5.32606 29.7637 5.80306 29.5787 6.21706Z" fill="#9E9E9E"/>
<path d="M0.00878906 39.992L5.97876 40.003C7.76076 26.682 15.5788 11.482 23.6428 10.303C24.2096 9.48429 24.6715 8.59771 25.0178 7.66404C13.1828 5.90304 1.79079 19.546 0.00878906 22.639V39.992Z" fill="#BDBDBD"/>
<path d="M0.00878906 22.6391C1.79079 19.5461 13.1828 5.9031 25.0178 7.6571C25.2048 7.1721 25.3728 6.6981 25.5668 6.1981C24.9458 6.05136 24.3152 5.94876 23.6798 5.8911C22.932 5.82311 22.1801 5.81308 21.4308 5.8611C16.5804 6.25418 11.8511 7.57832 7.50177 9.7611C5.55877 10.6611 0.226789 13.7301 0.00878906 13.8611V22.6391Z" fill="#D6D6D6"/>
<path d="M0.00683594 13.865C0.224836 13.73 5.55685 10.656 7.49985 9.76499C11.8508 7.58605 16.5805 6.26501 21.4308 5.87399C22.1802 5.82597 22.9321 5.836 23.6798 5.90399C24.3153 5.96166 24.9459 6.06425 25.5668 6.21099C25.6328 6.04299 25.7038 5.87199 25.7778 5.69999C22.7364 5.02901 19.5891 4.99496 16.5338 5.59999C10.7043 6.74442 5.11465 8.88184 0.0088501 11.919L0.00683594 13.865Z" fill="#616161"/>
<path opacity="0.3" d="M28.2949 16.79C28.2944 17.5743 28.6052 18.3268 29.1591 18.8822C29.7129 19.4375 30.4646 19.7504 31.2489 19.752C31.8386 19.692 32.3972 19.4588 32.8544 19.0817C33.3116 18.7045 33.6469 18.2004 33.8179 17.633C34.005 17.2145 34.0824 16.7553 34.0429 16.2986C34.0034 15.842 33.8483 15.4029 33.5922 15.0227C33.3361 14.6426 32.9874 14.3339 32.579 14.1258C32.1707 13.9176 31.716 13.8168 31.2579 13.833C30.8696 13.8322 30.4849 13.9079 30.1259 14.0558C29.7668 14.2036 29.4404 14.4208 29.1653 14.6948C28.8901 14.9688 28.6716 15.2944 28.5223 15.6528C28.373 16.0113 28.2957 16.3956 28.2949 16.784V16.79Z" fill="black"/>
<path d="M18.4839 24.9181C18.6958 24.9563 18.9047 25.0098 19.1089 25.0781C19.7614 25.845 20.5391 26.4958 21.4089 27.0031C22.2443 27.4728 23.1661 27.7685 24.1189 27.8721C24.3189 28.0341 24.7019 28.3591 24.8319 28.4721C31.4209 28.3411 35.7409 23.2181 36.8319 22.0971C36.7719 21.8831 35.6629 18.4891 34.7999 16.3741C34.3075 13.9565 33.3571 11.6555 31.9999 9.59507C31.2569 8.55997 30.2903 7.7055 29.1719 7.09507C28.1053 6.48053 26.962 6.00979 25.7719 5.69507C24.5706 5.40329 23.3425 5.23575 22.1069 5.19507C21.8249 8.48907 21.3549 12.0401 20.7719 15.2891C20.1889 18.5381 18.4839 24.9181 18.4839 24.9181ZM31.2519 19.7551C30.8634 19.7546 30.4789 19.6776 30.1202 19.5286C29.7615 19.3795 29.4356 19.1612 29.1613 18.8862C28.8869 18.6112 28.6694 18.2849 28.5212 17.9258C28.373 17.5668 28.2969 17.182 28.2974 16.7936C28.2979 16.4051 28.3748 16.0206 28.5239 15.6619C28.673 15.3032 28.8913 14.9773 29.1663 14.703C29.4413 14.4286 29.7676 14.2111 30.1266 14.0629C30.4857 13.9147 30.8705 13.8386 31.2589 13.8391C31.717 13.8229 32.1716 13.9237 32.58 14.1319C32.9884 14.34 33.337 14.6487 33.5931 15.0288C33.8492 15.409 34.0043 15.8481 34.0438 16.3047C34.0833 16.7614 34.0059 17.2206 33.8189 17.6391C33.648 18.2062 33.3131 18.7101 32.8562 19.0872C32.3994 19.4643 31.8412 19.6978 31.2519 19.7581V19.7551ZM22.7999 11.0551C22.7415 10.7878 22.7442 10.5107 22.8078 10.2446C22.8713 9.97852 22.9941 9.73017 23.1669 9.51807C23.5477 8.95425 24.0916 8.52022 24.7259 8.27407C25.0241 8.16474 25.3393 8.10888 25.6569 8.10907C26.0365 8.08123 26.4153 8.17216 26.7408 8.36926C27.0664 8.56636 27.3226 8.85985 27.4739 9.20907C27.8229 10.1901 27.3829 10.9581 26.2339 11.3701C25.0339 11.8021 23.1189 11.9371 22.8029 11.0521L22.7999 11.0551Z" fill="#FCC447"/>
<path d="M22.5021 11.1552C22.7281 11.7862 23.4841 12.0162 24.3361 12.0162C25.0175 12.007 25.6929 11.8875 26.3361 11.6622C26.914 11.4964 27.4075 11.1176 27.7171 10.6022C27.8302 10.3709 27.8932 10.1183 27.9018 9.86101C27.9104 9.60369 27.8645 9.34747 27.7671 9.10916C27.6635 8.83986 27.5016 8.59678 27.2932 8.39729C27.0847 8.19779 26.8347 8.04682 26.5611 7.95516C25.9295 7.73916 25.2424 7.75012 24.6181 7.98616C23.1891 8.49616 22.1181 10.0962 22.5021 11.1552ZM23.1621 9.51216C23.5455 8.9525 24.0899 8.52252 24.7231 8.27916C25.0209 8.17107 25.3352 8.11525 25.6521 8.11416C26.032 8.08628 26.4113 8.17715 26.7373 8.37422C27.0634 8.57128 27.3201 8.86479 27.4721 9.21416C27.8221 10.1912 27.3811 10.9562 26.2311 11.3672C25.0311 11.7972 23.1101 11.9312 22.7941 11.0492C22.7333 10.7818 22.7344 10.504 22.7973 10.2371C22.8602 9.97024 22.9833 9.72125 23.1571 9.50916L23.1621 9.51216Z" fill="#1A1C1E"/>
<path d="M25.7679 5.69112C26.9653 5.98842 28.1138 6.45655 29.1779 7.08112C29.9601 7.51551 30.6688 8.07068 31.2779 8.72612C33.1859 10.7171 34.3309 14.2611 34.8059 16.4111C34.1827 15.1933 33.4812 14.0172 32.7059 12.8901C31.5316 11.1861 30.0179 9.74292 28.2599 8.65112C26.4876 7.78036 24.5186 7.38773 22.5479 7.51212C22.5799 7.31212 22.7479 5.42412 22.7539 5.22412C23.7698 5.29552 24.778 5.45173 25.7679 5.69112Z" fill="#FCE086"/>
<path d="M18.4849 24.9171C19.1379 22.4111 19.9019 19.6171 20.5759 16.2541C21.2779 12.5937 21.7866 8.89893 22.0999 5.18506C22.2999 5.19306 22.5179 5.20606 22.7549 5.22206C22.1438 11.9362 20.9238 18.5808 19.1099 25.0741C18.9051 25.0083 18.6964 24.9558 18.4849 24.9171Z" fill="black"/>
<path d="M19.106 25.0741C19.127 25.1001 19.163 25.1421 19.2 25.1831C19.6219 25.6571 20.091 26.087 20.5999 26.4661C21.0718 26.8224 21.5852 27.1199 22.129 27.3521C22.7646 27.6172 23.434 27.7929 24.118 27.8741C26.632 27.9741 30.672 27.0741 34.956 23.0481C33.307 24.3181 24.618 30.1611 19.568 23.3541C19.418 23.9031 19.257 24.5301 19.106 25.0741Z" fill="#F4A127"/>
<path d="M28.168 15.696C27.8752 16.5109 27.918 17.4087 28.2868 18.1921C28.6556 18.9755 29.3203 19.5804 30.1349 19.874L30.2419 19.58L30.5959 18.612C30.6198 18.5486 30.6237 18.4793 30.6069 18.4137C30.59 18.348 30.5534 18.2891 30.5019 18.245C30.3514 18.1211 30.2091 17.9875 30.0759 17.845C29.8262 17.4741 29.7067 17.0306 29.7364 16.5844C29.7661 16.1382 29.9432 15.7145 30.2399 15.38C29.9399 15.12 29.672 14.88 29.328 14.55C29.255 14.482 29.1809 14.411 29.0999 14.334C28.6775 14.7005 28.3566 15.1695 28.168 15.696Z" fill="#60696D"/>
<path d="M29.3311 14.55C29.6751 14.875 29.9431 15.12 30.2431 15.38C29.9468 15.7148 29.7702 16.1386 29.7408 16.5848C29.7115 17.0309 29.8312 17.4742 30.0811 17.845C30.1727 17.9447 30.2702 18.0389 30.3731 18.127C30.0864 17.7883 29.9279 17.3595 29.9256 16.9158C29.9232 16.4721 30.077 16.0417 30.3601 15.7C30.6039 15.4302 30.9296 15.2482 31.2871 15.182C31.4034 15.157 31.5222 15.145 31.6411 15.146C31.7044 15.1465 31.7663 15.1277 31.8186 15.0919C31.8708 15.0561 31.9108 15.0052 31.9331 14.946L32.2741 14.013L32.3811 13.719C31.8295 13.5159 31.2333 13.466 30.6557 13.5745C30.078 13.6829 29.5405 13.9457 29.1001 14.335C29.1771 14.409 29.2511 14.483 29.3311 14.55Z" fill="#839196"/>
<path d="M29.8059 20.195H29.8139C29.8595 20.2114 29.9098 20.209 29.9536 20.1884C29.9975 20.1678 30.0314 20.1306 30.0479 20.085L30.1279 19.866C29.7242 19.7182 29.3535 19.4923 29.037 19.2013C28.7206 18.9102 28.4645 18.5597 28.2835 18.1697C28.1026 17.7796 28.0002 17.3578 27.9822 16.9282C27.9643 16.4987 28.0311 16.0697 28.1789 15.666C28.3267 15.2622 28.5526 14.8916 28.8436 14.5751C29.1347 14.2587 29.4852 14.0026 29.8752 13.8217C30.2653 13.6407 30.6871 13.5383 31.1167 13.5203C31.5462 13.5024 31.9752 13.5692 32.3789 13.717L32.4629 13.489V13.481C32.4707 13.457 32.4736 13.4316 32.4716 13.4065C32.4696 13.3813 32.4626 13.3567 32.4511 13.3343C32.4396 13.3118 32.4238 13.2918 32.4045 13.2754C32.3853 13.2591 32.363 13.2467 32.3389 13.239C31.7801 13.0771 31.1913 13.0469 30.6189 13.151C29.8372 13.2938 29.1221 13.6841 28.5792 14.2643C28.0363 14.8446 27.6943 15.584 27.6037 16.3735C27.5132 17.1629 27.6788 17.9606 28.0763 18.6487C28.4737 19.3368 29.0818 19.8789 29.8109 20.195H29.8059Z" fill="black"/>
<path d="M31.2568 20.074H31.2698C31.9227 20.011 32.5422 19.7556 33.0498 19.34C33.5574 18.9245 33.9301 18.3676 34.1208 17.74C34.3468 17.1379 34.3884 16.4822 34.2404 15.8564C34.0924 15.2306 33.7615 14.6631 33.2898 14.226L33.2818 14.219C32.9982 14.0243 32.6969 13.8569 32.3818 13.719L32.2748 14.013C32.6041 14.1249 32.9081 14.3006 33.1696 14.53C33.431 14.7594 33.6446 15.0381 33.7983 15.3501C33.952 15.6622 34.0427 16.0014 34.0653 16.3485C34.0878 16.6956 34.0418 17.0437 33.9298 17.373C33.8998 17.4626 33.8647 17.5504 33.8248 17.636C33.6805 18.328 33.2673 18.9344 32.6761 19.3218C32.0848 19.7093 31.3639 19.846 30.6718 19.702C30.5249 19.6709 30.3808 19.6281 30.2408 19.574L30.1338 19.868C30.4892 20.0157 30.8721 20.086 31.2568 20.074Z" fill="#1A1C1E"/>
<path d="M24.1299 27.8741C26.9179 27.9861 31.5799 26.8741 36.3799 21.6201L36.6029 21.3901L36.8389 22.0981C32.4659 26.9141 28.4519 28.4081 24.8389 28.4761C24.5829 28.2471 24.1249 27.8741 24.1299 27.8741Z" fill="black"/>
<path d="M24.5102 8.82693C24.2972 9.25729 24.0567 9.67348 23.7902 10.0729C23.6062 10.3459 23.4012 10.6339 23.1612 10.9459C23.142 10.9717 23.1306 11.0024 23.1284 11.0344C23.1261 11.0665 23.133 11.0985 23.1484 11.1267C23.1638 11.1549 23.1869 11.1781 23.2151 11.1936C23.2432 11.209 23.2752 11.2161 23.3072 11.2139C23.7506 11.1719 24.1913 11.1051 24.6272 11.0139C25.2761 10.263 25.8148 9.42362 26.2272 8.52093C26.4402 8.06993 26.4402 7.98793 27.4602 5.17993C28.2169 3.2691 29.3193 1.51412 30.7122 0.00292969C29.3066 0.857991 28.0833 1.98174 27.1122 3.30993C25.5182 5.56493 25.4002 7.01493 24.5102 8.82693Z" fill="#9E9E9E"/>
<path d="M24.6182 11.0089C25.112 10.8728 25.5921 10.6911 26.0522 10.4659C27.292 9.82809 28.2967 8.81246 28.9212 7.56591C28.9292 7.55091 29.3792 6.65991 29.4292 6.55091C29.5202 6.35091 29.6032 6.15991 29.6802 5.98291C29.7942 5.71991 29.8972 5.45991 29.9872 5.20391C30.575 3.53675 30.8202 1.7681 30.7082 0.00390625C29.3121 1.51285 28.209 3.26839 27.4552 5.18091C26.4352 7.98891 26.4352 8.07091 26.2222 8.52191C25.8089 9.42319 25.2688 10.2607 24.6182 11.0089Z" fill="#616161"/>
<path d="M29.6182 33.174C29.6182 32.7725 29.7372 32.3801 29.9603 32.0462C30.1834 31.7124 30.5004 31.4522 30.8713 31.2986C31.2423 31.1449 31.6504 31.1047 32.0442 31.183C32.438 31.2614 32.7997 31.4547 33.0836 31.7386C33.3675 32.0225 33.5608 32.3842 33.6392 32.778C33.7175 33.1718 33.6773 33.58 33.5237 33.9509C33.37 34.3218 33.1098 34.6389 32.776 34.8619C32.4421 35.085 32.0497 35.204 31.6482 35.204C31.1098 35.204 30.5934 34.9902 30.2127 34.6095C29.832 34.2288 29.6182 33.7124 29.6182 33.174ZM31.6482 31.351C31.2875 31.3518 30.9353 31.4595 30.6358 31.6605C30.3364 31.8614 30.1032 32.1466 29.9658 32.48C29.8284 32.8134 29.7929 33.1801 29.8638 33.5337C29.9347 33.8873 30.1088 34.2119 30.3642 34.4666C30.6195 34.7212 30.9446 34.8945 31.2984 34.9644C31.6522 35.0343 32.0188 34.9979 32.3518 34.8595C32.6848 34.7212 32.9694 34.4873 33.1695 34.1873C33.3697 33.8873 33.4764 33.5347 33.4762 33.174C33.476 32.9343 33.4286 32.6969 33.3367 32.4754C33.2447 32.254 33.1099 32.0528 32.9402 31.8835C32.7704 31.7142 32.5689 31.58 32.3472 31.4886C32.1255 31.3973 31.8879 31.3505 31.6482 31.351Z" fill="#E5E8EA"/>
<path d="M33.4739 33.918L33.5289 33.946C33.656 33.6378 33.7052 33.3029 33.672 32.9711C33.6388 32.6393 33.5242 32.3209 33.3385 32.0439C33.1527 31.767 32.9015 31.5402 32.6071 31.3835C32.3128 31.2269 31.9843 31.1453 31.6509 31.146C31.4822 31.1452 31.3142 31.166 31.1509 31.208C31.2896 31.1882 31.4297 31.1789 31.5699 31.18C31.8368 31.1808 32.101 31.2342 32.3473 31.3371C32.5936 31.44 32.8172 31.5904 33.0053 31.7798C33.1935 31.9691 33.3425 32.1937 33.4438 32.4406C33.5451 32.6876 33.5968 32.9521 33.5959 33.219C33.5958 33.458 33.5532 33.695 33.4699 33.919L33.4739 33.918Z" fill="white"/>
<path d="M31.572 35.037C31.8253 35.039 32.0761 34.9861 32.307 34.882C32.0971 34.959 31.8756 35 31.652 35.003C31.2544 35.0044 30.8672 34.8758 30.5494 34.6368C30.2316 34.3978 30.0006 34.0616 29.8916 33.6792C29.7825 33.2968 29.8014 32.8893 29.9454 32.5186C30.0893 32.148 30.3505 31.8345 30.689 31.626C30.6627 31.6379 30.637 31.6513 30.612 31.666C30.3391 31.8181 30.1138 32.043 29.9611 32.3156C29.8084 32.5882 29.7343 32.8978 29.747 33.21C29.7475 33.694 29.9399 34.1581 30.282 34.5006C30.6241 34.843 31.088 35.0359 31.572 35.037Z" fill="white"/>
<path d="M22.127 27.3351C22.286 27.3971 22.4269 27.4521 22.5999 27.5171C23.4579 23.5394 23.8509 19.4755 23.771 15.4071C25.1104 19.8397 26.8115 24.1548 28.857 28.3091C29.479 29.6091 30.065 30.7751 30.565 31.7181C30.8045 31.5493 31.0772 31.4334 31.365 31.3781C31.215 31.1781 29.697 28.2211 28.004 24.3291C27.284 22.6731 26.536 20.8451 25.841 18.9951C25.674 18.5331 25.4129 17.8271 25.1129 16.9681C24.7749 15.9811 24.413 14.8681 24.164 13.9901C26.657 13.005 29.0022 11.6805 31.133 10.0541C31.448 9.82308 31.8619 9.50708 31.9059 9.47108C31.6509 9.14408 31.537 9.00908 31.258 8.70308C31.096 8.83408 30.686 9.14009 30.519 9.26809C28.4986 10.8191 26.2736 12.0834 23.907 13.0251C23.5121 12.1018 23.4589 11.068 23.757 10.1091C24.3539 9.20256 24.8337 8.22412 25.185 7.19708C25.285 6.93008 25.3699 6.69709 25.4279 6.53809C25.4009 6.53809 21.414 9.23108 22.881 13.3801C22.968 13.6801 23.045 13.9291 23.145 14.3471C23.718 18.0031 22.683 24.9611 22.127 27.3351Z" fill="black"/>
<path d="M0 34.9032V35.7422C4.39262 38.0434 9.27218 39.2599 14.231 39.2902C15.214 39.2902 16.166 39.2352 17.093 39.1442C19.3349 38.9249 21.5459 38.4595 23.686 37.7562C25.0497 37.2975 26.3853 36.7592 27.686 36.1442C28.761 35.6132 29.729 35.0872 30.536 34.6132C30.3352 34.4443 30.1659 34.2412 30.036 34.0132C29.1764 34.5329 28.2913 35.0092 27.384 35.4402C26.1653 36.0063 24.9148 36.5014 23.639 36.9232C21.4075 37.6021 19.1182 38.0735 16.8 38.3312C10.9884 38.8025 5.16237 37.6138 0 34.9032Z" fill="black"/>
<path d="M27.5179 36.2091C27.1319 36.3971 26.8119 36.5351 26.5639 36.6461C26.2369 36.7881 25.9639 36.8961 25.6369 37.0281C25.2369 37.1951 24.2479 37.5601 23.8669 37.6861L23.4199 37.4151C23.4199 37.4151 23.5589 37.0901 23.6199 36.9261C24.3039 36.7001 24.9689 36.4521 25.1839 36.3691C25.6009 36.2071 26.0049 36.0421 26.2709 35.9281C26.6709 35.7621 27.1019 35.5651 27.2019 35.5181C27.3179 35.7561 27.4129 35.9741 27.5179 36.2091Z" fill="#32373A"/>
<path d="M26.2801 36.774C26.3801 36.732 26.5391 36.665 26.7031 36.592L26.3911 35.886L25.9771 36.059L26.2801 36.774Z" fill="black"/>
<path d="M25.7922 18.856L25.5212 19.336C25.5212 19.336 25.1422 19.217 24.9692 19.161L24.8502 18.824L24.7302 18.486C24.5982 18.119 24.4882 17.761 24.3672 17.399L25.1722 17.134C25.3722 17.691 25.7922 18.856 25.7922 18.856Z" fill="#32373A"/>
<path d="M28.769 28.145C28.469 27.545 27.929 26.364 27.55 25.522C27.424 25.238 27.325 24.986 27.25 24.822C27.25 24.822 27.413 24.457 27.499 24.28L28.062 24.468L29.562 27.781C29.3 27.909 28.775 28.148 28.769 28.145Z" fill="#32373A"/>
<path d="M25.2571 17.3541L24.4431 17.6161L24.3721 17.3991L25.1721 17.1311L25.2571 17.3541Z" fill="black"/>
<path d="M25.6707 18.5092L24.8427 18.7932C24.7887 18.6392 24.7317 18.4812 24.6777 18.3262C24.9497 18.2262 25.2278 18.1342 25.4998 18.0342C25.5568 18.1952 25.6107 18.3542 25.6707 18.5092Z" fill="black"/>
<path d="M27.5571 25.5242C27.6371 25.7032 27.7201 25.8822 27.7991 26.0622L28.6061 25.6622C28.5261 25.4882 28.4501 25.3142 28.3691 25.1372L27.5571 25.5242Z" fill="black"/>
<path d="M28.1279 26.7901C28.2079 26.9701 28.2849 27.1381 28.3779 27.3311L29.1779 26.9311C29.0969 26.7571 29.0199 26.5771 28.9389 26.4031L28.1279 26.7901Z" fill="black"/>
<path d="M28.6572 27.8972L28.9102 28.4112C28.9102 28.4112 29.4102 28.1872 29.7012 28.0542C29.6012 27.8392 29.4552 27.5342 29.4552 27.5342L28.6572 27.8972Z" fill="black"/>
<path d="M24.7948 17.6131C24.9075 17.6131 24.9988 17.5217 24.9988 17.4091C24.9988 17.2964 24.9075 17.2051 24.7948 17.2051C24.6822 17.2051 24.5908 17.2964 24.5908 17.4091C24.5908 17.5217 24.6822 17.6131 24.7948 17.6131Z" fill="black"/>
<path d="M29.1319 28.082C29.2606 28.082 29.3649 27.9776 29.3649 27.849C29.3649 27.7203 29.2606 27.616 29.1319 27.616C29.0032 27.616 28.8989 27.7203 28.8989 27.849C28.8989 27.9776 29.0032 28.082 29.1319 28.082Z" fill="black"/>
<path d="M27.3341 36.2981L27.5222 36.2071L27.2072 35.5161C27.1442 35.5451 27.0781 35.5731 27.0151 35.6031L27.3341 36.2981Z" fill="black"/>
<path d="M27.2308 36.1061C27.3424 36.1061 27.4328 36.0157 27.4328 35.9041C27.4328 35.7926 27.3424 35.7021 27.2308 35.7021C27.1192 35.7021 27.0288 35.7926 27.0288 35.9041C27.0288 36.0157 27.1192 36.1061 27.2308 36.1061Z" fill="black"/>
<path d="M26.2631 35.9351L26.1001 36.0031L26.4141 36.7141L26.5761 36.6441L26.2631 35.9351Z" fill="#666666"/>
<path d="M28.5771 27.7462L28.415 27.8192C28.463 27.9192 28.534 28.0682 28.593 28.1882L28.6931 28.3802L28.7721 28.3442C29.0791 28.2012 29.7191 27.9072 29.7191 27.9072L29.799 27.8712L29.532 27.2852L29.3711 27.3582L29.5651 27.7842L28.7761 28.1472L28.757 28.1092C28.7 27.9922 28.6281 27.8492 28.5771 27.7462Z" fill="#666666"/>
<path d="M24.146 17.282L24.346 17.896L24.514 17.842L24.369 17.394L24.645 17.303L24.685 17.427C24.6925 17.448 24.7059 17.4664 24.7237 17.4799C24.7414 17.4934 24.7628 17.5014 24.785 17.503H24.819C24.8468 17.4939 24.8698 17.4742 24.8833 17.4482C24.8968 17.4222 24.8995 17.392 24.891 17.364L24.85 17.239L25.169 17.133L25.323 17.56L25.489 17.5L25.276 16.911L25.194 16.939L24.794 17.072L24.757 16.961C24.7474 16.9336 24.7276 16.911 24.7016 16.898C24.6757 16.8849 24.6457 16.8824 24.618 16.891C24.5905 16.9002 24.5677 16.9198 24.5546 16.9457C24.5415 16.9715 24.5391 17.0015 24.548 17.029L24.584 17.141L24.223 17.259L24.146 17.282Z" fill="#666666"/>
<path d="M25.5554 18.1939L24.731 18.4871L24.7899 18.6529L25.6143 18.3597L25.5554 18.1939Z" fill="#666666"/>
<path d="M27.2988 35.2742L26.7598 35.5222L26.8348 35.6852L27.2138 35.5142L27.3138 35.7442L27.2138 35.7892C27.1941 35.7975 27.1774 35.8114 27.1656 35.8292C27.1539 35.847 27.1477 35.8678 27.1478 35.8892C27.1485 35.9182 27.1606 35.9458 27.1813 35.9661C27.202 35.9864 27.2298 35.9979 27.2588 35.9982C27.2739 35.9974 27.2888 35.9941 27.3028 35.9882L27.4028 35.9422C27.4438 36.0342 27.4858 36.1252 27.5218 36.2032L27.4988 36.2142C27.3908 36.2672 27.2638 36.3312 27.1638 36.3742L27.2358 36.5352C27.3358 36.4922 27.4668 36.4262 27.5758 36.3732L27.7548 36.2862L27.7178 36.2142C27.6758 36.1232 27.6178 36.0002 27.5638 35.8762L27.6498 35.8382C27.6751 35.8237 27.6936 35.7998 27.7013 35.7717C27.709 35.7435 27.7052 35.7135 27.6908 35.6882C27.6783 35.666 27.6585 35.6488 27.6348 35.6397C27.6111 35.6306 27.5849 35.63 27.5608 35.6382L27.4718 35.6782L27.3278 35.3612L27.2988 35.2742Z" fill="#666666"/>
<path d="M29.0178 26.574L28.2178 26.965L28.2918 27.126L29.0918 26.736L29.0178 26.574Z" fill="#666666"/>
<path d="M28.457 25.324L27.6479 25.724L27.719 25.882L28.5309 25.491L28.457 25.324Z" fill="#666666"/>
<path d="M22.766 26.736C22.713 27.001 22.656 27.279 22.599 27.536C22.524 27.508 22.218 27.398 22.124 27.353C22.187 27.074 22.251 26.768 22.309 26.474C22.351 26.256 22.393 26.043 22.43 25.832C22.53 25.883 22.808 25.991 22.9 26.027C22.863 26.259 22.818 26.494 22.766 26.736Z" fill="black"/>
<path d="M29.202 28.2741L29.028 27.8891C29.0195 27.8632 29.0208 27.8351 29.0319 27.8101C29.0429 27.7852 29.0628 27.7652 29.0877 27.7541C29.1127 27.743 29.1408 27.7416 29.1667 27.7501C29.1927 27.7586 29.2145 27.7764 29.228 27.8001L29.402 28.1861C29.4138 28.2127 29.4147 28.2428 29.4044 28.27C29.3941 28.2971 29.3735 28.3191 29.347 28.3311C29.3317 28.337 29.3154 28.3404 29.299 28.3411C29.2783 28.3396 29.2584 28.3327 29.2414 28.3209C29.2243 28.3091 29.2107 28.2929 29.202 28.2741Z" fill="#666666"/>
<path d="M33.7181 33.6852C34.0891 33.9642 34.35 34.5742 34.157 34.8322C33.964 35.0902 33.3471 35.0112 32.9771 34.7322C32.8152 34.6326 32.6981 34.4742 32.6502 34.2903C32.6024 34.1064 32.6274 33.9111 32.7201 33.7452C32.7816 33.6756 32.8562 33.6189 32.9397 33.5782C33.0232 33.5375 33.1139 33.5137 33.2066 33.5081C33.2993 33.5025 33.3922 33.5153 33.48 33.5457C33.5677 33.5761 33.6486 33.6235 33.7181 33.6852Z" fill="#E5E8EA"/>
<path d="M34.0179 34.3531C33.9688 34.2444 33.896 34.1481 33.8049 34.0711C33.7274 34.0042 33.6347 33.9572 33.5349 33.9341C33.4998 33.9197 33.4619 33.9133 33.424 33.9154C33.3861 33.9175 33.3492 33.928 33.3159 33.9461C33.2947 33.9606 33.2775 33.9802 33.2659 34.0031C33.2569 34.0416 33.2399 34.0777 33.2162 34.1092C33.1924 34.1407 33.1623 34.1669 33.1279 34.1861C33.0921 34.2043 33.0527 34.2143 33.0126 34.2155C32.9725 34.2167 32.9327 34.2091 32.8959 34.1931C32.8366 34.1605 32.7919 34.1065 32.7709 34.0421C32.7506 33.9733 32.7571 33.8994 32.7889 33.8351C32.8185 33.7757 32.8642 33.7258 32.9209 33.6911C32.9865 33.6472 33.0615 33.6195 33.1399 33.6101C33.2168 33.5966 33.2957 33.5987 33.3719 33.6161C33.4475 33.6326 33.5197 33.6624 33.5849 33.7041C33.7282 33.7832 33.849 33.8974 33.9359 34.0361C34 34.1242 34.0509 34.2213 34.0869 34.3241C34.121 34.41 34.138 34.5017 34.1369 34.5941C34.1361 34.6494 34.1277 34.7042 34.1119 34.7571C34.111 34.6172 34.0788 34.4791 34.0179 34.3531Z" fill="white"/>
</g>
<defs>
<clipPath id="clip0_479_13700">
<rect width="40.006" height="40.006" fill="white"/>
</clipPath>
</defs>
</svg>
