<svg width="40" height="40" viewBox="0 0 40 40" fill="none" xmlns="http://www.w3.org/2000/svg">
<g clip-path="url(#clip0_479_11689)">
<path d="M0.0117188 11.919V39.985L7.21172 39.998C9.83972 34.884 11.4817 32.351 11.8907 31.711C13.0945 29.7144 14.4253 27.7971 15.8747 25.971C16.1018 25.6652 16.3889 25.4091 16.7186 25.2184C17.0483 25.0277 17.4135 24.9064 17.7917 24.862C18.2441 24.8563 18.6942 24.9277 19.1227 25.073C20.1188 26.279 21.4444 27.1689 22.9377 27.634C23.3288 27.7433 23.7281 27.8209 24.1317 27.866C24.4067 28.089 24.7867 28.409 25.2227 28.809C26.2975 29.8198 27.2775 30.9268 28.1507 32.116C29.2475 33.5915 30.2515 35.1338 31.1567 36.734L31.1617 36.747C31.3911 37.2006 31.6518 37.6376 31.9417 38.055C32.1492 38.2865 32.403 38.4717 32.6868 38.5985C32.9706 38.7253 33.2779 38.7909 33.5887 38.791C33.6092 38.9371 33.6683 39.0751 33.7599 39.1907C33.8515 39.3064 33.9722 39.3955 34.1097 39.449L35.0097 39.806C35.3071 39.9244 35.634 39.9468 35.9447 39.87L36.3747 39.764L36.9747 39.617C37.1518 39.5739 37.3173 39.4927 37.4598 39.379C37.6023 39.2654 37.7183 39.1221 37.7997 38.959L39.0447 36.435C39.2527 36.021 39.7007 35.235 39.7007 35.235C39.8531 35.0284 39.953 34.7878 39.9919 34.534C40.0307 34.2802 40.0073 34.0208 39.9237 33.778C39.8617 33.413 39.4637 31.664 39.2937 30.942C38.1349 25.9874 36.6313 21.1199 34.7937 16.375V16.368H34.7997C36.5997 14.49 36.1527 9.56803 31.7997 7.41203C32.9698 5.3808 33.522 3.05237 33.3887 0.712021C32.1137 1.49902 30.7997 3.78302 29.9947 5.19902C30.5807 3.53145 30.8249 1.76298 30.7127 -0.000976562C29.3063 0.855153 28.0829 1.9807 27.1127 3.31102C26.5844 4.05377 26.1372 4.85099 25.7787 5.68903L25.7297 5.67802C23.625 5.21383 21.4618 5.07323 19.3147 5.26103C13.5567 5.60603 7.04272 8.42203 5.84272 8.94203C3.83763 9.80916 1.89 10.8035 0.0117188 11.919Z" fill="#BDBDBD"/>
<path d="M32.3409 15.39C31.2798 15.1572 30.195 15.0498 29.1089 15.07C29.4209 19.058 32.6149 18.576 33.7719 17.641C33.2279 16.7 32.7219 15.937 32.3409 15.39Z" fill="#3A1919"/>
<path d="M29.8589 15.0869C29.8829 17.9869 32.4969 17.8419 33.3649 16.9579C32.9779 16.3259 32.6249 15.7969 32.3409 15.3899C31.5278 15.1948 30.6951 15.0931 29.8589 15.0869Z" fill="#241711"/>
<path d="M31.3471 16.5271C31.5288 16.5271 31.6761 16.3798 31.6761 16.1981C31.6761 16.0164 31.5288 15.8691 31.3471 15.8691C31.1654 15.8691 31.0181 16.0164 31.0181 16.1981C31.0181 16.3798 31.1654 16.5271 31.3471 16.5271Z" fill="#FCFBFA"/>
<path d="M31.7227 33.5461C32.5583 35.2093 33.1854 36.9692 33.5897 38.7861C33.6102 38.9322 33.6693 39.0702 33.7609 39.1858C33.8524 39.3015 33.9732 39.3906 34.1107 39.4441L35.0107 39.8011C35.308 39.9194 35.6349 39.9418 35.9457 39.8651L36.9747 39.6121C37.1517 39.569 37.3173 39.4878 37.4597 39.3741C37.6022 39.2605 37.7182 39.1171 37.7997 38.9541L39.0567 36.4201C39.2647 36.0061 39.7127 35.2201 39.7127 35.2201C39.849 34.9875 39.9428 34.7326 39.9897 34.4671C40.0037 34.2324 39.9855 33.9969 39.9357 33.7671C39.8667 33.4031 39.7797 33.0421 39.6797 32.5951C39.5907 32.1761 39.4797 31.6551 39.3037 30.9331C37.6797 32.3421 37.2377 34.9191 36.8657 38.1481C36.2496 36.7184 35.5483 35.3269 34.7657 33.9811C33.9713 33.3807 33.0704 32.9362 32.1107 32.6711C32.0567 32.7831 31.8937 33.1281 31.7227 33.5461Z" fill="#9E9E9E"/>
<path d="M35.9408 39.87C35.4596 38.0318 34.7327 36.2669 33.7798 34.623C33.7607 34.5955 33.7505 34.5629 33.7505 34.5295C33.7505 34.4961 33.7607 34.4634 33.7798 34.436C33.8053 34.4005 33.8437 34.3766 33.8867 34.3693C33.9298 34.362 33.974 34.3719 34.0098 34.397C34.0753 34.4423 34.1384 34.491 34.1988 34.543C34.2314 34.5716 34.2592 34.6053 34.2808 34.643C35.1759 36.2617 35.8764 37.9807 36.3678 39.764L35.9408 39.87Z" fill="#757575"/>
<path d="M25.08 26.5171C23.7154 26.4391 22.4037 25.9628 21.307 25.1471C20.341 24.4258 19.5549 23.4908 19.0102 22.4152C18.4654 21.3397 18.1769 20.1527 18.167 18.9471C18.0771 18.2093 18.0688 17.4638 18.142 16.7241C18.011 17.0241 16.358 21.0001 18.603 24.4001C19.6488 25.9279 21.1715 27.0659 22.933 27.6361C23.3241 27.7454 23.7234 27.823 24.127 27.8681C25.4644 28.0468 26.8252 27.8574 28.063 27.3201C29.2385 26.7939 30.2514 25.962 30.996 24.9111C29.2674 26.111 27.178 26.6782 25.08 26.5171Z" fill="#BDBDBD"/>
<path d="M39.3071 30.9381C38.411 27.3961 37.1248 23.9645 35.4721 20.7061C34.9191 19.6211 34.3491 18.6001 33.7721 17.6411L33.3521 19.6351C35.6699 23.6903 36.9989 28.235 37.2311 32.9001C37.2702 33.8333 37.2619 34.7678 37.2061 35.7001C37.5641 33.6241 38.1191 31.9681 39.3071 30.9381Z" fill="#D6D6D6"/>
<path d="M32.3389 15.3889C32.7199 15.9359 33.2259 16.6999 33.7699 17.6409C34.3489 18.5999 34.9189 19.6209 35.4699 20.7059C37.1219 23.9644 38.4074 27.3961 39.3029 30.9379C38.1441 25.9833 36.6404 21.1158 34.8029 16.3709C34.4489 16.2579 33.9869 16.0979 33.4579 15.8819C33.1799 15.7699 32.7999 15.6109 32.3389 15.3889Z" fill="#F5F5F5"/>
<path d="M37.2308 32.9C36.9981 28.2347 35.6684 23.69 33.3498 19.635C33.2498 20.085 33.1118 20.557 32.9498 21.047C32.4769 22.4344 31.8092 23.7475 30.9668 24.947L30.9958 24.908C30.9828 25.2489 30.9918 25.5903 31.0228 25.93C31.0955 26.5797 31.2339 27.2203 31.4358 27.842C32.321 30.0029 33.4382 32.0613 34.7678 33.981C35.5583 35.3232 36.2598 36.7159 36.8678 38.15C36.9678 37.283 37.0728 36.463 37.2048 35.7C37.261 34.7677 37.2696 33.8332 37.2308 32.9Z" fill="#BDBDBD"/>
<path d="M18.1601 18.946C18.17 20.1516 18.4585 21.3385 19.0033 22.4141C19.548 23.4896 20.3341 24.4246 21.3001 25.146C22.3967 25.9618 23.7085 26.4381 25.0731 26.516C27.171 26.679 29.2611 26.114 30.9911 24.916C31.821 23.7257 32.4794 22.4246 32.9471 21.051C33.1141 20.561 33.2471 20.089 33.3471 19.639L33.7671 17.645C33.2231 16.704 32.7171 15.945 32.3361 15.394C31.275 15.1612 30.1902 15.0538 29.1041 15.074C28.9191 14.692 27.5151 12.026 26.3951 10.292C26.2841 10.355 26.1721 10.415 26.0521 10.472C25.5916 10.6961 25.1116 10.8775 24.6181 11.014C24.4871 11.035 24.2701 11.087 23.9391 11.135H23.9231C23.7951 11.153 23.6491 11.172 23.4841 11.191L23.2981 11.211C21.8511 11.722 19.6531 12.969 18.1301 16.722C18.0585 17.4622 18.0686 18.208 18.1601 18.946Z" fill="#E0E0E0"/>
<path d="M28.2119 27.246C29.2658 28.3301 30.2088 29.5166 31.0269 30.788C31.4439 31.437 31.8029 32.071 32.1119 32.671C33.0706 32.9365 33.9706 33.3802 34.7649 33.979C33.4311 32.0619 32.3137 30.003 31.4329 27.84C31.231 27.2183 31.0926 26.5777 31.0199 25.928C30.9889 25.5883 30.9799 25.2469 30.9929 24.906C30.7731 25.2189 30.5272 25.5126 30.2579 25.784C29.668 26.3888 28.9752 26.8839 28.2119 27.246Z" fill="#757575"/>
<path d="M31.1549 36.746C31.3843 37.1996 31.6449 37.6366 31.9348 38.054C32.1423 38.2855 32.3962 38.4707 32.68 38.5975C32.9637 38.7243 33.271 38.7899 33.5819 38.79C33.1771 36.9733 32.5501 35.2134 31.7149 33.55C31.4813 34.0761 31.2878 34.6189 31.1359 35.174C31.1239 35.232 31.1098 35.291 31.0998 35.348C31.0379 35.6928 31.0248 36.0446 31.0608 36.393C31.0819 36.5132 31.1134 36.6313 31.1549 36.746Z" fill="#757575"/>
<path d="M24.125 27.868C24.401 28.091 24.781 28.411 25.217 28.811C26.2918 29.8217 27.2718 30.9287 28.145 32.118C29.2418 33.5935 30.2457 35.1358 31.151 36.736C31.1118 36.6247 31.082 36.5103 31.062 36.394C31.0261 36.0456 31.0389 35.6939 31.1 35.349C31.3463 34.4263 31.685 33.5307 32.111 32.676C31.802 32.076 31.443 31.442 31.026 30.793C30.2079 29.5216 29.2649 28.335 28.211 27.251L28.06 27.32C26.8225 27.8567 25.4621 28.0461 24.125 27.868Z" fill="#616161"/>
<path d="M39.6801 32.6091C39.7801 33.0561 39.8671 33.4171 39.9361 33.7811C39.9859 34.0109 40.0041 34.2464 39.9901 34.4811C39.9432 34.7466 39.8494 35.0016 39.7131 35.2341C39.7131 35.2341 39.2651 36.0171 39.0571 36.4341C38.6476 35.8393 38.4838 35.1092 38.5999 34.3964C38.716 33.6837 39.103 33.0433 39.6801 32.6091Z" fill="#757575"/>
<path d="M39.9369 33.7861V33.7721C39.8679 33.4081 39.7809 33.0471 39.6809 32.6001C39.2697 32.9154 38.953 33.3376 38.7652 33.8206C38.5774 34.3036 38.5258 34.8288 38.6159 35.3391C38.683 34.9881 38.84 34.6605 39.0715 34.3883C39.3031 34.1161 39.6012 33.9086 39.9369 33.7861Z" fill="#616161"/>
<path d="M27.1938 9.746C28.0803 11.7805 29.4987 13.5385 31.2999 14.835C31.9914 15.2397 32.7128 15.5911 33.4578 15.886C33.9868 16.102 34.4488 16.262 34.8028 16.375C32.2338 11.538 29.8778 9.475 28.2338 8.646C27.9315 9.0522 27.5825 9.42141 27.1938 9.746Z" fill="#D6D6D6"/>
<path d="M32.3409 15.39C31.2798 15.1572 30.195 15.0498 29.1089 15.07C29.4209 19.058 32.6149 18.576 33.7719 17.641C33.2279 16.7 32.7219 15.937 32.3409 15.39Z" fill="#616161"/>
<path d="M29.8589 15.0869C29.8829 17.9869 32.4969 17.8419 33.3649 16.9579C32.9779 16.3259 32.6249 15.7969 32.3409 15.3899C31.5278 15.1948 30.6951 15.0931 29.8589 15.0869Z" fill="#292A2B"/>
<path d="M31.3471 16.5271C31.5288 16.5271 31.6761 16.3798 31.6761 16.1981C31.6761 16.0164 31.5288 15.8691 31.3471 15.8691C31.1654 15.8691 31.0181 16.0164 31.0181 16.1981C31.0181 16.3798 31.1654 16.5271 31.3471 16.5271Z" fill="#FCFBFA"/>
<path d="M26.4009 10.2871C27.5189 12.0221 28.9249 14.6871 29.1099 15.0691C30.196 15.0489 31.2808 15.1563 32.3419 15.3891C32.0239 15.2311 31.6729 15.0511 31.2999 14.8311C29.5009 13.5329 28.0827 11.7763 27.1929 9.74414C26.9453 9.948 26.6803 10.1297 26.4009 10.2871Z" fill="#9E9E9E"/>
<path d="M6.25098 40.002H7.20798C9.83598 34.888 11.478 32.355 11.887 31.715C13.0908 29.7184 14.4215 27.8011 15.871 25.975C16.098 25.6692 16.3852 25.4131 16.7149 25.2223C17.0445 25.0316 17.4097 24.9103 17.788 24.866C18.2384 24.8591 18.6866 24.9298 19.113 25.075C18.819 24.719 18.64 24.461 18.6 24.4C17.8671 23.2792 17.4625 21.9757 17.432 20.637C15.962 23.331 14.126 25.261 13 27.177C10.3951 31.2554 8.13745 35.5455 6.25098 40.002Z" fill="#757575"/>
<path d="M5.97998 40.003H6.24798C6.57298 39.189 6.94798 38.354 7.35698 37.51C8.99678 33.9401 10.8833 30.4887 13.003 27.181C14.13 25.263 15.969 23.335 17.439 20.635C17.4019 19.2978 17.6402 17.9673 18.139 16.726C19.662 12.973 21.86 11.726 23.307 11.215C23.2665 11.219 23.226 11.2072 23.194 11.182C23.1768 11.169 23.1624 11.1527 23.1516 11.134C23.1407 11.1154 23.1337 11.0948 23.1308 11.0735C23.1279 11.0521 23.1293 11.0304 23.1348 11.0096C23.1403 10.9887 23.1499 10.9692 23.163 10.952C23.34 10.722 23.495 10.509 23.64 10.3C15.574 11.487 7.76098 26.683 5.97998 40.003Z" fill="#D6D6D6"/>
<path d="M28.316 8.51604C28.286 8.55804 28.261 8.60004 28.23 8.64204C29.874 9.47104 32.23 11.534 34.799 16.371C33.05 11.871 30.154 8.45004 28.917 7.57104C28.827 7.73904 28.724 7.90804 28.617 8.07704C28.6 8.10504 28.581 8.13204 28.564 8.15904C28.486 8.27904 28.4033 8.39804 28.316 8.51604Z" fill="#F5F5F5"/>
<path d="M0.00878906 39.9891L5.97879 40.0001C7.76079 26.6791 15.5788 11.4791 23.6428 10.3001C24.21 9.48156 24.6719 8.59493 25.0178 7.66108C13.1798 5.90008 1.79079 19.5461 0.00878906 22.6361V39.9891Z" fill="#BDBDBD"/>
<path d="M0.00878906 22.6359C1.79079 19.5429 13.1828 5.89992 25.0178 7.65392C25.2048 7.16892 25.3728 6.69492 25.5668 6.19492C24.9455 6.04971 24.3151 5.94714 23.6798 5.88793C22.932 5.82094 22.1801 5.81091 21.4308 5.85793C16.5805 6.25197 11.8515 7.57606 7.50179 9.75792C5.55879 10.6579 0.226789 13.7269 0.00878906 13.8579V22.6359Z" fill="#D6D6D6"/>
<path d="M33.389 0.713135C33.2192 1.41659 33.0061 2.10891 32.751 2.78613C32.707 2.90313 32.651 3.03614 32.587 3.17514C32.3382 3.79555 32.0541 4.40121 31.736 4.98914C31.615 5.21014 31.022 6.20014 30.561 6.91214C30.9861 7.04713 31.4003 7.21428 31.8 7.41214C32.9699 5.3812 33.5221 3.05315 33.389 0.713135Z" fill="#616161"/>
<path d="M0.00683594 13.8621C0.224836 13.7271 5.55684 10.6531 7.49984 9.76206C11.8509 7.58297 16.5805 6.26096 21.4308 5.86807C22.1802 5.82106 22.932 5.83108 23.6798 5.89807C24.3151 5.95728 24.9456 6.05986 25.5668 6.20507C25.6335 6.03707 25.7038 5.86674 25.7778 5.69407C22.7363 5.02415 19.5891 4.9901 16.5338 5.59407C10.7047 6.73984 5.11525 8.87718 0.00883484 11.9131L0.00683594 13.8621Z" fill="#616161"/>
<path d="M32.7509 2.78613C33.006 2.10891 33.2191 1.41659 33.3889 0.713135C32.1139 1.50013 30.7999 3.78413 29.9959 5.19913C29.9539 5.31413 29.7659 5.79913 29.5809 6.21413C29.4729 6.45813 29.4579 6.49314 29.3999 6.61414C29.7939 6.69056 30.183 6.79074 30.5649 6.91414C30.9829 6.24614 31.5519 5.32914 31.7359 4.98914C32.124 4.27878 32.4631 3.54273 32.7509 2.78613Z" fill="#9E9E9E"/>
<path d="M28.9209 7.57112C30.1499 8.44512 33.0209 11.8301 34.7609 16.2861L34.7999 16.3681C36.5999 14.4901 36.1529 9.56812 31.7999 7.41212C31.04 7.03932 30.2324 6.77281 29.3999 6.62012C29.2799 6.86212 28.9459 7.52612 28.9209 7.57112Z" fill="#616161"/>
<path d="M24.5098 8.82399C24.2969 9.25437 24.0564 9.67057 23.7898 10.07C23.6058 10.343 23.4008 10.631 23.1608 10.943C23.1368 10.9752 23.1251 11.0149 23.1278 11.055C23.1292 11.077 23.135 11.0986 23.1448 11.1184C23.1545 11.1382 23.1681 11.1558 23.1848 11.1703C23.2014 11.1849 23.2208 11.1959 23.2417 11.2029C23.2627 11.2099 23.2848 11.2126 23.3068 11.211C23.7503 11.1698 24.1911 11.1031 24.6268 11.011C25.2761 10.2604 25.8149 9.42093 26.2268 8.51799C26.4398 8.06699 26.4398 7.985 27.4598 5.177C28.217 3.26641 29.3194 1.51151 30.7118 0C29.306 0.85483 28.0827 1.97861 27.1118 3.30699C25.5208 5.56199 25.3998 7.01199 24.5098 8.82399Z" fill="#9E9E9E"/>
<path d="M24.623 11.0099C25.1172 10.8747 25.5973 10.6929 26.057 10.4669C27.2968 9.82901 28.3015 8.81341 28.926 7.56689C28.934 7.55189 29.384 6.6609 29.434 6.5519C29.525 6.3519 29.608 6.16089 29.685 5.98389C29.799 5.72189 29.9014 5.46223 29.992 5.2049C30.58 3.53778 30.8252 1.76908 30.713 0.00488281C29.3172 1.51398 28.2141 3.26949 27.46 5.18188C26.44 7.98988 26.44 8.07189 26.227 8.52289C25.8137 9.42411 25.2735 10.2616 24.623 11.0099Z" fill="#616161"/>
<path d="M29.6221 33.1711C29.6221 32.6327 29.8359 32.1164 30.2166 31.7357C30.5973 31.355 31.1137 31.1411 31.6521 31.1411C32.1905 31.1411 32.7068 31.355 33.0875 31.7357C33.4682 32.1164 33.6821 32.6327 33.6821 33.1711C33.6821 33.7095 33.4682 34.2259 33.0875 34.6066C32.7068 34.9873 32.1905 35.2011 31.6521 35.2011C31.1137 35.2011 30.5973 34.9873 30.2166 34.6066C29.8359 34.2259 29.6221 33.7095 29.6221 33.1711ZM31.6521 31.3481C31.1684 31.3484 30.7045 31.5404 30.3622 31.8822C30.0199 32.2239 29.8271 32.6874 29.8261 33.1711C29.8259 33.4107 29.873 33.648 29.9646 33.8694C30.0562 34.0909 30.1906 34.2921 30.36 34.4615C30.5293 34.631 30.7305 34.7655 30.9518 34.8572C31.1732 34.9489 31.4105 34.9961 31.6501 34.9961C31.8897 34.9963 32.1271 34.9492 32.3485 34.8576C32.57 34.766 32.7713 34.6317 32.9408 34.4623C33.1104 34.2929 33.2449 34.0918 33.3368 33.8704C33.4286 33.6491 33.4759 33.4118 33.4761 33.1721C33.4761 32.6882 33.284 32.224 32.942 31.8817C32.5999 31.5393 32.136 31.3466 31.6521 31.3461V31.3481Z" fill="#E5E8EA"/>
<path d="M33.4739 33.9151L33.5289 33.9431C33.6296 33.6982 33.6812 33.4359 33.6809 33.1711C33.6807 32.9046 33.6281 32.6408 33.526 32.3947C33.424 32.1486 33.2744 31.925 33.0859 31.7366C32.8974 31.5483 32.6736 31.399 32.4274 31.2971C32.1812 31.1953 31.9173 31.1429 31.6509 31.1431C31.4823 31.1431 31.3144 31.1639 31.1509 31.2051C31.2898 31.1868 31.4298 31.1774 31.5699 31.1771C32.1079 31.1781 32.6237 31.3923 33.0041 31.7728C33.3846 32.1533 33.5988 32.669 33.5999 33.2071C33.6008 33.4487 33.5581 33.6886 33.4739 33.9151Z" fill="white"/>
<path d="M31.5719 35.034C31.8253 35.0369 32.0763 34.984 32.3069 34.879C32.0973 34.9571 31.8756 34.998 31.6519 35C31.3395 35.0014 31.032 34.9223 30.759 34.7705C30.486 34.6187 30.2566 34.3991 30.0929 34.133C29.9674 33.9289 29.8833 33.702 29.8456 33.4653C29.8078 33.2286 29.817 32.9868 29.8727 32.7537C29.9285 32.5206 30.0296 32.3008 30.1703 32.1068C30.311 31.9127 30.4886 31.7484 30.6929 31.623C30.6669 31.635 30.6409 31.649 30.6159 31.663C30.343 31.8152 30.1177 32.0401 29.965 32.3127C29.8123 32.5853 29.7382 32.8949 29.7509 33.207C29.7509 33.6906 29.9426 34.1544 30.2839 34.4968C30.6252 34.8393 31.0884 35.0325 31.5719 35.034Z" fill="white"/>
<path d="M22.127 27.3321C22.286 27.3941 22.427 27.4491 22.6 27.5141C23.458 23.5364 23.851 19.4725 23.771 15.4041C25.1096 19.8364 26.811 24.151 28.858 28.3041C29.48 29.6041 30.066 30.7701 30.566 31.7131C30.8058 31.5449 31.0784 31.4291 31.366 31.3731C31.216 31.1731 29.698 28.2161 28.005 24.3241C27.285 22.6681 26.537 20.8401 25.842 18.9901C25.675 18.5281 25.414 17.8221 25.114 16.9631C24.776 15.9761 24.414 14.8631 24.165 13.9851C26.6583 13.0006 29.0035 11.676 31.134 10.0491L31.213 9.98706C30.958 9.66006 30.836 9.49505 30.587 9.21005L30.52 9.26306C28.5001 10.8148 26.2749 12.0792 23.908 13.0201C23.5142 12.0985 23.4617 11.0668 23.76 10.1101C24.3567 9.20342 24.8365 8.225 25.188 7.19806C25.288 6.93106 25.373 6.69806 25.431 6.53906C25.404 6.53906 21.417 9.23206 22.884 13.3811C22.971 13.6811 23.048 13.9301 23.148 14.3481C23.717 18.0001 22.68 24.9581 22.127 27.3321Z" fill="black"/>
<path d="M0 34.9V35.739C4.39207 38.0417 9.27199 39.2583 14.231 39.287C15.214 39.287 16.166 39.232 17.093 39.141C19.3352 38.9232 21.5463 38.4577 23.686 37.753C25.05 37.295 26.3856 36.7568 27.686 36.141C28.761 35.61 29.729 35.084 30.536 34.61C30.3345 34.4419 30.165 34.2386 30.036 34.01C29.1764 34.5297 28.2913 35.006 27.384 35.437C26.1656 36.0038 24.9151 36.499 23.639 36.92C21.4079 37.6003 19.1184 38.0717 16.8 38.328C10.9883 38.801 5.16183 37.6121 0 34.9Z" fill="black"/>
<path d="M27.5228 36.2081C27.1368 36.3961 26.8168 36.5341 26.5688 36.6451C26.2418 36.7871 25.9688 36.8951 25.6418 37.0271C25.2418 37.1941 24.2528 37.5591 23.8718 37.6851L23.4248 37.4141C23.4248 37.4141 23.5638 37.0891 23.6248 36.9251C24.3088 36.6991 24.9738 36.4511 25.1888 36.3681C25.6058 36.2061 26.0098 36.0411 26.2758 35.9271C26.6758 35.7611 27.1068 35.5641 27.2068 35.5171C27.3168 35.7531 27.4128 35.9721 27.5228 36.2081Z" fill="#32373A"/>
<path d="M26.2801 36.7672C26.3801 36.7252 26.5391 36.6581 26.7031 36.5851L26.3911 35.8792L25.9771 36.0522L26.2801 36.7672Z" fill="black"/>
<path d="M25.7922 18.8531L25.5212 19.3331C25.5212 19.3331 25.1422 19.2141 24.9692 19.1581L24.8502 18.8211L24.7302 18.4831C24.5982 18.1161 24.4882 17.7581 24.3672 17.3961L25.1722 17.1311C25.3722 17.6881 25.7922 18.8531 25.7922 18.8531Z" fill="#32373A"/>
<path d="M28.769 28.146C28.469 27.546 27.929 26.365 27.55 25.523C27.424 25.239 27.325 24.987 27.25 24.823C27.25 24.823 27.413 24.458 27.499 24.281L28.062 24.469L29.562 27.782C29.3 27.907 28.78 28.146 28.769 28.146Z" fill="#32373A"/>
<path d="M25.2561 17.3509L24.4421 17.6129L24.3711 17.3959L25.1711 17.1279L25.2561 17.3509Z" fill="black"/>
<path d="M25.6712 18.5092L24.8432 18.7932C24.7892 18.6392 24.7322 18.4812 24.6782 18.3262C24.9502 18.2262 25.2282 18.1342 25.5002 18.0342C25.5552 18.1922 25.6112 18.3512 25.6712 18.5092Z" fill="black"/>
<path d="M27.5562 25.521C27.6362 25.7 27.7191 25.879 27.7981 26.059L28.6052 25.659C28.5252 25.485 28.4492 25.311 28.3682 25.134L27.5562 25.521Z" fill="black"/>
<path d="M28.1279 26.7872C28.2079 26.9672 28.2849 27.1352 28.3779 27.3282L29.1779 26.9281C29.0969 26.7541 29.0199 26.5741 28.9389 26.4001L28.1279 26.7872Z" fill="black"/>
<path d="M28.6538 27.894L28.9068 28.408C28.9068 28.408 29.4068 28.184 29.6978 28.051C29.5978 27.836 29.4518 27.531 29.4518 27.531L28.6538 27.894Z" fill="black"/>
<path d="M24.7948 17.6101C24.9075 17.6101 24.9988 17.5188 24.9988 17.4061C24.9988 17.2935 24.9075 17.2021 24.7948 17.2021C24.6822 17.2021 24.5908 17.2935 24.5908 17.4061C24.5908 17.5188 24.6822 17.6101 24.7948 17.6101Z" fill="black"/>
<path d="M29.1319 28.079C29.2606 28.079 29.3649 27.9747 29.3649 27.846C29.3649 27.7174 29.2606 27.613 29.1319 27.613C29.0032 27.613 28.8989 27.7174 28.8989 27.846C28.8989 27.9747 29.0032 28.079 29.1319 28.079Z" fill="black"/>
<path d="M27.3341 36.2952L27.5221 36.2042L27.2071 35.5132C27.1441 35.5422 27.0781 35.5702 27.0151 35.6002L27.3341 36.2952Z" fill="black"/>
<path d="M27.2308 36.103C27.3424 36.103 27.4328 36.0125 27.4328 35.901C27.4328 35.7894 27.3424 35.699 27.2308 35.699C27.1192 35.699 27.0288 35.7894 27.0288 35.901C27.0288 36.0125 27.1192 36.103 27.2308 36.103Z" fill="black"/>
<path d="M26.2631 35.9321L26.1001 36.0001L26.4141 36.7111L26.5761 36.6411L26.2631 35.9321Z" fill="#666666"/>
<path d="M28.58 27.7462L28.418 27.8192C28.466 27.9192 28.537 28.0682 28.596 28.1882L28.696 28.3801L28.775 28.3441C29.082 28.2011 29.722 27.9072 29.722 27.9072L29.802 27.8712L29.535 27.2852L29.374 27.3582L29.568 27.7841L28.779 28.1472L28.76 28.1102C28.7 27.9892 28.628 27.8462 28.58 27.7462Z" fill="#666666"/>
<path d="M24.146 17.2791L24.346 17.8931L24.514 17.8391L24.369 17.3911L24.645 17.3001L24.685 17.4241C24.6922 17.4463 24.7062 17.4656 24.7251 17.4792C24.744 17.4929 24.7667 17.5002 24.79 17.5001C24.8012 17.5021 24.8127 17.5021 24.824 17.5001C24.8517 17.491 24.8748 17.4712 24.888 17.4452C24.9013 17.4192 24.9038 17.389 24.895 17.3611L24.854 17.2361L25.173 17.1301L25.327 17.5571L25.493 17.4971L25.28 16.9081L25.198 16.9361L24.798 17.0691L24.763 16.9581C24.753 16.931 24.7331 16.9087 24.7073 16.8957C24.6815 16.8827 24.6517 16.88 24.624 16.8881C24.6103 16.8924 24.5977 16.8994 24.5868 16.9087C24.5758 16.9179 24.5668 16.9292 24.5603 16.942C24.5538 16.9547 24.5499 16.9687 24.5488 16.9829C24.5477 16.9972 24.5495 17.0115 24.554 17.0251L24.59 17.1371L24.229 17.2551L24.146 17.2791Z" fill="#666666"/>
<path d="M25.5554 18.1919L24.731 18.4851L24.7899 18.6509L25.6143 18.3577L25.5554 18.1919Z" fill="#666666"/>
<path d="M27.2988 35.2751L26.7598 35.5231L26.8348 35.6861L27.2138 35.5152L27.3138 35.7451L27.2138 35.7901C27.1943 35.7987 27.1777 35.8126 27.166 35.8304C27.1542 35.8481 27.1479 35.8689 27.1478 35.8902C27.1478 35.9046 27.1507 35.9189 27.1563 35.9322C27.1619 35.9455 27.1701 35.9575 27.1805 35.9676C27.1908 35.9777 27.2031 35.9856 27.2165 35.9908C27.23 35.996 27.2443 35.9986 27.2588 35.9982C27.2741 35.9988 27.2892 35.9953 27.3028 35.9881L27.4028 35.9422C27.4438 36.0342 27.4858 36.1252 27.5218 36.2032L27.4988 36.2141C27.3908 36.2671 27.2638 36.3311 27.1638 36.3741L27.2358 36.5352C27.3358 36.4922 27.4668 36.4262 27.5758 36.3732L27.7548 36.2861L27.7178 36.2081C27.6758 36.1171 27.6178 35.9941 27.5638 35.8701L27.6498 35.8322C27.6718 35.8196 27.6888 35.7998 27.698 35.7761C27.7071 35.7524 27.7077 35.7263 27.6998 35.7021C27.6904 35.6746 27.6706 35.6518 27.6446 35.6387C27.6186 35.6256 27.5885 35.6233 27.5608 35.6321L27.4718 35.6721L27.3278 35.3551L27.2988 35.2751Z" fill="#666666"/>
<path d="M29.0228 26.575L28.2178 26.966L28.2918 27.127L29.0918 26.737L29.0228 26.575Z" fill="#666666"/>
<path d="M28.454 25.321L27.645 25.721L27.716 25.879L28.528 25.488L28.454 25.321Z" fill="#666666"/>
<path d="M22.766 26.7331C22.713 26.9981 22.656 27.2761 22.599 27.5331C22.524 27.5051 22.218 27.3951 22.124 27.3501C22.187 27.0711 22.251 26.7651 22.309 26.4711C22.351 26.2531 22.393 26.0401 22.43 25.8291C22.53 25.8801 22.808 25.9881 22.9 26.0291C22.863 26.2561 22.818 26.4911 22.766 26.7331Z" fill="black"/>
<path d="M29.2021 28.268L29.0281 27.883C29.0166 27.8565 29.016 27.8265 29.0265 27.7995C29.037 27.7726 29.0577 27.7509 29.0841 27.739C29.1108 27.7274 29.141 27.7267 29.1682 27.7369C29.1955 27.7472 29.2177 27.7677 29.2301 27.794L29.4041 28.18C29.4159 28.2066 29.4168 28.2367 29.4065 28.2639C29.3962 28.291 29.3755 28.313 29.3491 28.325C29.3341 28.3323 29.3176 28.3357 29.3011 28.335C29.2798 28.335 29.259 28.3286 29.2413 28.3166C29.2237 28.3047 29.21 28.2878 29.2021 28.268Z" fill="#666666"/>
<path d="M33.7129 33.682C34.0839 33.961 34.3449 34.571 34.1519 34.829C33.9589 35.087 33.3419 35.008 32.9719 34.729C32.8097 34.6297 32.6922 34.4714 32.6443 34.2874C32.5964 34.1033 32.6217 33.9078 32.7149 33.742C32.8396 33.6022 33.0145 33.5174 33.2015 33.5062C33.3885 33.4949 33.5723 33.5581 33.7129 33.682Z" fill="#E5E8EA"/>
<path d="M34.0211 34.3459C33.9712 34.2377 33.8985 34.1415 33.8081 34.0639C33.7294 33.9987 33.6372 33.9519 33.5381 33.9269C33.5028 33.9133 33.4651 33.9072 33.4273 33.9093C33.3895 33.9114 33.3527 33.9215 33.3191 33.9389C33.2984 33.9539 33.2813 33.9734 33.2691 33.9959C33.2604 34.0345 33.2435 34.0707 33.2198 34.1023C33.196 34.1338 33.1657 34.1599 33.1311 34.1789C33.0955 34.1978 33.0561 34.2082 33.0159 34.2094C32.9757 34.2106 32.9357 34.2026 32.8991 34.1859C32.8693 34.1703 32.8429 34.1489 32.8214 34.123C32.8 34.0971 32.7839 34.0671 32.7741 34.0349C32.7534 33.9662 32.7599 33.8921 32.7921 33.8279C32.8219 33.7687 32.8676 33.7188 32.9241 33.6839C32.9901 33.6408 33.0649 33.6131 33.1431 33.6029C33.2202 33.5909 33.2988 33.5929 33.3751 33.6089C33.4502 33.6271 33.5221 33.6568 33.5881 33.6969C33.6507 33.7327 33.7097 33.7746 33.7641 33.8219C33.8311 33.8831 33.89 33.9527 33.9391 34.0289C34.0028 34.1173 34.0537 34.2143 34.0901 34.3169C34.1241 34.4029 34.141 34.4945 34.1401 34.5869C34.1384 34.6421 34.13 34.6968 34.1151 34.7499C34.1129 34.6101 34.0809 34.4723 34.0211 34.3459Z" fill="white"/>
<path d="M29.7939 28.219C32.4362 27.256 34.9787 26.0389 37.3859 24.585L37.5699 24.46L37.8429 25.344C35.4186 26.8295 32.8485 28.0629 30.1729 29.025C30.0109 28.695 29.8349 28.3 29.7939 28.219Z" fill="black"/>
<path d="M30.6488 27.6681C30.5317 27.4545 30.5042 27.2033 30.5723 26.9695C30.6403 26.7357 30.7984 26.5384 31.0118 26.4211C31.3568 26.2831 31.5678 25.8651 31.9258 25.7051C32.2328 25.5671 32.8508 25.6481 33.1618 25.4971C33.5508 25.3071 33.6718 24.8621 34.0618 24.6551C34.3748 24.4881 35.0688 24.4391 35.3748 24.2641C35.8748 23.9811 35.7118 23.5871 36.1748 23.2871C36.4988 23.0781 36.9828 23.1581 37.2828 22.9451C37.3148 22.9281 37.3468 22.9111 37.3828 22.8961C37.6497 22.7785 37.9524 22.7717 38.2244 22.8773C38.4963 22.9829 38.7151 23.1922 38.8328 23.4591C38.8328 23.4591 39.9328 26.3591 38.5728 27.2431C38.3048 27.4261 37.8478 27.3991 37.5878 27.5641C37.3278 27.7291 37.1878 28.0981 36.9108 28.2641C36.6338 28.4301 36.1108 28.3541 35.8298 28.5091C35.4248 28.7341 35.2408 29.1321 34.8248 29.3271C34.4088 29.5221 33.8448 29.4121 33.4088 29.5711C32.9662 29.686 32.4978 29.6467 32.0806 29.4596C31.6634 29.2726 31.3224 28.9489 31.1138 28.5421L30.6968 27.7421C30.6798 27.7181 30.6628 27.6941 30.6488 27.6681Z" fill="white"/>
<path d="M37.8538 23.022C38.0217 23.0243 38.1852 23.0755 38.3244 23.1692C38.4637 23.263 38.5726 23.3953 38.6378 23.55C38.6378 23.557 39.6558 26.277 38.4558 27.05C38.3244 27.1205 38.1809 27.166 38.0328 27.1839C37.8358 27.2106 37.6455 27.2741 37.4718 27.371C37.3214 27.4815 37.1909 27.6167 37.0858 27.771C37.0083 27.8866 36.9116 27.988 36.7998 28.071C36.6538 28.1329 36.4974 28.1668 36.3388 28.1709C36.1272 28.1791 35.9192 28.2276 35.7258 28.3139C35.5293 28.4317 35.352 28.5787 35.1998 28.75C35.0694 28.9035 34.9109 29.0308 34.7328 29.125C34.518 29.2043 34.2908 29.2446 34.0618 29.244C33.8203 29.2496 33.5805 29.2873 33.3488 29.356C33.2039 29.3871 33.0561 29.4028 32.9078 29.403C32.5769 29.4114 32.2504 29.325 31.9669 29.1541C31.6834 28.9831 31.4548 28.7346 31.3078 28.438L30.8908 27.638C30.8294 27.5294 30.7909 27.4094 30.7777 27.2854C30.7644 27.1614 30.7767 27.036 30.8138 26.9169C30.8367 26.8499 30.8736 26.7885 30.9221 26.7367C30.9705 26.685 31.0294 26.6442 31.0948 26.6169C31.2977 26.5219 31.4785 26.3857 31.6258 26.2169C31.7361 26.089 31.8686 25.9819 32.0168 25.901C32.1862 25.8502 32.362 25.8236 32.5388 25.8219C32.7849 25.8228 33.029 25.7781 33.2588 25.69C33.4721 25.5729 33.655 25.4075 33.7928 25.207C33.8922 25.062 34.0197 24.9386 34.1678 24.8439C34.3558 24.767 34.5516 24.711 34.7518 24.677C35.0066 24.6361 35.2543 24.5597 35.4878 24.45C35.7219 24.3155 35.9013 24.1032 35.9948 23.8499C36.0505 23.6917 36.1557 23.5556 36.2948 23.4619C36.4418 23.3872 36.6016 23.341 36.7658 23.3259C36.9873 23.306 37.2017 23.2378 37.3938 23.1259C37.5356 23.0562 37.6909 23.0187 37.8488 23.0159M37.8488 22.7939C37.6522 22.7968 37.4587 22.844 37.2828 22.9319C36.9828 23.1449 36.4988 23.065 36.1748 23.274C35.7098 23.574 35.8748 23.9679 35.3748 24.2509C35.0688 24.4259 34.3748 24.475 34.0618 24.642C33.6738 24.849 33.5528 25.2939 33.1618 25.4839C32.8508 25.6349 32.2328 25.554 31.9258 25.692C31.5678 25.852 31.3568 26.2699 31.0118 26.4079C30.9838 26.4239 30.9568 26.441 30.9298 26.459C30.8306 26.5273 30.7458 26.6145 30.6802 26.7156C30.6147 26.8167 30.5697 26.9297 30.5479 27.0482C30.5261 27.1668 30.5278 27.2884 30.553 27.4062C30.5782 27.524 30.6264 27.6358 30.6948 27.735L31.1118 28.535C31.2783 28.8675 31.5359 29.1457 31.8547 29.3371C32.1734 29.5286 32.5401 29.6253 32.9118 29.616C33.08 29.6162 33.2477 29.5977 33.4118 29.5609C33.8478 29.4019 34.4068 29.513 34.8278 29.317C35.2488 29.121 35.4278 28.7239 35.8278 28.4989C36.1088 28.3439 36.6438 28.41 36.9088 28.254C37.1738 28.098 37.3168 27.729 37.5868 27.554C37.8568 27.379 38.3028 27.416 38.5708 27.233C39.9358 26.354 38.8308 23.4489 38.8308 23.4489C38.7475 23.2571 38.6104 23.0935 38.4362 22.9778C38.262 22.8621 38.058 22.7993 37.8488 22.797V22.7939Z" fill="#E5E8EA"/>
<path d="M30.9361 26.4619C30.8366 26.5301 30.7517 26.6172 30.6859 26.7182C30.6202 26.8193 30.575 26.9323 30.553 27.0508C30.531 27.1693 30.5326 27.291 30.5576 27.4089C30.5827 27.5268 30.6308 27.6386 30.6991 27.7379L31.0741 28.454C31.4515 28.5766 31.8604 28.5592 32.2261 28.405C32.0215 28.4173 31.8177 28.3709 31.6386 28.2714C31.4595 28.1718 31.3126 28.0232 31.2151 27.843C31.0601 27.469 31.0151 26.964 31.4471 26.787C31.8171 26.653 31.7981 26.447 32.1821 26.287C32.5111 26.149 33.1721 26.23 33.5051 26.079C33.9241 25.889 34.0531 25.444 34.4711 25.237C34.8051 25.07 35.5491 25.0219 35.8771 24.8459C36.4071 24.5629 36.2321 24.169 36.7321 23.869C37.2131 23.663 38.7101 22.8839 38.7921 24.5329C38.8831 24.6439 39.0921 24.7329 39.0921 24.3589C39.029 23.9897 38.9107 23.632 38.7411 23.2979C38.5905 23.0624 38.3552 22.8938 38.0838 22.827C37.8124 22.7602 37.5257 22.8003 37.2831 22.939C36.9831 23.152 36.4991 23.0719 36.1751 23.2809C35.7101 23.5809 35.8751 23.975 35.3751 24.258C35.0691 24.433 34.3751 24.482 34.0621 24.649C33.6741 24.856 33.5531 25.301 33.1621 25.491C32.8511 25.642 32.2331 25.5609 31.9261 25.6989C31.5681 25.8589 31.3571 26.2769 31.0121 26.4149C30.9861 26.4299 30.9611 26.4459 30.9361 26.4619Z" fill="#E5E8EA"/>
<path d="M30.9512 28.2331L31.1122 28.5401C31.3216 28.9472 31.6637 29.2706 32.082 29.4568C32.5002 29.643 32.9695 29.6808 33.4122 29.5641C33.8482 29.4051 34.4072 29.5161 34.8282 29.3201C35.2492 29.1241 35.4282 28.7271 35.8282 28.5021C36.1092 28.3471 36.6442 28.413 36.9092 28.257C37.1742 28.101 37.3152 27.7321 37.5862 27.5571C37.8572 27.3821 38.3032 27.4191 38.5712 27.2361C39.9362 26.3571 38.8312 23.4521 38.8312 23.4521C38.8142 23.4171 38.7912 23.3861 38.7712 23.3521C38.8958 23.7927 38.8933 24.2597 38.764 24.699C38.6346 25.1384 38.3837 25.5322 38.0402 25.8351C37.7492 26.0291 37.2652 26.0121 36.9822 26.1911C36.6992 26.3701 36.5352 26.7471 36.2382 26.9271C35.9412 27.1071 35.3792 27.0421 35.0792 27.2071C34.6342 27.4491 34.4332 27.8561 33.9792 28.0681C33.5252 28.2801 32.9342 28.1841 32.4642 28.3591C31.9598 28.4853 31.4277 28.441 30.9512 28.2331Z" fill="#E5E8EA"/>
</g>
<defs>
<clipPath id="clip0_479_11689">
<rect width="40.01" height="40.003" fill="white"/>
</clipPath>
</defs>
</svg>
