<svg width="429" height="429" viewBox="0 0 429 429" fill="none" xmlns="http://www.w3.org/2000/svg">
<circle cx="214.5" cy="214.5" r="214.5" fill="#32D583"/>
<g clip-path="url(#clip0_437_229)">
<mask id="mask0_437_229" style="mask-type:alpha" maskUnits="userSpaceOnUse" x="0" y="0" width="429" height="429">
<circle cx="214.5" cy="214.5" r="214.5" fill="#32D583"/>
</mask>
<g mask="url(#mask0_437_229)">
<path d="M0.102539 132.9V372.846L61.6471 372.957C84.1109 329.236 98.1465 307.58 101.643 302.109C111.933 285.039 123.308 268.648 135.697 253.035C137.638 250.421 140.093 248.231 142.911 246.601C145.729 244.97 148.85 243.934 152.084 243.554C155.951 243.506 159.798 244.116 163.461 245.358C171.975 255.668 183.306 263.276 196.071 267.253C199.414 268.187 202.827 268.85 206.277 269.236C208.628 271.143 211.876 273.879 215.603 277.299C224.79 285.94 233.167 295.404 240.631 305.571C250.006 318.186 258.588 331.372 266.326 345.052L266.368 345.163C268.33 349.041 270.557 352.777 273.036 356.346C274.809 358.325 276.979 359.908 279.405 360.992C281.831 362.076 284.457 362.637 287.114 362.638C287.29 363.887 287.795 365.067 288.578 366.055C289.36 367.044 290.392 367.806 291.568 368.264L299.261 371.316C301.802 372.328 304.597 372.519 307.253 371.863L310.928 370.957L316.057 369.7C317.571 369.331 318.986 368.637 320.204 367.665C321.422 366.694 322.413 365.468 323.109 364.075L333.751 342.496C335.529 338.957 339.359 332.237 339.359 332.237C340.661 330.47 341.516 328.413 341.848 326.244C342.18 324.074 341.98 321.856 341.265 319.78C340.735 316.66 337.333 301.707 335.88 295.534C325.975 253.176 313.121 211.562 297.414 170.996V170.936H297.466C312.852 154.88 309.031 112.8 271.822 94.3679C281.824 77.0021 286.544 57.0957 285.405 37.0872C274.506 43.8155 263.274 63.3423 256.393 75.4482C261.402 61.1915 263.489 46.0722 262.53 30.9915C250.509 38.3108 240.051 47.9336 231.758 59.307C227.242 65.657 223.419 72.4727 220.355 79.6373L219.936 79.5433C201.946 75.5749 183.455 74.3727 165.102 75.9782C115.883 78.9277 60.2026 103.003 49.9451 107.448C32.8059 114.862 16.1578 123.363 0.102539 132.9Z" fill="#93594C"/>
<path d="M276.446 162.575C267.376 160.584 258.104 159.666 248.82 159.839C251.487 193.934 278.789 189.813 288.678 181.819C284.028 173.774 279.703 167.251 276.446 162.575Z" fill="#3A1919"/>
<path d="M255.231 159.984C255.436 184.777 277.78 183.538 285.199 175.98C281.891 170.577 278.874 166.054 276.446 162.575C269.496 160.906 262.378 160.037 255.231 159.984Z" fill="#241711"/>
<path d="M267.95 172.295C269.503 172.295 270.762 171.036 270.762 169.483C270.762 167.929 269.503 166.67 267.95 166.67C266.397 166.67 265.138 167.929 265.138 169.483C265.138 171.036 266.397 172.295 267.95 172.295Z" fill="#FCFBFA"/>
<path d="M271.164 317.797C278.307 332.016 283.667 347.063 287.123 362.595C287.298 363.844 287.803 365.024 288.586 366.013C289.369 367.001 290.401 367.764 291.576 368.221L299.269 371.273C301.811 372.285 304.606 372.476 307.261 371.82L316.057 369.657C317.571 369.288 318.986 368.594 320.204 367.623C321.422 366.651 322.413 365.426 323.109 364.032L333.854 342.368C335.632 338.828 339.461 332.108 339.461 332.108C340.626 330.12 341.428 327.94 341.829 325.671C341.949 323.664 341.794 321.651 341.367 319.686C340.778 316.574 340.034 313.488 339.179 309.666C338.418 306.084 337.47 301.63 335.965 295.457C322.083 307.538 318.305 329.578 315.125 357.184C309.859 344.961 303.865 333.064 297.175 321.559C290.385 316.426 282.684 312.625 274.48 310.359C274.019 311.274 272.626 314.223 271.164 317.797Z" fill="#84463C"/>
<path d="M307.219 371.863C303.106 356.147 296.893 341.059 288.747 327.004C288.584 326.77 288.497 326.491 288.497 326.205C288.497 325.919 288.584 325.64 288.747 325.406C288.965 325.103 289.293 324.898 289.661 324.835C290.029 324.773 290.407 324.858 290.713 325.072C291.273 325.46 291.812 325.876 292.328 326.321C292.608 326.565 292.845 326.854 293.029 327.175C300.681 341.015 306.669 355.711 310.869 370.957L307.219 371.863Z" fill="#663831"/>
<path d="M214.38 257.703C202.716 257.036 191.504 252.964 182.129 245.991C173.872 239.824 167.153 231.83 162.497 222.635C157.84 213.439 155.374 203.292 155.289 192.985C154.521 186.677 154.45 180.303 155.075 173.98C153.956 176.544 139.826 210.537 159.016 239.604C167.955 252.666 180.972 262.395 196.028 267.27C199.371 268.204 202.785 268.868 206.234 269.254C217.666 270.781 229.299 269.162 239.879 264.569C249.927 260.07 258.585 252.957 264.95 243.973C250.174 254.231 232.314 259.08 214.38 257.703Z" fill="#93594C"/>
<path d="M335.991 295.5C328.332 265.218 317.337 235.88 303.21 208.023C298.483 198.747 293.611 190.018 288.678 181.819L285.088 198.867C304.901 233.536 316.261 272.39 318.245 312.274C318.58 320.252 318.509 328.242 318.032 336.212C321.092 318.464 325.836 304.306 335.991 295.5Z" fill="#A56D62"/>
<path d="M276.429 162.566C279.686 167.243 284.011 173.774 288.661 181.819C293.61 190.018 298.483 198.747 303.193 208.023C317.313 235.881 328.302 265.219 335.957 295.5C326.051 253.142 313.198 211.527 297.491 170.962C294.465 169.996 290.516 168.628 285.994 166.781C283.618 165.823 280.37 164.464 276.429 162.566Z" fill="#BC8A86"/>
<path d="M318.245 312.274C316.256 272.389 304.891 233.535 285.071 198.867C284.216 202.714 283.037 206.749 281.652 210.938C277.61 222.8 271.903 234.026 264.702 244.281L264.95 243.947C264.838 246.862 264.915 249.78 265.18 252.685C265.802 258.239 266.985 263.716 268.711 269.031C276.277 287.506 285.827 305.104 297.192 321.516C303.949 332.991 309.946 344.897 315.143 357.158C315.997 349.746 316.895 342.735 318.023 336.212C318.503 328.242 318.578 320.252 318.245 312.274Z" fill="#93594C"/>
<path d="M155.229 192.976C155.314 203.283 157.781 213.431 162.437 222.626C167.093 231.821 173.812 239.815 182.069 245.982C191.443 252.957 202.656 257.029 214.321 257.695C232.254 259.089 250.119 254.258 264.907 244.016C272.005 233.826 277.633 222.689 281.626 210.93C283.054 206.741 284.191 202.705 285.046 198.858L288.636 181.811C283.986 173.766 279.66 167.277 276.404 162.566C267.334 160.576 258.061 159.658 248.777 159.83C247.196 156.564 235.194 133.772 225.621 118.947C224.672 119.486 223.715 119.999 222.689 120.486C218.753 122.402 214.65 123.953 210.431 125.12C209.312 125.299 207.457 125.744 204.627 126.154H204.49C203.396 126.308 202.148 126.471 200.738 126.633L199.148 126.804C186.779 131.173 167.991 141.834 154.973 173.92C154.358 180.262 154.444 186.653 155.229 192.976Z" fill="#AF7972"/>
<path d="M241.152 263.979C250.16 273.247 258.221 283.391 265.214 294.261C268.779 299.809 271.848 305.229 274.489 310.359C282.683 312.628 290.377 316.422 297.166 321.541C285.766 305.154 276.214 287.555 268.685 269.065C266.959 263.75 265.776 258.273 265.155 252.719C264.89 249.815 264.813 246.896 264.924 243.982C263.045 246.656 260.943 249.167 258.641 251.488C253.598 256.656 247.676 260.885 241.152 263.979Z" fill="#663831"/>
<path d="M266.309 345.155C268.27 349.032 270.497 352.769 272.976 356.337C274.749 358.316 276.919 359.899 279.345 360.983C281.771 362.068 284.397 362.629 287.054 362.63C283.595 347.098 278.235 332.052 271.095 317.831C269.099 322.328 267.445 326.969 266.146 331.715C266.044 332.211 265.924 332.716 265.838 333.203C265.309 336.151 265.197 339.158 265.505 342.137C265.685 343.164 265.954 344.174 266.309 345.155Z" fill="#663831"/>
<path d="M206.217 269.254C208.576 271.16 211.825 273.896 215.551 277.316C224.738 285.957 233.116 295.421 240.58 305.588C249.955 318.203 258.536 331.389 266.274 345.069C265.939 344.118 265.685 343.14 265.514 342.145C265.205 339.158 265.314 336.143 265.838 333.186C267.944 325.297 270.839 317.641 274.48 310.333C271.839 305.204 268.77 299.783 265.206 294.235C258.213 283.365 250.152 273.221 241.144 263.953L239.853 264.543C229.277 269.14 217.649 270.769 206.217 269.254Z" fill="#4C2E22"/>
<path d="M339.179 309.786C340.034 313.608 340.778 316.694 341.367 319.806C341.794 321.77 341.949 323.784 341.829 325.79C341.428 328.06 340.626 330.24 339.461 332.228C339.461 332.228 335.632 338.922 333.854 342.487C330.354 337.402 328.954 331.16 329.946 325.066C330.938 318.973 334.246 313.498 339.179 309.786Z" fill="#663831"/>
<path d="M341.376 319.849V319.729C340.786 316.617 340.042 313.531 339.188 309.709C335.673 312.405 332.965 316.014 331.36 320.144C329.755 324.273 329.314 328.763 330.084 333.126C330.658 330.125 331.999 327.324 333.979 324.997C335.958 322.67 338.506 320.896 341.376 319.849Z" fill="#4C2E22"/>
<path d="M232.451 114.322C240.027 131.716 252.152 146.746 267.548 157.83C273.459 161.29 279.626 164.294 285.994 166.815C290.516 168.662 294.465 170.03 297.491 170.996C275.532 129.643 255.393 112.005 241.34 104.918C238.756 108.391 235.772 111.547 232.451 114.322Z" fill="#A56D62"/>
<path d="M276.446 162.575C267.376 160.584 258.104 159.666 248.82 159.839C251.487 193.934 278.789 189.813 288.678 181.819C284.028 173.774 279.703 167.251 276.446 162.575Z" fill="#663831"/>
<path d="M255.231 159.984C255.436 184.777 277.78 183.538 285.199 175.98C281.891 170.577 278.874 166.054 276.446 162.575C269.496 160.906 262.378 160.037 255.231 159.984Z" fill="black"/>
<path d="M267.95 172.295C269.503 172.295 270.762 171.036 270.762 169.483C270.762 167.929 269.503 166.67 267.95 166.67C266.397 166.67 265.138 167.929 265.138 169.483C265.138 171.036 266.397 172.295 267.95 172.295Z" fill="#FCFBFA"/>
<path d="M225.672 118.947C235.229 133.78 247.247 156.564 248.828 159.83C258.112 159.658 267.385 160.576 276.455 162.566C273.737 161.215 270.736 159.676 267.548 157.796C252.173 146.701 240.051 131.69 232.442 114.322C230.325 116.059 228.06 117.607 225.672 118.947Z" fill="#84463C"/>
<path d="M53.4326 372.991H61.6129C84.0767 329.27 98.1123 307.615 101.608 302.143C111.898 285.073 123.273 268.682 135.663 253.07C137.604 250.455 140.059 248.266 142.876 246.635C145.694 245.005 148.816 243.968 152.049 243.588C155.899 243.53 159.73 244.134 163.375 245.375C160.862 242.332 159.332 240.126 158.99 239.604C152.726 230.023 149.267 218.879 149.006 207.433C136.441 230.465 120.747 246.965 111.122 263.346C88.8557 298.214 69.558 334.891 53.4326 372.991Z" fill="#663831"/>
<path d="M51.1162 373H53.407C56.1851 366.041 59.3905 358.902 62.8866 351.686C76.9034 321.166 93.0295 291.659 111.148 263.38C120.781 246.983 136.501 230.499 149.066 207.416C148.75 195.984 150.786 184.609 155.05 173.997C168.068 141.911 186.856 131.25 199.225 126.881C198.879 126.915 198.533 126.814 198.259 126.599C198.113 126.487 197.989 126.348 197.897 126.189C197.804 126.029 197.744 125.853 197.719 125.671C197.694 125.488 197.706 125.302 197.753 125.124C197.8 124.946 197.882 124.779 197.994 124.633C199.507 122.666 200.832 120.845 202.071 119.058C133.124 129.207 66.34 259.123 51.1162 373Z" fill="#A56D62"/>
<path d="M242.041 103.806C241.785 104.165 241.571 104.525 241.306 104.884C255.359 111.971 275.498 129.608 297.457 170.962C282.507 132.489 257.752 103.242 247.179 95.7272C246.409 97.1635 245.529 98.6083 244.614 100.053C244.469 100.293 244.306 100.523 244.161 100.754C243.494 101.78 242.788 102.798 242.041 103.806Z" fill="#BC8A86"/>
<path d="M0.0769043 372.88L51.1077 372.974C66.3399 259.088 133.167 129.138 202.097 119.058C206.945 112.061 210.894 104.48 213.85 96.4966C112.661 81.4412 15.3092 198.106 0.0769043 224.523V372.88Z" fill="#93594C"/>
<path d="M0.0769043 224.523C15.3092 198.08 112.686 81.4413 213.85 96.4369C215.449 92.2905 216.885 88.2381 218.543 83.9634C213.233 82.7219 207.843 81.8449 202.413 81.3387C196.021 80.7661 189.594 80.6803 183.189 81.0822C141.73 84.451 101.307 95.7712 64.126 114.425C47.5175 122.119 1.94034 148.357 0.0769043 149.477V224.523Z" fill="#A56D62"/>
<path d="M285.405 37.0958C283.953 43.1099 282.131 49.0287 279.951 54.8186C279.575 55.8188 279.096 56.9559 278.549 58.1443C276.422 63.4484 273.994 68.6264 271.275 73.6528C270.241 75.5422 265.172 84.0061 261.231 90.0932C264.865 91.2474 268.405 92.6764 271.822 94.3679C281.822 77.0046 286.542 57.1014 285.405 37.0958Z" fill="black"/>
<path d="M0.0598145 149.511C1.92325 148.357 47.5004 122.076 64.1089 114.459C101.301 95.8289 141.729 84.5266 183.189 81.1676C189.595 80.7657 196.021 80.8515 202.413 81.4241C207.843 81.9304 213.233 82.8073 218.543 84.0488C219.113 82.6125 219.714 81.1562 220.347 79.68C194.348 73.9526 167.447 73.6616 141.33 78.8251C91.5033 88.6209 43.7259 106.894 0.0769008 132.849L0.0598145 149.511Z" fill="black"/>
<path d="M279.951 54.8186C282.131 49.0287 283.953 43.1099 285.405 37.0958C274.506 43.8241 263.274 63.3508 256.402 75.4482C256.043 76.4314 254.436 80.5778 252.854 84.1258C251.931 86.2118 251.803 86.5111 251.307 87.5455C254.675 88.1989 258.001 89.0553 261.265 90.1103C264.838 84.3993 269.702 76.5596 271.275 73.6528C274.592 67.5797 277.491 61.287 279.951 54.8186Z" fill="#4C2E22"/>
<path d="M247.213 95.7273C257.718 103.199 282.259 132.139 297.132 170.235L297.466 170.936C312.852 154.88 309.031 112.8 271.822 94.3679C265.326 91.1806 258.423 88.9022 251.307 87.5968C250.281 89.6657 247.426 95.3426 247.213 95.7273Z" fill="black"/>
<path d="M209.508 106.44C207.688 110.119 205.632 113.677 203.354 117.092C201.781 119.426 200.029 121.888 197.977 124.556C197.772 124.831 197.672 125.171 197.695 125.513C197.707 125.702 197.756 125.886 197.84 126.055C197.923 126.224 198.039 126.375 198.182 126.499C198.324 126.623 198.49 126.718 198.669 126.778C198.848 126.837 199.037 126.861 199.225 126.847C203.016 126.495 206.783 125.924 210.508 125.137C216.059 118.72 220.664 111.543 224.185 103.823C226.006 99.9677 226.006 99.2667 234.724 75.26C241.196 58.9258 250.619 43.9224 262.522 31C250.505 38.3082 240.048 47.916 231.75 59.2728C218.15 78.5516 217.116 90.9482 209.508 106.44Z" fill="#4C2E22"/>
<path d="M210.474 125.128C214.698 123.973 218.802 122.418 222.732 120.486C233.329 115.033 241.917 106.35 247.256 95.693C247.324 95.5648 251.17 87.9473 251.598 87.0154C252.376 85.3055 253.085 83.6726 253.743 82.1594C254.718 79.9194 255.593 77.6995 256.368 75.4994C261.393 61.2466 263.49 46.1255 262.531 31.0428C250.599 43.9447 241.17 58.9532 234.724 75.3028C226.006 99.3094 226.006 100.01 224.185 103.866C220.651 111.571 216.034 118.731 210.474 125.128Z" fill="black"/>
<path d="M336.786 299.031C334.649 288.772 328.845 266.107 327.033 260.123C313.886 267.535 316.698 298.595 336.786 299.031Z" fill="#CCCCCC"/>
<path d="M332.29 293.568C331.786 293.741 331.235 293.709 330.755 293.478C330.275 293.248 329.905 292.838 329.725 292.337L324.246 269.587C324.179 269.025 324.325 268.458 324.656 267.999C324.987 267.54 325.478 267.222 326.033 267.108L328.836 266.304L329.033 266.236C330.183 265.824 331.45 265.887 332.555 266.409C333.659 266.932 334.511 267.872 334.922 269.023L339.265 287.062C339.424 288.344 339.093 289.64 338.339 290.689C337.585 291.739 336.462 292.464 335.196 292.722L332.392 293.534L332.29 293.568Z" fill="black"/>
<path d="M232.639 236.852C232.639 235.658 232.874 234.476 233.331 233.373C233.789 232.27 234.459 231.269 235.304 230.425C236.148 229.582 237.151 228.914 238.254 228.458C239.358 228.003 240.54 227.77 241.734 227.772C244.14 227.772 246.449 228.727 248.153 230.428C249.856 232.128 250.815 234.436 250.82 236.843C250.822 238.037 250.589 239.22 250.133 240.323C249.677 241.427 249.008 242.43 248.164 243.274C247.319 244.118 246.317 244.788 245.213 245.244C244.11 245.7 242.927 245.933 241.734 245.931C240.54 245.932 239.359 245.698 238.256 245.242C237.153 244.787 236.151 244.118 235.306 243.275C234.461 242.432 233.791 241.431 233.334 240.329C232.876 239.226 232.64 238.045 232.639 236.852ZM241.725 229.653C240.779 229.656 239.842 229.846 238.969 230.211C238.096 230.577 237.304 231.11 236.637 231.782C235.97 232.454 235.443 233.25 235.084 234.126C234.725 235.001 234.541 235.939 234.545 236.886C234.544 237.831 234.729 238.766 235.09 239.64C235.45 240.513 235.98 241.307 236.647 241.975C237.315 242.644 238.108 243.174 238.981 243.536C239.853 243.898 240.789 244.084 241.734 244.084C242.679 244.087 243.616 243.902 244.49 243.542C245.364 243.182 246.158 242.652 246.828 241.984C247.497 241.317 248.028 240.523 248.391 239.65C248.753 238.776 248.939 237.84 248.939 236.894C248.941 235.949 248.755 235.013 248.395 234.139C248.034 233.265 247.505 232.471 246.837 231.802C246.17 231.132 245.377 230.601 244.504 230.238C243.631 229.876 242.696 229.688 241.751 229.687L241.725 229.653Z" fill="white"/>
<path d="M326.255 273.212C298.705 263.808 271.677 251.488 246.982 241.767C247.647 241.059 248.16 240.221 248.488 239.307C248.816 238.392 248.952 237.419 248.888 236.45C272.873 246.709 299.321 257.823 325.315 267.227C329.229 268.424 330.101 274.349 326.255 273.212Z" fill="black"/>
<path d="M209.859 272.348C215.107 265.859 219.261 260.379 224.125 253.642C227.732 248.65 231.279 243.52 234.699 238.39C234.926 239.398 235.365 240.345 235.987 241.169C236.609 241.993 237.4 242.675 238.306 243.169C235.186 247.82 231.963 252.437 228.698 256.951C223.774 263.791 219.415 269.501 214.098 276.076L209.859 272.348Z" fill="black"/>
<path d="M236.348 232.098C222.944 206.281 211.198 179.636 201.182 152.324L206.499 150.409C216.454 177.544 228.126 204.018 241.443 229.67C240.474 229.709 239.522 229.944 238.647 230.361C237.771 230.779 236.989 231.369 236.348 232.098Z" fill="black"/>
<path d="M266.522 345.941C292.903 331.816 315.071 310.952 330.768 285.472C332.367 283.933 334.786 289.909 332.726 292.209C316.665 316.654 294.882 336.81 269.266 350.926L266.522 345.941Z" fill="black"/>
<path d="M253.205 314.591C253.205 309.988 255.033 305.574 258.287 302.319C261.541 299.064 265.955 297.236 270.557 297.236C275.155 297.24 279.562 299.069 282.813 302.322C286.063 305.574 287.89 309.984 287.892 314.582C287.892 319.185 286.064 323.6 282.81 326.854C279.556 330.109 275.142 331.937 270.54 331.937C265.942 331.933 261.534 330.104 258.284 326.851C255.034 323.599 253.207 319.189 253.205 314.591ZM270.557 299.005C266.423 299.008 262.458 300.65 259.532 303.571C256.606 306.493 254.958 310.456 254.949 314.591C254.947 316.639 255.35 318.668 256.133 320.561C256.916 322.454 258.064 324.174 259.512 325.623C260.96 327.072 262.679 328.221 264.571 329.006C266.464 329.79 268.492 330.193 270.54 330.193C272.591 330.199 274.624 329.8 276.521 329.019C278.418 328.238 280.142 327.09 281.595 325.642C283.048 324.193 284.201 322.472 284.988 320.578C285.776 318.683 286.181 316.651 286.183 314.599C286.183 312.548 285.778 310.516 284.993 308.621C284.207 306.726 283.056 305.004 281.605 303.555C280.154 302.105 278.431 300.955 276.535 300.172C274.64 299.388 272.608 298.986 270.557 298.988V299.005Z" fill="#E5E8EA"/>
<path d="M286.131 320.952L286.601 321.191C287.459 319.096 287.898 316.854 287.892 314.591C287.891 312.313 287.441 310.057 286.569 307.953C285.696 305.849 284.418 303.937 282.806 302.327C281.195 300.717 279.282 299.441 277.178 298.57C275.073 297.699 272.818 297.252 270.54 297.253C269.099 297.253 267.663 297.431 266.266 297.783C267.453 297.626 268.65 297.546 269.848 297.543C274.447 297.552 278.855 299.384 282.107 302.637C285.36 305.889 287.191 310.298 287.2 314.899C287.21 316.964 286.848 319.015 286.131 320.952Z" fill="white"/>
<path d="M269.873 330.518C272.039 330.543 274.184 330.091 276.156 329.193C274.364 329.86 272.469 330.21 270.557 330.228C267.887 330.239 265.258 329.563 262.924 328.265C260.591 326.967 258.63 325.09 257.231 322.815C256.158 321.07 255.439 319.13 255.117 317.106C254.794 315.083 254.873 313.016 255.349 311.023C255.825 309.03 256.69 307.15 257.892 305.492C259.095 303.833 260.613 302.428 262.36 301.356C262.137 301.459 261.915 301.579 261.701 301.698C259.369 302.999 257.443 304.922 256.137 307.252C254.832 309.583 254.199 312.23 254.308 314.899C254.308 319.032 255.946 322.998 258.864 325.925C261.781 328.853 265.74 330.505 269.873 330.518Z" fill="white"/>
<path d="M189.139 264.671C190.498 265.201 191.703 265.671 193.182 266.227C200.516 232.22 203.876 197.477 203.191 162.694C214.634 200.588 229.177 237.475 246.674 272.981C251.991 284.095 257 294.064 261.274 302.126C263.325 300.688 265.654 299.698 268.112 299.219C266.83 297.509 253.854 272.229 239.383 238.955C233.228 224.797 226.835 209.169 220.894 193.352C219.466 189.403 217.235 183.367 214.671 176.023C211.782 167.585 208.688 158.069 206.559 150.563C227.873 142.138 247.92 130.806 266.129 116.887L266.804 116.357C264.625 113.561 263.582 112.151 261.453 109.714L260.881 110.167C243.615 123.434 224.595 134.243 204.362 142.287C200.996 134.408 200.548 125.588 203.097 117.408C208.198 109.657 212.3 101.292 215.304 92.5127C216.158 90.23 216.885 88.238 217.381 86.8787C217.15 86.8787 183.07 109.902 195.609 145.373C196.353 147.938 197.011 150.067 197.866 153.641C202.73 184.889 193.866 244.375 189.139 264.671Z" fill="black"/>
<path d="M0 329.373V336.546C37.5427 356.232 79.2557 366.634 121.645 366.879C130.047 366.879 138.185 366.409 146.109 365.631C165.275 363.769 184.175 359.789 202.465 353.764C214.124 349.849 225.541 345.247 236.656 339.982C245.845 335.443 254.119 330.946 261.018 326.893C259.295 325.456 257.847 323.718 256.744 321.764C249.385 326.208 241.807 330.279 234.04 333.964C223.626 338.809 212.937 343.043 202.029 346.642C182.958 352.458 163.387 356.488 143.57 358.68C93.9034 362.717 44.1125 352.553 0 329.373Z" fill="black"/>
<path d="M235.263 340.555C231.963 342.162 229.228 343.342 227.108 344.291C224.313 345.505 221.979 346.429 219.184 347.557C215.765 348.985 207.311 352.105 204.055 353.183L200.234 350.866C200.234 350.866 201.422 348.087 201.943 346.685C207.79 344.753 213.474 342.633 215.312 341.923C218.877 340.538 222.33 339.127 224.604 338.153C228.023 336.734 231.707 335.049 232.562 334.648C233.502 336.665 234.323 338.538 235.263 340.555Z" fill="#32373A"/>
<path d="M224.638 345.334C225.493 344.975 226.852 344.403 228.254 343.778L225.587 337.743L222.048 339.222L224.638 345.334Z" fill="black"/>
<path d="M220.466 192.181L218.15 196.285C218.15 196.285 214.91 195.267 213.432 194.789L212.414 191.908L211.389 189.018C210.26 185.88 209.32 182.82 208.286 179.725L215.167 177.459C216.876 182.221 220.466 192.181 220.466 192.181Z" fill="#32373A"/>
<path d="M245.914 271.63C243.349 266.501 238.733 256.404 235.494 249.205C234.417 246.777 233.57 244.623 232.929 243.221C232.929 243.221 234.323 240.1 235.058 238.587L239.87 240.194L252.692 268.518C250.452 269.587 246.008 271.63 245.914 271.63Z" fill="#32373A"/>
<path d="M215.885 179.34L208.927 181.58L208.32 179.725L215.158 177.433L215.885 179.34Z" fill="black"/>
<path d="M219.432 189.24L212.355 191.668C211.893 190.352 211.406 189.001 210.944 187.676C213.269 186.821 215.646 186.034 217.971 185.179C218.441 186.53 218.919 187.889 219.432 189.24Z" fill="black"/>
<path d="M235.545 249.188C236.229 250.719 236.938 252.249 237.613 253.788L244.512 250.368C243.828 248.88 243.178 247.393 242.486 245.88L235.545 249.188Z" fill="black"/>
<path d="M240.434 260.012C241.118 261.551 241.776 262.987 242.571 264.637L249.41 261.217C248.717 259.73 248.059 258.191 247.367 256.703L240.434 260.012Z" fill="black"/>
<path d="M244.93 269.476L247.093 273.87C247.093 273.87 251.367 271.955 253.854 270.818C253 268.98 251.752 266.372 251.752 266.372L244.93 269.476Z" fill="black"/>
<path d="M211.944 181.554C212.907 181.554 213.688 180.773 213.688 179.81C213.688 178.847 212.907 178.066 211.944 178.066C210.981 178.066 210.201 178.847 210.201 179.81C210.201 180.773 210.981 181.554 211.944 181.554Z" fill="black"/>
<path d="M249.016 271.057C250.116 271.057 251.008 270.166 251.008 269.065C251.008 267.965 250.116 267.073 249.016 267.073C247.916 267.073 247.025 267.965 247.025 269.065C247.025 270.166 247.916 271.057 249.016 271.057Z" fill="black"/>
<path d="M233.647 341.299L235.254 340.521L232.562 334.613C232.023 334.861 231.459 335.101 230.921 335.357L233.647 341.299Z" fill="black"/>
<path d="M232.767 339.658C233.72 339.658 234.493 338.884 234.493 337.931C234.493 336.977 233.72 336.204 232.767 336.204C231.813 336.204 231.04 336.977 231.04 337.931C231.04 338.884 231.813 339.658 232.767 339.658Z" fill="black"/>
<path d="M224.493 338.196L223.099 338.777L225.783 344.856L227.202 344.3L224.493 338.196Z" fill="#666666"/>
<path d="M244.298 268.211L242.913 268.835C243.324 269.69 243.93 270.963 244.435 271.989L245.29 273.631L245.965 273.323C248.589 272.1 254.06 269.587 254.06 269.587L254.743 269.279L252.461 264.269L251.085 264.893L252.743 268.535L245.999 271.639L245.837 271.322C245.324 270.288 244.708 269.065 244.298 268.211Z" fill="#666666"/>
<path d="M206.397 178.724L208.106 183.974L209.542 183.512L208.303 179.682L210.662 178.904L211.004 179.964C211.066 180.153 211.186 180.318 211.347 180.435C211.508 180.552 211.702 180.615 211.902 180.614C211.998 180.63 212.096 180.63 212.192 180.614C212.429 180.535 212.626 180.367 212.74 180.144C212.853 179.922 212.875 179.664 212.799 179.425L212.449 178.357L215.175 177.451L216.492 181.101L217.911 180.588L216.09 175.553L215.389 175.792L211.97 176.929L211.671 175.98C211.585 175.748 211.415 175.558 211.195 175.447C210.974 175.335 210.72 175.312 210.483 175.382C210.366 175.418 210.258 175.478 210.164 175.557C210.071 175.636 209.994 175.733 209.938 175.842C209.883 175.951 209.849 176.07 209.84 176.192C209.831 176.314 209.846 176.437 209.884 176.553L210.192 177.51L207.106 178.519L206.397 178.724Z" fill="#666666"/>
<path d="M218.444 186.528L211.397 189.035L211.901 190.453L218.948 187.946L218.444 186.528Z" fill="#666666"/>
<path d="M233.348 332.579L228.741 334.699L229.382 336.092L232.622 334.631L233.476 336.597L232.622 336.982C232.455 337.054 232.313 337.174 232.213 337.326C232.113 337.477 232.059 337.655 232.057 337.837C232.057 337.96 232.082 338.082 232.13 338.196C232.178 338.31 232.248 338.413 232.337 338.499C232.425 338.585 232.53 338.652 232.645 338.697C232.76 338.742 232.883 338.763 233.006 338.76C233.137 338.765 233.267 338.736 233.382 338.674L234.237 338.281C234.588 339.068 234.947 339.846 235.254 340.512L235.058 340.607C234.135 341.06 233.049 341.607 232.194 341.974L232.81 343.351C233.664 342.983 234.784 342.419 235.716 341.966L237.246 341.222L236.93 340.555C236.571 339.777 236.075 338.726 235.613 337.666L236.348 337.341C236.537 337.233 236.683 337.064 236.76 336.861C236.838 336.659 236.844 336.435 236.776 336.229C236.696 335.994 236.526 335.799 236.304 335.687C236.082 335.575 235.825 335.555 235.588 335.631L234.827 335.973L233.596 333.263L233.348 332.579Z" fill="#666666"/>
<path d="M248.085 258.199L241.204 261.542L241.836 262.919L248.674 259.584L248.085 258.199Z" fill="#666666"/>
<path d="M243.221 247.478L236.306 250.898L236.913 252.249L243.853 248.906L243.221 247.478Z" fill="#666666"/>
<path d="M194.601 259.55C194.148 261.816 193.66 264.192 193.173 266.39C192.532 266.15 189.916 265.21 189.113 264.825C189.651 262.44 190.198 259.824 190.694 257.31C191.053 255.446 191.412 253.625 191.729 251.821C192.583 252.257 194.96 253.181 195.746 253.489C195.43 255.472 195.045 257.481 194.601 259.55Z" fill="black"/>
<path d="M249.615 272.673L248.127 269.382C248.029 269.155 248.025 268.898 248.114 268.668C248.204 268.438 248.381 268.252 248.606 268.151C248.834 268.051 249.092 268.045 249.325 268.133C249.558 268.221 249.748 268.396 249.854 268.621L251.341 271.921C251.443 272.148 251.45 272.406 251.362 272.638C251.274 272.87 251.097 273.058 250.871 273.161C250.744 273.223 250.603 273.252 250.461 273.246C250.279 273.246 250.101 273.191 249.95 273.089C249.8 272.987 249.683 272.842 249.615 272.673Z" fill="#666666"/>
<path d="M288.174 318.96C291.345 321.345 293.576 326.56 291.927 328.766C290.277 330.971 285.003 330.296 281.84 327.911C280.454 327.062 279.45 325.708 279.04 324.135C278.631 322.561 278.847 320.89 279.643 319.473C280.709 318.277 282.204 317.552 283.803 317.456C285.401 317.36 286.973 317.901 288.174 318.96Z" fill="#E5E8EA"/>
<path d="M290.807 324.636C290.38 323.711 289.759 322.889 288.986 322.225C288.314 321.668 287.525 321.267 286.678 321.054C286.377 320.937 286.054 320.886 285.731 320.903C285.408 320.921 285.093 321.007 284.806 321.157C284.629 321.285 284.483 321.452 284.379 321.644C284.304 321.973 284.16 322.283 283.957 322.553C283.754 322.823 283.495 323.046 283.199 323.209C282.895 323.37 282.558 323.459 282.215 323.469C281.871 323.48 281.529 323.411 281.216 323.268C280.961 323.135 280.736 322.952 280.552 322.73C280.369 322.509 280.231 322.253 280.148 321.977C279.971 321.39 280.026 320.756 280.302 320.208C280.557 319.701 280.947 319.275 281.43 318.977C281.994 318.608 282.634 318.371 283.302 318.284C283.961 318.181 284.632 318.199 285.285 318.335C285.927 318.491 286.541 318.745 287.106 319.088C287.641 319.394 288.145 319.752 288.61 320.156C289.183 320.679 289.686 321.274 290.106 321.926C290.651 322.682 291.085 323.511 291.397 324.388C291.687 325.123 291.832 325.907 291.824 326.697C291.809 327.168 291.737 327.636 291.61 328.09C291.592 326.895 291.318 325.717 290.807 324.636Z" fill="white"/>
</g>
</g>
<defs>
<clipPath id="clip0_437_229">
<rect width="342" height="342" fill="white" transform="translate(0 31)"/>
</clipPath>
</defs>
</svg>
