<svg width="26" height="26" viewBox="0 0 26 26" fill="none" xmlns="http://www.w3.org/2000/svg">
<rect width="26" height="26" fill="#EAECF0"/>
<g id="MacBook Air">
<rect width="1280" height="2414" transform="translate(-144 -143)" fill="white"/>
<g id="Frame 43">
<path d="M-32 -22C-32 -27.5228 -27.5228 -32 -22 -32H495V58H-32V-22Z" fill="#F2F4F7"/>
<g id="calendar-color-icon 1" clip-path="url(#clip0_0_1)">
<path id="Vector" fill-rule="evenodd" clip-rule="evenodd" d="M2.4375 1.43323H23.5625C24.2081 1.43605 24.8265 1.69776 25.283 2.16137C25.7395 2.62498 25.9972 3.25296 26 3.9086V9.65653H0V3.9086C0.00223069 3.25279 0.259754 2.62448 0.716392 2.16075C1.17303 1.69702 1.79172 1.43549 2.4375 1.43323ZM7.68278 3.52827C8.07239 3.52827 8.45325 3.6456 8.77719 3.86541C9.10114 4.08523 9.35362 4.39767 9.50272 4.76321C9.65182 5.12875 9.69083 5.53098 9.61482 5.91904C9.53881 6.3071 9.3512 6.66355 9.0757 6.94333C8.80021 7.2231 8.44921 7.41363 8.06709 7.49082C7.68497 7.56801 7.28889 7.52839 6.92894 7.37698C6.56899 7.22557 6.26133 6.96916 6.04488 6.64018C5.82842 6.3112 5.71289 5.92443 5.71289 5.52876C5.71289 4.9982 5.92043 4.48937 6.28986 4.1142C6.65928 3.73903 7.16033 3.52827 7.68278 3.52827ZM18.2178 3.52827C18.6074 3.52827 18.9882 3.6456 19.3122 3.86541C19.6361 4.08523 19.8886 4.39767 20.0377 4.76321C20.1868 5.12875 20.2258 5.53098 20.1498 5.91904C20.0738 6.3071 19.8862 6.66355 19.6107 6.94333C19.3352 7.2231 18.9842 7.41363 18.6021 7.49082C18.22 7.56801 17.8239 7.52839 17.4639 7.37698C17.104 7.22557 16.7963 6.96916 16.5799 6.64018C16.3634 6.3112 16.2479 5.92443 16.2479 5.52876C16.2479 4.9982 16.4554 4.48937 16.8249 4.1142C17.1943 3.73903 17.6953 3.52827 18.2178 3.52827Z" fill="#EF4136"/>
<path id="Vector_2" d="M23.5625 26H2.4375C1.79189 25.9972 1.17352 25.7355 0.717003 25.2718C0.260485 24.8082 0.00278403 24.1803 0 23.5246L0 8.59503H26V23.5203C25.9989 24.1769 25.7419 24.8063 25.2851 25.2709C24.8283 25.7356 24.209 25.9977 23.5625 26Z" fill="#808080"/>
<path id="Vector_3" fill-rule="evenodd" clip-rule="evenodd" d="M2.69775 25.2071H23.3022C23.81 25.2048 24.2963 24.999 24.6553 24.6344C25.0143 24.2698 25.217 23.7759 25.2192 23.2603V8.59503H0.780762V23.256C0.782435 23.7718 0.984941 24.266 1.34408 24.6307C1.70323 24.9954 2.18985 25.2011 2.69775 25.2028V25.2071Z" fill="white"/>
<path id="Vector_4" fill-rule="evenodd" clip-rule="evenodd" d="M18.2178 3.14365C18.7617 3.14306 19.289 3.33401 19.7097 3.68397C20.1305 4.03393 20.4188 4.52124 20.5254 5.06286C20.6321 5.60448 20.5505 6.16689 20.2946 6.65426C20.0386 7.14163 19.6242 7.5238 19.1219 7.73563C18.6196 7.94747 18.0605 7.97588 17.5399 7.816C17.0193 7.65613 16.5694 7.31788 16.2668 6.85888C15.9643 6.39988 15.8278 5.84854 15.8807 5.29882C15.9336 4.7491 16.1725 4.235 16.5568 3.84414L16.5801 3.82266C17.0175 3.38744 17.6054 3.14367 18.2178 3.14365ZM18.2178 3.52828C18.6074 3.52828 18.9883 3.6456 19.3122 3.86542C19.6362 4.08524 19.8886 4.39767 20.0377 4.76321C20.1868 5.12876 20.2258 5.53099 20.1498 5.91905C20.0738 6.30711 19.8862 6.66356 19.6107 6.94334C19.3352 7.22311 18.9842 7.41364 18.6021 7.49083C18.22 7.56802 17.8239 7.5284 17.464 7.37699C17.104 7.22558 16.7963 6.96917 16.5799 6.64019C16.3634 6.31121 16.2479 5.92443 16.2479 5.52877C16.2479 4.99821 16.4555 4.48937 16.8249 4.11421C17.1943 3.73904 17.6954 3.52828 18.2178 3.52828Z" fill="#C72B20"/>
<path id="Vector_5" fill-rule="evenodd" clip-rule="evenodd" d="M7.68277 3.14365C8.22665 3.14306 8.75392 3.33401 9.17471 3.68397C9.5955 4.03393 9.88377 4.52124 9.99041 5.06286C10.097 5.60448 10.0154 6.16689 9.75952 6.65426C9.50359 7.14163 9.08916 7.5238 8.58687 7.73563C8.08457 7.94747 7.52548 7.97588 7.00487 7.816C6.48426 7.65613 6.03435 7.31788 5.7318 6.85888C5.42926 6.39988 5.2928 5.84854 5.34567 5.29882C5.39855 4.7491 5.6375 4.235 6.02179 3.84414L6.04507 3.82266C6.48272 3.38783 7.0705 3.14413 7.68277 3.14365ZM7.68277 3.52828C8.07237 3.52828 8.45323 3.6456 8.77718 3.86542C9.10112 4.08524 9.35361 4.39767 9.50271 4.76321C9.6518 5.12876 9.69081 5.53099 9.6148 5.91905C9.5388 6.30711 9.35118 6.66356 9.07569 6.94334C8.80019 7.22311 8.44919 7.41364 8.06707 7.49083C7.68495 7.56802 7.28887 7.5284 6.92892 7.37699C6.56897 7.22558 6.26132 6.96917 6.04486 6.64019C5.82841 6.31121 5.71288 5.92443 5.71288 5.52877C5.71288 4.99821 5.92042 4.48937 6.28984 4.11421C6.65927 3.73904 7.16032 3.52828 7.68277 3.52828Z" fill="#C72B20"/>
<path id="Vector_6" d="M17.0413 0.979835C17.0413 0.429752 17.5618 0 18.2178 0C18.8737 0 19.3942 0.429752 19.3942 0.979835V5.53736C19.3942 6.07669 18.8694 6.51719 18.2178 6.51719C17.5661 6.51719 17.0413 6.08744 17.0413 5.53736V0.979835Z" fill="#1A1A1A"/>
<path id="Vector_7" d="M6.50635 0.979835C6.50635 0.429752 7.0332 0 7.68278 0C8.33236 0 8.85921 0.429752 8.85921 0.979835V5.53736C8.85921 6.07669 8.33447 6.51719 7.68278 6.51719C7.03109 6.51719 6.50635 6.08744 6.50635 5.53736V0.979835Z" fill="#1A1A1A"/>
<path id="Vector_8" fill-rule="evenodd" clip-rule="evenodd" d="M4.65497 18.3977H7.61721C7.71766 18.3977 7.81399 18.4382 7.88502 18.5103C7.95605 18.5825 7.99595 18.6803 7.99595 18.7823V21.2964C7.9954 21.3982 7.95531 21.4957 7.88441 21.5677C7.8135 21.6397 7.71749 21.6804 7.61721 21.681H4.65497C4.55432 21.681 4.45777 21.6405 4.38641 21.5685C4.31504 21.4964 4.27467 21.3986 4.27411 21.2964V18.7823C4.27467 18.6801 4.31504 18.5823 4.38641 18.5102C4.45777 18.4381 4.55432 18.3977 4.65497 18.3977Z" fill="#1A1A1A"/>
<path id="Vector_9" fill-rule="evenodd" clip-rule="evenodd" d="M11.5485 18.3977H14.5234C14.6239 18.3977 14.7202 18.4382 14.7912 18.5103C14.8623 18.5825 14.9022 18.6803 14.9022 18.7823V21.2964C14.9016 21.3982 14.8615 21.4957 14.7906 21.5677C14.7197 21.6397 14.6237 21.6804 14.5234 21.681H11.5485C11.4482 21.6804 11.3522 21.6397 11.2813 21.5677C11.2104 21.4957 11.1703 21.3982 11.1697 21.2964V18.7823C11.1703 18.6805 11.2104 18.583 11.2813 18.511C11.3522 18.439 11.4482 18.3983 11.5485 18.3977Z" fill="#1A1A1A"/>
<path id="Vector_10" fill-rule="evenodd" clip-rule="evenodd" d="M18.3807 18.3977H21.3556C21.4559 18.3983 21.5519 18.439 21.6228 18.511C21.6937 18.583 21.7338 18.6805 21.7344 18.7823V21.2964C21.7338 21.3982 21.6937 21.4957 21.6228 21.5677C21.5519 21.6397 21.4559 21.6804 21.3556 21.681H18.3807C18.2804 21.6804 18.1844 21.6397 18.1135 21.5677C18.0426 21.4957 18.0025 21.3982 18.002 21.2964V18.7823C18.002 18.6803 18.0419 18.5825 18.1129 18.5103C18.1839 18.4382 18.2802 18.3977 18.3807 18.3977Z" fill="#1A1A1A"/>
<path id="Vector_11" fill-rule="evenodd" clip-rule="evenodd" d="M4.65497 12.1233H7.61721C7.71785 12.1239 7.81418 12.1649 7.88515 12.2373C7.95612 12.3098 7.99595 12.4079 7.99595 12.5101V15.022C7.9954 15.1238 7.95531 15.2213 7.88441 15.2933C7.8135 15.3653 7.71749 15.406 7.61721 15.4066H4.65497C4.55432 15.4066 4.45777 15.3661 4.38641 15.2941C4.31504 15.222 4.27467 15.1242 4.27411 15.022V12.5101C4.27466 12.4077 4.31497 12.3096 4.38627 12.2372C4.45758 12.1648 4.55413 12.1239 4.65497 12.1233Z" fill="#1A1A1A"/>
<path id="Vector_12" fill-rule="evenodd" clip-rule="evenodd" d="M11.5485 12.1233H14.5234C14.6241 12.1239 14.7204 12.1649 14.7914 12.2373C14.8623 12.3098 14.9022 12.4079 14.9022 12.5101V15.022C14.9016 15.1238 14.8615 15.2213 14.7906 15.2933C14.7197 15.3653 14.6237 15.406 14.5234 15.4066H11.5485C11.448 15.4066 11.3517 15.3661 11.2807 15.2939C11.2096 15.2218 11.1697 15.124 11.1697 15.022V12.5101C11.1697 12.4079 11.2096 12.3098 11.2805 12.2373C11.3515 12.1649 11.4478 12.1239 11.5485 12.1233Z" fill="#1A1A1A"/>
<path id="Vector_13" fill-rule="evenodd" clip-rule="evenodd" d="M18.3807 12.1233H21.3556C21.4563 12.1239 21.5526 12.1649 21.6236 12.2373C21.6945 12.3098 21.7344 12.4079 21.7344 12.5101V15.022C21.7338 15.1238 21.6937 15.2213 21.6228 15.2933C21.5519 15.3653 21.4559 15.406 21.3556 15.4066H18.3807C18.2802 15.4066 18.1839 15.3661 18.1129 15.2939C18.0419 15.2218 18.002 15.124 18.002 15.022V12.5101C18.002 12.4079 18.0418 12.3098 18.1128 12.2373C18.1837 12.1649 18.2801 12.1239 18.3807 12.1233Z" fill="#1A1A1A"/>
</g>
</g>
</g>
<defs>
<clipPath id="clip0_0_1">
<rect width="26" height="26" fill="white"/>
</clipPath>
</defs>
</svg>
