<svg width="65" height="65" viewBox="0 0 65 65" fill="none" xmlns="http://www.w3.org/2000/svg">
<g id="Group 1973" clip-path="url(#clip0_479_13473)">
<g id="Group 1973_2">
<g id="Bay 1">
<g id="Group 1971">
<path id="Path 5515" d="M0.507812 19.569V64.4712L12.027 64.492C16.2314 56.3102 18.8584 52.2577 19.5128 51.2338C21.4384 48.0392 23.5674 44.9718 25.8867 42.0505C26.2497 41.5614 26.7089 41.1517 27.236 40.8466C27.7632 40.5414 28.3472 40.3473 28.9521 40.2762C29.676 40.2663 30.3962 40.3805 31.0815 40.6138C32.6769 42.5415 34.7979 43.9644 37.1867 44.7095C37.8126 44.8835 38.4514 45.0076 39.0969 45.0807C39.5369 45.4374 40.1448 45.9494 40.8424 46.5893C42.5626 48.2057 44.1307 49.9768 45.5268 51.8801C47.2823 54.2403 48.8885 56.7078 50.3361 59.2684L50.3441 59.2892C50.7118 60.0144 51.1288 60.7136 51.592 61.3818C51.9241 61.7519 52.3303 62.048 52.7842 62.2509C53.2382 62.4537 53.7298 62.5588 54.227 62.5593C54.2603 62.7929 54.355 63.0134 54.5015 63.1984C54.6479 63.3833 54.8408 63.5261 55.0605 63.6121L56.5004 64.1832C56.9763 64.3717 57.4991 64.4075 57.9963 64.2856L58.6842 64.116L59.6442 63.8808C59.9273 63.8115 60.192 63.6815 60.42 63.4997C60.6479 63.3179 60.8335 63.0888 60.9641 62.8281L62.9559 58.7884C63.2887 58.1261 64.0055 56.8686 64.0055 56.8686C64.2492 56.5379 64.4089 56.1531 64.4711 55.747C64.5332 55.341 64.4959 54.9259 64.3622 54.5375C64.263 53.9536 63.6263 51.1554 63.3543 50.0003C61.5006 42.0735 59.0949 34.286 56.1548 26.6948V26.6836H56.1644C59.0442 23.6791 58.3291 15.8045 51.3648 12.3551C53.237 9.10711 54.1216 5.3837 53.9102 1.64071C51.8704 2.89982 49.7681 6.55395 48.4802 8.81938C49.4175 6.15144 49.8082 3.32211 49.6289 0.5C47.3782 1.86889 45.4208 3.66977 43.8694 5.7988C43.0244 6.98728 42.3089 8.26271 41.7351 9.60332L41.6567 9.58572C38.2897 8.84151 34.8286 8.61652 31.3935 8.91857C22.1814 9.47053 11.7598 13.9758 9.83991 14.8077C6.63065 16.1937 3.51356 17.7841 0.507812 19.569Z" fill="#93594C"/>
<path id="Path 5517" d="M52.2304 25.1222C50.533 24.7481 48.7973 24.5763 47.0596 24.6102C47.5587 30.9905 52.6688 30.2194 54.5198 28.7235C53.6495 27.218 52.8399 25.9909 52.2304 25.1222Z" fill="#3A1919"/>
<path id="Path 5518" d="M48.2598 24.6374C48.2982 29.277 52.4803 29.0451 53.8689 27.6308C53.2498 26.6196 52.685 25.7733 52.2307 25.1222C50.9301 24.8083 49.5976 24.6457 48.2598 24.6374Z" fill="#241711"/>
<path id="Ellipse 572" d="M50.6401 26.9412C50.9308 26.9412 51.1665 26.7056 51.1665 26.4149C51.1665 26.1242 50.9308 25.8885 50.6401 25.8885C50.3494 25.8885 50.1138 26.1242 50.1138 26.4149C50.1138 26.7056 50.3494 26.9412 50.6401 26.9412Z" fill="#FCFBFA"/>
<path id="Path 5519" d="M51.2417 54.1776C52.5791 56.8382 53.5824 59.654 54.2287 62.5609C54.262 62.7945 54.3567 63.015 54.5032 63.2C54.6496 63.3849 54.8425 63.5277 55.0622 63.6137L56.5021 64.1848C56.978 64.3733 57.5008 64.4091 57.998 64.2872L59.6443 63.8824C59.9274 63.8131 60.1921 63.6831 60.42 63.5013C60.6479 63.3195 60.8336 63.0904 60.9642 62.8297L62.9752 58.7756C63.308 58.1133 64.0247 56.8558 64.0247 56.8558C64.2423 56.4835 64.3923 56.0756 64.4679 55.6511C64.4904 55.2756 64.4614 54.8987 64.3815 54.5311C64.2711 53.9488 64.1319 53.3712 63.9719 52.6561C63.8296 51.9857 63.652 51.1522 63.3704 49.9971C60.7722 52.2513 60.065 56.3742 59.4699 61.5402C58.4848 59.2525 57.3629 57.0263 56.1101 54.8735C54.84 53.9117 53.3985 53.2005 51.8624 52.7777C51.7761 52.9489 51.5105 53.5008 51.2417 54.1776Z" fill="#84463C"/>
<path id="Path 5520" d="M57.9899 64.2872C57.2201 61.3463 56.0572 58.5227 54.5325 55.8926C54.5021 55.8484 54.4858 55.796 54.4858 55.7423C54.4858 55.6886 54.5021 55.6361 54.5325 55.5919C54.5733 55.5351 54.6349 55.4968 54.7039 55.4854C54.7729 55.474 54.8436 55.4904 54.9005 55.5311C55.0057 55.603 55.1067 55.681 55.2029 55.7647C55.2559 55.8096 55.3003 55.8638 55.3341 55.9246C56.7667 58.5142 57.8875 61.2644 58.673 64.1176L57.9899 64.2872Z" fill="#663831"/>
<path id="Path 5521" d="M40.6091 42.924C38.4263 42.7977 36.328 42.0358 34.5727 40.7322C33.0278 39.5776 31.7705 38.0816 30.8991 36.361C30.0277 34.6403 29.5657 32.7416 29.5491 30.8129C29.4054 29.6325 29.392 28.4398 29.5091 27.2564C29.2995 27.7364 26.6549 34.0975 30.2466 39.5371C31.9208 41.9804 34.3566 43.8008 37.1741 44.7143C37.8 44.8883 38.4388 45.0124 39.0844 45.0855C41.2241 45.3697 43.4008 45.0667 45.3815 44.2087C47.2603 43.3651 48.8792 42.0344 50.0707 40.3546C47.3054 42.2721 43.9644 43.1794 40.6091 42.924Z" fill="#93594C"/>
<path id="Path 5522" d="M63.3754 49.9971C61.9422 44.3302 59.8844 38.84 57.2399 33.6271C56.3552 31.8912 55.4432 30.2578 54.5201 28.7235L53.8481 31.9136C57.5568 38.4014 59.683 45.6723 60.0541 53.1361C60.1167 54.629 60.1034 56.1241 60.0141 57.6157C60.5868 54.2944 61.4748 51.645 63.3754 49.9971Z" fill="#A56D62"/>
<path id="Path 5523" d="M52.2275 25.1205C52.8371 25.9957 53.6466 27.218 54.517 28.7235C55.4433 30.2578 56.3552 31.8912 57.2368 33.6271C59.8803 38.8401 61.937 44.3303 63.3691 49.9971C61.5154 42.0703 59.1097 34.2828 56.1696 26.6916C55.6033 26.5108 54.8641 26.2549 54.0178 25.9093C53.581 25.7301 52.9651 25.4757 52.2275 25.1205Z" fill="#BC8A86"/>
<g id="Group 1961">
<g id="Group 1960">
<path id="Path 5524" d="M60.0539 53.1361C59.6824 45.671 57.555 38.3988 53.8447 31.9104C53.6848 32.6304 53.464 33.3855 53.2048 34.1695C52.4482 36.3891 51.38 38.49 50.0322 40.409L50.0786 40.3466C50.0594 40.892 50.0738 41.4381 50.1218 41.9817C50.2384 43.021 50.4598 44.0459 50.7826 45.0407C52.2001 48.4972 53.9874 51.7903 56.1134 54.8623C57.3784 57.0095 58.5007 59.2376 59.4731 61.5322C59.6331 60.1451 59.7931 58.8332 60.0123 57.6125C60.102 56.122 60.1159 54.628 60.0539 53.1361Z" fill="#93594C"/>
</g>
</g>
<g id="Group 1964">
<g id="Group 1963">
<g id="Group 1962">
<path id="Path 5525" d="M29.5427 30.8113C29.5593 32.74 30.0213 34.6387 30.8927 36.3594C31.7641 38.08 33.0214 39.576 34.5663 40.7306C36.3213 42.0348 38.4197 42.7968 40.6027 42.9224C43.959 43.1817 47.3023 42.2778 50.0708 40.3626C51.3986 38.4583 52.452 36.3768 53.2001 34.1791C53.4673 33.3951 53.6801 32.64 53.8401 31.9201L54.512 28.7299C53.6417 27.2244 52.8322 26.0101 52.2226 25.1286C50.5252 24.7545 48.7895 24.5827 47.0518 24.6166C46.7558 24.0054 44.5096 19.7402 42.7177 16.966C42.5401 17.0668 42.3609 17.1628 42.169 17.254C41.4322 17.6123 40.6643 17.9026 39.8747 18.1211C39.6651 18.1547 39.318 18.2379 38.7884 18.3147H38.7628C38.558 18.3435 38.3244 18.3739 38.0605 18.4043L37.7629 18.4363C35.4479 19.2538 31.9313 21.2489 29.4947 27.2532C29.3803 28.4374 29.3964 29.6306 29.5427 30.8113Z" fill="#AF7972"/>
</g>
</g>
</g>
<path id="Path 5526" d="M45.6245 44.0983C47.3109 45.8324 48.8197 47.7307 50.1282 49.7651C50.7953 50.8034 51.3697 51.8178 51.864 52.7777C53.398 53.2018 54.8381 53.9118 56.1085 54.8703C53.9755 51.8026 52.1878 48.5088 50.7777 45.0487C50.455 44.0539 50.2336 43.029 50.117 41.9897C50.069 41.4461 50.0546 40.9 50.0738 40.3546C49.7213 40.8545 49.328 41.3244 48.8979 41.7593C47.9533 42.726 46.8451 43.5178 45.6245 44.0983Z" fill="#663831"/>
<path id="Path 5527" d="M50.333 59.2908C50.7007 60.016 51.1177 60.7152 51.5809 61.3834C51.9129 61.7535 52.3192 62.0496 52.7731 62.2524C53.2271 62.4553 53.7186 62.5604 54.2159 62.5609C53.5696 59.654 52.5663 56.8382 51.2289 54.1776C50.8557 55.0193 50.5461 55.8878 50.3026 56.7758C50.2834 56.8686 50.261 56.963 50.245 57.0542C50.1467 57.6058 50.1257 58.1685 50.1826 58.726C50.2174 58.918 50.2677 59.1069 50.333 59.2908Z" fill="#663831"/>
<g id="Group 1967">
<g id="Group 1966">
<g id="Group 1965">
<path id="Path 5528" d="M39.0859 45.0855C39.5275 45.4422 40.1355 45.9542 40.833 46.5941C42.5532 48.2106 44.1213 49.9816 45.5175 51.885C47.2728 54.2435 48.879 56.7095 50.3267 59.2684C50.2643 59.0902 50.2167 58.9072 50.1843 58.7212C50.1269 58.1638 50.1473 57.6011 50.2451 57.0494C50.6386 55.573 51.1806 54.1402 51.8626 52.7729C51.3682 51.813 50.7939 50.7986 50.1267 49.7603C48.8182 47.7259 47.3095 45.8276 45.6231 44.0935L45.3815 44.2039C43.4018 45.0635 41.2256 45.3683 39.0859 45.0855Z" fill="#4C2E22"/>
</g>
</g>
</g>
<path id="Path 5529" d="M63.9734 52.6705C64.1334 53.3856 64.2726 53.9632 64.383 54.5455C64.4629 54.9131 64.4919 55.2899 64.4694 55.6654C64.3938 56.09 64.2438 56.4978 64.0262 56.8702C64.0262 56.8702 63.3095 58.1229 62.9767 58.79C62.3216 57.8383 62.0596 56.6703 62.2453 55.5299C62.431 54.3896 63.0502 53.3651 63.9734 52.6705Z" fill="#663831"/>
<path id="Path 5530" d="M64.3832 54.5535V54.5311C64.2728 53.9488 64.1336 53.3712 63.9736 52.6561C63.3158 53.1606 62.809 53.836 62.5086 54.6087C62.2081 55.3814 62.1255 56.2217 62.2698 57.0382C62.3769 56.4765 62.628 55.9523 62.9985 55.5168C63.3689 55.0813 63.8461 54.7494 64.3832 54.5535Z" fill="#4C2E22"/>
<path id="Path 5531" d="M43.9912 16.086C45.4111 19.3423 47.682 22.1558 50.5651 24.231C51.6719 24.8779 52.826 25.44 54.0177 25.9125C54.864 26.2581 55.6031 26.514 56.1695 26.6948C52.0594 18.9562 48.2901 15.6557 45.6599 14.3294C45.1741 14.978 44.6141 15.5676 43.9912 16.086Z" fill="#A56D62"/>
<path id="Path 5532" d="M52.2304 25.1222C50.533 24.7481 48.7973 24.5763 47.0596 24.6102C47.5587 30.9905 52.6688 30.2194 54.5198 28.7235C53.6495 27.218 52.8399 25.9909 52.2304 25.1222Z" fill="#663831"/>
<path id="Path 5533" d="M48.2598 24.6374C48.2982 29.277 52.4803 29.0451 53.8689 27.6308C53.2498 26.6196 52.685 25.7733 52.2307 25.1222C50.9301 24.8083 49.5976 24.6457 48.2598 24.6374Z" fill="black"/>
<path id="Ellipse 573" d="M50.6401 26.9412C50.9308 26.9412 51.1665 26.7056 51.1665 26.4149C51.1665 26.1242 50.9308 25.8885 50.6401 25.8885C50.3494 25.8885 50.1138 26.1242 50.1138 26.4149C50.1138 26.7056 50.3494 26.9412 50.6401 26.9412Z" fill="#FCFBFA"/>
<path id="Path 5534" d="M42.7271 16.958C44.5157 19.7338 46.7651 23.9974 47.0611 24.6086C48.7989 24.5747 50.5346 24.7465 52.2319 25.1206C51.7232 24.8678 51.1616 24.5798 50.5649 24.2278C47.6864 22.1504 45.4165 19.3402 43.991 16.0892C43.596 16.4154 43.1731 16.7061 42.7271 16.958Z" fill="#84463C"/>
<path id="Path 5535" d="M10.4897 64.4984H12.0208C16.2253 56.3166 18.8523 52.2641 19.5067 51.2402C21.4322 48.0456 23.5613 44.9782 25.8806 42.0569C26.2443 41.567 26.7045 41.1569 27.2328 40.8518C27.7611 40.5466 28.3463 40.3529 28.9524 40.2826C29.673 40.2701 30.3904 40.3832 31.0722 40.617C30.6018 40.0474 30.3155 39.6347 30.2515 39.5371C29.0766 37.7424 28.4276 35.6547 28.378 33.5103C26.0262 37.8204 23.0888 40.9082 21.2873 43.9735C17.1188 50.5002 13.5069 57.366 10.4897 64.4984Z" fill="#663831"/>
<path id="Path 5536" d="M10.0498 64.5H10.4786C10.9985 63.1977 11.5985 61.8618 12.2528 60.5115C14.876 54.7998 17.8943 49.278 21.2858 43.9863C23.0888 40.9178 26.031 37.8332 28.3828 33.5135C28.3233 31.3741 28.7045 29.2454 29.5027 27.2596C31.9394 21.2552 35.4559 19.2602 37.7709 18.4426C37.7068 18.447 37.6432 18.4283 37.5917 18.3899C37.5643 18.369 37.5412 18.3429 37.5239 18.3131C37.5066 18.2833 37.4953 18.2503 37.4907 18.2161C37.486 18.182 37.4882 18.1472 37.4971 18.1139C37.5059 18.0806 37.5212 18.0493 37.5421 18.0219C37.8253 17.6539 38.0733 17.3131 38.3053 16.9788C25.4054 18.8778 12.9056 43.1896 10.0498 64.5Z" fill="#A56D62"/>
<path id="Path 5537" d="M45.7909 14.1246C45.7429 14.1918 45.7029 14.259 45.6533 14.3262C48.2835 15.6525 52.0528 18.953 56.1629 26.6916C53.3647 19.4922 48.7315 14.019 46.7524 12.6127C46.6084 12.8815 46.4437 13.1518 46.2725 13.4222C46.2453 13.467 46.2149 13.5102 46.1877 13.5534C46.0629 13.7454 45.9306 13.9358 45.7909 14.1246Z" fill="#BC8A86"/>
<path id="Path 5538" d="M0.503418 64.4776L10.0547 64.4952C12.9057 43.1832 25.4136 18.865 38.315 16.9788C39.2218 15.6688 39.9608 14.2504 40.5148 12.7567C21.5802 9.9393 3.3544 31.7665 0.503418 36.7101V64.4776Z" fill="#93594C"/>
<path id="Path 5539" d="M0.503418 36.7101C3.3544 31.7665 21.5802 9.93929 40.5148 12.7455C40.814 11.9695 41.0828 11.2112 41.3932 10.4113C40.3995 10.1774 39.3907 10.0133 38.3742 9.92009C37.1778 9.81133 35.9749 9.79528 34.776 9.8721C27.0161 10.5017 19.45 12.6202 12.4913 16.1116C9.38275 17.5515 0.852192 22.4616 0.503418 22.6711V36.7101Z" fill="#A56D62"/>
<path id="Path 5540" d="M53.9102 1.64072C53.639 2.76631 53.2981 3.87396 52.8895 4.95727C52.8191 5.14445 52.7295 5.35724 52.6271 5.57962C52.2287 6.57207 51.7741 7.54104 51.2656 8.4818C51.072 8.83538 50.1233 10.4193 49.3857 11.5584C50.0661 11.7737 50.7288 12.0411 51.368 12.3583C53.2397 9.10905 54.1232 5.38446 53.9102 1.64072Z" fill="black"/>
<path id="Path 5541" d="M0.5 22.6775C0.848774 22.4616 9.37933 17.5435 12.4879 16.118C19.4486 12.6305 27.0156 10.5154 34.7758 9.88809C35.9746 9.81128 37.1776 9.82733 38.374 9.93609C39.3905 10.0293 40.3993 10.1934 41.3929 10.4273C41.4985 10.1585 41.6105 9.88489 41.7305 9.60971C36.8646 8.53622 31.8292 8.48175 26.9412 9.44973C17.6148 11.2814 8.6722 14.701 0.503198 19.5594L0.5 22.6775Z" fill="black"/>
<g id="Group 1970">
<g id="Group 1969">
<g id="Group 1968">
<path id="Path 5542" d="M52.8863 4.95727C53.296 3.87403 53.638 2.76638 53.9102 1.64072C51.8704 2.89982 49.7682 6.55395 48.4818 8.81778C48.4147 9.00176 48.1139 9.77771 47.8179 10.4417C47.6451 10.832 47.6211 10.888 47.5283 11.0816C48.1589 11.2031 48.7814 11.3634 49.3922 11.5616C50.0609 10.4929 50.9713 9.02576 51.2656 8.4818C51.8849 7.34493 52.4264 6.16738 52.8863 4.95727Z" fill="#4C2E22"/>
</g>
</g>
</g>
<path id="Path 5543" d="M46.7588 12.6127C48.725 14.011 53.3183 19.4266 56.1021 26.5556L56.1645 26.6868C59.0443 23.6823 58.3291 15.8076 51.3648 12.3583C50.1497 11.7604 48.8575 11.334 47.5251 11.0912C47.3331 11.4784 46.7988 12.5407 46.7588 12.6127Z" fill="black"/>
</g>
</g>
<g id="Bay">
<g id="Group 1972">
<path id="Path 5544" d="M39.702 14.6173C39.3605 15.3055 38.9758 15.9714 38.55 16.6108C38.2557 17.0476 37.9277 17.5083 37.5437 18.0075C37.5051 18.0583 37.4863 18.1214 37.4909 18.1851C37.4931 18.2204 37.5023 18.2549 37.518 18.2867C37.5336 18.3185 37.5553 18.3468 37.5819 18.3702C37.6085 18.3935 37.6395 18.4113 37.673 18.4227C37.7065 18.434 37.742 18.4386 37.7773 18.4363C38.4866 18.3688 39.1917 18.262 39.8891 18.1163C40.9276 16.9152 41.7896 15.5722 42.449 14.1278C42.7897 13.4062 42.7897 13.275 44.4216 8.78258C45.6322 5.72547 47.3959 2.9177 49.6244 0.5C47.3749 1.86715 45.4176 3.66516 43.8648 5.7908C41.3194 9.39853 41.1258 11.7184 39.702 14.6173Z" fill="#4C2E22"/>
<path id="Path 5545" d="M39.8828 18.1147C40.6731 17.8977 41.4412 17.6069 42.177 17.2459C44.161 16.2224 45.7684 14.5949 46.7671 12.5983C46.7799 12.5743 47.4998 11.1488 47.5798 10.9744C47.7254 10.6544 47.8582 10.3489 47.9814 10.0657C48.1638 9.64545 48.3275 9.23001 48.4726 8.81938C49.4131 6.15216 49.8055 3.3225 49.6261 0.5C47.3925 2.91412 45.6277 5.72279 44.4217 8.78258C42.7898 13.275 42.7898 13.4062 42.449 14.1278C41.7883 15.5724 40.9242 16.915 39.8828 18.1147Z" fill="black"/>
</g>
</g>
</g>
</g>
<defs>
<clipPath id="clip0_479_13473">
<rect width="64" height="64" fill="white" transform="translate(0.5 0.5)"/>
</clipPath>
</defs>
</svg>
