<svg width="26" height="26" viewBox="0 0 26 26" fill="none" xmlns="http://www.w3.org/2000/svg">
<rect x="1" y="1" width="24" height="24" rx="12" fill="#D1FADF"/>
<g clip-path="url(#clip0_42_534)">
<path d="M18 12.54V13C17.9994 14.0782 17.6503 15.1273 17.0047 15.9909C16.3591 16.8545 15.4516 17.4862 14.4177 17.7919C13.3837 18.0977 12.2786 18.0609 11.2672 17.6873C10.2558 17.3136 9.39233 16.623 8.80548 15.7185C8.21863 14.814 7.9399 13.744 8.01084 12.6682C8.08178 11.5923 8.4986 10.5682 9.19914 9.74853C9.89968 8.9289 10.8464 8.35768 11.8981 8.12007C12.9498 7.88245 14.0501 7.99116 15.035 8.42999M18 8.99999L13 14.005L11.5 12.505" stroke="#039855" stroke-linecap="round" stroke-linejoin="round"/>
</g>
<rect x="1" y="1" width="24" height="24" rx="12" stroke="#ECFDF3" stroke-width="2"/>
<defs>
<clipPath id="clip0_42_534">
<rect width="12" height="12" fill="white" transform="translate(7 7)"/>
</clipPath>
</defs>
</svg>
